<svg xmlns="http://www.w3.org/2000/svg" xmlns:xlink="http://www.w3.org/1999/xlink" viewBox="0 0 730 174.418">
  <defs>
    <style>
      .cls-1 {
        fill: rgba(0,0,0,0);
      }

      .cls-2 {
        clip-path: url(#clip-path);
      }

      .cls-3 {
        clip-path: url(#clip-path-2);
      }

      .cls-4 {
        fill: #00ffad;
      }

      .cls-5 {
        clip-path: url(#clip-path-3);
      }

      .cls-6 {
        clip-path: url(#clip-path-4);
      }

      .cls-7 {
        fill: #00ffae;
        font-size: 26px;
        font-family: SourceSansPro-Italic, Source Sans Pro;
        font-style: italic;
      }
    </style>
    <clipPath id="clip-path">
      <path id="Path_87" data-name="Path 87" class="cls-1" d="M-.029,6.91,2.92,6.849l.114-5.721A6.425,6.425,0,0,1,6.558-.028,6.3,6.3,0,0,1,12.875,6.6a6.948,6.948,0,0,1-6.587,6.9A6.3,6.3,0,0,1-.029,6.91ZM7.6,11.825a3.636,3.636,0,0,0,3.447-3.61,3.3,3.3,0,0,0-3.306-3.47,3.636,3.636,0,0,0-3.447,3.61A3.3,3.3,0,0,0,7.6,11.825Z" transform="translate(0 0)"/>
    </clipPath>
    <clipPath id="clip-path-2">
      <path id="Path_86" data-name="Path 86" class="cls-1" d="M-.36,83.228l71.548-1.485L72.822-.318,1.273,1.168Z" transform="translate(0 0)"/>
    </clipPath>
    <clipPath id="clip-path-3">
      <path id="Path_90" data-name="Path 90" class="cls-1" d="M.129,6.363q0-.056,0-.111C.187,3.427,1.165.993,2.5-.011L2.373,6.316l-.2,10.019-2.244.047.2-10.019Z" transform="translate(0 0)"/>
    </clipPath>
    <clipPath id="clip-path-4">
      <path id="Path_89" data-name="Path 89" class="cls-1" d="M-.541,125.088,71.008,123.6,73.474-.321,1.926,1.165Z" transform="translate(0 0)"/>
    </clipPath>
  </defs>
  <g id="quote_Einstein" transform="translate(33.166 -405.603)">
    <g id="Group_120" data-name="Group 120" transform="translate(-33.636 398.471)">
      <g id="Group_114" data-name="Group 114" transform="translate(13.522 0) rotate(30)">
        <g id="Group_110" data-name="Group 110" class="cls-2" transform="matrix(0.788, 0.616, -0.616, 0.788, 8.275, 8.209)">
          <g id="Group_109" data-name="Group 109" class="cls-3" transform="translate(-33.409 -29.223)">
            <path id="Path_85" data-name="Path 85" class="cls-4" d="M-.071,16.439l15.45-.321L15.7-.069.251.252Z" transform="translate(32.017 27.775)"/>
          </g>
        </g>
        <g id="Group_112" data-name="Group 112" class="cls-5" transform="matrix(0.788, 0.616, -0.616, 0.788, 14.541, -0.078)">
          <g id="Group_111" data-name="Group 111" class="cls-6" transform="translate(-33.544 -36.547)">
            <path id="Path_88" data-name="Path 88" class="cls-4" d="M.129,6.363q0-.056,0-.111C.187,3.427,1.165.993,2.5-.011L2.373,6.316l-.2,10.019-2.244.047.2-10.019Z" transform="translate(33.544 36.547)"/>
          </g>
        </g>
      </g>
      <g id="Group_115" data-name="Group 115" transform="translate(33.711 0) rotate(30)">
        <g id="Group_110-2" data-name="Group 110" class="cls-2" transform="matrix(0.788, 0.616, -0.616, 0.788, 8.275, 8.209)">
          <g id="Group_109-2" data-name="Group 109" class="cls-3" transform="translate(-33.409 -29.223)">
            <path id="Path_85-2" data-name="Path 85" class="cls-4" d="M-.071,16.439l15.45-.321L15.7-.069.251.252Z" transform="translate(32.017 27.775)"/>
          </g>
        </g>
        <g id="Group_112-2" data-name="Group 112" class="cls-5" transform="matrix(0.788, 0.616, -0.616, 0.788, 14.541, -0.078)">
          <g id="Group_111-2" data-name="Group 111" class="cls-6" transform="translate(-33.544 -36.547)">
            <path id="Path_88-2" data-name="Path 88" class="cls-4" d="M.129,6.363q0-.056,0-.111C.187,3.427,1.165.993,2.5-.011L2.373,6.316l-.2,10.019-2.244.047.2-10.019Z" transform="translate(33.544 36.547)"/>
          </g>
        </g>
      </g>
    </g>
    <g id="Group_121" data-name="Group 121" transform="translate(696.364 587.154) rotate(180)">
      <g id="Group_114-2" data-name="Group 114" transform="translate(13.522 0) rotate(30)">
        <g id="Group_110-3" data-name="Group 110" class="cls-2" transform="matrix(0.788, 0.616, -0.616, 0.788, 8.275, 8.209)">
          <g id="Group_109-3" data-name="Group 109" class="cls-3" transform="translate(-33.409 -29.223)">
            <path id="Path_85-3" data-name="Path 85" class="cls-4" d="M-.071,16.439l15.45-.321L15.7-.069.251.252Z" transform="translate(32.017 27.775)"/>
          </g>
        </g>
        <g id="Group_112-3" data-name="Group 112" class="cls-5" transform="matrix(0.788, 0.616, -0.616, 0.788, 14.541, -0.078)">
          <g id="Group_111-3" data-name="Group 111" class="cls-6" transform="translate(-33.544 -36.547)">
            <path id="Path_88-3" data-name="Path 88" class="cls-4" d="M.129,6.363q0-.056,0-.111C.187,3.427,1.165.993,2.5-.011L2.373,6.316l-.2,10.019-2.244.047.2-10.019Z" transform="translate(33.544 36.547)"/>
          </g>
        </g>
      </g>
      <g id="Group_115-2" data-name="Group 115" transform="translate(33.711 0) rotate(30)">
        <g id="Group_110-4" data-name="Group 110" class="cls-2" transform="matrix(0.788, 0.616, -0.616, 0.788, 8.275, 8.209)">
          <g id="Group_109-4" data-name="Group 109" class="cls-3" transform="translate(-33.409 -29.223)">
            <path id="Path_85-4" data-name="Path 85" class="cls-4" d="M-.071,16.439l15.45-.321L15.7-.069.251.252Z" transform="translate(32.017 27.775)"/>
          </g>
        </g>
        <g id="Group_112-4" data-name="Group 112" class="cls-5" transform="matrix(0.788, 0.616, -0.616, 0.788, 14.541, -0.078)">
          <g id="Group_111-4" data-name="Group 111" class="cls-6" transform="translate(-33.544 -36.547)">
            <path id="Path_88-4" data-name="Path 88" class="cls-4" d="M.129,6.363q0-.056,0-.111C.187,3.427,1.165.993,2.5-.011L2.373,6.316l-.2,10.019-2.244.047.2-10.019Z" transform="translate(33.544 36.547)"/>
          </g>
        </g>
      </g>
    </g>
    <text id="Aren_t_you_in_awe_when_you_contemplate_the_mysteries_of_eternity_of_life_of_the_marvelous_structure_behind_reality_Albert_Einstein" data-name="Aren’t you in awe when you contemplate the mysteries of eternity, of life, of the marvelous structure behind reality?                         
                                                                                       — Albert Einstein" class="cls-7" transform="translate(-33.166 442.068)"><tspan x="7.121" y="26">Aren’t you in awe when you contemplate the mysteries of eternity, of </tspan><tspan x="122.808" y="59" xml:space="preserve">life, of the marvelous structure behind reality?                         </tspan><tspan x="58.731" y="92" xml:space="preserve">                                                                                       — Albert Einstein</tspan></text>
  </g>
</svg>
