<svg xmlns="http://www.w3.org/2000/svg" viewBox="0 0 374 374"><defs><style>.cls-1{isolation:isolate;}.cls-2{fill:#cf6c65;}.cls-3{fill:#fff;}.cls-16,.cls-4{fill:#424243;}.cls-5{opacity:0.3;}.cls-6{fill:#404041;}.cls-7{fill:#ddb99f;}.cls-8{fill:#d6ae99;}.cls-9{fill:#ce534f;}.cls-10{fill:#cfac98;}.cls-11{fill:#c37e77;}.cls-12{fill:#e2e2e2;}.cls-13{fill:#bababa;}.cls-14{fill:#f0f1f1;}.cls-15{fill:#618247;}.cls-16{opacity:0.22;mix-blend-mode:multiply;}.cls-17{fill:#e8e8e8;}.cls-18{fill:#c27e77;}.cls-19{fill:#5d5d5e;}.cls-20{fill:#4f74a5;}.cls-21{fill:#c9c9c9;}.cls-22{fill:#e9b13d;}.cls-23{fill:#a6a8aa;}.cls-24{fill:#565656;}.cls-25{fill:#898989;}.cls-26{fill:#9ed1e3;}.cls-27{opacity:0.48;}.cls-28{fill:#484849;}</style></defs><title>Asset 4</title><g class="cls-1"><g id="Layer_2" data-name="Layer 2"><g id="Graphic"><rect class="cls-2" width="374" height="374"/><path class="cls-3" d="M199.37,210.31v31.83a49,49,0,0,0,8.6,7V234.83h5.29v75.06h20V210.31Z"/><path class="cls-4" d="M233.29,209.1H199.37v2.42h32.7v97.16h-17.6V234.83a1.21,1.21,0,0,0-1.21-1.21H208a1.21,1.21,0,0,0-1.21,1.21v12a48,48,0,0,1-7.39-6.41v3.44a49.61,49.61,0,0,0,8,6.26,1.21,1.21,0,0,0,1.86-1V236H212v73.85a1.22,1.22,0,0,0,1.22,1.22h20a1.22,1.22,0,0,0,1.21-1.22V210.31A1.21,1.21,0,0,0,233.29,209.1Z"/><path class="cls-3" d="M193.2,210.31s-13.65,68,49.43,99.58L252.86,296s-37-21-39.63-61.21l-.12-24.52Z"/><path class="cls-4" d="M254.05,295.79a1.24,1.24,0,0,0-.59-.8c-.36-.21-36.45-21.14-39-60.16l-.06-12.94a1.21,1.21,0,0,0-1.21-1.21h0A1.21,1.21,0,0,0,212,221.9l.06,13c2.39,36.35,32.72,57.44,39.08,61.47l-8.84,12c-31.42-16.11-42.8-41.62-46.79-60.26a104.75,104.75,0,0,1-1.25-36.57l19.77,0-.27-2.39H193.2a1.21,1.21,0,0,0-1.19,1,103.55,103.55,0,0,0,1.06,38.44c4.14,19.37,16,45.93,49,62.47a1.16,1.16,0,0,0,.54.13,1.24,1.24,0,0,0,1-.5l10.23-13.85A1.24,1.24,0,0,0,254.05,295.79Z"/><g class="cls-5"><rect class="cls-6" x="192.14" y="210.96" width="40.27" height="11.19"/></g><path class="cls-6" d="M216.47,312h14.32a8.76,8.76,0,0,1,8.76,8.76v1a1.5,1.5,0,0,1-1.5,1.5H209.21a1.5,1.5,0,0,1-1.5-1.5v-1A8.76,8.76,0,0,1,216.47,312Z"/><path class="cls-6" d="M265.69,299.44c.2,1.23-1.09,2.74-1.92,4.14l-4.57,7.69L252.82,322a1.49,1.49,0,0,1-2,.23c-4.56-2.71-8.08-8.57-6-12l5.43-7.08a37.62,37.62,0,0,1,3.07-4.09c2-1.94,5-1.9,7.57-1.75a10.59,10.59,0,0,1,3.07.48C265.07,298.23,265.58,298.8,265.69,299.44Z"/><rect class="cls-6" x="231.47" y="156.54" width="12.92" height="72.16"/><ellipse class="cls-7" cx="237.29" cy="222.38" rx="9.45" ry="9.15"/><path class="cls-8" d="M234.67,229a9.57,9.57,0,0,0,7.92-14.9,9.55,9.55,0,1,1-13.53,13.06A9.42,9.42,0,0,0,234.67,229Z"/><path class="cls-4" d="M227.08,222.38a10.22,10.22,0,1,1,10.21,9.91A10.08,10.08,0,0,1,227.08,222.38Zm1.52,0a8.7,8.7,0,1,0,8.69-8.39A8.55,8.55,0,0,0,228.6,222.38Z"/><path class="cls-3" d="M197.25,127.72c10.39-4.61,20.06-3.52,29.52.17v3.82H197.23Z"/><polygon class="cls-9" points="197.23 131.71 226.77 131.71 226.76 135.98 197.21 135.98 197.23 131.71"/><polygon class="cls-9" points="197.19 142.76 226.76 142.76 226.76 146.3 197.17 146.3 197.19 142.76"/><polygon class="cls-9" points="197.15 152.94 226.75 152.94 226.75 158.24 197.13 158.24 197.15 152.94"/><polygon class="cls-3" points="197.13 158.24 226.75 158.24 226.75 164.43 197.1 164.43 197.13 158.24"/><polygon class="cls-9" points="226.75 164.43 226.74 169.89 197.09 169.89 197.1 164.43 226.75 164.43"/><polygon class="cls-3" points="197.09 168.56 226.74 168.56 226.74 174.46 197.07 174.46 197.09 168.56"/><polygon class="cls-9" points="197.07 174.46 226.74 174.46 226.74 179.76 197.04 179.76 197.07 174.46"/><polygon class="cls-3" points="197.04 178.29 226.74 178.29 226.73 185.96 197.03 185.96 197.04 178.29"/><polygon class="cls-9" points="197.47 186.25 227.18 186.25 227.17 190.97 197.45 190.97 197.47 186.25"/><polygon class="cls-3" points="197 190.52 226.73 190.52 226.73 196.27 196.98 196.27 197 190.52"/><polygon class="cls-9" points="196.98 196.27 226.73 196.27 226.72 199.22 196.97 199.22 196.98 196.27"/><polygon class="cls-3" points="226.72 209.1 226.72 214.07 196.91 214.07 196.93 209.1 226.72 209.1"/><polygon class="cls-9" points="196.95 204.38 226.72 204.38 226.72 209.1 196.93 209.1 196.95 204.38"/><polygon class="cls-3" points="196.97 199.22 226.72 199.22 226.72 204.38 196.95 204.38 196.97 199.22"/><polygon class="cls-3" points="197.17 146.3 226.76 146.3 226.75 152.94 197.15 152.94 197.17 146.3"/><polygon class="cls-3" points="197.21 135.98 226.76 135.98 226.76 142.76 197.19 142.76 197.21 135.98"/><path class="cls-4" d="M226.71,215.52h-29.8a1.46,1.46,0,0,1-1-.43,1.42,1.42,0,0,1-.43-1l.34-86.35a1.43,1.43,0,0,1,.86-1.31c9.65-4.29,19.39-4.24,30.64.14a1.45,1.45,0,0,1,.92,1.35l-.06,86.18A1.45,1.45,0,0,1,226.71,215.52Zm-28.34-2.9h26.9l0-83.73c-9.75-3.61-18.26-3.68-26.63-.21Z"/><path class="cls-7" d="M211.62,138.26h0A9.22,9.22,0,0,1,202.4,129v-8.91a9.22,9.22,0,0,1,9.22-9.23h0a9.22,9.22,0,0,1,9.22,9.23V129A9.22,9.22,0,0,1,211.62,138.26Z"/><path class="cls-4" d="M211.62,139.5A10.48,10.48,0,0,1,201.15,129v-8.91a10.47,10.47,0,1,1,20.93,0V129A10.47,10.47,0,0,1,211.62,139.5Zm0-27.35a8,8,0,0,0-8,8V129a8,8,0,1,0,16,0v-8.91A8,8,0,0,0,211.62,112.15Z"/><path class="cls-7" d="M188,87s-5.56.13-5.58,5.58S188,97.9,188,97.9Z"/><path class="cls-4" d="M187.94,98.77a7.24,7.24,0,0,1-4.74-1.84,6.52,6.52,0,0,1,1.61-10,8,8,0,0,1,3.16-.85,1,1,0,0,1,.63.25.88.88,0,0,1,.26.63l0,10.94a.88.88,0,0,1-.86.87ZM187.11,88a6.4,6.4,0,0,0-1.55.56,4.81,4.81,0,0,0-1.14,7.18,5,5,0,0,0,2.67,1.25Z"/><path class="cls-10" d="M187.13,89.26s-3.28.08-3.29,3.29,3.27,3.15,3.27,3.15Z"/><path class="cls-7" d="M236.23,87s5.56.13,5.58,5.58-5.55,5.36-5.55,5.36Z"/><path class="cls-4" d="M236.28,98.77h0a.88.88,0,0,1-.86-.87l0-10.94a.88.88,0,0,1,.26-.63,1,1,0,0,1,.63-.25c2.22.06,6.42,1.48,6.43,6.46A5.86,5.86,0,0,1,241,96.93,7.24,7.24,0,0,1,236.28,98.77Zm.83-10.83,0,9a5,5,0,0,0,2.68-1.26,4.19,4.19,0,0,0,1.12-3.14A4.43,4.43,0,0,0,237.11,87.94Z"/><path class="cls-10" d="M237.1,89.26s3.27.08,3.28,3.29-3.27,3.15-3.27,3.15Z"/><path class="cls-8" d="M236.33,108c0,8.88-10.83,16.06-24.13,16h-.46c-13.3,0-24.05-7.25-24-16.13l.11-32.46c0-8.88,10.83-16,24.12-16h.47c13.29,0,24.05,7.25,24,16.13Z"/><path class="cls-7" d="M212.41,59.42h0V124c13.2,0,23.9-7.18,23.93-16l.1-32.46C236.46,66.67,225.7,59.45,212.41,59.42Z"/><path class="cls-4" d="M212.28,124.42h-.55a31.38,31.38,0,0,1-17.29-4.83c-4.64-3.12-7.19-7.27-7.18-11.68l.1-32.46c0-9.06,11-16.4,24.5-16.4h.55a31.38,31.38,0,0,1,17.29,4.83c4.65,3.12,7.2,7.27,7.18,11.68l-.1,32.46C236.75,117.07,225.77,124.42,212.28,124.42Zm-.42-64.62c-13,0-23.56,7-23.59,15.64l-.1,32.46c0,4.18,2.42,8.12,6.84,11.09a30.39,30.39,0,0,0,16.73,4.66h.54c13,0,23.56-7,23.59-15.65h0L236,75.55c0-4.18-2.42-8.12-6.85-11.09a30.38,30.38,0,0,0-16.72-4.66h-.55Z"/><path class="cls-4" d="M212.28,124.82h-.55a31.79,31.79,0,0,1-17.51-4.89c-4.76-3.2-7.37-7.47-7.36-12l.1-32.46c0-9.27,11.2-16.8,24.9-16.8h.55a31.71,31.71,0,0,1,17.51,4.9c4.76,3.19,7.38,7.46,7.36,12l-.1,32.46C237.15,117.28,226,124.82,212.28,124.82Zm-.34-64.63h-.08c-12.76,0-23.16,6.84-23.19,15.25l-.1,32.47c0,4,2.35,7.85,6.67,10.75a30,30,0,0,0,16.5,4.6h.54c12.76,0,23.17-6.84,23.19-15.25l.11-32.46c0-4-2.36-7.86-6.67-10.76A30,30,0,0,0,212.4,60.2Zm24.32,48.22c-.2,5.15-4,9.7-9.84,12.55,6-2.91,9.94-7.63,10-12.95l.1-32.46c0-4.28-2.47-8.31-7-11.35-.51-.34-1-.67-1.59-1,.5.29,1,.59,1.46.91,4.54,3.05,7,7.1,7,11.42l-.1,32.06h.06v.8Zm-38.5-45.93c-6,2.91-10,7.63-10,13l-.1,32.46c0,4.28,2.47,8.31,7,11.35.5.34,1,.66,1.56,1-.49-.29-1-.58-1.44-.9-4.54-3-7-7.1-7-11.42l.1-32.46C187.89,70.12,191.79,65.4,197.76,62.48Z"/><path class="cls-7" d="M233.83,111.43V83.21l-21.43-3c0,1.21-.31,14.3-.31,15.51a3.43,3.43,0,0,0-1,.39,2.61,2.61,0,0,0-1.34,1.92,2.11,2.11,0,0,0,1.06,2,2.2,2.2,0,0,0,2.4-.18v11.52Z"/><path class="cls-4" d="M200,90.59A1.64,1.64,0,1,1,198.33,89,1.64,1.64,0,0,1,200,90.59Z"/><path class="cls-4" d="M225.73,90.59A1.64,1.64,0,1,1,224.1,89,1.63,1.63,0,0,1,225.73,90.59Z"/><path class="cls-11" d="M226.88,97a3.91,3.91,0,0,0-4.17,3.58c0,2,1.87,3.57,4.17,3.57s4.17-1.6,4.17-3.57A3.91,3.91,0,0,0,226.88,97Z"/><ellipse class="cls-11" cx="198.14" cy="100.56" rx="4.17" ry="3.57"/><path class="cls-4" d="M211.41,101.13a2.6,2.6,0,0,1-1.3-.34,2.53,2.53,0,0,1-1.27-2.44,3,3,0,0,1,1.55-2.24,3.6,3.6,0,0,1,.83-.36V93.28a.44.44,0,0,1,.43-.44h0a.44.44,0,0,1,.44.43v3.18l-.36.07a2.78,2.78,0,0,0-.9.33,2.18,2.18,0,0,0-1.13,1.59,1.67,1.67,0,0,0,.84,1.6,1.78,1.78,0,0,0,1.91-.13.43.43,0,0,1,.61,0,.44.44,0,0,1-.05.61A2.5,2.5,0,0,1,211.41,101.13Z"/><path class="cls-6" d="M181.29,151.19c-1.53,7.87-4.93,11.19-11.12,11.19-3.85,0-6.76-1-8.9-3.22C156.93,154.74,157,147.09,157,147a4.94,4.94,0,1,0-9.87-.25c0,.48-.21,11.79,7,19.23,4,4.14,9.42,6.24,16,6.24,11.77,0,18.85-7.1,21.12-21.07Z"/><path class="cls-4" d="M170.17,174c-7.08,0-12.89-2.28-17.27-6.78-7.79-8-7.56-20-7.54-20.52a6.71,6.71,0,1,1,13.42.34s0,7,3.76,10.83c1.78,1.81,4.28,2.69,7.63,2.69,3.88,0,7.71-1.18,9.38-9.75l.28-1.44h13.55l-.34,2.07C191.37,161.77,186,174,170.17,174Zm-18.09-30.28a3.13,3.13,0,0,0-3.17,3.07c0,.12-.22,11,6.53,17.94,3.69,3.79,8.65,5.71,14.73,5.71,10.3,0,16.53-5.74,19-17.51h-6.42c-1.85,7.63-5.87,11.19-12.56,11.19-4.35,0-7.68-1.23-10.17-3.76-4.68-4.76-4.78-12.5-4.78-13.37a3.14,3.14,0,0,0-3.07-3.27Z"/><path class="cls-6" d="M199.77,128.07s1-3.55-1.27-2.46c-8.43,3-14.31,8.87-16.67,15.36a35.33,35.33,0,0,0-2.15,11.57l0,4.38h10.62v62.49L200,219Z"/><path class="cls-6" d="M223.45,128.3s-1.06-3.78,1.28-2.69c8.79,3,15.62,9.09,18.09,15.58,1.33,3.54,1.54,7.56,1.54,11.35v4.38H234v62.49l-10.57-.26Z"/><path class="cls-4" d="M232.63,83.77c-2.26-2.39-3.5-5.54-4.6-8.63-1.71.84-3.72.66-5.62.66-5.71,0-11.64,1.68-17-.34a5.71,5.71,0,0,0-1.56-.46,5.16,5.16,0,0,0-2,.4,18.09,18.09,0,0,1-12.79-.75,2.52,2.52,0,0,1-1.28-1,2.22,2.22,0,0,1-.2-1,10.18,10.18,0,0,1,.72-3.38,12.36,12.36,0,0,1,1.72-3.74A11,11,0,0,1,195,62.37c6.66-2.6,13.87-3.5,21-3.72a26.74,26.74,0,0,1,6.75.45,18.78,18.78,0,0,1,5.9,2.6A20.14,20.14,0,0,1,235,68a15.17,15.17,0,0,1,1.76,4,12.47,12.47,0,0,1,.39,2.25,16.66,16.66,0,0,1-.26,2q-.06,4.22-.48,8.43c-.12,1.19.1,2-1.09,1.42A12.07,12.07,0,0,1,232.63,83.77Z"/><path class="cls-3" d="M224.32,48.54c-7.58-4.52-21.71-5-27.61,3.94,0,0-10.11,11.38,39.73,23.89C236.45,64.37,234.92,54.86,224.32,48.54Z"/><path class="cls-4" d="M236.25,77.23c-17.26-4.33-38.38-11.38-41-20.41a5.36,5.36,0,0,1,.77-4.88c6.26-9.45,20.92-8.8,28.69-4.17h0c11.59,6.91,12.55,17.92,12.55,28.6a.93.93,0,0,1-.32.7.86.86,0,0,1-.53.19A.63.63,0,0,1,236.25,77.23ZM197.41,53l-.08.1a3.62,3.62,0,0,0-.44,3.23C198,60,204.4,67.3,235.6,75.25c-.11-12.1-2.19-20.28-11.69-25.94h0a24.17,24.17,0,0,0-11.95-3C206.29,46.3,200.56,48.2,197.41,53Zm26.91-4.44Z"/><g id="_Group_" data-name="&lt;Group&gt;"><g id="_Group_2" data-name="&lt;Group&gt;"><g id="_Group_3" data-name="&lt;Group&gt;"><path class="cls-9" d="M236.4,76.36l-48.64.47s-13.42-11-3.12-20.53C193.37,48.28,226.65,62.67,236.4,76.36Z"/><path class="cls-4" d="M187.2,77.51c-.29-.24-7.13-6-7.32-12.93-.09-3.29,1.31-6.29,4.17-8.92,2.31-2.13,6.12-2.93,11.34-2.38,14.24,1.49,34.52,12.46,41.73,22.57a.88.88,0,0,1-.71,1.39l-48.64.47h0A.89.89,0,0,1,187.2,77.51Zm8-22.48c-4.62-.49-8.07.18-10,1.92a9.82,9.82,0,0,0-3.61,7.58c.15,5.5,5.29,10.38,6.46,11.42l46.54-.45C227,66.26,208.15,56.38,195.2,55Z"/></g></g></g><path class="cls-4" d="M212.84,79.07c-3.28,1-6.48,2.21-9.67,3.44-3,1.16-6.08,2.66-9.28,3.14a14.51,14.51,0,0,1-3.41.24c-3.69-.29-8.32-3.16-9.57-6.77a7.91,7.91,0,0,1,.65-6.18c3.09-5.88,11.68-6.32,14.77-.16.61,1.21,1.06,3.48,2.65,3.69a12,12,0,0,0,2.1-.33c.95-.06,1.9,0,2.84-.06l14.5-.09c1.8,0,3.61,0,5.41.05,1.62,0,3.82-.1,5.33.48-1.43,1.31-5.3.49-7.12.67A47.39,47.39,0,0,0,212.84,79.07Z"/><path class="cls-6" d="M205.61,107.31a.47.47,0,0,1,.43.28,6.53,6.53,0,0,0,11.75,0,.47.47,0,0,1,.42-.28h0a.49.49,0,0,1,.44.69,7.48,7.48,0,0,1-13.47,0,.48.48,0,0,1,.43-.69Z"/><path class="cls-3" d="M239.23,98.77v11.55a29.48,29.48,0,0,1-29.45,29.45A24.76,24.76,0,0,1,185.05,115V98.77h-.92v72.35a9.86,9.86,0,0,1-7.44,9.54v.94a10.78,10.78,0,0,0,8.36-10.48V121.81a25.69,25.69,0,0,0,24.73,18.88,30.4,30.4,0,0,0,30.37-30.37V98.77Z"/><path class="cls-4" d="M240.15,98.51h-.92a.26.26,0,0,0-.26.26v11.55a29.22,29.22,0,0,1-29.19,29.19A24.5,24.5,0,0,1,185.31,115V98.77a.26.26,0,0,0-.26-.26h-.92a.26.26,0,0,0-.26.26v72.35a9.61,9.61,0,0,1-7.18,9.27v.54a10.12,10.12,0,0,0,7.71-9.81V99h.38v16a25,25,0,0,0,25,25,29.75,29.75,0,0,0,29.72-29.72V99h.39v11.29a30.14,30.14,0,0,1-30.11,30.1,25.46,25.46,0,0,1-24.48-18.68.26.26,0,0,0-.29-.19.27.27,0,0,0-.23.26v49.31a10.51,10.51,0,0,1-8.09,10.21v.54a11,11,0,0,0,8.62-10.75V123.55A26,26,0,0,0,209.78,141a30.66,30.66,0,0,0,30.63-30.63V98.77A.26.26,0,0,0,240.15,98.51Z"/><path class="cls-12" d="M238.55,91.18H238a.81.81,0,0,0-.8.81v3.69a1.52,1.52,0,0,0,.92,1.4,24.59,24.59,0,0,1,.94-5.81A1.71,1.71,0,0,0,238.55,91.18Z"/><path class="cls-3" d="M240.38,97.64V93a1.83,1.83,0,0,0-1.32-1.75,24.59,24.59,0,0,0-.94,5.81,1.45,1.45,0,0,0,.59.12H239v2.93a.37.37,0,0,0,.36.37H240a.37.37,0,0,0,.36-.37V97.64Z"/><path class="cls-4" d="M240,100.76h-.64a.63.63,0,0,1-.62-.63V97.46h0a1.78,1.78,0,0,1-1.78-1.78V92A1.07,1.07,0,0,1,238,90.92h.55a2.1,2.1,0,0,1,2.1,2.1v7.11A.63.63,0,0,1,240,100.76Zm-2-9.31a.54.54,0,0,0-.54.54v3.69a1.26,1.26,0,0,0,1.25,1.26H239a.26.26,0,0,1,.26.26v2.93a.1.1,0,0,0,.1.1H240a.1.1,0,0,0,.1-.1V93a1.57,1.57,0,0,0-1.57-1.57Z"/><path class="cls-3" d="M183.89,93v4.62h0v2.49a.37.37,0,0,0,.36.37h.64a.37.37,0,0,0,.36-.37V97.2h.31a1.46,1.46,0,0,0,.55-.11,22.35,22.35,0,0,0-.61-5.88A1.83,1.83,0,0,0,183.89,93Z"/><path class="cls-12" d="M186.27,91.18h-.55a1.46,1.46,0,0,0-.22,0,22.35,22.35,0,0,1,.61,5.88,1.53,1.53,0,0,0,1-1.41V92A.82.82,0,0,0,186.27,91.18Z"/><path class="cls-4" d="M184.89,100.76h-.64a.63.63,0,0,1-.63-.63V93a2.1,2.1,0,0,1,2.09-2.1h.55A1.07,1.07,0,0,1,187.34,92v3.69a1.78,1.78,0,0,1-1.78,1.78h0v2.67A.63.63,0,0,1,184.89,100.76Zm-.74-3.09v2.46a.1.1,0,0,0,.1.1h.64a.1.1,0,0,0,.1-.1V97.2a.26.26,0,0,1,.26-.26h.31a1.26,1.26,0,0,0,1.25-1.26V92a.54.54,0,0,0-.54-.54h-.55A1.57,1.57,0,0,0,184.15,93v4.65Zm-.26,0h0Z"/><path class="cls-13" d="M184.24,118.8h1.09a19.17,19.17,0,0,0,.78,3.37l-.76.43-.3-.79v.79h-.92Z"/><path class="cls-4" d="M185.05,122.87h-.92a.25.25,0,0,1-.18-.08.27.27,0,0,1-.08-.19l.11-3.81a.26.26,0,0,1,.26-.26h1.09a.27.27,0,0,1,.26.23,17.38,17.38,0,0,0,.74,3.26.24.24,0,0,1,0,.2.22.22,0,0,1-.12.17l-.76.44a.25.25,0,0,1-.22,0,.15.15,0,0,1-.07,0A.25.25,0,0,1,185.05,122.87Zm-.64-.53h.37v-.53a.27.27,0,0,1,.22-.26.25.25,0,0,1,.29.16l.2.51.28-.16a21,21,0,0,1-.66-3h-.61Z"/><rect class="cls-13" x="184.51" y="97.9" width="0.26" height="1.98"/><rect class="cls-13" x="239.57" y="97.9" width="0.26" height="1.98"/><polygon class="cls-14" points="174.9 135.46 157.1 135.67 159.61 163.76 173.06 163.6 174.9 135.46"/><path class="cls-4" d="M173.07,164.69l-13.44.16a1.1,1.1,0,0,1-1.1-1L156,135.77a1.1,1.1,0,0,1,1.07-1.19l17.81-.21a1.07,1.07,0,0,1,.8.34,1.09,1.09,0,0,1,.3.82l-1.85,28.14A1.08,1.08,0,0,1,173.07,164.69Zm-12.46-2,11.42-.13,1.71-26-15.45.19Z"/><polygon class="cls-14" points="172.96 128.85 158.93 129.01 156.79 132.36 175.18 132.14 172.96 128.85"/><path class="cls-4" d="M175.2,133.23l-18.4.22a1.11,1.11,0,0,1-1-.56,1.1,1.1,0,0,1,0-1.12l2.14-3.34a1.12,1.12,0,0,1,.91-.51l14-.16a1.05,1.05,0,0,1,.91.48l2.23,3.29a1.09,1.09,0,0,1-.89,1.7Zm-16.4-2,14.35-.17-.76-1.12-12.86.15Z"/><rect class="cls-14" x="155.08" y="132.66" width="21.81" height="4.1" transform="translate(-1.6 1.99) rotate(-0.68)"/><path class="cls-4" d="M176.93,137.71l-21.81.26a1.08,1.08,0,0,1-1.1-1.08L154,132.8a1.08,1.08,0,0,1,1.08-1.1l21.81-.26a1.08,1.08,0,0,1,1.1,1.07l0,4.1A1.09,1.09,0,0,1,176.93,137.71Zm-20.75-1.93,19.63-.24,0-1.91-19.63.23Z"/><circle class="cls-15" cx="166.38" cy="148.05" r="5.77"/><path class="cls-16" d="M158.6,138.33a11.56,11.56,0,1,0,11.91,11.56A11.75,11.75,0,0,0,158.6,138.33Z"/><ellipse class="cls-7" cx="156.25" cy="149.89" rx="11.02" ry="10.67"/><path class="cls-8" d="M159.31,157.61a11.16,11.16,0,0,1-9.23-17.38,11.14,11.14,0,1,0,15.77,15.23A11,11,0,0,1,159.31,157.61Z"/><path class="cls-4" d="M156.25,161.44a11.56,11.56,0,1,1,11.92-11.55A11.75,11.75,0,0,1,156.25,161.44Zm0-21.33a9.78,9.78,0,1,0,10.14,9.78A10,10,0,0,0,156.25,140.11Z"/><path class="cls-6" d="M156.83,320.47h0a10.81,10.81,0,0,0,10.8-10.8V291.81a2.91,2.91,0,0,0-2.92-2.91H148.94a2.91,2.91,0,0,0-2.91,2.91v17.86A10.8,10.8,0,0,0,156.83,320.47Z"/><path class="cls-4" d="M144.92,309.67V291.81a4,4,0,0,1,4-4h15.77a4,4,0,0,1,4,4v17.86a11.91,11.91,0,0,1-23.81,0Zm4-19.66a1.81,1.81,0,0,0-1.81,1.8v17.86a9.71,9.71,0,0,0,9.7,9.69h0a9.7,9.7,0,0,0,9.69-9.69V291.81a1.81,1.81,0,0,0-1.81-1.8Z"/><path class="cls-3" d="M182.63,197.64h6.18a0,0,0,0,1,0,0v13.48a0,0,0,0,1,0,0H185.2a2.57,2.57,0,0,1-2.57-2.57V197.64A0,0,0,0,1,182.63,197.64Z" transform="translate(371.44 408.76) rotate(180)"/><path class="cls-4" d="M188.81,212.23h-6.18a1.11,1.11,0,0,1-1.11-1.11V197.64a1.11,1.11,0,0,1,1.11-1.11h3.61a3.68,3.68,0,0,1,3.68,3.68v10.91A1.11,1.11,0,0,1,188.81,212.23ZM183.74,210h4v-9.8a1.47,1.47,0,0,0-1.47-1.46h-2.5Z"/><path class="cls-3" d="M130.27,198.49h3.61a0,0,0,0,1,0,0V212a0,0,0,0,1,0,0H127.7a0,0,0,0,1,0,0V201.06A2.57,2.57,0,0,1,130.27,198.49Z"/><path class="cls-4" d="M133.88,213.08H127.7a1.11,1.11,0,0,1-1.11-1.11V201.06a3.68,3.68,0,0,1,3.68-3.68h3.61a1.11,1.11,0,0,1,1.11,1.11V212A1.11,1.11,0,0,1,133.88,213.08Zm-5.07-2.22h4V199.6h-2.51a1.46,1.46,0,0,0-1.46,1.46Z"/><path class="cls-17" d="M158.14,169.57a26.44,26.44,0,0,1,5.37.55c-9.78,18.3-7.55,40.13-5.84,61.34H136.81a5.14,5.14,0,0,1-5.14-5.14V196A26.47,26.47,0,0,1,158.14,169.57Z"/><path class="cls-3" d="M163.51,170.12A26.48,26.48,0,0,1,184.61,196v30.28a5.14,5.14,0,0,1-5.14,5.14h-21.8C156,210.25,153.73,188.42,163.51,170.12Z"/><path class="cls-4" d="M130.56,226.32V196a27.58,27.58,0,0,1,55.16,0v30.28a6.25,6.25,0,0,1-6.25,6.25H136.81A6.25,6.25,0,0,1,130.56,226.32ZM132.78,196v30.28a4,4,0,0,0,4,4h42.66a4,4,0,0,0,4-4V196a25.36,25.36,0,0,0-50.72,0Z"/><path class="cls-18" d="M170.62,200.81c0,2.44,2.47,4.42,5.52,4.42s5.52-2,5.52-4.42-2.47-4.41-5.52-4.41S170.62,198.37,170.62,200.81Z"/><path class="cls-18" d="M134.11,200.81c0,2.44,2.5,4.42,5.58,4.42s5.58-2,5.58-4.42-2.5-4.41-5.58-4.41S134.11,198.37,134.11,200.81Z"/><path class="cls-3" d="M149.71,246.42s4.93,4.15-.18,6.28-33.94,14.54-37.52,6.43-3.29-14.63,1.59-15.86,18-3.8,21.9-3.37Z"/><path class="cls-4" d="M118.36,263c-3.92,0-6.36-1.13-7.36-3.4-2.63-5.95-3.22-11-1.67-14.15a5.94,5.94,0,0,1,4-3.23c4.81-1.22,18.19-3.84,22.29-3.39a1,1,0,0,1,.34.09l14.21,6.52a1.4,1.4,0,0,1,.26.16c.29.25,2.87,2.5,2.49,5-.21,1.36-1.21,2.43-3,3.16l-.59.25C135,260,124.73,263,118.36,263Zm16.08-22c-4.43,0-15.57,2.12-20.57,3.38a3.68,3.68,0,0,0-2.55,2c-1.24,2.54-.62,7,1.7,12.29.91,2.06,6.19,5.52,35.49-6.76l.59-.25c.69-.28,1.52-.76,1.63-1.44.14-1-1-2.28-1.62-2.87L135.21,241C135,241,134.73,241,134.44,241Z"/><path class="cls-19" d="M110.27,246a3.52,3.52,0,0,0-1.29,0c-3.12.3-6.32.38-9.34,1.28-4,1.2-9.74,4-8.91,9.07,1.15,6.86,6.74,8.22,22,4.47.07,0,.2-.33.23-.39a11.58,11.58,0,0,0,1.11-8.66,11,11,0,0,0-1.43-3.09c-.38-.58-.84-1.07-1.25-1.62S110.66,246.14,110.27,246Z"/><path class="cls-4" d="M99.7,264a11.81,11.81,0,0,1-6.64-1.57,8.14,8.14,0,0,1-3.42-5.86c-.74-4.42,2.88-8.28,9.68-10.31a36.22,36.22,0,0,1,7.59-1.15l2-.17a4.56,4.56,0,0,1,1.71,0,3.25,3.25,0,0,1,1.68,1.47c.16.21.32.41.49.61s.54.66.8,1.05a12.15,12.15,0,0,1,1.57,3.4,12.75,12.75,0,0,1-1.22,9.5,1.41,1.41,0,0,1-.93.92A58,58,0,0,1,99.7,264Zm10.09-16.9c-.22,0-.55,0-.71,0-.66.07-1.32.12-2,.17a34.78,34.78,0,0,0-7.14,1.07c-2.1.63-8.92,3.06-8.12,7.83a6,6,0,0,0,2.44,4.37c2.77,1.82,8.24,1.61,17.72-.69a10.51,10.51,0,0,0,1-7.78,10.13,10.13,0,0,0-1.29-2.78c-.2-.29-.43-.57-.67-.87s-.37-.46-.55-.7a5.86,5.86,0,0,0-.53-.65Zm2.66,12.68h0Zm-2.51-12.68Z"/><path class="cls-3" d="M137.87,219.55a18.4,18.4,0,0,0-14-7,5.56,5.56,0,0,0-4.82,3.08c-2.51,4.62-6.22,13.74,0,19.15,8.19,7.08,15,2.07,19.46-11.13A4.36,4.36,0,0,0,137.87,219.55Z"/><path class="cls-4" d="M126.25,239c-2.52,0-5.14-1.16-7.8-3.47-2.89-2.5-6.76-8.47-.25-20.41a6.5,6.5,0,0,1,5.66-3.61h0a19.42,19.42,0,0,1,14.75,7.38,5.4,5.4,0,0,1,.87,5.07c-2.91,8.57-6.66,13.53-11.14,14.75A8.18,8.18,0,0,1,126.25,239Zm-2.38-25.45a4.5,4.5,0,0,0-3.88,2.55c-2.5,4.59-5.85,13-.21,17.89,2.89,2.49,5.6,3.42,8.08,2.75,3.73-1,7.1-5.66,9.74-13.44a3.34,3.34,0,0,0-.52-3.11h0a17.4,17.4,0,0,0-13.18-6.64Z"/><path class="cls-3" d="M111.23,215s52.8-20.16,91.19,3.47l-12.55,66.15H127.1Z"/><path class="cls-4" d="M189.87,285.69H127.1a1.11,1.11,0,0,1-1.08-.86l-15.87-69.61a1.11,1.11,0,0,1,.68-1.28,145,145,0,0,1,31.47-7.19c16.59-1.93,40.6-1.63,60.7,10.74a1.11,1.11,0,0,1,.51,1.15L191,284.79A1.11,1.11,0,0,1,189.87,285.69ZM128,283.48h61L201.19,219c-34.7-20.81-81.59-5.77-88.66-3.3Z"/><polygon class="cls-19" points="164.31 271.96 189.29 270.54 183.41 295.6 168 295.6 161.76 295.6 134.16 295.6 128.28 270.54 164.31 271.96"/><path class="cls-4" d="M183.41,296.71H134.16a1.1,1.1,0,0,1-1.08-.85l-5.88-25.07a1.11,1.11,0,0,1,.22-1,1.06,1.06,0,0,1,.9-.4l36,1.42,24.93-1.42a1.1,1.1,0,0,1,.91.39,1.13,1.13,0,0,1,.23,1l-5.88,25.07A1.11,1.11,0,0,1,183.41,296.71ZM135,294.5h47.49l5.34-22.77-23.49,1.33h-.11l-34.58-1.36Z"/><rect class="cls-20" x="137.63" y="223.61" width="36.37" height="21.23" transform="translate(311.62 468.45) rotate(180)"/><path class="cls-4" d="M174,245.94H137.63a1.1,1.1,0,0,1-1.11-1.1V223.61a1.11,1.11,0,0,1,1.11-1.11H174a1.11,1.11,0,0,1,1.11,1.11v21.23A1.1,1.1,0,0,1,174,245.94Zm-35.26-2.21h34.16v-19H138.73Z"/><path class="cls-21" d="M174.46,209,169.11,217H141.79l-4.63-8S150.28,206.09,174.46,209Z"/><path class="cls-4" d="M169.11,218.07H141.79a1.1,1.1,0,0,1-1-.55l-4.63-8a1.11,1.11,0,0,1,.72-1.64c.55-.12,13.58-2.88,37.67.06a1.09,1.09,0,0,1,.88.64,1.12,1.12,0,0,1-.09,1.08L170,217.58A1.1,1.1,0,0,1,169.11,218.07Zm-26.69-2.22h26.1l4-5.93c-18.06-2-29.65-.74-33.61-.14Z"/><path class="cls-3" d="M196.17,251.37l-6.3,33.22H168.34c-1.14-3.31-5.53-5.78-10.78-5.78s-9.63,2.47-10.77,5.78H127.1l-7.57-33.22S148.53,261.77,196.17,251.37Z"/><path class="cls-4" d="M189.87,285.69H168.34a1.1,1.1,0,0,1-1-.74c-1-2.92-5.1-5-9.74-5s-8.72,2.12-9.73,5a1.1,1.1,0,0,1-1,.74H127.1a1.11,1.11,0,0,1-1.08-.86l-7.57-33.22a1.11,1.11,0,0,1,.34-1.07,1.12,1.12,0,0,1,1.11-.22c.29.11,29.3,10.17,76,0a1.11,1.11,0,0,1,1,.28,1.12,1.12,0,0,1,.31,1L191,284.79A1.11,1.11,0,0,1,189.87,285.69Zm-20.79-2.21H189l5.83-30.68c-24,5-43.05,4.74-54.91,3.57A106.21,106.21,0,0,1,121,253L128,283.48h18.06c1.66-3.44,6.25-5.78,11.51-5.78S167.42,280,169.08,283.48Z"/><circle class="cls-20" cx="138.97" cy="268.37" r="7.66"/><path class="cls-4" d="M139,277.14a8.77,8.77,0,1,1,8.77-8.77A8.77,8.77,0,0,1,139,277.14Zm0-15.32a6.56,6.56,0,1,0,6.56,6.55A6.56,6.56,0,0,0,139,261.82Z"/><path class="cls-19" d="M203.08,222.6s-.32-5.09-3.72-5.4-6.28,4.18-7.47,6.84a31,31,0,0,0-2.43,12.32c0,3.64-.13,8.86,1.95,12,4.58,6.9,7.25-4.32,7.86-7.51C200.42,234.74,201.83,228.68,203.08,222.6Z"/><path class="cls-4" d="M194.23,251.68c-1.3,0-2.56-.9-3.76-2.71-2.23-3.37-2.18-8.61-2.14-12.43v-.19a31.76,31.76,0,0,1,2.53-12.77c.6-1.33,3.83-7.94,8.6-7.5,4.31.39,4.73,6.2,4.75,6.45a1.51,1.51,0,0,1,0,.3q-.72,3.49-1.49,7c-.79,3.69-1.61,7.49-2.32,11.25S198,251,194.8,251.63A2.75,2.75,0,0,1,194.23,251.68ZM199,218.32c-2.29,0-4.76,3.15-6.12,6.18a29.64,29.64,0,0,0-2.33,11.87v.19c0,3.53-.09,8.37,1.76,11.16.77,1.16,1.51,1.79,2,1.7,1.26-.26,2.9-4,3.8-8.79.72-3.78,1.54-7.61,2.34-11.3.49-2.26,1-4.53,1.44-6.79-.07-.72-.54-4-2.68-4.21Z"/><path class="cls-19" d="M204.47,245.15l-4.8,9.38-15.79-3.45,5.77-11.15S193.13,246.38,204.47,245.15Z"/><path class="cls-4" d="M199.67,255.64l-.24,0-15.78-3.45a1.11,1.11,0,0,1-.77-.61,1.09,1.09,0,0,1,0-1l5.77-11.15a1.1,1.1,0,0,1,1-.59h0a1.1,1.1,0,0,1,1,.58c.13.23,3.34,5.76,13.73,4.64a1.1,1.1,0,0,1,1.1,1.6L200.65,255A1.09,1.09,0,0,1,199.67,255.64Zm-14.14-5.33,13.54,3,3.52-6.87c-7.19.27-11-2.56-12.75-4.41Z"/><path class="cls-3" d="M199.67,254.53s4.42,4.68-.9,6.21-35.38,10.58-38,2.12-1.6-14.91,3.39-15.58,18.33-1.71,22.14-.85Z"/><path class="cls-4" d="M169.62,267.56c-5.73,0-9-1.46-9.91-4.37-1.93-6.21-2-11.28-.05-14.26a5.94,5.94,0,0,1,4.34-2.75c4.93-.66,18.53-1.74,22.53-.83a1.22,1.22,0,0,1,.33.14l13.38,8.09a.87.87,0,0,1,.23.19c.27.28,2.58,2.81,1.91,5.24-.36,1.33-1.47,2.27-3.3,2.8l-.62.18C185.66,265.7,176.08,267.56,169.62,267.56Zm11.85-20.35a157.07,157.07,0,0,0-17.17,1.17,3.68,3.68,0,0,0-2.77,1.74c-1.52,2.39-1.42,6.91.29,12.41.67,2.15,5.51,6.18,36-2.67l.62-.18c.71-.2,1.6-.59,1.78-1.25.26-.92-.7-2.37-1.28-3l-13.08-7.91A26,26,0,0,0,181.47,247.21Z"/><path class="cls-3" d="M210.92,228.4a18.41,18.41,0,0,0-14-7,5.51,5.51,0,0,0-4.81,3.08c-2.51,4.61-6.23,13.74,0,19.14,8.18,7.08,15,2.08,19.45-11.13A4.37,4.37,0,0,0,210.92,228.4Z"/><path class="cls-4" d="M199.29,247.86c-2.52,0-5.13-1.16-7.8-3.47-2.88-2.49-6.75-8.46-.25-20.4a6.51,6.51,0,0,1,5.67-3.61H197a19.41,19.41,0,0,1,14.74,7.37h0a5.41,5.41,0,0,1,.88,5.07c-2.91,8.57-6.66,13.53-11.14,14.75A8.25,8.25,0,0,1,199.29,247.86Zm-2.38-25.44A4.49,4.49,0,0,0,193,225c-2.5,4.59-5.85,13-.21,17.89,2.89,2.49,5.6,3.42,8.07,2.75,3.74-1,7.1-5.66,9.75-13.44a3.36,3.36,0,0,0-.52-3.11h0a17.42,17.42,0,0,0-13.19-6.63Z"/><path class="cls-22" d="M139.73,250a4.47,4.47,0,0,0,2.65-.63l1.14-2.62-.94-1.39a9.19,9.19,0,0,0-1.3-1,28.35,28.35,0,0,0-5.21-2.79,31.78,31.78,0,0,0-6.18-1.83,9.23,9.23,0,0,1,2.39,3.72c.24.78-1,1.11-1.22.34a8.46,8.46,0,0,0-3.28-4.18.65.65,0,0,1-.21-.23,40.29,40.29,0,0,0-4.39-.3h-.34a9.44,9.44,0,0,1,3,4.25c.25.78-1,1.11-1.22.34a8.43,8.43,0,0,0-3.28-4.17.62.62,0,0,1-.26-.39,40.58,40.58,0,0,0-5,.49,9.46,9.46,0,0,1,3.11,4.36c.24.78-1,1.11-1.22.33a8.43,8.43,0,0,0-3.28-4.17.52.52,0,0,1-.2-.22,31.43,31.43,0,0,0-4,1.09,22.28,22.28,0,0,0-5.83,2.87c-1.45,1.06-4.6,5.15-1.06,6.16h11.72C123.39,250,131.6,250.31,139.73,250Z"/><path class="cls-4" d="M103.26,251.2a.22.22,0,0,0,.08,0,.38.38,0,0,1-.16,0Z"/><path class="cls-4" d="M103.18,251.17h0Z"/><path class="cls-4" d="M104,250.59h-.6a2.08,2.08,0,0,1-.58-.19.64.64,0,0,0,.3.76h0a.38.38,0,0,0,.16,0A.61.61,0,0,0,104,250.59Z"/><path class="cls-4" d="M144,245c-1.2-1.56-3.3-2.59-5-3.48a31,31,0,0,0-7.46-2.75,41.25,41.25,0,0,0-14.82-.56c-4.9.69-10.92,2.26-14.43,6-1.91,2-2.35,6,.88,7a.64.64,0,0,1-.3-.76c-1.7-.76-1.85-3.49-.92-4.83a12,12,0,0,1,4.46-3.6,30.29,30.29,0,0,1,8.06-2.78.54.54,0,0,1,.83-.22l.08.06a40.44,40.44,0,0,1,5.88-.61.52.52,0,0,1,.72-.08l.08.06.72,0a39.25,39.25,0,0,1,4.82.31.55.55,0,0,1,.83-.23c.2.13.38.27.57.42a30.28,30.28,0,0,1,10.43,3.55,14.94,14.94,0,0,1,4.11,3,2.89,2.89,0,0,1-.28,4.11,5.24,5.24,0,0,1-3.09,1.08H104a.61.61,0,0,1-.69.61l.09,0h29.93c2.58,0,5.75.49,8.27-.21C144.44,250.23,145.86,247.42,144,245Z"/><path class="cls-4" d="M123.18,239a40.29,40.29,0,0,1,4.39.3.67.67,0,0,1,0-.63,39.25,39.25,0,0,0-4.82-.31l-.72,0c.27.19.54.4.8.62Z"/><path class="cls-4" d="M136.07,241.5a28.35,28.35,0,0,1,5.21,2.79,9.19,9.19,0,0,1,1.3,1l.94,1.39-1.14,2.62a4.47,4.47,0,0,1-2.65.63c-8.13.35-16.34,0-24.48,0H103.53l.06,0a.56.56,0,0,1,.44.61h36.12a5.24,5.24,0,0,0,3.09-1.08,2.87,2.87,0,0,0,.28-4.11,14.7,14.7,0,0,0-4.11-3A31,31,0,0,0,129,238.88a11.18,11.18,0,0,1,.91.79A31.78,31.78,0,0,1,136.07,241.5Z"/><path class="cls-4" d="M104,250.59a.56.56,0,0,0-.44-.61l-.06,0h-.1a.56.56,0,0,0-.58.44,2.08,2.08,0,0,0,.58.19Z"/><path class="cls-4" d="M121.06,239.05a.72.72,0,0,1,.18-.63,40.44,40.44,0,0,0-5.88.61c.23.16.45.33.67.51A40.58,40.58,0,0,1,121.06,239.05Z"/><path class="cls-4" d="M103.43,250h.1c-3.54-1-.39-5.1,1.06-6.16a22.28,22.28,0,0,1,5.83-2.87,31.43,31.43,0,0,1,4-1.09.65.65,0,0,1,0-.65,30.29,30.29,0,0,0-8.06,2.78,12,12,0,0,0-4.46,3.6c-.93,1.34-.78,4.07.92,4.83A.56.56,0,0,1,103.43,250Z"/><path class="cls-4" d="M117.92,244.23c.24.78,1.46.45,1.22-.33a9.46,9.46,0,0,0-3.11-4.36l-.85.14a9.47,9.47,0,0,1,3.35,4.39l-3.43-4.37-.66.14a.52.52,0,0,0,.2.22A8.43,8.43,0,0,1,117.92,244.23Z"/><path class="cls-4" d="M115.28,239a.54.54,0,0,0-.83.22l.91-.16Z"/><path class="cls-4" d="M114.44,239.84l.66-.14-.14-.19.22.17.85-.14c-.22-.18-.44-.35-.67-.51l-.91.16A.65.65,0,0,0,114.44,239.84Z"/><path class="cls-4" d="M115.18,239.68l-.08,0,3.43,4.37A9.47,9.47,0,0,0,115.18,239.68Z"/><path class="cls-4" d="M115,239.51l.14.19.08,0Z"/><path class="cls-4" d="M124.6,243.61c.24.77,1.47.44,1.22-.34a9.44,9.44,0,0,0-3-4.25h-1a9.49,9.49,0,0,1,3.38,4.41L121.75,239l-.69,0a.62.62,0,0,0,.26.39A8.43,8.43,0,0,1,124.6,243.61Z"/><path class="cls-4" d="M122,238.34a.52.52,0,0,0-.72.08l.8,0Z"/><path class="cls-4" d="M121.06,239.05l.69,0-.11-.14.19.14h1c-.26-.22-.53-.43-.8-.62l-.8,0A.72.72,0,0,0,121.06,239.05Z"/><path class="cls-4" d="M121.83,239h-.08l3.46,4.41A9.49,9.49,0,0,0,121.83,239Z"/><path class="cls-4" d="M121.64,238.89l.11.14h.08Z"/><path class="cls-4" d="M131.06,243.73c.24.77,1.46.44,1.22-.34a9.23,9.23,0,0,0-2.39-3.72l-1.19-.2a9.05,9.05,0,0,1,3,4.09l-3.24-4.13-.86-.11a.65.65,0,0,0,.21.23A8.46,8.46,0,0,1,131.06,243.73Z"/><path class="cls-4" d="M128.41,238.46a.55.55,0,0,0-.83.23c.47.05.93.11,1.4.19C128.79,238.73,128.61,238.59,128.41,238.46Z"/><path class="cls-4" d="M127.57,239.32l.86.11-.34-.42s.25.17.61.46l1.19.2a11.18,11.18,0,0,0-.91-.79c-.47-.08-.93-.14-1.4-.19A.67.67,0,0,0,127.57,239.32Z"/><path class="cls-4" d="M128.7,239.47l-.27,0,3.24,4.13A9.05,9.05,0,0,0,128.7,239.47Z"/><path class="cls-4" d="M128.09,239l.34.42.27,0C128.34,239.18,128.09,239,128.09,239Z"/><rect class="cls-23" x="100.44" y="250.13" width="44.79" height="2.88"/><path class="cls-4" d="M145.22,253.74H100.44a.73.73,0,0,1-.74-.73v-2.88a.74.74,0,0,1,.74-.74h44.78a.74.74,0,0,1,.74.74V253A.73.73,0,0,1,145.22,253.74Zm-44-1.46h43.32v-1.42H101.17Z"/><path class="cls-4" d="M113.87,232.86a.74.74,0,0,1-.74-.74,3.34,3.34,0,0,1,.6-2,1.89,1.89,0,0,0,.38-1.18,1.87,1.87,0,0,0-.38-1.18,3.35,3.35,0,0,1-.6-2,3.32,3.32,0,0,1,.6-1.95,1.91,1.91,0,0,0,.38-1.18.74.74,0,1,1,1.47,0,3.27,3.27,0,0,1-.6,1.95,1.89,1.89,0,0,0-.38,1.18A1.87,1.87,0,0,0,115,227a3.28,3.28,0,0,1,.6,2,3.25,3.25,0,0,1-.6,1.95,1.91,1.91,0,0,0-.38,1.18A.74.74,0,0,1,113.87,232.86Z"/><path class="cls-4" d="M121,232.86a.73.73,0,0,1-.73-.74,3.27,3.27,0,0,1,.6-2,2,2,0,0,0,.37-1.18,1.93,1.93,0,0,0-.37-1.18,3.28,3.28,0,0,1-.6-2,3.25,3.25,0,0,1,.6-1.95,2,2,0,0,0,.37-1.18.74.74,0,1,1,1.47,0,3.27,3.27,0,0,1-.6,1.95,1.89,1.89,0,0,0-.38,1.18,1.87,1.87,0,0,0,.38,1.18,3.28,3.28,0,0,1,.6,2,3.25,3.25,0,0,1-.6,1.95,1.91,1.91,0,0,0-.38,1.18A.74.74,0,0,1,121,232.86Z"/><path class="cls-4" d="M128.21,232.86a.73.73,0,0,1-.73-.74,3.27,3.27,0,0,1,.6-2,2,2,0,0,0,.37-1.18,1.93,1.93,0,0,0-.37-1.18,3.28,3.28,0,0,1-.6-2,3.25,3.25,0,0,1,.6-1.95,2,2,0,0,0,.37-1.18.74.74,0,1,1,1.47,0,3.27,3.27,0,0,1-.6,1.95,1.89,1.89,0,0,0-.38,1.18,1.87,1.87,0,0,0,.38,1.18,3.28,3.28,0,0,1,.6,2,3.25,3.25,0,0,1-.6,1.95,1.91,1.91,0,0,0-.38,1.18A.74.74,0,0,1,128.21,232.86Z"/><rect class="cls-2" x="93.86" y="253" width="59.48" height="6.53" transform="translate(247.21 512.53) rotate(180)"/><path class="cls-4" d="M154.45,260.64H92.75v-8.75h61.7ZM95,258.42h57.27v-4.31H95Z"/><path class="cls-19" d="M160.5,249.63c-4.43.31-9,0-13.37.89-3,.61-6.51,1.94-7.57,5.09a6.29,6.29,0,0,0-.3,2.28c.31,6.95,5.84,8.9,21.87,6.78A11.26,11.26,0,0,0,160.5,249.63Z"/><path class="cls-4" d="M150.92,266.61c-4.9,0-8.09-.82-10.1-2.51a8,8,0,0,1-2.68-6.16,7.4,7.4,0,0,1,.36-2.69c1-2.92,3.81-4.88,8.4-5.83a49,49,0,0,1,9-.74c1.5,0,3-.07,4.53-.17a1.1,1.1,0,0,1,.91.37c7.5,8.4.71,16.45.64,16.53a1.13,1.13,0,0,1-.71.38A81.11,81.11,0,0,1,150.92,266.61Zm9.1-15.82c-1.36.08-2.74.11-4.07.13a47.21,47.21,0,0,0-8.59.7c-3.76.78-6,2.24-6.73,4.35a5.11,5.11,0,0,0-.25,1.87,5.86,5.86,0,0,0,1.88,4.54c2.57,2.15,8.21,2.54,18.27,1.24A10,10,0,0,0,160,250.79Z"/><rect class="cls-24" x="137.08" y="188.39" width="39.9" height="13.29" rx="1.72" ry="1.72" transform="translate(314.06 390.07) rotate(180)"/><path class="cls-4" d="M175.26,202.23H138.81a2.28,2.28,0,0,1-2.28-2.27v-9.85a2.28,2.28,0,0,1,2.28-2.27h36.45a2.28,2.28,0,0,1,2.28,2.27V200A2.28,2.28,0,0,1,175.26,202.23Zm-36.45-13.29a1.18,1.18,0,0,0-1.18,1.17V200a1.18,1.18,0,0,0,1.18,1.17h36.45a1.18,1.18,0,0,0,1.17-1.17v-9.85a1.18,1.18,0,0,0-1.17-1.17Z"/><path class="cls-25" d="M150.29,192.43H172.9a1.15,1.15,0,0,0,1.15-1.15h0a1.15,1.15,0,0,0-1.15-1.16H150.29a1.16,1.16,0,0,0-1.16,1.16h0A1.16,1.16,0,0,0,150.29,192.43Z"/><path class="cls-25" d="M145,191.28a1.16,1.16,0,1,0,1.15-1.16A1.15,1.15,0,0,0,145,191.28Z"/><circle class="cls-26" cx="166.74" cy="196.4" r="1.47"/><circle class="cls-26" cx="148.76" cy="196.4" r="1.47"/><g id="_Group_4" data-name="&lt;Group&gt;" class="cls-27"><g id="_Group_5" data-name="&lt;Group&gt;"><g id="_Group_6" data-name="&lt;Group&gt;"><path class="cls-28" d="M198,340.08H108.88c-.83,0-1.5-1-1.5-2.19h0c0-1.2.67-2.18,1.5-2.18H198c.83,0,1.51,1,1.51,2.18h0C199.51,339.09,198.83,340.08,198,340.08Z"/></g></g></g><g id="_Group_7" data-name="&lt;Group&gt;" class="cls-27"><g id="_Group_8" data-name="&lt;Group&gt;"><g id="_Group_9" data-name="&lt;Group&gt;"><path class="cls-28" d="M206.41,340.08h-2.2c-.82,0-1.5-1-1.5-2.19h0c0-1.2.68-2.18,1.5-2.18h2.2c.83,0,1.51,1,1.51,2.18h0C207.92,339.09,207.24,340.08,206.41,340.08Z"/></g></g></g><g id="_Group_10" data-name="&lt;Group&gt;" class="cls-27"><g id="_Group_11" data-name="&lt;Group&gt;"><g id="_Group_12" data-name="&lt;Group&gt;"><path class="cls-28" d="M257.3,353.53H170.58c-.88,0-1.61-1-1.61-2.33h0c0-1.28.73-2.33,1.61-2.33H257.3c.88,0,1.6,1.05,1.6,2.33h0C258.9,352.48,258.18,353.53,257.3,353.53Z"/></g></g></g><g id="_Group_13" data-name="&lt;Group&gt;" class="cls-27"><g id="_Group_14" data-name="&lt;Group&gt;"><g id="_Group_15" data-name="&lt;Group&gt;"><path class="cls-28" d="M260.46,347h-4c-.88,0-1.61-1.05-1.61-2.33h0c0-1.28.73-2.33,1.61-2.33h4c.88,0,1.6,1,1.6,2.33h0C262.06,346,261.34,347,260.46,347Z"/></g></g></g></g></g></g></svg>