<svg xmlns="http://www.w3.org/2000/svg" viewBox="0 0 374 374"><defs><style>.cls-1{fill:#bcd589;}.cls-16,.cls-17,.cls-2,.cls-20{fill:#fff;}.cls-3{fill:#424243;}.cls-4{fill:#7f94c4;}.cls-5{fill:#444445;}.cls-6{fill:#404041;}.cls-7{opacity:0.49;}.cls-8{fill:#543e27;}.cls-9{fill:#77625e;}.cls-10{fill:#997f7b;}.cls-11{fill:#c27e77;}.cls-12{fill:#797979;}.cls-13{fill:#d1d0cf;}.cls-14{fill:#f1f1f2;}.cls-15{fill:#515151;}.cls-16{opacity:0.36;}.cls-17{opacity:0.61;}.cls-18{fill:#d1d1d1;}.cls-19{fill:#eaeaea;}.cls-20{opacity:0.58;}.cls-21{fill:#6d6e6f;}.cls-22{opacity:0.48;}.cls-23{fill:#484849;}</style></defs><title>Asset 1</title><g id="Layer_2" data-name="Layer 2"><g id="Graphic"><rect class="cls-1" width="374" height="374"/><path class="cls-2" d="M237,215.83h-32.3l.36-93.58c11.27-5,21.74-3.81,32,.18Z"/><path class="cls-3" d="M203.54,216.94a1.57,1.57,0,0,1-.46-1.11l.36-93.58a1.57,1.57,0,0,1,.93-1.43c10.47-4.65,21-4.6,33.21.15a1.58,1.58,0,0,1,1,1.46l-.06,93.4A1.58,1.58,0,0,1,237,217.4h-32.3A1.53,1.53,0,0,1,203.54,216.94Zm31.9-93.43c-10.57-3.91-19.8-4-28.87-.22l-.35,91h29.16Z"/><polygon class="cls-4" points="222.58 144.75 227.08 173.49 212.46 173.49 217.03 144.21 222.58 144.75"/><path class="cls-5" d="M216.36,143.34l6.91.68L228,174.28H211.53Zm5.53,2.14-4.19-.41-4.31,27.62h12.76Z"/><polygon class="cls-4" points="226.42 138 219.81 149.63 213.85 138 219.81 133.97 226.42 138"/><path class="cls-5" d="M212.82,137.73l7-4.71,7.71,4.7-7.72,13.58Zm7-2.82-5,3.35,5,9.69,5.51-9.68Z"/><path class="cls-6" d="M148.77,142.86a7.28,7.28,0,0,1,14.55.38s0,7.6,4.08,11.73c1.93,2,4.64,2.92,8.27,2.92,4.2,0,8.35-1.28,10.16-10.57l.3-1.56h0a40,40,0,0,1,2.13-9.15c2.56-7,8.94-13.39,18.07-16.65,1.72-.83,1.69.85,1.53,1.91l1-.43,11.24,45.71,10.72-45.71,3.59,1.72v-.37s-2.2-4,.35-2.83c9.52,3.26,16.92,9.85,19.6,16.89,1.45,3.83,1.67,8.2,1.67,12.3v4.34h0v78.2h-14V221.54l-7.86-.2V219l-26.3,1.17v1l-10.48.44V158.4c-3.43,7.65-9.86,14-21.79,14-7.67,0-14-2.48-18.72-7.35C148.5,156.44,148.76,143.41,148.77,142.86Z"/><polygon class="cls-6" points="221.43 214.44 220.92 214.44 199.38 214.44 199.38 324.88 218.64 324.88 218.64 238.01 223.71 238.01 223.71 324.88 242.97 324.88 242.97 214.44 221.43 214.44"/><g class="cls-7"><rect class="cls-6" x="198.51" y="210.54" width="43.65" height="12.13"/></g><path class="cls-8" d="M189.1,325h27.09a1.08,1.08,0,0,1,1.08,1.08v7.58a1.08,1.08,0,0,1-1.08,1.08H181.87a1.08,1.08,0,0,1-1.08-1.08v-.35A8.31,8.31,0,0,1,189.1,325Z"/><path class="cls-3" d="M179.42,333.63v-.35a9.69,9.69,0,0,1,9.68-9.68h27.09a2.45,2.45,0,0,1,2.45,2.45v7.58a2.45,2.45,0,0,1-2.45,2.44H181.87A2.45,2.45,0,0,1,179.42,333.63Zm36.49-7.29H189.1a7,7,0,0,0-6.95,6.94v.06h33.76Z"/><path class="cls-8" d="M225.81,325.5h33.93a1,1,0,0,1,1,1v7.18a1,1,0,0,1-1,1H232.82a8.06,8.06,0,0,1-8.06-8.06v-.17A1,1,0,0,1,225.81,325.5Z" transform="translate(485.56 660.27) rotate(-180)"/><path class="cls-3" d="M223.46,333.72v-7.17a2.35,2.35,0,0,1,2.35-2.35h26.93a9.37,9.37,0,0,1,9.36,9.36v.16a2.35,2.35,0,0,1-2.35,2.35H225.81A2.35,2.35,0,0,1,223.46,333.72Zm29.28-6.92H226.07v6.67h33.42A6.76,6.76,0,0,0,252.74,326.8Z"/><path class="cls-9" d="M219.49,133.8h0a10,10,0,0,1-10-10v-9.65a10,10,0,0,1,10-10h0a10,10,0,0,1,10,10v9.65A10,10,0,0,1,219.49,133.8Z"/><path class="cls-3" d="M209,123.8v-9.65a10.48,10.48,0,1,1,21,0v9.65a10.48,10.48,0,1,1-21,0Zm1-9.65v9.65a9.51,9.51,0,1,0,19,0v-9.65a9.51,9.51,0,1,0-19,0Z"/><ellipse class="cls-9" cx="247.31" cy="224.96" rx="10.24" ry="9.92"/><path class="cls-10" d="M244.47,232.14A10.37,10.37,0,0,0,253.05,216a10.35,10.35,0,1,1-14.66,14.16A10.27,10.27,0,0,0,244.47,232.14Z"/><path class="cls-3" d="M236.24,225a11.08,11.08,0,1,1,11.07,10.74A10.93,10.93,0,0,1,236.24,225Zm1.66,0a9.42,9.42,0,1,0,9.41-9.09A9.27,9.27,0,0,0,237.9,225Z"/><path class="cls-9" d="M195.82,100.4c.3,8.84,9.12,15.64,22,15.41h.45c12.83-.23,21.48-7.35,21.79-16.1l3.14-34c.35-9.89-10.73-18.07-24.85-18h-.49c-14.21,0-25.52,8.38-25.18,18.38Z"/><path class="cls-10" d="M213.19,48l.19,67.59c-10.81-1.19-17.3-7.4-17.57-15.2l-3.1-34.34C192.41,57.2,201.25,49.65,213.19,48Z"/><path class="cls-3" d="M195.36,100.41l-3.12-34.35c-.18-4.93,2.39-9.64,7.26-13.22a31.26,31.26,0,0,1,18.39-5.6h.58c14.32,0,25.59,8.39,25.23,18.47l-3.16,34c-.16,4.38-2.79,8.47-7.38,11.57s-8.55,4.79-14.86,4.9h-.53C204.68,116.38,195.67,109.42,195.36,100.41Zm23-52.29h-.49a30.24,30.24,0,0,0-17.77,5.4c-4.64,3.4-7.09,7.87-6.93,12.53l3.08,34.34h0c.29,8.6,8.89,15.26,21.5,15h.53c6.12-.11,9.95-1.78,14.33-4.74s6.88-6.84,7-11l3.11-34c.34-9.61-10.51-17.6-24.29-17.6Z"/><path class="cls-11" d="M201.35,84.21c2.45,0,4.44,1.71,4.44,3.81s-2,3.81-4.44,3.81S196.9,90.12,196.9,88,198.89,84.21,201.35,84.21Z"/><path class="cls-11" d="M226,84.21c2.45,0,4.44,1.71,4.44,3.81s-2,3.81-4.44,3.81-4.44-1.71-4.44-3.81S223.49,84.21,226,84.21Z"/><path class="cls-3" d="M212.76,90.33a2.65,2.65,0,0,0,1.71-.59.47.47,0,0,0,.05-.65.46.46,0,0,0-.65,0,1.88,1.88,0,0,1-2,.13,1.77,1.77,0,0,1-.9-1.7,2.35,2.35,0,0,1,1.2-1.69,3.33,3.33,0,0,1,1-.36l.38-.07V82a.47.47,0,0,0-.47-.46h0a.46.46,0,0,0-.46.46v2.64a4,4,0,0,0-.88.37,3.2,3.2,0,0,0-1.65,2.4,2.7,2.7,0,0,0,1.35,2.6A2.8,2.8,0,0,0,212.76,90.33Z"/><path class="cls-9" d="M240.61,77.72s7.41.5,7.06,6.29-7.76,5.34-7.76,5.34Z"/><path class="cls-3" d="M242.46,88.42a5.63,5.63,0,0,0,3.06-1.12,4.38,4.38,0,0,0,1.5-3.25A4.86,4.86,0,0,0,243.68,79a8.35,8.35,0,0,0-1.11-.21,1,1,0,0,1-.9-.76,2.53,2.53,0,0,1,0-.91.43.43,0,0,1,.08-.29c.28-.37,1.56.15,1.91.24a9.27,9.27,0,0,1,1.64.63,6.76,6.76,0,0,1,2.87,2.61,6.86,6.86,0,0,1,.81,3.9,6.19,6.19,0,0,1-2.17,4.54,8.34,8.34,0,0,1-5.4,1.57h0c-.52,0-1,.22-1-.28l.07-.73a1,1,0,0,1,1-.88C241.94,88.4,242.46,88.41,242.46,88.42Z"/><path class="cls-10" d="M242.1,80s3.48.31,3.28,3.72-3.69,3.14-3.69,3.14Z"/><path class="cls-3" d="M221.9,78.33a1.78,1.78,0,1,0,1.77-1.78A1.78,1.78,0,0,0,221.9,78.33Z"/><path class="cls-3" d="M201.47,78.33a1.78,1.78,0,1,0,1.77-1.78A1.78,1.78,0,0,0,201.47,78.33Z"/><path class="cls-3" d="M201.94,74.49h4.54a.42.42,0,0,0,.41-.41h0a1.23,1.23,0,0,0-1.23-1.23h-2.9a1.23,1.23,0,0,0-1.23,1.23h0A.41.41,0,0,0,201.94,74.49Z"/><path class="cls-3" d="M222,74.49h4.54a.42.42,0,0,0,.41-.41h0a1.23,1.23,0,0,0-1.23-1.23h-2.9a1.23,1.23,0,0,0-1.23,1.23h0A.42.42,0,0,0,222,74.49Z"/><polygon class="cls-2" points="230.86 121.44 219.96 133.97 229.95 140.02 230.86 121.44"/><path class="cls-3" d="M229.14,141.36l-10-6.05a1.55,1.55,0,0,1-.74-1.1,1.58,1.58,0,0,1,.36-1.27l10.91-12.53a1.57,1.57,0,0,1,2.75,1.1l-.91,18.58a1.56,1.56,0,0,1-.83,1.31,1.6,1.6,0,0,1-.74.19A1.58,1.58,0,0,1,229.14,141.36Zm-6.77-7.77,6.14,3.72.56-11.43Z"/><polygon class="cls-2" points="208.9 121.44 219.81 133.97 209.81 140.02 208.9 121.44"/><path class="cls-3" d="M209.07,141.4a1.58,1.58,0,0,1-.83-1.31l-.91-18.58a1.58,1.58,0,0,1,1-1.53,1.56,1.56,0,0,1,1.77.43L221,132.94a1.58,1.58,0,0,1,.37,1.27,1.61,1.61,0,0,1-.74,1.1l-10,6.05a1.58,1.58,0,0,1-.81.23A1.63,1.63,0,0,1,209.07,141.4Zm1.62-15.52.56,11.43,6.15-3.72Z"/><path class="cls-12" d="M242.53,77.5c-2.43-.62-3.87-3.15-4.43-5.59s-.53-5-1.39-7.37a10.33,10.33,0,0,0-7.05-6.33c-6.93-1.75-14.52,3.93-21.09,1.12-2.33-1-4.94-3-7-1.61-2.38,1.58-4.42,2.92-5.51,5.56s-1.28,5.55-1.6,8.39c-.19,1.72.39,4.45-.66,5.83-.44-3.65-1.45-8-1.28-11.67a17.38,17.38,0,0,1,1.08-5.91,15,15,0,0,1,4-5.12c9.15-8.18,23-10,34.57-5.79a18.62,18.62,0,0,1,6.12,3.38c3.27,2.91,4.72,7.32,5.69,11.58A20.79,20.79,0,0,1,242.53,77.5Z"/><path class="cls-5" d="M242.29,78.43c-2.45-.62-4.36-3-5.13-6.31-.23-1-.36-2-.49-3a19.28,19.28,0,0,0-.87-4.21,9.3,9.3,0,0,0-6.38-5.74c-3-.76-6.18,0-9.54.8-3.89.93-7.91,1.9-11.69.27-.52-.22-1.06-.49-1.59-.77-2-1-3.44-1.65-4.63-.86-2.29,1.52-4.11,2.73-5.07,5.07a26.18,26.18,0,0,0-1.42,7.1l-.11,1a14,14,0,0,0,0,1.74c0,1.58.09,3.36-.84,4.57a1,1,0,0,1-1.72-.47c-.13-1.08-.31-2.22-.5-3.43a42.25,42.25,0,0,1-.78-8.4,18.21,18.21,0,0,1,1.15-6.23,15.56,15.56,0,0,1,4.21-5.47c9-8,23.28-10.45,35.54-6a19.27,19.27,0,0,1,6.43,3.57c3.62,3.22,5.1,8.15,6,12.09a21.78,21.78,0,0,1-1.43,14.15,1,1,0,0,1-.87.55A1,1,0,0,1,242.29,78.43ZM198.16,55.51a13.83,13.83,0,0,0-3.72,4.79,16.34,16.34,0,0,0-1,5.57,23.71,23.71,0,0,0,.19,4.07,25.22,25.22,0,0,1,1.49-7c1.19-2.88,3.42-4.37,5.86-6,2.13-1.41,4.44-.23,6.49.81.5.25,1,.5,1.48.71,3.2,1.37,6.74.52,10.49-.37,3.43-.82,7-1.67,10.45-.8a11.29,11.29,0,0,1,7.72,6.94,21.11,21.11,0,0,1,1,4.63c.13,1,.25,1.93.46,2.85s1,3.57,3,4.59a19.82,19.82,0,0,0,.93-12.1c-.82-3.65-2.17-8.21-5.38-11.07a17.56,17.56,0,0,0-5.81-3.2,35.52,35.52,0,0,0-12.1-2.11C211.62,47.8,203.78,50.48,198.16,55.51Z"/><path class="cls-5" d="M213,103.06c6.59,0,9.8-5.74,9.84-5.82a.48.48,0,0,0-.85-.46c-.19.35-4.7,8.37-14.38,4a.5.5,0,0,0-.64.25.48.48,0,0,0,.25.64A14.14,14.14,0,0,0,213,103.06Z"/><g id="_Group_" data-name="&lt;Group&gt;"><path class="cls-13" d="M172.55,153.08c5.06-8.86-2.05-18.29-11.25-17.69l4.55,22.84C168.68,157.19,171.1,155.69,172.55,153.08Z"/><path class="cls-2" d="M185.92,154.24l-4.7-23.58-20.07,4,.15.74c9.2-.6,16.31,8.83,11.25,17.69-1.45,2.61-3.87,4.11-6.7,5.15h0Z"/><path class="cls-6" d="M186,154.84l-20.07,4a.6.6,0,0,1-.71-.48l-4.7-23.59a.59.59,0,0,1,.47-.71l20.07-4a.6.6,0,0,1,.71.48l4.7,23.58A.6.6,0,0,1,186,154.84Zm-19.71,2.68,18.87-3.76-4.46-22.39-18.87,3.76Z"/><path class="cls-2" d="M180.35,126.29a1.65,1.65,0,0,0-1.94-1.29l-16.83,3.35a1.66,1.66,0,0,0-1.3,1.94l.87,4.36,20.07-4Z"/><path class="cls-6" d="M181.34,131.25l-20.07,4a.6.6,0,0,1-.71-.48l-.87-4.36a2.26,2.26,0,0,1,1.77-2.66l16.83-3.35a2.25,2.25,0,0,1,2.65,1.78l.87,4.36A.59.59,0,0,1,181.34,131.25Zm-19.71,2.69,18.87-3.76-.75-3.77a1,1,0,0,0-1.22-.81L161.7,129a1,1,0,0,0-.82,1.22Z"/><path class="cls-2" d="M165.85,158.24l.43,2.15a1.66,1.66,0,0,0,1.94,1.3l16.83-3.36a1.64,1.64,0,0,0,1.29-1.94l-.42-2.15Z"/><path class="cls-6" d="M185.17,158.93l-16.83,3.35a2.26,2.26,0,0,1-2.66-1.77l-.42-2.15a.61.61,0,0,1,.47-.72l20.07-4a.59.59,0,0,1,.71.47l.43,2.15A2.25,2.25,0,0,1,185.17,158.93Zm-18.6-.21.31,1.55a1,1,0,0,0,1.22.82l16.83-3.36a1,1,0,0,0,.82-1.22l-.31-1.55Z"/><circle class="cls-3" cx="162.99" cy="131.18" r="0.96" transform="translate(29.3 292.13) rotate(-89.11)"/><path class="cls-14" d="M163.57,131.07a.59.59,0,1,1-.7-.46A.6.6,0,0,1,163.57,131.07Z"/><path class="cls-3" d="M165.41,130.7a.4.4,0,0,1-.32.47.4.4,0,0,1-.46-.31.39.39,0,0,1,.31-.47A.41.41,0,0,1,165.41,130.7Z"/></g><ellipse class="cls-9" cx="159.49" cy="146.4" rx="11.94" ry="11.56"/><path class="cls-10" d="M162.8,154.77a12.11,12.11,0,0,1-10-18.83,12.07,12.07,0,1,0,17.1,16.51A12,12,0,0,1,162.8,154.77Z"/><path class="cls-3" d="M159.49,158.93A12.53,12.53,0,1,1,172.4,146.4,12.74,12.74,0,0,1,159.49,158.93Zm0-23.13a10.61,10.61,0,1,0,11,10.6A10.81,10.81,0,0,0,159.49,135.8Z"/><rect class="cls-15" x="191.17" y="74.67" width="1.69" height="4.92"/><path class="cls-3" d="M192.86,80.06h-1.69a.46.46,0,0,1-.46-.47V74.67a.46.46,0,0,1,.46-.46h1.69a.47.47,0,0,1,.46.46v4.92A.47.47,0,0,1,192.86,80.06Zm-1.23-.93h.77v-4h-.77Z"/><path class="cls-16" d="M211.53,78.82c.08-.43.42-4.12.05-4.15H192.75c-.06,0,0,3.38,0,3.66a6.91,6.91,0,0,0,.8,2.51h17.21A6.45,6.45,0,0,0,211.53,78.82Z"/><path class="cls-17" d="M193.58,80.84a6.05,6.05,0,0,0,1.76,2c3.07,2.21,7.84,2.47,11.37,1.32l.34-.12a7.26,7.26,0,0,0,3.74-3.18Z"/><path class="cls-3" d="M202.29,85.29a12.46,12.46,0,0,1-7.23-2.08,6.87,6.87,0,0,1-2.76-4.82s-.2-3.7.09-4l.14-.17h19.05a.55.55,0,0,1,.43.22c.49.63,0,4.45,0,4.49a7.51,7.51,0,0,1-4.79,5.57h0l-.36.13A14.92,14.92,0,0,1,202.29,85.29Zm-9.08-10.14c0,.88,0,2.88,0,3.13a5.94,5.94,0,0,0,2.37,4.15c2.72,2,7.21,2.47,10.94,1.26l.32-.12a6.54,6.54,0,0,0,4.18-4.84,23.86,23.86,0,0,0,.19-3.58Z"/><path class="cls-16" d="M236.05,78.33c0-.28.08-3.66,0-3.66H217.24c-.37,0,0,3.72,0,4.15a6.45,6.45,0,0,0,.74,2h17.21A6.92,6.92,0,0,0,236.05,78.33Z"/><path class="cls-17" d="M218,80.84A7.3,7.3,0,0,0,221.77,84l.34.12c3.53,1.15,8.3.89,11.37-1.32a6.05,6.05,0,0,0,1.76-2Z"/><path class="cls-3" d="M226.53,85.29A14.92,14.92,0,0,1,222,84.6l-.36-.13h0a7.51,7.51,0,0,1-4.79-5.57s-.49-3.86,0-4.49a.54.54,0,0,1,.4-.22h19.07l.15.17c.29.33.1,4,.09,4a6.87,6.87,0,0,1-2.76,4.82A12.46,12.46,0,0,1,226.53,85.29Zm-4.59-1.72.32.12c3.73,1.21,8.22.7,10.94-1.26a5.94,5.94,0,0,0,2.37-4.16c0-.24.06-2.24,0-3.12h-18a23.86,23.86,0,0,0,.19,3.58A6.54,6.54,0,0,0,221.94,83.57Z"/><path class="cls-15" d="M191.17,73.21H200a1,1,0,0,1,1,1v1.71a1,1,0,0,1-1,1h-8.83a0,0,0,0,1,0,0v-3.7A0,0,0,0,1,191.17,73.21Z"/><path class="cls-3" d="M200,77.38h-8.83a.46.46,0,0,1-.46-.46V73.21a.46.46,0,0,1,.46-.46H200a1.47,1.47,0,0,1,1.46,1.46v1.71A1.46,1.46,0,0,1,200,77.38Zm-8.37-.92H200a.54.54,0,0,0,.54-.54V74.21a.54.54,0,0,0-.54-.54h-8.37Z"/><rect class="cls-15" x="236.16" y="74.65" width="2.93" height="1.52"/><path class="cls-3" d="M239.09,76.64h-2.93a.47.47,0,0,1-.46-.46V74.65a.47.47,0,0,1,.46-.46h2.93a.47.47,0,0,1,.46.46v1.53A.47.47,0,0,1,239.09,76.64Zm-2.47-.92h2v-.61h-2Z"/><path class="cls-18" d="M197.84,75a.81.81,0,1,1-.8-.81A.8.8,0,0,1,197.84,75Z"/><path class="cls-3" d="M197,76a1,1,0,1,1,1-1A1,1,0,0,1,197,76Zm0-1.61a.58.58,0,1,0,.57.58A.58.58,0,0,0,197,74.38Z"/><path class="cls-18" d="M195,75a.81.81,0,1,1-.8-.81A.8.8,0,0,1,195,75Z"/><path class="cls-3" d="M194.22,76a1,1,0,1,1,1-1A1,1,0,0,1,194.22,76Zm0-1.61a.58.58,0,1,0,.57.58A.58.58,0,0,0,194.22,74.38Z"/><rect class="cls-15" x="211.85" y="74.71" width="5.25" height="1.7"/><path class="cls-3" d="M217.1,76.92h-5.25a.49.49,0,0,1-.46-.51v-1.7a.49.49,0,0,1,.46-.52h5.25a.49.49,0,0,1,.46.52v1.7A.49.49,0,0,1,217.1,76.92Zm-4.79-1h4.33v-.67h-4.33Z"/><rect class="cls-19" x="198.76" y="73.94" width="1.39" height="2.26" rx="0.31" ry="0.31"/><rect class="cls-20" x="79.91" y="31.51" width="125.28" height="82.11"/><g id="_Group_2" data-name="&lt;Group&gt;"><g id="_Group_3" data-name="&lt;Group&gt;"><path id="_Path_" data-name="&lt;Path&gt;" class="cls-2" d="M133.1,96.72c-5.81.88-11.73-.94-17.49-2.71-1.32-.41-2.69-.83-4-1.2l-2.6-.7c-2-.53-4.05-1.07-6-1.77a18.81,18.81,0,0,0-17.31,2.11l-.1-.14a19,19,0,0,1,17.46-2.13c2,.7,4,1.24,6,1.77.85.22,1.74.45,2.6.7,1.31.37,2.68.79,4,1.19,7.14,2.2,14.52,4.47,21.61,1.57a10.28,10.28,0,0,0,4.67-4,45.32,45.32,0,0,0,3.88-8.1,14,14,0,0,1,1.25-3,9.11,9.11,0,0,1,4.49-4.22c2.88-1.07,6.34-.1,10.28,2.88l-.1.14c-3.89-3-7.3-3.91-10.12-2.86a8.88,8.88,0,0,0-4.4,4.14,14.64,14.64,0,0,0-1.25,3,44.54,44.54,0,0,1-3.9,8.15,10.41,10.41,0,0,1-4.74,4.07A17.57,17.57,0,0,1,133.1,96.72Z"/></g><g id="_Group_4" data-name="&lt;Group&gt;"><path id="_Path_2" data-name="&lt;Path&gt;" class="cls-2" d="M161.65,92.25a21,21,0,0,1-11.35-3.68,20.05,20.05,0,0,1-3.41-3.42c-2-2.35-4.11-4.79-7.16-4.81a9.47,9.47,0,0,0-5.89,2.43,31.21,31.21,0,0,1-8.41,5.75,20.52,20.52,0,0,1-17.17-.23,19.84,19.84,0,0,1-4.3-3,48.07,48.07,0,0,1-6.33-6.83l-.1-.13c-1.47-1.86-3.48-4.42-6.26-3.26-2.13.88-4.93,7.81-5.54,9.7l-.15-.06c.61-1.9,3.45-8.89,5.63-9.8,2.88-1.21,4.94,1.41,6.45,3.32l.1.13a48.75,48.75,0,0,0,6.3,6.8,19.19,19.19,0,0,0,21.31,3.19,31.21,31.21,0,0,0,8.37-5.72,9.69,9.69,0,0,1,6-2.47c3.12,0,5.23,2.49,7.28,4.87a20.44,20.44,0,0,0,3.38,3.39,20.82,20.82,0,0,0,11.26,3.65Z"/></g><path id="_Path_3" data-name="&lt;Path&gt;" class="cls-16" d="M161.65,93.64A20.87,20.87,0,0,1,150.34,90c-3.46-2.44-5.87-8.2-10.61-8.24a9.64,9.64,0,0,0-5.94,2.45,31.21,31.21,0,0,1-8.39,5.73,20.42,20.42,0,0,1-17.11-.22c-3.23-1.58-7.46-5.69-9.69-8.6C97,79,93.45,73.54,90.83,77a35.33,35.33,0,0,0-5.18,10l0,19.28,76.11.14Z"/><path id="_Path_4" data-name="&lt;Path&gt;" class="cls-21" d="M93.18,74.7a.43.43,0,1,1-.43-.45A.44.44,0,0,1,93.18,74.7Z"/><path id="_Path_5" data-name="&lt;Path&gt;" class="cls-21" d="M115.5,93.69a.43.43,0,1,1-.86,0,.44.44,0,0,1,.43-.45A.43.43,0,0,1,115.5,93.69Z"/><path id="_Path_6" data-name="&lt;Path&gt;" class="cls-21" d="M131,96.86a.43.43,0,1,1-.86,0,.44.44,0,0,1,.43-.45A.44.44,0,0,1,131,96.86Z"/><path id="_Path_7" data-name="&lt;Path&gt;" class="cls-21" d="M146.35,83.47a.43.43,0,1,1-.43-.45A.44.44,0,0,1,146.35,83.47Z"/><path id="_Path_8" data-name="&lt;Path&gt;" class="cls-21" d="M153.48,75.76a.43.43,0,1,1-.86,0,.45.45,0,0,1,.43-.46A.45.45,0,0,1,153.48,75.76Z"/><g id="_Group_5" data-name="&lt;Group&gt;"><path id="_Path_9" data-name="&lt;Path&gt;" class="cls-2" d="M129.94,97c-4.79,0-9.61-1.49-14.33-2.94-1.32-.41-2.69-.83-4-1.2l-2.6-.7c-2-.53-4.05-1.07-6-1.77a18.77,18.77,0,0,0-17.31,2.11l-.1-.14a19,19,0,0,1,17.46-2.13c2,.7,4,1.24,6,1.77.85.22,1.74.45,2.6.7,1.31.37,2.68.79,4,1.19,7.14,2.2,14.52,4.47,21.61,1.57a10.28,10.28,0,0,0,4.67-4,45.32,45.32,0,0,0,3.88-8.1,14,14,0,0,1,1.25-3,9.11,9.11,0,0,1,4.49-4.22c2.88-1.07,6.34-.1,10.28,2.88l-.1.14c-3.89-3-7.3-3.91-10.12-2.86a8.88,8.88,0,0,0-4.4,4.14,14.64,14.64,0,0,0-1.25,3,44.54,44.54,0,0,1-3.9,8.15,10.41,10.41,0,0,1-4.74,4.07A19.17,19.17,0,0,1,129.94,97Z"/></g><g id="_Group_6" data-name="&lt;Group&gt;"><path id="_Path_10" data-name="&lt;Path&gt;" class="cls-2" d="M161.65,92.25a21,21,0,0,1-11.35-3.68,20.05,20.05,0,0,1-3.41-3.42c-2-2.35-4.11-4.79-7.16-4.81a9.49,9.49,0,0,0-5.89,2.43,31.21,31.21,0,0,1-8.41,5.75,20.52,20.52,0,0,1-17.17-.23,19.84,19.84,0,0,1-4.3-3,48.07,48.07,0,0,1-6.33-6.83l-.1-.13c-1.47-1.86-3.48-4.42-6.26-3.26-2.13.88-4.93,7.81-5.54,9.7l-.15-.06c.61-1.9,3.45-8.89,5.63-9.8,2.89-1.21,4.94,1.41,6.45,3.32l.1.13a48.19,48.19,0,0,0,6.3,6.8,19.19,19.19,0,0,0,21.31,3.19,31.21,31.21,0,0,0,8.37-5.72,9.64,9.64,0,0,1,6-2.47c3.12,0,5.23,2.49,7.28,4.87a20.44,20.44,0,0,0,3.38,3.39,20.82,20.82,0,0,0,11.26,3.65Z"/></g><path id="_Path_11" data-name="&lt;Path&gt;" class="cls-21" d="M93.18,74.7a.43.43,0,1,1-.43-.45A.44.44,0,0,1,93.18,74.7Z"/><path id="_Path_12" data-name="&lt;Path&gt;" class="cls-21" d="M115.5,93.69a.43.43,0,1,1-.86,0,.44.44,0,0,1,.43-.45A.43.43,0,0,1,115.5,93.69Z"/><path id="_Path_13" data-name="&lt;Path&gt;" class="cls-21" d="M131,96.86a.43.43,0,1,1-.86,0,.44.44,0,0,1,.43-.45A.44.44,0,0,1,131,96.86Z"/><path id="_Path_14" data-name="&lt;Path&gt;" class="cls-21" d="M146.35,83.47a.43.43,0,1,1-.43-.45A.44.44,0,0,1,146.35,83.47Z"/><path id="_Path_15" data-name="&lt;Path&gt;" class="cls-21" d="M153.48,75.76a.43.43,0,1,1-.86,0,.45.45,0,0,1,.43-.46A.45.45,0,0,1,153.48,75.76Z"/><path id="_Path_16" data-name="&lt;Path&gt;" class="cls-17" d="M85.64,93.8A18.73,18.73,0,0,1,103,91.69c2.79,1,5.74,1.66,8.59,2.46,8.55,2.4,17,6,25.81,2.56a13.29,13.29,0,0,0,6.77-6.84c2.42-4.86,3.11-11.75,9.15-13.15,3.24-.75,6.24,1.44,8.43,3.72l0,25.48-76.12-.14Z"/><g id="_Group_7" data-name="&lt;Group&gt;"><path id="_Path_17" data-name="&lt;Path&gt;" class="cls-2" d="M100.26,89.29a.73.73,0,1,1-.72-.77A.75.75,0,0,1,100.26,89.29Z"/><path id="_Path_18" data-name="&lt;Path&gt;" class="cls-2" d="M100,89.29a.52.52,0,0,1-.51.53.54.54,0,0,1,0-1.07A.51.51,0,0,1,100,89.29Z"/></g><g id="_Group_8" data-name="&lt;Group&gt;"><path id="_Path_19" data-name="&lt;Path&gt;" class="cls-2" d="M115.8,93.69a.75.75,0,0,1-.73.76.76.76,0,1,1,.73-.76Z"/><path id="_Path_20" data-name="&lt;Path&gt;" class="cls-2" d="M115.58,93.69a.51.51,0,1,1-.51-.54A.52.52,0,0,1,115.58,93.69Z"/></g><g id="_Group_9" data-name="&lt;Group&gt;"><path id="_Path_21" data-name="&lt;Path&gt;" class="cls-2" d="M131.32,96.86a.75.75,0,0,1-.73.76.76.76,0,1,1,.73-.76Z"/><path id="_Path_22" data-name="&lt;Path&gt;" class="cls-2" d="M131.1,96.86a.51.51,0,1,1-1,0,.51.51,0,0,1,.51-.53A.52.52,0,0,1,131.1,96.86Z"/></g><g id="_Group_10" data-name="&lt;Group&gt;"><path id="_Path_23" data-name="&lt;Path&gt;" class="cls-2" d="M146.65,83.47a.73.73,0,1,1-1.45,0,.74.74,0,0,1,.72-.76A.75.75,0,0,1,146.65,83.47Z"/><path id="_Path_24" data-name="&lt;Path&gt;" class="cls-2" d="M146.43,83.47a.51.51,0,1,1-.51-.54A.52.52,0,0,1,146.43,83.47Z"/></g><g id="_Group_11" data-name="&lt;Group&gt;"><path id="_Path_25" data-name="&lt;Path&gt;" class="cls-2" d="M153.78,75.76a.73.73,0,1,1-1.46,0,.73.73,0,1,1,1.46,0Z"/><path id="_Path_26" data-name="&lt;Path&gt;" class="cls-2" d="M153.56,75.76a.51.51,0,1,1-.51-.54A.52.52,0,0,1,153.56,75.76Z"/></g><g id="_Group_12" data-name="&lt;Group&gt;"><path id="_Path_27" data-name="&lt;Path&gt;" class="cls-2" d="M93.4,74.48a.73.73,0,1,1-1.45,0,.74.74,0,0,1,.72-.76A.75.75,0,0,1,93.4,74.48Z"/><path id="_Path_28" data-name="&lt;Path&gt;" class="cls-2" d="M93.18,74.48a.51.51,0,1,1-.51-.54A.52.52,0,0,1,93.18,74.48Z"/></g></g><rect class="cls-17" x="85.62" y="52.4" width="76.2" height="8.04"/><rect class="cls-17" x="85.62" y="46.03" width="76.2" height="3.09"/><rect class="cls-17" x="85.62" y="39.65" width="76.2" height="3.09"/><rect class="cls-17" x="165.29" y="46.03" width="33.76" height="3.09"/><rect class="cls-17" x="165.29" y="39.65" width="33.76" height="3.09"/><rect class="cls-16" x="165.29" y="52.4" width="34.03" height="47.23"/><rect class="cls-20" x="68.83" y="72.17" width="33.5" height="21.85"/><rect class="cls-20" x="64.2" y="23.04" width="21.66" height="14.13"/><g id="_Group_13" data-name="&lt;Group&gt;" class="cls-22"><g id="_Group_14" data-name="&lt;Group&gt;"><g id="_Group_15" data-name="&lt;Group&gt;"><path class="cls-23" d="M217.36,350H139.45c-.73,0-1.32-.86-1.32-1.91h0c0-1.05.59-1.91,1.32-1.91h77.91c.72,0,1.31.86,1.31,1.91h0C218.67,349.12,218.08,350,217.36,350Z"/></g></g></g><g id="_Group_16" data-name="&lt;Group&gt;" class="cls-22"><g id="_Group_17" data-name="&lt;Group&gt;"><g id="_Group_18" data-name="&lt;Group&gt;"><path class="cls-23" d="M224.71,350h-1.93c-.72,0-1.31-.86-1.31-1.91h0c0-1.05.59-1.91,1.31-1.91h1.93c.72,0,1.31.86,1.31,1.91h0C226,349.12,225.43,350,224.71,350Z"/></g></g></g><g id="_Group_19" data-name="&lt;Group&gt;" class="cls-22"><g id="_Group_20" data-name="&lt;Group&gt;"><g id="_Group_21" data-name="&lt;Group&gt;"><path class="cls-23" d="M269.19,361.74H193.38c-.77,0-1.4-.92-1.4-2h0c0-1.11.63-2,1.4-2h75.81c.77,0,1.4.92,1.4,2h0C270.59,360.82,270,361.74,269.19,361.74Z"/></g></g></g><g id="_Group_22" data-name="&lt;Group&gt;" class="cls-22"><g id="_Group_23" data-name="&lt;Group&gt;"><g id="_Group_24" data-name="&lt;Group&gt;"><path class="cls-23" d="M272,356h-3.51c-.77,0-1.4-.92-1.4-2h0c0-1.12.63-2,1.4-2H272c.77,0,1.4.91,1.4,2h0C273.36,355.12,272.73,356,272,356Z"/></g></g></g></g></g></svg>