<svg xmlns="http://www.w3.org/2000/svg" viewBox="0 0 374 374"><defs><style>.cls-1{fill:#95bcaa;}.cls-2{opacity:0.7;}.cls-3{fill:#f0f0f0;}.cls-4{fill:#c9c9c9;}.cls-5{fill:#969696;}.cls-6{fill:#c0d28a;}.cls-7{fill:#93baa7;}.cls-8{fill:#f9ec5e;}.cls-9{fill:#afafaf;}.cls-10{fill:#e3e3e3;}.cls-11{fill:#b66c65;}.cls-12{fill:#9b9b9b;}.cls-13{fill:#7594c6;}.cls-14{fill:#424243;}.cls-15{fill:#e7ae3c;}.cls-16{fill:#cd5350;}.cls-17{opacity:0.48;}.cls-18{fill:#484849;}.cls-19{fill:#fff;}.cls-20{fill:#f3d3c5;}.cls-21{fill:#e0c3b8;}.cls-22{fill:#404041;}.cls-23{fill:#bcbcbc;}.cls-24{fill:#212121;}.cls-25{fill:#4f74a5;}.cls-26{fill:#c27e77;}.cls-27{fill:#898989;}.cls-28{fill:#0a0a0a;}.cls-29{fill:#353e44;}.cls-30{fill:#475159;}.cls-31{fill:#6d6d6d;}.cls-32{fill:#464647;}.cls-33{fill:#272525;}.cls-34{fill:#f5d5c7;}.cls-35{fill:#efc5b6;}.cls-36{fill:#f1f1f2;}.cls-37{fill:#edc3b4;}.cls-38{fill:#c37e77;}.cls-39{opacity:0.45;}.cls-40{fill:#2d2e2a;}.cls-41{fill:#444445;}.cls-42{fill:#bead94;}.cls-43{fill:#d0534f;}.cls-44{fill:#cf6c65;}.cls-45{fill:#f0f1f1;}.cls-46{fill:#9ed1e3;}</style></defs><title>Asset 6</title><g id="Layer_2" data-name="Layer 2"><g id="Graphic"><rect class="cls-1" width="374" height="374"/><g class="cls-2"><rect class="cls-3" x="78.28" y="119.87" width="14.01" height="11.15"/><path class="cls-3" d="M314.59,184.61V42H52V184.61ZM87.12,150.25H66.51a.52.52,0,0,1,0-1H87.12a.52.52,0,0,1,0,1Zm0-4H66.51a.52.52,0,0,1,0-1H87.12a.52.52,0,0,1,0,1Zm0-4H66.51a.52.52,0,0,1,0-1H87.12a.52.52,0,0,1,0,1Zm36.33,21.13H97.92a.52.52,0,0,1-.52-.52.52.52,0,0,1,.52-.52h25.53a.52.52,0,0,1,.52.52A.52.52,0,0,1,123.45,163.33Zm0-4H97.92a.52.52,0,1,1,0-1h25.53a.52.52,0,1,1,0,1Zm0-4H97.92a.52.52,0,1,1,0-1h25.53a.52.52,0,1,1,0,1ZM97.92,106.68h25.53a.52.52,0,0,1,.52.52.52.52,0,0,1-.52.52H97.92a.52.52,0,0,1-.52-.52A.52.52,0,0,1,97.92,106.68Zm-.52-3.51a.51.51,0,0,1,.52-.51h25.53a.52.52,0,1,1,0,1H97.92A.52.52,0,0,1,97.4,103.17Zm.52,7.54h25.53a.52.52,0,1,1,0,1H97.92a.52.52,0,1,1,0-1Zm0,4h9.23a.52.52,0,0,1,0,1H97.92a.52.52,0,1,1,0-1Zm0,4h9.23a.52.52,0,0,1,.51.52.51.51,0,0,1-.51.52H97.92a.52.52,0,0,1-.52-.52A.52.52,0,0,1,97.92,118.76Zm26.34,30.6-3.3,3.19H113v-4.62H97.92V126.19h2.43V124h2.26v2.16h8V115h4.93v-2.15h2.26V115h4.93v15.62h-5.82v10.72h7.32Zm42.82,4.07h-18.6l.54,2.49-2.54,3.82-7.74,1.7-2.41-11,1.2-.27V132.77h13.65v-2.16h2.25v2.16h13.65ZM281.91,68h2.89V65.8h2.26V68h8.46V65.8h2.26V68h3.15V86.6l-6.45,6.48H281.91ZM260.1,68h8.39V65.79h2.25V68h8.38V86.6l-6.45,6.48H260.1Zm8.64,27.79,10.81,5.46V95.73h19v25.1h-19v-4.32l-5.16,10.2-17-8.58Zm-15.81,37h-5.82V146.7h-16.5v1.43l-3.3,3.19h-7.93V140.1h8.71V125h2.43V122.8h2.26V125h8v-7.81h4.93V115H248v2.16h4.94ZM134.64,83.08H143V80.92h2.26v2.16h5.94v-17h2.89V63.93h2.25v2.16h8.47V63.93h2.25v2.16h3.16V82.52l6,.87V61.76h6V58.07h2.51v3.69h58.66V58.07H246v3.69h5.43v49.81H176.26V94.74l-8.34-1.21L169,86l-5.23,5.27H153.66v4.51h5.94V93.57h2.25v2.16h8.38v22.44l7.69,1.1-1.13,8-3.73,2.69-7.84-1.12,1.13-8H151.22V104.18l-4,4H134.64Zm-32,7.62h19a.52.52,0,0,1,.52.52.53.53,0,0,1-.52.52h-19a.52.52,0,0,1-.52-.52A.52.52,0,0,1,102.61,90.7ZM98.69,88V82.17h11.42V88Zm23-.24h-8.2a.52.52,0,0,1,0-1h8.2a.52.52,0,1,1,0,1Zm0-4h-8.2a.52.52,0,0,1,0-1h8.2a.52.52,0,1,1,0,1ZM113,79.44V73.65h9.85v5.79Zm-15-17.59h24.09a.52.52,0,1,1,0,1H98.08a.52.52,0,1,1,0-1Zm0,4h24.09a.52.52,0,0,1,.52.52.52.52,0,0,1-.52.52H98.08a.52.52,0,0,1-.52-.52A.52.52,0,0,1,98.08,65.87Zm0,4h24.09a.52.52,0,1,1,0,1H98.08a.52.52,0,1,1,0-1Zm0,4h12.21a.52.52,0,1,1,0,1H98.08a.52.52,0,1,1,0-1Zm0,4h12.21a.52.52,0,1,1,0,1H98.08a.52.52,0,1,1,0-1ZM66.63,61.85H87a.52.52,0,1,1,0,1H66.63a.52.52,0,1,1,0-1Zm0,4H87a.52.52,0,0,1,.52.52.52.52,0,0,1-.52.52H66.63a.52.52,0,0,1-.52-.52A.52.52,0,0,1,66.63,65.87Zm0,4H87a.52.52,0,1,1,0,1H66.63a.52.52,0,1,1,0-1Zm-2,56.9H74.72a.52.52,0,1,1,0,1H64.6a.52.52,0,0,1,0-1Zm-.51-3.51a.51.51,0,0,1,.51-.52H74.72a.52.52,0,1,1,0,1H64.6A.51.51,0,0,1,64.09,123.29ZM77.25,131V119.87H62.72a.52.52,0,0,1,0-1H92.28V78.66H62.72a.52.52,0,0,1,0-1H92.28V57.39a.52.52,0,0,1,.52-.51.51.51,0,0,1,.52.51V96.85h34.33V57.39a.52.52,0,0,1,1,0V166.51a.52.52,0,0,1-1,0V97.88H93.32v68.63a.51.51,0,0,1-.52.51.52.52,0,0,1-.52-.51V132.06H62.72a.52.52,0,0,1-.51-.52.51.51,0,0,1,.51-.52ZM64.93,94.4,76,96,74.86,104l-3.73,2.68-7.84-1.16Zm-.88-2.12V81.05H75.28v8L72,92.28Zm25.4-2.73-3.57,2.9L78,91.78l1-11.19,11.19,1Zm.22,5.36v11.23H78.45V94.91Z"/><path class="cls-4" d="M153.66,91.22h10.13L169,86h0l-5.23,5.23V84.73h5.41l.33-2.31.71.1V66.09h-3.16v2.16h-2.25V66.09h-8.47v2.16h-2.25V66.09h-2.89v17h2.44Zm.45-17.84h13a.52.52,0,1,1,0,1h-13a.52.52,0,1,1,0-1Zm-.52,3.35a.52.52,0,0,1,.52-.52h13a.52.52,0,0,1,.52.52.52.52,0,0,1-.52.52h-13A.52.52,0,0,1,153.59,76.73Z"/><polygon class="cls-5" points="163.78 84.73 163.78 91.18 169.02 85.95 169.2 84.73 163.78 84.73"/><path class="cls-6" d="M279.12,86.6l-6.45,6.45V86.6h6.45V68h-8.38v2.16h-2.25V68H260.1V93.08h12.57ZM263,72.41h13a.52.52,0,1,1,0,1H263a.52.52,0,0,1,0-1Zm0,2.84h13a.52.52,0,1,1,0,1H263a.52.52,0,0,1,0-1Zm0,2.83h13a.52.52,0,1,1,0,1H263a.52.52,0,0,1,0-1Zm0,2.83h13a.52.52,0,0,1,.52.52A.52.52,0,0,1,276,82H263a.51.51,0,0,1-.51-.52A.52.52,0,0,1,263,80.91Zm-.51,3.35a.51.51,0,0,1,.51-.51h13a.52.52,0,1,1,0,1H263A.51.51,0,0,1,262.48,84.26Z"/><polygon class="cls-7" points="272.67 93.05 279.12 86.6 272.67 86.6 272.67 93.05"/><rect class="cls-8" x="268.49" y="65.79" width="2.26" height="2.16"/><rect class="cls-8" x="268.49" y="67.95" width="2.26" height="2.16"/><path class="cls-5" d="M263,73.44h13a.52.52,0,1,0,0-1H263a.52.52,0,0,0,0,1Zm13-.51h0Z"/><path class="cls-5" d="M263,76.28h13a.52.52,0,1,0,0-1H263a.52.52,0,0,0,0,1Zm13-.52h0Z"/><path class="cls-5" d="M263,79.11h13a.52.52,0,1,0,0-1H263a.52.52,0,0,0,0,1Zm13-.51h0Z"/><path class="cls-5" d="M263,82h13a.52.52,0,0,0,.52-.52.52.52,0,0,0-.52-.52H263a.52.52,0,0,0-.51.52A.51.51,0,0,0,263,82Zm13-.52h0Z"/><path class="cls-5" d="M276.49,84.26a.51.51,0,0,0-.52-.51H263a.52.52,0,0,0,0,1h13A.52.52,0,0,0,276.49,84.26Zm-13.5,0h0Z"/><polygon class="cls-9" points="294.48 93.05 300.93 86.6 294.48 86.6 294.48 93.05"/><path class="cls-4" d="M300.93,86.6l-6.45,6.45V86.6h6.45V68h-3.15v2.16h-2.26V68h-8.46v2.16H284.8V68h-2.89V93.08h12.57ZM284.8,75.25h13a.52.52,0,0,1,0,1h-13a.52.52,0,1,1,0-1Zm-.52,3.35a.52.52,0,0,1,.52-.52h13a.52.52,0,0,1,0,1h-13A.51.51,0,0,1,284.28,78.6Z"/><rect class="cls-8" x="284.8" y="65.8" width="2.26" height="2.16"/><rect class="cls-8" x="284.8" y="67.95" width="2.26" height="2.16"/><rect class="cls-8" x="295.52" y="65.8" width="2.26" height="2.16"/><rect class="cls-8" x="295.52" y="67.95" width="2.26" height="2.16"/><path class="cls-5" d="M284.8,76.28h13a.52.52,0,0,0,0-1h-13a.52.52,0,1,0,0,1Zm13-.52h0Z"/><path class="cls-5" d="M298.29,78.6a.51.51,0,0,0-.51-.52h-13a.52.52,0,1,0,0,1h13A.51.51,0,0,0,298.29,78.6Zm-13.49,0h0Z"/><path class="cls-10" d="M179,95.14l-2.77-.4v16.83H251.4V61.76H246v2.17h-2.51V61.76H184.8v2.17h-2.51V61.76h-6V83.39l4.38.64Zm19.76,7.29h-1.15a.52.52,0,0,1-.51-.52V101a.52.52,0,1,1,1,0v.4h.63a.51.51,0,0,1,.51.52A.52.52,0,0,1,198.79,102.43Zm-1.66-3.51V96.86a.52.52,0,1,1,1,0v2.06a.52.52,0,1,1-1,0Zm2.44-3.61a.51.51,0,0,1-.46.27h-2.87a.52.52,0,0,1-.43-.8l1.42-2.15a.52.52,0,0,1,.43-.24h0a.54.54,0,0,1,.43.23l1.45,2.16A.51.51,0,0,1,199.57,95.31Zm3.35,7.12h-2.07a.52.52,0,0,1-.51-.52.51.51,0,0,1,.51-.52h2.07a.52.52,0,0,1,.52.52A.53.53,0,0,1,202.92,102.43Zm4.13,0H205a.52.52,0,0,1-.51-.52.51.51,0,0,1,.51-.52h2.07a.52.52,0,0,1,.52.52A.52.52,0,0,1,207.05,102.43Zm16.52,0h-2.06a.52.52,0,0,1-.52-.52.52.52,0,0,1,.52-.52h2.06a.52.52,0,0,1,.52.52A.52.52,0,0,1,223.57,102.43Zm4.14,0h-2.07a.53.53,0,0,1-.52-.52.52.52,0,0,1,.52-.52h2.07a.51.51,0,0,1,.51.52A.52.52,0,0,1,227.71,102.43Zm3.42-.52a.52.52,0,0,1-.52.52h-.84a.52.52,0,0,1-.51-.52.51.51,0,0,1,.51-.52h.33v-.7a.52.52,0,1,1,1,0Zm0-3.29a.52.52,0,1,1-1,0V96.56a.52.52,0,1,1,1,0Zm-.52-31a13.38,13.38,0,0,1,9.25,3.7A13.09,13.09,0,0,1,241.34,73,13.31,13.31,0,0,1,244,80.53c0,.17,0,.35,0,.52a13.41,13.41,0,1,1-13.41-13.41Zm-13.23,33.75h2.06a.52.52,0,0,1,.52.52.52.52,0,0,1-.52.52h-2.06a.52.52,0,0,1-.52-.52A.52.52,0,0,1,217.38,101.39Zm-4.13,0h2.06a.52.52,0,0,1,.52.52.52.52,0,0,1-.52.52h-2.06a.52.52,0,0,1-.52-.52A.52.52,0,0,1,213.25,101.39Zm-4.13,0h2.06a.52.52,0,0,1,.52.52.52.52,0,0,1-.52.52h-2.06a.52.52,0,0,1-.52-.52A.52.52,0,0,1,209.12,101.39ZM189.05,65.25h8.39V63.09h2.25v2.16h8.38V83.89h0l-.23.24-6.22,6.25H189.05Z"/><path class="cls-10" d="M279.55,116.51V101.2l-10.81-5.46-11.32,22.39,17,8.58ZM268.86,99.9a1.38,1.38,0,1,1,.61,1.86A1.38,1.38,0,0,1,268.86,99.9Zm-1.35,4.59a.53.53,0,0,1,.69-.23l11,5.55a.51.51,0,0,1-.23,1,.46.46,0,0,1-.23,0l-11-5.54A.52.52,0,0,1,267.51,104.49Zm-1.34,2.66a.51.51,0,0,1,.69-.23l11,5.54a.51.51,0,0,1,.23.69.52.52,0,0,1-.46.29.46.46,0,0,1-.23-.06l-11-5.54A.51.51,0,0,1,266.17,107.15Zm-1.34,2.65a.51.51,0,0,1,.69-.23l11,5.54a.52.52,0,0,1,.23.7.51.51,0,0,1-.46.28A.46.46,0,0,1,276,116l-11-5.54A.51.51,0,0,1,264.83,109.8Zm-1.35,2.65a.52.52,0,0,1,.7-.23l11,5.54a.53.53,0,0,1,.23.7.51.51,0,0,1-.46.28.69.69,0,0,1-.24,0l-11-5.55A.53.53,0,0,1,263.48,112.45Z"/><path class="cls-11" d="M269.47,101.76a1.39,1.39,0,1,0-.61-1.86A1.38,1.38,0,0,0,269.47,101.76Z"/><path class="cls-5" d="M267.73,105.19l11,5.54a.46.46,0,0,0,.23,0,.51.51,0,0,0,.23-1l-11-5.55a.52.52,0,0,0-.47.93Z"/><path class="cls-5" d="M266.39,107.84l11,5.54a.46.46,0,0,0,.23.06.52.52,0,0,0,.46-.29.51.51,0,0,0-.23-.69l-11-5.54a.52.52,0,0,0-.47.92Z"/><path class="cls-5" d="M265.05,110.49,276,116a.46.46,0,0,0,.23.06.51.51,0,0,0,.46-.28.52.52,0,0,0-.23-.7l-11-5.54a.51.51,0,0,0-.69.23A.51.51,0,0,0,265.05,110.49Z"/><path class="cls-5" d="M274.91,118.74a.51.51,0,0,0,.46-.28.53.53,0,0,0-.23-.7l-11-5.54a.52.52,0,0,0-.7.23.53.53,0,0,0,.23.69l11,5.55A.69.69,0,0,0,274.91,118.74Z"/><polygon class="cls-10" points="153.66 101.72 153.43 101.96 151.22 104.18 151.22 120.83 166.35 120.83 166.8 117.69 170.24 118.17 170.24 95.73 161.85 95.73 161.85 97.89 159.6 97.89 159.6 95.73 153.66 95.73 153.66 101.72 153.66 101.72"/><rect class="cls-11" x="159.6" y="93.57" width="2.26" height="2.16"/><rect class="cls-11" x="159.6" y="95.73" width="2.26" height="2.16"/><path class="cls-7" d="M295.2,103.58a.52.52,0,0,1,.52.52.53.53,0,0,1-.52.52h-9.64l-1,1.94H295.2a.52.52,0,1,1,0,1H284.06l-1,1.94H295.2a.52.52,0,1,1,0,1H282.92a.52.52,0,0,1-.31-.1l-3.06,6.05v4.32h19V95.73h-19v5.47l4.71,2.38Zm0,12.92H282.92a.52.52,0,1,1,0-1H295.2a.52.52,0,1,1,0,1Zm0-3H282.92a.52.52,0,1,1,0-1H295.2a.52.52,0,1,1,0,1ZM289.06,98a1.39,1.39,0,1,1-1.39,1.39A1.38,1.38,0,0,1,289.06,98Z"/><path class="cls-7" d="M282.61,110.46a.53.53,0,0,1-.21-.42.51.51,0,0,1,.52-.51h.16l1-1.94h-1.14a.52.52,0,1,1,0-1h1.66l1-1.94h-2.64a.52.52,0,0,1-.52-.52.52.52,0,0,1,.52-.52h1.34l-4.71-2.38v15.31Z"/><polygon class="cls-7" points="116.94 141.33 116.94 130.61 110.64 130.61 110.64 126.19 102.61 126.19 102.61 128.35 100.35 128.35 100.35 126.19 97.92 126.19 97.92 147.93 113.03 147.93 113.03 141.33 116.94 141.33"/><path class="cls-6" d="M230.61,94.46A13.41,13.41,0,0,0,244,81.05c0-.17,0-.35,0-.52l-13.4.52,9.25-9.71a13.41,13.41,0,1,0-9.25,23.12Z"/><path class="cls-11" d="M244,80.53A13.31,13.31,0,0,0,241.34,73a13.09,13.09,0,0,0-1.48-1.67l-9.25,9.71Z"/><rect class="cls-12" x="314.54" y="38.85" width="5.16" height="146.83"/><path class="cls-12" d="M51.28,42h264a.71.71,0,0,1,.2,0h4.25v-5H46.83v5h4.26A.65.65,0,0,1,51.28,42Z"/><path class="cls-13" d="M315.25,40.28h4.45v0h-4.25Z"/><path class="cls-12" d="M315.15,184.56H51.38a.6.6,0,0,1-.29.08H46.83v5.08H319.7v-5.08h-4.25A.61.61,0,0,1,315.15,184.56Z"/><path class="cls-13" d="M315.45,186.38h4.25v0h-4.55A.94.94,0,0,0,315.45,186.38Z"/><path class="cls-14" d="M315.45,185.52h.85s0,0,0-.05h-.86Z"/><rect class="cls-12" x="46.83" y="39.45" width="5.12" height="145.15"/><rect class="cls-13" x="46.83" y="41.98" width="3.39" height="0.02"/><rect class="cls-13" x="46.83" y="184.61" width="3.39" height="0.06"/><path class="cls-5" d="M92.8,119.87V131a.52.52,0,0,1,.52.52V119.36A.51.51,0,0,1,92.8,119.87Z"/><path class="cls-5" d="M92.8,118.84v-21h0a.52.52,0,0,1-.52-.52v21.48Z"/><polygon class="cls-5" points="92.28 119.87 92.28 131.02 92.8 131.02 92.8 131.02 92.8 119.87 92.8 119.87 92.28 119.87"/><path class="cls-5" d="M92.8,77.63v0a.52.52,0,0,1,.52.52V57.39a.51.51,0,0,0-.52-.51.52.52,0,0,0-.52.51V77.63Z"/><path class="cls-5" d="M92.8,96.85h0V78.66h-.52v18.7A.52.52,0,0,1,92.8,96.85Z"/><path class="cls-5" d="M92.8,132.06v0h-.52v34.45a.52.52,0,0,0,.52.51.51.51,0,0,0,.52-.51v-35A.52.52,0,0,1,92.8,132.06Z"/><path class="cls-5" d="M92.8,118.84a.52.52,0,0,1,.52.52V97.88H92.8Z"/><path class="cls-5" d="M92.8,78.66V96.85h.52V78.15A.51.51,0,0,1,92.8,78.66Z"/><path class="cls-5" d="M128.17,57.39V96.85h0a.51.51,0,0,1,.51.51v-40a.52.52,0,0,0-1,0V96.85h.52Z"/><path class="cls-5" d="M128.17,97.88h0v0h-.52v68.63a.52.52,0,0,0,1,0V97.36A.51.51,0,0,1,128.17,97.88Z"/><path class="cls-5" d="M62.72,78.15H92.28v-.52H62.72a.52.52,0,0,0,0,1H92.28v-.51Z"/><polygon class="cls-5" points="92.8 78.66 92.8 78.15 92.28 78.15 92.28 78.66 92.8 78.66 92.8 78.66"/><polygon class="cls-5" points="92.8 78.15 92.8 77.63 92.8 77.63 92.28 77.63 92.28 78.15 92.8 78.15"/><path class="cls-5" d="M92.8,77.63v1a.52.52,0,1,0,0-1Z"/><path class="cls-5" d="M77.25,119.36h0a.52.52,0,1,1,1,0h14v-.52H62.72a.52.52,0,0,0,0,1H77.25v-.51Z"/><polygon class="cls-5" points="92.28 119.36 78.28 119.36 78.28 119.36 78.28 119.87 92.28 119.87 92.28 119.36"/><path class="cls-5" d="M92.8,118.84v1a.52.52,0,1,0,0-1Z"/><polygon class="cls-5" points="92.8 119.87 92.8 119.87 92.8 119.36 92.28 119.36 92.28 119.87 92.8 119.87"/><polygon class="cls-5" points="92.8 119.36 92.8 118.84 92.8 118.84 92.28 118.84 92.28 119.36 92.8 119.36"/><polygon class="cls-5" points="92.28 131.02 78.28 131.02 78.28 131.54 78.28 131.54 92.28 131.54 92.28 131.02"/><path class="cls-5" d="M78.28,131.54a.52.52,0,0,1-.52.52H92.28v-.52Z"/><path class="cls-5" d="M62.21,131.54a.52.52,0,0,0,.51.52h15a.52.52,0,0,1-.51-.52h0V131H62.72A.51.51,0,0,0,62.21,131.54Z"/><polygon class="cls-5" points="92.28 131.02 92.28 131.54 92.8 131.54 92.8 131.02 92.8 131.02 92.28 131.02"/><polygon class="cls-5" points="92.8 132.06 92.8 131.54 92.28 131.54 92.28 132.06 92.8 132.06 92.8 132.06"/><path class="cls-5" d="M92.8,131v1a.52.52,0,0,0,.52-.52A.52.52,0,0,0,92.8,131Z"/><rect class="cls-5" x="93.32" y="97.36" width="34.33" height="0.52"/><rect class="cls-5" x="93.32" y="96.85" width="34.33" height="0.52"/><rect class="cls-5" x="92.8" y="96.85" width="0.52" height="0.52"/><rect class="cls-5" x="92.8" y="97.36" width="0.52" height="0.52"/><path class="cls-5" d="M92.8,97.88h0v-1h0a.52.52,0,1,0,0,1Z"/><rect class="cls-5" x="127.65" y="96.85" width="0.52" height="0.52"/><rect class="cls-5" x="127.65" y="97.36" width="0.52" height="0.52"/><path class="cls-5" d="M128.17,96.85h0v1h0a.52.52,0,0,0,0-1Z"/><rect class="cls-5" x="77.76" y="119.87" width="0.52" height="11.15"/><rect class="cls-5" x="77.25" y="119.87" width="0.52" height="11.15"/><path class="cls-5" d="M77.76,118.84a.51.51,0,0,0-.51.52h1A.52.52,0,0,0,77.76,118.84Z"/><polygon class="cls-5" points="77.76 119.36 77.76 119.87 78.28 119.87 78.28 119.36 78.28 119.36 77.25 119.36 77.25 119.36 77.25 119.87 77.76 119.87 77.76 119.36"/><path class="cls-5" d="M78.28,131.54h-1a.52.52,0,1,0,1,0Z"/><polygon class="cls-5" points="77.25 131.54 78.28 131.54 78.28 131.54 78.28 131.02 77.76 131.02 77.76 131.54 77.76 131.02 77.25 131.02 77.25 131.54 77.25 131.54"/><path class="cls-5" d="M98.08,62.88h24.09a.52.52,0,1,0,0-1H98.08a.52.52,0,1,0,0,1Z"/><path class="cls-5" d="M98.08,66.91h24.09a.52.52,0,0,0,.52-.52.52.52,0,0,0-.52-.52H98.08a.52.52,0,0,0-.52.52A.52.52,0,0,0,98.08,66.91Z"/><path class="cls-5" d="M98.08,70.93h24.09a.52.52,0,1,0,0-1H98.08a.52.52,0,1,0,0,1Z"/><path class="cls-5" d="M98.08,75h12.21a.52.52,0,1,0,0-1H98.08a.52.52,0,1,0,0,1Z"/><path class="cls-5" d="M98.08,79h12.21a.52.52,0,1,0,0-1H98.08a.52.52,0,1,0,0,1Z"/><path class="cls-5" d="M64.6,123.8H74.72a.52.52,0,1,0,0-1H64.6a.52.52,0,0,0,0,1Z"/><path class="cls-5" d="M64.6,127.83H74.72a.52.52,0,1,0,0-1H64.6a.52.52,0,0,0,0,1Z"/><path class="cls-5" d="M102.61,91.74h19a.53.53,0,0,0,.52-.52.52.52,0,0,0-.52-.52h-19a.52.52,0,0,0-.52.52A.52.52,0,0,0,102.61,91.74Z"/><path class="cls-5" d="M121.72,86.68h-8.2a.52.52,0,0,0,0,1h8.2a.52.52,0,1,0,0-1Z"/><path class="cls-5" d="M121.72,82.65h-8.2a.52.52,0,0,0,0,1h8.2a.52.52,0,1,0,0-1Z"/><path class="cls-5" d="M97.92,103.69h25.53a.52.52,0,1,0,0-1H97.92a.52.52,0,1,0,0,1Z"/><path class="cls-5" d="M97.92,107.72h25.53a.52.52,0,0,0,.52-.52.52.52,0,0,0-.52-.52H97.92a.52.52,0,0,0-.52.52A.52.52,0,0,0,97.92,107.72Z"/><path class="cls-5" d="M97.92,111.74h25.53a.52.52,0,1,0,0-1H97.92a.52.52,0,1,0,0,1Z"/><path class="cls-5" d="M123.45,154.24H97.92a.52.52,0,1,0,0,1h25.53a.52.52,0,1,0,0-1Z"/><path class="cls-5" d="M123.45,158.27H97.92a.52.52,0,1,0,0,1h25.53a.52.52,0,1,0,0-1Z"/><path class="cls-5" d="M123.45,162.29H97.92a.52.52,0,0,0-.52.52.52.52,0,0,0,.52.52h25.53a.52.52,0,0,0,.52-.52A.52.52,0,0,0,123.45,162.29Z"/><path class="cls-5" d="M87.12,141.17H66.51a.52.52,0,0,0,0,1H87.12a.52.52,0,0,0,0-1Z"/><path class="cls-5" d="M87.12,145.19H66.51a.52.52,0,0,0,0,1H87.12a.52.52,0,0,0,0-1Z"/><path class="cls-5" d="M87.12,149.22H66.51a.52.52,0,0,0,0,1H87.12a.52.52,0,0,0,0-1Z"/><path class="cls-5" d="M66.63,62.88H87a.52.52,0,1,0,0-1H66.63a.52.52,0,1,0,0,1Z"/><path class="cls-5" d="M66.63,66.91H87a.52.52,0,0,0,.52-.52.52.52,0,0,0-.52-.52H66.63a.52.52,0,0,0-.52.52A.52.52,0,0,0,66.63,66.91Z"/><path class="cls-5" d="M66.63,70.93H87a.52.52,0,1,0,0-1H66.63a.52.52,0,1,0,0,1Z"/><path class="cls-5" d="M97.92,115.77h9.23a.52.52,0,0,0,0-1H97.92a.52.52,0,1,0,0,1Z"/><path class="cls-5" d="M97.92,119.8h9.23a.51.51,0,0,0,.51-.52.52.52,0,0,0-.51-.52H97.92a.52.52,0,0,0-.52.52A.52.52,0,0,0,97.92,119.8Z"/><polygon class="cls-4" points="116.94 130.61 122.76 130.61 122.76 114.99 117.83 114.99 117.83 117.15 115.57 117.15 115.57 114.99 110.64 114.99 110.64 126.19 116.94 126.19 116.94 130.61"/><rect class="cls-4" x="110.64" y="126.19" width="6.3" height="4.42"/><rect class="cls-8" x="113.03" y="73.65" width="9.85" height="5.78"/><rect class="cls-8" x="98.69" y="82.17" width="11.42" height="5.78"/><rect class="cls-13" x="115.57" y="112.84" width="2.26" height="2.16"/><rect class="cls-13" x="115.57" y="114.99" width="2.26" height="2.16"/><rect class="cls-13" x="100.35" y="124.03" width="2.26" height="2.16"/><rect class="cls-13" x="100.35" y="126.19" width="2.26" height="2.16"/><polygon class="cls-10" points="153.66 101.72 153.66 101.72 153.43 101.96 153.66 101.72"/><rect class="cls-5" x="147.21" y="101.72" height="6.45"/><polygon class="cls-5" points="151.22 101.72 147.21 101.72 147.21 108.17 151.22 104.17 151.22 101.72"/><polygon class="cls-5" points="153.66 101.72 151.22 101.72 151.22 104.17 153.66 101.72"/><path class="cls-10" d="M151.22,104.18h0l-4,4h0v-6.45h4v-6h2.44V91.22h-2.44V83.08h-5.94v2.16H143V83.08h-8.38v25.13h12.57ZM137.53,87.54h13a.52.52,0,0,1,0,1h-13a.52.52,0,1,1,0-1Zm0,2.83h13a.52.52,0,0,1,0,1h-13a.52.52,0,1,1,0-1Zm0,2.83h13a.52.52,0,0,1,.51.52.51.51,0,0,1-.51.52h-13a.52.52,0,0,1-.52-.52A.52.52,0,0,1,137.53,93.2Zm0,2.84h13a.52.52,0,0,1,0,1h-13a.52.52,0,1,1,0-1ZM137,99.39a.52.52,0,0,1,.52-.52h13a.51.51,0,0,1,.51.52.52.52,0,0,1-.51.52h-13A.52.52,0,0,1,137,99.39Z"/><rect class="cls-10" x="151.22" y="83.08" width="2.44" height="8.14"/><rect class="cls-10" x="151.22" y="95.73" width="2.44" height="5.99"/><polygon class="cls-10" points="151.22 104.17 151.22 104.18 153.43 101.96 151.22 104.17"/><polygon class="cls-10" points="147.21 108.17 147.21 108.17 151.22 104.17 151.22 104.17 147.21 108.17"/><polygon class="cls-10" points="153.66 101.72 151.22 104.17 151.22 104.17 153.43 101.96 153.66 101.72"/><rect class="cls-8" x="143.02" y="80.92" width="2.26" height="2.16"/><rect class="cls-8" x="143.02" y="83.08" width="2.26" height="2.16"/><path class="cls-5" d="M137.53,88.57h13a.52.52,0,0,0,0-1h-13a.52.52,0,1,0,0,1Z"/><path class="cls-5" d="M137.53,91.4h13a.52.52,0,0,0,0-1h-13a.52.52,0,1,0,0,1Z"/><path class="cls-5" d="M137.53,94.24h13a.51.51,0,0,0,.51-.52.52.52,0,0,0-.51-.52h-13a.52.52,0,0,0-.52.52A.52.52,0,0,0,137.53,94.24Z"/><path class="cls-5" d="M137.53,97.07h13a.52.52,0,0,0,0-1h-13a.52.52,0,1,0,0,1Z"/><path class="cls-5" d="M151,99.39a.51.51,0,0,0-.51-.52h-13a.52.52,0,0,0-.52.52.52.52,0,0,0,.52.52h13A.52.52,0,0,0,151,99.39Z"/><rect class="cls-13" x="154.11" y="63.93" width="2.26" height="2.16"/><rect class="cls-13" x="154.11" y="66.09" width="2.26" height="2.16"/><rect class="cls-13" x="164.83" y="63.93" width="2.26" height="2.16"/><rect class="cls-13" x="164.83" y="66.09" width="2.26" height="2.16"/><path class="cls-5" d="M154.11,74.41h13a.52.52,0,1,0,0-1h-13a.52.52,0,1,0,0,1Zm13-.51h0Z"/><path class="cls-5" d="M154.11,77.25h13a.52.52,0,0,0,.52-.52.52.52,0,0,0-.52-.52h-13a.52.52,0,0,0-.52.52A.52.52,0,0,0,154.11,77.25Zm13-.52h0Z"/><path class="cls-11" d="M289.06,100.78a1.39,1.39,0,1,0-1.39-1.39A1.38,1.38,0,0,0,289.06,100.78Z"/><path class="cls-5" d="M295.72,104.1a.52.52,0,0,0-.52-.52H284.26l1,.52h0l.43.22-.15.3h9.64A.53.53,0,0,0,295.72,104.1Z"/><path class="cls-5" d="M285.28,104.1h0l-1-.52h-1.34a.52.52,0,0,0-.52.52.52.52,0,0,0,.52.52h2.64l.15-.3Z"/><path class="cls-5" d="M295.72,107.07a.52.52,0,0,0-.52-.51H284.58l-.26.51h0l-.26.52H295.2A.52.52,0,0,0,295.72,107.07Z"/><path class="cls-5" d="M282.92,107.07h1.4l.26-.51h-1.66a.52.52,0,1,0,0,1h1.14l.26-.52Z"/><path class="cls-5" d="M295.2,110.56a.52.52,0,1,0,0-1H283.08l-.47.93a.52.52,0,0,0,.31.1Zm0-.52h0Z"/><path class="cls-5" d="M282.92,109.53a.51.51,0,0,0-.52.51.53.53,0,0,0,.21.42l.47-.93Z"/><path class="cls-5" d="M295.2,112.5H282.92a.52.52,0,1,0,0,1H295.2a.52.52,0,1,0,0-1Zm-12.28.52h0Z"/><path class="cls-5" d="M295.2,115.47H282.92a.52.52,0,1,0,0,1H295.2a.52.52,0,1,0,0-1Zm-12.28.52h0Z"/><polygon class="cls-8" points="169.02 85.95 167.92 93.53 176.26 94.74 176.26 83.39 170.24 82.52 170.24 84.73 169.02 85.95"/><polygon class="cls-8" points="169.02 85.95 169.02 85.95 170.24 84.73 169.02 85.95"/><polygon class="cls-8" points="169.2 84.73 170.24 84.73 170.24 82.52 169.53 82.42 169.2 84.73"/><polygon class="cls-8" points="169.2 84.73 169.02 85.95 170.24 84.73 169.2 84.73"/><polygon class="cls-8" points="179.03 95.14 180.64 84.03 176.26 83.39 176.26 94.74 179.03 95.14"/><rect class="cls-7" x="78.45" y="94.91" width="11.23" height="11.23"/><polygon class="cls-15" points="173.06 129.92 176.79 127.22 173.51 126.76 173.06 129.92"/><polygon class="cls-8" points="166.35 120.83 165.22 128.8 173.06 129.92 173.51 126.76 176.79 127.22 177.92 119.27 170.24 118.17 170.24 120.83 166.35 120.83"/><polygon class="cls-8" points="166.35 120.83 170.24 120.83 170.24 118.17 166.8 117.69 166.35 120.83"/><polygon class="cls-16" points="120.96 152.55 124.26 149.36 120.96 149.36 120.96 152.55"/><polygon class="cls-11" points="116.94 147.93 113.03 147.93 113.03 152.55 120.96 152.55 120.96 149.36 124.26 149.36 124.26 141.33 116.94 141.33 116.94 147.93"/><rect class="cls-11" x="113.03" y="141.33" width="3.91" height="6.61"/><polygon class="cls-9" points="240.81 124.96 232.78 124.96 232.78 127.12 230.52 127.12 230.52 124.96 228.09 124.96 228.09 140.1 230.61 140.1 230.61 146.7 247.11 146.7 247.11 132.77 240.81 132.77 240.81 124.96"/><polygon class="cls-4" points="248 119.31 245.74 119.31 245.74 117.15 240.81 117.15 240.81 124.96 247.11 124.96 247.11 132.77 252.93 132.77 252.93 117.15 248 117.15 248 119.31"/><rect class="cls-4" x="240.81" y="124.96" width="6.3" height="7.81"/><rect class="cls-11" x="245.74" y="114.99" width="2.26" height="2.16"/><rect class="cls-11" x="245.74" y="117.15" width="2.26" height="2.16"/><rect class="cls-11" x="230.52" y="122.8" width="2.26" height="2.16"/><rect class="cls-11" x="230.52" y="124.96" width="2.26" height="2.16"/><polygon class="cls-16" points="227.31 151.32 230.61 148.13 227.31 148.13 227.31 151.32"/><polygon class="cls-11" points="228.09 140.1 219.38 140.1 219.38 151.32 227.31 151.32 227.31 148.13 230.61 148.13 230.61 146.7 228.09 146.7 228.09 140.1"/><rect class="cls-11" x="228.09" y="140.1" width="2.53" height="6.61"/><polygon class="cls-16" points="71.97 92.28 75.28 89.09 71.97 89.09 71.97 92.28"/><polygon class="cls-11" points="71.97 89.09 75.28 89.09 75.28 81.05 64.05 81.05 64.05 92.28 71.97 92.28 71.97 89.09"/><polygon class="cls-16" points="85.88 92.45 89.45 89.56 86.16 89.27 85.88 92.45"/><polygon class="cls-11" points="78.94 80.59 77.99 91.78 85.88 92.45 86.16 89.27 89.45 89.56 90.13 81.55 78.94 80.59"/><polygon class="cls-15" points="71.13 106.67 74.86 103.99 71.59 103.51 71.13 106.67"/><polygon class="cls-8" points="71.13 106.67 71.59 103.51 74.86 103.99 76.04 96.04 64.93 94.4 63.29 105.51 71.13 106.67"/><path class="cls-5" d="M227.71,101.39h-2.07a.52.52,0,0,0-.52.52.53.53,0,0,0,.52.52h2.07a.52.52,0,0,0,.51-.52A.51.51,0,0,0,227.71,101.39Z"/><path class="cls-5" d="M197.64,99.44a.52.52,0,0,0,.52-.52V96.86a.52.52,0,1,0-1,0v2.06A.51.51,0,0,0,197.64,99.44Z"/><path class="cls-5" d="M202.92,101.39h-2.07a.51.51,0,0,0-.51.52.52.52,0,0,0,.51.52h2.07a.53.53,0,0,0,.52-.52A.52.52,0,0,0,202.92,101.39Z"/><path class="cls-5" d="M207.05,101.39H205a.51.51,0,0,0-.51.52.52.52,0,0,0,.51.52h2.07a.52.52,0,0,0,.52-.52A.52.52,0,0,0,207.05,101.39Z"/><path class="cls-5" d="M230.61,96a.51.51,0,0,0-.51.52v2.06a.52.52,0,1,0,1,0V96.56A.52.52,0,0,0,230.61,96Z"/><path class="cls-5" d="M230.61,100.17a.51.51,0,0,0-.51.52v.7h-.33a.51.51,0,0,0-.51.52.52.52,0,0,0,.51.52h.84a.52.52,0,0,0,.52-.52v-1.22A.52.52,0,0,0,230.61,100.17Z"/><path class="cls-5" d="M213.25,102.43h2.06a.52.52,0,0,0,.52-.52.52.52,0,0,0-.52-.52h-2.06a.52.52,0,0,0-.52.52A.52.52,0,0,0,213.25,102.43Z"/><path class="cls-5" d="M209.12,102.43h2.06a.52.52,0,0,0,.52-.52.52.52,0,0,0-.52-.52h-2.06a.52.52,0,0,0-.52.52A.52.52,0,0,0,209.12,102.43Z"/><path class="cls-5" d="M223.57,101.39h-2.06a.52.52,0,0,0-.52.52.52.52,0,0,0,.52.52h2.06a.52.52,0,0,0,.52-.52A.52.52,0,0,0,223.57,101.39Z"/><path class="cls-5" d="M217.38,102.43h2.06a.52.52,0,0,0,.52-.52.52.52,0,0,0-.52-.52h-2.06a.52.52,0,0,0-.52.52A.52.52,0,0,0,217.38,102.43Z"/><path class="cls-5" d="M198.79,101.39h-.63V101a.52.52,0,1,0-1,0v.92a.52.52,0,0,0,.51.52h1.15a.52.52,0,0,0,.51-.52A.51.51,0,0,0,198.79,101.39Z"/><polygon class="cls-5" points="197.2 94.55 198.14 94.55 197.66 93.84 197.2 94.55"/><path class="cls-5" d="M198.09,92.62a.54.54,0,0,0-.43-.23h0a.52.52,0,0,0-.43.24l-1.42,2.15a.52.52,0,0,0,.43.8h2.87a.51.51,0,0,0,.43-.8Zm-.45,2.69a.52.52,0,0,1-.43-.24h-1l.89-1.35h0a.5.5,0,0,1,.31-.47l.22-.34.25.37a.5.5,0,0,1,.24.36l1,1.43h-1A.52.52,0,0,1,197.64,95.31Z"/><path class="cls-5" d="M197.13,93.72h0l.31-.47A.5.5,0,0,0,197.13,93.72Z"/><path class="cls-5" d="M197.64,95.31a.52.52,0,0,0,.44-.24h-.87A.52.52,0,0,0,197.64,95.31Z"/><path class="cls-5" d="M197.91,93.28l.24.36A.5.5,0,0,0,197.91,93.28Z"/><path class="cls-5" d="M198.15,93.64s0,0,0,.08v1.07a.54.54,0,0,1-.08.28h1Z"/><path class="cls-5" d="M197.13,93.72l-.89,1.35h1a.54.54,0,0,1-.08-.28Z"/><path class="cls-5" d="M197.91,93.28l-.25-.37-.22.34a.46.46,0,0,1,.2,0A.5.5,0,0,1,197.91,93.28Z"/><path class="cls-5" d="M198.16,93.72s0,0,0-.08l-.24-.36a.5.5,0,0,0-.27-.08.46.46,0,0,0-.2,0l-.31.47v1.07a.54.54,0,0,0,.08.28h.87a.54.54,0,0,0,.08-.28Zm-1,.83.46-.71.48.71Z"/><polygon class="cls-11" points="208.07 83.89 208.07 83.89 207.84 84.13 208.07 83.89"/><rect class="cls-16" x="201.62" y="83.89" height="6.45"/><polygon class="cls-16" points="201.62 90.34 208.07 83.89 201.62 83.89 201.62 90.34"/><path class="cls-11" d="M207.84,84.13l-6.22,6.21h0V83.89h6.45V65.25h-8.38V67.4h-2.25V65.25h-8.39V90.38h12.57ZM191.94,69.7h13a.52.52,0,0,1,.52.52.52.52,0,0,1-.52.52h-13a.52.52,0,0,1-.51-.52A.51.51,0,0,1,191.94,69.7Zm0,2.84h13a.52.52,0,1,1,0,1h-13a.52.52,0,0,1,0-1Zm0,2.83h13a.52.52,0,1,1,0,1h-13a.52.52,0,0,1,0-1Zm0,2.84h13a.52.52,0,1,1,0,1h-13a.52.52,0,0,1,0-1Zm-.51,3.35a.51.51,0,0,1,.51-.52h13a.52.52,0,1,1,0,1h-13A.51.51,0,0,1,191.43,81.56Z"/><polygon class="cls-11" points="201.62 90.34 207.84 84.13 208.07 83.89 201.62 90.34 201.62 90.34"/><rect class="cls-8" x="197.44" y="63.09" width="2.26" height="2.16"/><rect class="cls-8" x="197.44" y="65.25" width="2.26" height="2.16"/><path class="cls-5" d="M191.94,70.74h13a.52.52,0,0,0,.52-.52.52.52,0,0,0-.52-.52h-13a.51.51,0,0,0-.51.52A.52.52,0,0,0,191.94,70.74Zm13-.52h0Z"/><path class="cls-5" d="M191.94,73.57h13a.52.52,0,1,0,0-1h-13a.52.52,0,0,0,0,1Zm13-.52h0Z"/><path class="cls-5" d="M191.94,76.4h13a.52.52,0,1,0,0-1h-13a.52.52,0,0,0,0,1Zm13-.51h0Z"/><path class="cls-5" d="M191.94,79.24h13a.52.52,0,1,0,0-1h-13a.52.52,0,0,0,0,1Z"/><path class="cls-5" d="M205.44,81.56a.52.52,0,0,0-.52-.52h-13a.52.52,0,0,0,0,1h13A.51.51,0,0,0,205.44,81.56Zm-13.5,0h0Z"/><rect class="cls-13" x="182.29" y="58.07" width="2.51" height="3.69"/><rect class="cls-13" x="182.29" y="61.76" width="2.51" height="2.17"/><rect class="cls-13" x="243.46" y="58.07" width="2.51" height="3.69"/><rect class="cls-13" x="243.46" y="61.76" width="2.51" height="2.17"/><polygon class="cls-4" points="153.44 134.93 151.18 134.93 151.18 132.77 137.53 132.77 137.53 150.22 147.3 148.07 148.48 153.43 167.08 153.43 167.08 132.77 153.44 132.77 153.44 134.93"/><polygon class="cls-15" points="146.48 159.74 149.03 155.92 145.8 156.63 146.48 159.74"/><polygon class="cls-8" points="137.53 150.22 136.33 150.48 138.74 161.44 146.48 159.74 145.8 156.63 149.03 155.92 148.48 153.43 137.53 153.43 137.53 150.22"/><polygon class="cls-8" points="137.53 150.22 137.53 153.43 148.48 153.43 147.3 148.07 137.53 150.22"/><rect class="cls-11" x="151.18" y="130.61" width="2.26" height="2.16"/><rect class="cls-11" x="151.18" y="132.77" width="2.26" height="2.16"/></g><g id="_Group_" data-name="&lt;Group&gt;" class="cls-17"><g id="_Group_2" data-name="&lt;Group&gt;"><g id="_Group_3" data-name="&lt;Group&gt;"><path class="cls-18" d="M156.51,337.43h-96c-.89,0-1.62-1.06-1.62-2.36h0c0-1.29.73-2.35,1.62-2.35h96c.89,0,1.61,1.06,1.61,2.35h0C158.12,336.37,157.4,337.43,156.51,337.43Z"/></g></g></g><g id="_Group_4" data-name="&lt;Group&gt;" class="cls-17"><g id="_Group_5" data-name="&lt;Group&gt;"><g id="_Group_6" data-name="&lt;Group&gt;"><path class="cls-18" d="M165.57,337.43H163.2c-.89,0-1.62-1.06-1.62-2.36h0c0-1.29.73-2.35,1.62-2.35h2.37c.89,0,1.62,1.06,1.62,2.35h0C167.19,336.37,166.46,337.43,165.57,337.43Z"/></g></g></g><g id="_Group_7" data-name="&lt;Group&gt;" class="cls-17"><g id="_Group_8" data-name="&lt;Group&gt;"><g id="_Group_9" data-name="&lt;Group&gt;"><path class="cls-18" d="M295,351.92H161.54c-.95,0-1.73-1.12-1.73-2.5h0c0-1.38.78-2.51,1.73-2.51H295c1,0,1.73,1.13,1.73,2.51h0C296.75,350.8,296,351.92,295,351.92Z"/></g></g></g><g id="_Group_10" data-name="&lt;Group&gt;" class="cls-17"><g id="_Group_11" data-name="&lt;Group&gt;"><g id="_Group_12" data-name="&lt;Group&gt;"><path class="cls-18" d="M300.31,342.39H296c-.95,0-1.72-1.13-1.72-2.51h0c0-1.38.77-2.51,1.72-2.51h4.32c.95,0,1.73,1.13,1.73,2.51h0C302,341.26,301.26,342.39,300.31,342.39Z"/></g></g></g><path class="cls-19" d="M180.64,162.07a6,6,0,0,1,7.38-4.38,6.06,6.06,0,0,1,3.72,2.79,6,6,0,0,1,.66,4.6s-1.4,6.18,1.14,10.29c1.21,2,3.23,3.23,6.18,3.91,3.42.78,7,.51,10.22-6.71l.54-1.21h0a33.39,33.39,0,0,1,3.43-7.05c2.36-3.66,20.2-16.46,20.27-6.15a10.37,10.37,0,0,1-1.74,5C225.36,175.69,214,195,197,191.11c-6.23-1.42-10.9-4.6-13.86-9.44C177.91,173.06,180.53,162.52,180.64,162.07Z"/><path class="cls-14" d="M201.36,192.82a20.79,20.79,0,0,1-4.61-.53c-6.56-1.5-11.48-4.86-14.62-10-5.51-9-2.78-20-2.65-20.52a7.27,7.27,0,1,1,14.09,3.6c0,.19-1.22,5.76,1,9.36,1,1.66,2.8,2.76,5.42,3.36,2.84.65,5.87.72,8.85-6l.66-1.48a35.16,35.16,0,0,1,3.42-6.93c2-3.13,13.79-12.07,19.42-10.43,1.39.4,3,1.59,3.07,4.92a11.27,11.27,0,0,1-1.9,5.62C227.59,174.2,217,192.82,201.36,192.82ZM186.45,158.7a4.71,4.71,0,0,0-2.42.66,4.85,4.85,0,0,0-2.22,3h0c-.11.42-2.61,10.48,2.38,18.66,2.79,4.56,7.19,7.55,13.1,8.9a18.52,18.52,0,0,0,4.11.47c14.21,0,24-17.19,30-27.82a9.27,9.27,0,0,0,1.58-4.41c0-2.24-1-2.52-1.34-2.63-4-1.15-14.92,6.65-16.71,9.43a32.45,32.45,0,0,0-3.3,6.78l-.36,1-.11,0-.13.31c-3.56,8-7.86,8.25-11.6,7.39-3.28-.75-5.55-2.2-6.94-4.45-2.68-4.34-1.44-10.49-1.28-11.18a4.86,4.86,0,0,0-3.51-6A5,5,0,0,0,186.45,158.7Z"/><ellipse class="cls-20" cx="188.97" cy="166.38" rx="9.64" ry="9.96" transform="translate(-15.28 313.6) rotate(-77.15)"/><path class="cls-21" d="M190.11,173.8a10.1,10.1,0,0,1-4.64-17.17,10.07,10.07,0,1,0,10.83,16.59A9.94,9.94,0,0,1,190.11,173.8Z"/><path class="cls-14" d="M186.65,176.56a10.45,10.45,0,1,1,12.81-7.79A10.62,10.62,0,0,1,186.65,176.56Zm4.28-18.8a8.85,8.85,0,1,0,7,10.66A9,9,0,0,0,190.93,157.76Z"/><path class="cls-22" d="M140.35,186.33c-4.31-4.51-21.18,12-21.18,12L121,206.4c.33,1.42,1.16,4.18,1.58,5.58,3.1,10.16,3.76,4,7.18,4h8.48l10.57,2.69c3.84,0,6.6,2.94,10.09-9.16l2.59-11.18S144.65,190.85,140.35,186.33Z"/><path class="cls-14" d="M152.22,219.72a13.23,13.23,0,0,1-1.61-.13,12.79,12.79,0,0,0-1.76-.16l-.2,0-10.46-2.67H129.8a3.56,3.56,0,0,0-2.09,1,2.71,2.71,0,0,1-2.43.81c-1-.33-1.93-1.51-3.4-6.32-.56-1.84-1.29-4.3-1.6-5.63l-1.87-8.09a.77.77,0,0,1,.22-.73c.54-.53,13.35-13,19.67-13h.09a3.39,3.39,0,0,1,2.52,1h0c4.15,4.35,20.76,11.72,20.93,11.8a.76.76,0,0,1,.44.88l-2.58,11.19C157.26,218.11,155,219.72,152.22,219.72Zm-3.28-1.84a15.63,15.63,0,0,1,1.88.17c2.71.37,4.67.64,7.38-8.77l2.43-10.53c-3.07-1.38-16.89-7.74-20.84-11.88a1.9,1.9,0,0,0-1.43-.55h-.07c-4.58,0-14.44,8.55-18.27,12.24l1.77,7.66c.24,1,.78,2.93,1.57,5.53,1.38,4.52,2.14,5.21,2.4,5.29s.64-.29,1-.57a5,5,0,0,1,3-1.28h8.48l.19,0Z"/><path class="cls-19" d="M167.86,166.45a16.37,16.37,0,0,0-15.46-11H126.2a16.07,16.07,0,0,0-16,18.95l5.1,31.78H126c0-4,6-7.3,13.36-7.3s13.35,3.27,13.35,7.3h11.65l4.15-32.35A16.22,16.22,0,0,0,167.86,166.45Z"/><path class="cls-14" d="M164.35,207.29H152.7a1.1,1.1,0,0,1-1.1-1.1c0-3.36-5.61-6.2-12.25-6.2s-12.26,2.84-12.26,6.2a1.1,1.1,0,0,1-1.1,1.1H115.35a1.11,1.11,0,0,1-1.09-.93l-5.09-31.77a17.16,17.16,0,0,1,17-20.23h26.2a17.48,17.48,0,0,1,16.5,11.73h0a17.27,17.27,0,0,1,.7,7.89l-4.15,32.35A1.1,1.1,0,0,1,164.35,207.29Zm-10.67-2.2h9.71l4-31.39a15.15,15.15,0,0,0-.59-6.89h0a15.28,15.28,0,0,0-14.42-10.25H126.2a15,15,0,0,0-14.86,17.68l5,30.85H125c.9-4.17,6.87-7.3,14.34-7.3S152.78,200.92,153.68,205.09Z"/><path class="cls-22" d="M184.85,171.44l5.56-8-9.61-11.37-6.59,9.51S181,161.67,184.85,171.44Z"/><path class="cls-14" d="M180.75,151.09a1.05,1.05,0,0,1,.83.36l9.61,11.37a1,1,0,0,1,.06,1.24l-5.57,8a1,1,0,0,1-1,.43,1,1,0,0,1-.83-.63c-3.57-8.95-9.46-9.17-9.7-9.18a1,1,0,0,1-.9-.55,1,1,0,0,1,.07-1.05l6.59-9.51a1,1,0,0,1,.77-.43Zm4.3,18.28,4.08-5.83-8.25-9.75L176,160.88C178.21,161.49,182.16,163.39,185.05,169.37Z"/><path class="cls-19" d="M188.64,163.45a5.55,5.55,0,0,0,3.24,1c1.41-.05,2.88-.71,2.46-3.41-.77-4.9-4.77-32.74-12.64-31.68S169,133.67,170.32,138s5.53,15.55,7.67,18.31Z"/><path class="cls-14" d="M181.57,128.36c5.76-.78,10.23,9.67,13.66,31.95l.09.57a4.14,4.14,0,0,1-.66,3.37,3.52,3.52,0,0,1-2.74,1.18,6.45,6.45,0,0,1-3.83-1.16h0l-10.65-7.15a1,1,0,0,1-.23-.22c-2.26-2.91-6.52-14.37-7.84-18.62a5.33,5.33,0,0,1,.59-4.57,8.85,8.85,0,0,1,3.23-2.85A23.89,23.89,0,0,1,181.57,128.36Zm7.62,34.26a4.53,4.53,0,0,0,2.66.83,1.71,1.71,0,0,0,1.28-.46,2.46,2.46,0,0,0,.22-1.81l-.08-.57c-4.33-28.14-9.44-30.55-11.44-30.28-5.11.69-8.83,2.31-10.19,4.45a3.28,3.28,0,0,0-.37,2.91c1.46,4.69,5.43,15.14,7.41,17.87Z"/><ellipse class="cls-19" cx="175.17" cy="127.09" rx="9.33" ry="11.09" transform="translate(-33.9 71.19) rotate(-20.99)"/><path class="cls-23" d="M168.82,130.59c4.21,4.25,10.37,4.07,13.77-.41a11.08,11.08,0,0,0,2.14-5.83,11.75,11.75,0,0,1-1.84,9.72c-3.39,4.48-9.56,4.67-13.77.42a13,13,0,0,1-3.6-10A12.67,12.67,0,0,0,168.82,130.59Z"/><path class="cls-14" d="M167,118.84c3.51-4.63,10-4.7,14.53-.15s5.31,12,1.79,16.65-10,4.7-14.53.15S163.5,123.48,167,118.84Zm1.22,1.24c-3,3.92-2.28,10.25,1.55,14.12s9.36,3.83,12.33-.09,2.28-10.26-1.55-14.12S171.2,116.16,168.23,120.08Z"/><path class="cls-22" d="M166.84,165.52s-1-4.06-3.4-4-3.75,4-4.19,6.23a28.15,28.15,0,0,0,.15,10.14c.51,2.92,1.23,7.12,3.14,9.43,4.23,5.08,4.41-4.19,4.36-6.82C166.79,175.53,166.87,170.53,166.84,165.52Z"/><path class="cls-14" d="M164.69,189.71c-1.3,0-2.4-1.33-2.81-1.81-2-2.44-2.76-6.63-3.3-9.68l0-.15a29,29,0,0,1-.14-10.44c.22-1.13,1.49-6.79,5-6.93h.11c3,0,4.1,4.43,4.15,4.62a1.23,1.23,0,0,1,0,.19c0,1.92,0,3.83,0,5.74,0,3,0,6.18.05,9.27s-.16,8.24-2.39,9.07A2,2,0,0,1,164.69,189.71Zm-1.17-27.3h-.05c-1.53.06-2.86,2.84-3.38,5.54a27.25,27.25,0,0,0,.15,9.83l0,.14c.51,2.87,1.2,6.8,2.94,8.89.88,1.07,1.41,1.24,1.56,1.18.69-.26,1.37-3.17,1.28-7.43-.06-3.11-.06-6.26,0-9.31,0-1.87,0-3.75,0-5.62C165.73,164.69,164.84,162.41,163.52,162.41Z"/><path class="cls-19" d="M165.1,182.54a20.56,20.56,0,0,1-2-16.19,6.34,6.34,0,0,1,4.21-4.28c4.88-1.52,14.16-3.23,17.07,4.55,3.81,10.19-2.72,16.07-15.87,17.61A3.49,3.49,0,0,1,165.1,182.54Z"/><path class="cls-14" d="M185.35,166.26c1.64,4.39,1.52,8.17-.36,11.26-2.53,4.15-8,6.75-16.34,7.73a4.52,4.52,0,0,1-4.43-2.19h0a21.6,21.6,0,0,1-2.08-17,7.32,7.32,0,0,1,4.89-5,27.7,27.7,0,0,1,6.44-1.29C179.41,159.38,183.61,161.6,185.35,166.26ZM166,182a2.47,2.47,0,0,0,2.43,1.19c7.55-.89,12.68-3.23,14.84-6.76,1.54-2.53,1.6-5.72.19-9.49-2.58-6.91-11-5.42-15.8-3.92a5.28,5.28,0,0,0-3.54,3.58A19.56,19.56,0,0,0,166,182Z"/><path class="cls-22" d="M110.57,165.52s1-4.06,3.39-4,3.76,4,4.2,6.23a28.37,28.37,0,0,1-.15,10.14c-.52,2.92-1.23,7.12-3.15,9.43-4.22,5.08-4.41-4.19-4.35-6.82C110.61,175.53,110.53,170.53,110.57,165.52Z"/><path class="cls-14" d="M112.71,189.71a2,2,0,0,1-.66-.12c-2.12-.79-2.47-5.37-2.4-9.07.07-3.09.06-6.23.06-9.28q0-2.87,0-5.73a.63.63,0,0,1,0-.19c0-.2,1.13-4.73,4.26-4.62,3.5.14,4.77,5.8,5,6.93a28.77,28.77,0,0,1-.14,10.44l0,.15c-.53,3.06-1.27,7.24-3.3,9.68C115.12,188.38,114,189.71,112.71,189.71Zm-1.29-24.08q0,2.81,0,5.61c0,3,0,6.21-.06,9.32-.09,4.26.6,7.17,1.28,7.43.16,0,.68-.12,1.57-1.18,1.73-2.09,2.43-6,2.93-8.88l0-.15a27.25,27.25,0,0,0,.15-9.83c-.53-2.7-1.86-5.48-3.39-5.54h0C112.56,162.41,111.67,164.69,111.42,165.63Z"/><rect class="cls-24" x="130.48" y="134.85" width="18.15" height="26.91" rx="9.07" ry="9.07" transform="translate(279.11 296.62) rotate(-180)"/><path class="cls-14" d="M129.26,152.7v-8.77a10.3,10.3,0,1,1,20.59,0v8.77a10.3,10.3,0,0,1-20.59,0Zm2.45-8.77v8.77a7.85,7.85,0,0,0,15.7,0v-8.77a7.85,7.85,0,0,0-15.7,0Z"/><ellipse class="cls-19" cx="139.56" cy="126.61" rx="30.77" ry="28.86"/><path class="cls-14" d="M139.56,156.56c-17.58,0-31.87-13.44-31.87-29.95s14.29-30,31.87-30,31.87,13.44,31.87,30S157.13,156.56,139.56,156.56Zm0-57.71c-16.36,0-29.67,12.45-29.67,27.76s13.31,27.75,29.67,27.75,29.67-12.45,29.67-27.75S155.92,98.85,139.56,98.85Z"/><rect class="cls-25" x="122.41" y="167.18" width="33.04" height="8.47"/><path class="cls-14" d="M155.45,176.75h-33a1.11,1.11,0,0,1-1.1-1.1v-8.47a1.1,1.1,0,0,1,1.1-1.1h33a1.11,1.11,0,0,1,1.11,1.1v8.47A1.11,1.11,0,0,1,155.45,176.75Zm-31.94-2.21h30.84v-6.26H123.51Z"/><path class="cls-19" d="M163.37,229.3c.22-2.82-4.86-8.93-8.38-12.91a9.48,9.48,0,0,0-7.1-3.32H131.36a9.49,9.49,0,0,0-7,3.16l-7.36,8a7.59,7.59,0,0,0,.63,10.82c3.16,2.94,8,3.2,12,3.83a60.23,60.23,0,0,0,20.18.16C155.26,238,162.86,235.81,163.37,229.3Z"/><path class="cls-14" d="M141,240.81a74.91,74.91,0,0,1-11.46-.95l-1.72-.25c-3.7-.51-7.9-1.09-10.85-3.84a8.63,8.63,0,0,1-.69-12.28l7.36-8a10.5,10.5,0,0,1,7.72-3.49h16.53a10.47,10.47,0,0,1,7.88,3.67c6.16,7,8.83,11.18,8.63,13.67-.64,8.06-11,10-14.33,10.64A49.17,49.17,0,0,1,141,240.81Zm-9.64-26.71a8.45,8.45,0,0,0-6.2,2.83l-7.36,8a6.59,6.59,0,0,0,.57,9.37c2.48,2.31,6.17,2.82,9.73,3.31l1.75.25c7.67,1.18,14.16,1.23,19.83.17,8.29-1.56,12.31-4.35,12.66-8.77h0c.08-1-.87-3.95-8.12-12.14a8.43,8.43,0,0,0-6.33-3Z"/><path class="cls-22" d="M144.7,240.47s-3.55.57-4.24-2.74,2-6.95,3.66-8.6a18.13,18.13,0,0,1,8.14-4.56c2.5-.68,6.08-1.68,8.52-.17,5.39,3.32-2,7.93-4.07,9.09C152.67,235.71,148.71,238.16,144.7,240.47Z"/><path class="cls-14" d="M144.06,241.46a4.33,4.33,0,0,1-4.52-3.53c-.71-3.42,1.67-7.24,3.92-9.47a18.9,18.9,0,0,1,8.55-4.8l.13,0c2.7-.73,6.38-1.73,9.14,0,1.62,1,2.42,2.23,2.38,3.65-.08,3.31-5,6.26-6.49,7.08-2.49,1.37-5,2.85-7.41,4.28-1.53.9-3.06,1.81-4.59,2.69a.76.76,0,0,1-.32.11A4.7,4.7,0,0,1,144.06,241.46Zm.64-1h0Zm12.9-15.92a20,20,0,0,0-5,.9l-.13,0a17.18,17.18,0,0,0-7.72,4.33c-1.54,1.52-4,4.87-3.4,7.73a2.6,2.6,0,0,0,3,2q2.21-1.28,4.4-2.58c2.44-1.44,5-2.93,7.46-4.31,2.72-1.49,5.48-3.76,5.52-5.46,0-.27,0-1.06-1.49-2A5.05,5.05,0,0,0,157.6,224.55Z"/><rect class="cls-22" x="147.77" y="244.31" width="11.3" height="55.24" transform="translate(306.84 543.87) rotate(180)"/><path class="cls-14" d="M159.07,300.74h-11.3a1.12,1.12,0,0,1-1-1.19V244.31a1.11,1.11,0,0,1,1-1.18h11.3a1.11,1.11,0,0,1,1,1.18v55.24A1.12,1.12,0,0,1,159.07,300.74Zm-10.27-2.37H158V245.5H148.8Z"/><path class="cls-19" d="M159.87,228.09A16.49,16.49,0,0,0,145.53,231a6.76,6.76,0,0,0-2.56,5.37c0,5.19.92,14.7,8.32,15.23,9.7.68,13-7.4,10.92-20.63A3.39,3.39,0,0,0,159.87,228.09Z"/><path class="cls-14" d="M152.42,252.56c-.39,0-.79,0-1.2,0-8.11-.58-9.26-10.4-9.22-16.21a7.66,7.66,0,0,1,2.95-6.14,17.48,17.48,0,0,1,15.18-3h0a4.36,4.36,0,0,1,3,3.62c1.4,8.79.44,15.06-2.83,18.62A10.22,10.22,0,0,1,152.42,252.56Zm3.19-24.06a15.82,15.82,0,0,0-9.51,3.24,5.79,5.79,0,0,0-2.16,4.58c0,5.13.89,13.79,7.42,14.26,3.27.22,5.82-.61,7.55-2.5,2.81-3.06,3.62-8.94,2.34-17a2.41,2.41,0,0,0-1.63-2.05h0A15.58,15.58,0,0,0,155.61,228.5Z"/><path class="cls-22" d="M133.08,240.43s3.42.56,4.08-2.74-1.91-6.95-3.51-8.6a17.12,17.12,0,0,0-7.84-4.54c-2.41-.67-5.85-1.67-8.21-.16-5.2,3.34,1.88,7.93,3.91,9.09C125.4,235.69,129.22,238.13,133.08,240.43Z"/><path class="cls-14" d="M133.68,241.41a5.43,5.43,0,0,1-.75-.06.93.93,0,0,1-.33-.12c-1.48-.88-2.95-1.78-4.42-2.68-2.33-1.43-4.74-2.91-7.13-4.26-1.44-.82-6.16-3.75-6.25-7a4.22,4.22,0,0,1,2.3-3.65c2.67-1.72,6.38-.68,8.84,0l.12,0a18,18,0,0,1,8.25,4.8c2.16,2.22,4.44,6,3.76,9.42A4.23,4.23,0,0,1,133.68,241.41Zm-.29-1.88a2.46,2.46,0,0,0,2.86-2c.58-2.88-1.78-6.23-3.27-7.76a16.22,16.22,0,0,0-7.42-4.3l-.12,0c-2.26-.63-5.37-1.5-7.33-.23-1.48.94-1.45,1.76-1.45,2,0,1.72,2.7,4,5.31,5.46,2.42,1.37,4.84,2.86,7.18,4.29Q131.26,238.27,133.39,239.53Z"/><rect class="cls-22" x="119.38" y="244.31" width="11.3" height="55.24"/><path class="cls-14" d="M130.68,300.74h-11.3a1.12,1.12,0,0,1-1-1.19V244.31a1.11,1.11,0,0,1,1-1.18h11.3a1.11,1.11,0,0,1,1,1.18v55.24A1.12,1.12,0,0,1,130.68,300.74Zm-10.26-2.37h9.23V245.5h-9.23Z"/><path class="cls-19" d="M118.58,228.09A16.49,16.49,0,0,1,132.92,231a6.76,6.76,0,0,1,2.56,5.37c0,5.19-.92,14.7-8.32,15.23-9.7.68-13-7.4-10.92-20.63A3.39,3.39,0,0,1,118.58,228.09Z"/><path class="cls-14" d="M126,252.56a10.22,10.22,0,0,1-7.92-3.17c-3.27-3.56-4.22-9.83-2.83-18.62a4.36,4.36,0,0,1,3-3.62,17.46,17.46,0,0,1,15.17,3,7.67,7.67,0,0,1,2.95,6.14c0,5.81-1.11,15.63-9.22,16.21C126.82,252.55,126.42,252.56,126,252.56Zm-3.19-24.06a15.58,15.58,0,0,0-4,.53h0a2.41,2.41,0,0,0-1.63,2.05c-1.28,8.06-.47,13.94,2.34,17,1.73,1.89,4.27,2.72,7.55,2.5,6.53-.47,7.45-9.13,7.42-14.26a5.79,5.79,0,0,0-2.16-4.58A15.82,15.82,0,0,0,122.84,228.5Zm-4.26-.41h0Z"/><path class="cls-25" d="M131.89,317.85l-23.73,2.2v4.1h23.93v-5A4.71,4.71,0,0,0,131.89,317.85Z"/><path class="cls-14" d="M132.09,325.18H108.16a1,1,0,0,1-1-1v-4.1a1,1,0,0,1,.94-1l23.73-2.2c.89-.09,1.33.67,1.33,2.36v5A1,1,0,0,1,132.09,325.18Zm-22.9-2.06h21.87v-3.94s0-.12,0-.22l-21.85,2Z"/><path class="cls-19" d="M132.06,324.15a5,5,0,0,0,1.67-4C133.67,315.76,133,305,132,300a7,7,0,0,0-1.17-2.71l-7.25-9.93a5.41,5.41,0,0,0-2.77-2.07c-1.33-.39-2.88-.14-3.23,2.86-.47,4.06-2.9,21.41-.9,31C116.74,319.09,126,319,132.06,324.15Z"/><path class="cls-14" d="M132.06,325.18a1,1,0,0,1-.66-.24c-5.77-4.87-14.57-4.82-14.68-4.81a1,1,0,0,1-1-.82c-1.87-8.94,0-24.26.73-30l.15-1.29a4.54,4.54,0,0,1,1.69-3.43,3.31,3.31,0,0,1,2.86-.3,6.4,6.4,0,0,1,3.31,2.45l7.25,9.93a8,8,0,0,1,1.36,3.12c1,5.11,1.66,16,1.72,20.39a6.07,6.07,0,0,1-2,4.77A1,1,0,0,1,132.06,325.18Zm-14.5-7.09c2.48.12,9.27.82,14.39,4.65a4.21,4.21,0,0,0,.75-2.56c-.06-4.33-.69-15-1.69-20a5.93,5.93,0,0,0-1-2.31l-7.25-9.93a4.36,4.36,0,0,0-2.22-1.69,1.39,1.39,0,0,0-1.14,0,2.78,2.78,0,0,0-.77,2l-.16,1.3C117.79,295,116,309.38,117.56,318.09Z"/><path class="cls-25" d="M147.68,317.85l23.73,2.2v4.1H147.48v-5A4.71,4.71,0,0,1,147.68,317.85Z"/><path class="cls-14" d="M171.41,325.18H147.48a1,1,0,0,1-1-1v-5c0-1.7.44-2.45,1.33-2.36l23.73,2.2a1,1,0,0,1,.93,1v4.1A1,1,0,0,1,171.41,325.18Zm-22.9-2.06h21.87V321l-21.85-2c0,.1,0,.19,0,.24Z"/><path class="cls-19" d="M147.51,324.15a5,5,0,0,1-1.67-4c.06-4.41.71-15.21,1.71-20.21a7,7,0,0,1,1.17-2.71l7.25-9.93a5.41,5.41,0,0,1,2.77-2.07c1.32-.39,2.88-.14,3.23,2.86.47,4.06,2.9,21.41.9,31C162.83,319.09,153.57,319,147.51,324.15Z"/><path class="cls-14" d="M147.51,325.18a1.08,1.08,0,0,1-.7-.26,6.14,6.14,0,0,1-2-4.77c.06-4.4.71-15.29,1.73-20.39a8,8,0,0,1,1.36-3.12l7.25-9.93a6.4,6.4,0,0,1,3.31-2.45,3.32,3.32,0,0,1,2.86.3A4.5,4.5,0,0,1,163,288l.16,1.29c.71,5.77,2.6,21.09.73,30a1,1,0,0,1-1.11.81s-8.84-.05-14.6,4.82A1,1,0,0,1,147.51,325.18Zm12.13-39a2.56,2.56,0,0,0-.62.1,4.38,4.38,0,0,0-2.21,1.69l-7.25,9.93a5.79,5.79,0,0,0-1,2.31c-1,5-1.63,15.67-1.69,20a4.21,4.21,0,0,0,.75,2.56c5.12-3.83,11.91-4.53,14.39-4.65,1.53-8.71-.23-23-.91-28.56l-.16-1.3a2.74,2.74,0,0,0-.78-2A.91.91,0,0,0,159.64,286.14Z"/><path class="cls-26" d="M125.7,131.82c0,2.62-2.64,4.74-5.91,4.74s-5.91-2.12-5.91-4.74,2.64-4.73,5.91-4.73S125.7,129.21,125.7,131.82Z"/><path class="cls-26" d="M165.93,131.82c0,2.62-2.67,4.74-6,4.74s-6-2.12-6-4.74,2.68-4.73,6-4.73S165.93,129.21,165.93,131.82Z"/><rect class="cls-14" x="118.89" y="117.58" width="42.75" height="14.24" rx="1.85" ry="1.85"/><path class="cls-14" d="M159.79,132.42h-39A2.44,2.44,0,0,1,118.3,130V119.43a2.44,2.44,0,0,1,2.44-2.44h39.05a2.45,2.45,0,0,1,2.44,2.44V130A2.45,2.45,0,0,1,159.79,132.42Zm-39-14.24a1.26,1.26,0,0,0-1.26,1.25V130a1.26,1.26,0,0,0,1.26,1.25h39.05A1.25,1.25,0,0,0,161,130V119.43a1.25,1.25,0,0,0-1.25-1.25Z"/><path class="cls-27" d="M147.49,121.91H123.26a1.23,1.23,0,0,1-1.23-1.23h0a1.24,1.24,0,0,1,1.23-1.24h24.23a1.25,1.25,0,0,1,1.24,1.24h0A1.24,1.24,0,0,1,147.49,121.91Z"/><path class="cls-27" d="M153.18,120.68a1.24,1.24,0,1,1-1.24-1.24A1.24,1.24,0,0,1,153.18,120.68Z"/><path class="cls-28" d="M131.44,126.16a1.58,1.58,0,1,1-1.58-1.57A1.58,1.58,0,0,1,131.44,126.16Z"/><path class="cls-28" d="M150.7,126.16a1.58,1.58,0,1,1-1.57-1.57A1.57,1.57,0,0,1,150.7,126.16Z"/><rect class="cls-22" x="89.63" y="170.76" width="14.12" height="41.48"/><path class="cls-14" d="M103.75,213.12H89.63a.89.89,0,0,1-.89-.89V170.76a.89.89,0,0,1,.89-.89h14.12a.89.89,0,0,1,.89.89v41.47A.89.89,0,0,1,103.75,213.12Zm-13.23-1.78h12.34v-39.7H90.52Z"/><path class="cls-19" d="M90.54,210.06a5.64,5.64,0,0,0-2,2.84c-.38,1.39-.19,3,2.56,3.43,5,.77,33.28,5.44,34.67-2.53s-.29-13.69-4.89-13.72-16.81.6-20.15,1.83Z"/><path class="cls-14" d="M112.38,219.17a140.91,140.91,0,0,1-20.79-2l-.57-.09a4,4,0,0,1-2.93-1.58,3.4,3.4,0,0,1-.27-2.85,6.33,6.33,0,0,1,2.23-3.26l10.22-8.14a1.27,1.27,0,0,1,.22-.13c3.5-1.28,15.94-1.85,20.43-1.87a5.2,5.2,0,0,1,4.09,1.9c2,2.43,2.59,7,1.59,12.74C126,217.42,121.22,219.17,112.38,219.17Zm-11.22-16.56L91,210.68a4.77,4.77,0,0,0-1.69,2.44,1.86,1.86,0,0,0,.08,1.55,2.53,2.53,0,0,0,1.83.88l.57.09c28.87,4.48,32.84.11,33.2-2,.92-5.24.46-9.42-1.24-11.45a3.58,3.58,0,0,0-2.87-1.33C115.87,200.81,104.4,201.51,101.16,202.61Zm-10.62,7.45h0Z"/><path class="cls-19" d="M114.36,165.51a24.32,24.32,0,0,1-2,19.16,7.49,7.49,0,0,1-6,3.8c-6,.45-17.15-.06-18.43-9.79-1.66-12.74,7.43-17.76,23-16A4.13,4.13,0,0,1,114.36,165.51Z"/><path class="cls-14" d="M103.39,189.53c-9.6,0-15.52-3.82-16.42-10.72-.71-5.41.42-9.66,3.35-12.65,4-4,10.91-5.54,20.65-4.45a5.08,5.08,0,0,1,4.3,3.52h0a25.29,25.29,0,0,1-2.12,19.9,8.37,8.37,0,0,1-6.75,4.28C105.36,189.49,104.35,189.53,103.39,189.53Zm1.91-26.26c-6.23,0-10.89,1.43-13.63,4.22-2.5,2.55-3.45,6.27-2.83,11.07,1.16,8.86,11.41,9.42,17.42,9a6.46,6.46,0,0,0,5.23-3.31,23.36,23.36,0,0,0,2-18.42h0a3.18,3.18,0,0,0-2.7-2.2A50.66,50.66,0,0,0,105.3,163.27Z"/><rect class="cls-29" x="250.07" y="221.43" width="20.94" height="88.16" transform="translate(-66.25 87.79) rotate(-17)"/><path class="cls-14" d="M262.89,311.73l-.24-.77-26-85.08,21.56-6.59.23.77,26,85.08ZM238.64,227,264,309.72l18.49-5.65L257.13,221.3Z"/><path class="cls-30" d="M270.74,209.26H249.92c-5.18,0-10.34-.55-15.52-.28a43,43,0,0,0-7.39,1.11c-1.53.35-4.25-.2-5.33,1.13a4.06,4.06,0,0,0-.59,2.6c0,7.48,5,14.35,10,19.47,2.33,2.37,5.33,4.05,6.38,7.35s.5,6.93.49,10.35q0,9,0,18c0,12,.06,24,.06,36v7H258.7c0-11.83,0-23.67,0-35.51q0-9,.05-18c0-5.23-1.1-12.07.59-17.09,1.21-3.62,6.89-5.9,9.54-8.58a25.83,25.83,0,0,0,6.89-11.75C276.9,216.59,277.16,209.26,270.74,209.26Z"/><path class="cls-14" d="M259.5,312.86H237.21V305q0-10.85,0-21.71l0-14.32c0-6,0-12,0-18,0-.87,0-1.75.08-2.64a21.61,21.61,0,0,0-.53-7.46c-.69-2.17-2.34-3.6-4.1-5.12-.69-.6-1.41-1.23-2.08-1.91-6.78-6.9-10.22-13.64-10.23-20a4.77,4.77,0,0,1,.77-3.1c.95-1.19,2.65-1.24,4.15-1.28a9,9,0,0,0,1.62-.14,44.31,44.31,0,0,1,7.53-1.13c3.12-.16,6.28,0,9.33.11,2,.09,4.16.18,6.23.18h20.82a5.85,5.85,0,0,1,4.88,2.15c2.53,3.24,1.35,9,.93,10.69a26.75,26.75,0,0,1-7.1,12.13,25.49,25.49,0,0,1-3.81,2.92c-2.39,1.62-4.85,3.29-5.54,5.34-1.16,3.47-.93,7.84-.71,12.07.09,1.68.17,3.28.17,4.78q0,9-.05,18,0,12.39,0,24.78Zm-20.69-1.61h19.08v-9.93q0-12.39,0-24.78,0-9,.05-18c0-1.45-.08-3-.16-4.69-.23-4.17-.48-8.91.79-12.66.86-2.57,3.55-4.39,6.15-6.16a23.84,23.84,0,0,0,3.57-2.72A25.12,25.12,0,0,0,275,220.91c.78-3.11,1-7.19-.64-9.31a4.27,4.27,0,0,0-3.61-1.53H249.92c-2.11,0-4.24-.09-6.3-.18-3-.13-6.13-.27-9.18-.11a42,42,0,0,0-7.25,1.09,10.42,10.42,0,0,1-1.93.17c-1.15,0-2.46.08-2.95.68a3.4,3.4,0,0,0-.42,2.1c0,6,3.3,12.31,9.77,18.9.63.64,1.32,1.24,2,1.82,1.84,1.6,3.75,3.25,4.57,5.85a23.13,23.13,0,0,1,.61,8c0,.87-.08,1.73-.08,2.58q0,9,0,18l0,14.33q0,10.85,0,21.71Z"/><path class="cls-14" d="M259.5,312.86H237.21V305q0-10.85,0-21.69l0-14.34c0-6,0-12,0-18,0-.87,0-1.75.08-2.64a21.61,21.61,0,0,0-.53-7.46c-.69-2.17-2.34-3.6-4.1-5.12-.69-.6-1.41-1.23-2.08-1.91-6.78-6.9-10.22-13.64-10.23-20a4.71,4.71,0,0,1,.77-3.1c.95-1.19,2.65-1.24,4.15-1.29a8.28,8.28,0,0,0,1.62-.13,44.31,44.31,0,0,1,7.53-1.13c3.13-.16,6.28,0,9.33.11,2,.09,4.16.18,6.23.18h20.82a5.85,5.85,0,0,1,4.88,2.15c2.53,3.24,1.35,9,.93,10.69a26.75,26.75,0,0,1-7.1,12.13,26.18,26.18,0,0,1-3.81,2.92c-2.39,1.62-4.85,3.29-5.54,5.34-1.16,3.47-.93,7.84-.71,12.06.09,1.69.17,3.29.17,4.79q0,9-.05,18,0,12.4,0,24.79Zm-20.69-1.61h19.08v-9.92q0-12.39,0-24.79,0-9,.05-18c0-1.45-.08-3-.16-4.69-.23-4.18-.48-8.91.79-12.66.86-2.57,3.55-4.39,6.15-6.16a23.84,23.84,0,0,0,3.57-2.72A25.12,25.12,0,0,0,275,220.91c.78-3.11,1-7.19-.64-9.31a4.27,4.27,0,0,0-3.61-1.53H249.92c-2.11,0-4.24-.09-6.3-.18-3-.13-6.13-.27-9.18-.11a42,42,0,0,0-7.25,1.09,10.42,10.42,0,0,1-1.93.17c-1.15,0-2.46.08-2.95.68a3.4,3.4,0,0,0-.42,2.1c0,6,3.3,12.31,9.77,18.9.63.64,1.32,1.24,2,1.82,1.84,1.6,3.75,3.25,4.57,5.85a23.13,23.13,0,0,1,.61,8c0,.87-.08,1.73-.08,2.58q0,9,0,18l0,14.34q0,10.86,0,21.7Z"/><path class="cls-31" d="M288.75,313.5l-.85-2.9a3.59,3.59,0,0,0-4.45-2.42L265,313.63a3.48,3.48,0,0,1-1,.15h-4.3a6.58,6.58,0,0,0-6.58,6.57h0a3.58,3.58,0,0,0,3.58,3.58h9.24a3.62,3.62,0,0,0,1-.15l19.42-5.84A3.58,3.58,0,0,0,288.75,313.5Z"/><path class="cls-32" d="M265.9,325.07h-9.24a4.73,4.73,0,0,1-4.72-4.72,7.73,7.73,0,0,1,7.72-7.72H264a2.35,2.35,0,0,0,.69-.1l18.48-5.44a4.72,4.72,0,0,1,5.86,3.19l.86,2.9h0a4.73,4.73,0,0,1-3.17,5.85l-19.42,5.84A4.57,4.57,0,0,1,265.9,325.07Zm-6.24-10.15a5.44,5.44,0,0,0-5.43,5.43,2.43,2.43,0,0,0,2.43,2.44h9.24a2.43,2.43,0,0,0,.7-.11L286,316.84a2.43,2.43,0,0,0,1.63-3l-.85-2.89a2.44,2.44,0,0,0-3-1.65l-18.49,5.45a5,5,0,0,1-1.33.19Z"/><path class="cls-31" d="M256.88,324.76H225.37a2.73,2.73,0,0,1-2.73-2.73h0a7.55,7.55,0,0,1,7.55-7.56h26.69a2.73,2.73,0,0,1,2.73,2.74V322A2.73,2.73,0,0,1,256.88,324.76Z"/><path class="cls-32" d="M256.88,325.91H225.37a3.89,3.89,0,0,1-3.88-3.88,8.71,8.71,0,0,1,8.7-8.7h26.69a3.88,3.88,0,0,1,3.87,3.88V322A3.89,3.89,0,0,1,256.88,325.91Zm-26.69-10.3a6.43,6.43,0,0,0-6.41,6.42,1.6,1.6,0,0,0,1.59,1.59h31.51a1.6,1.6,0,0,0,1.59-1.59v-4.82a1.6,1.6,0,0,0-1.59-1.6Z"/><path class="cls-25" d="M229.87,126h0a17.79,17.79,0,0,0-17.79,17.79v125h21.24V126.12C232.18,126,231,126,229.87,126Z"/><path class="cls-33" d="M233.32,270H212.08a1.2,1.2,0,0,1-1.2-1.21v-125a19,19,0,0,1,19-19c1.06,0,2.18,0,3.53.12a1.21,1.21,0,0,1,1.13,1.21V268.77A1.21,1.21,0,0,1,233.32,270Zm-20-2.42h18.82V127.26c-.81,0-1.54-.06-2.24-.06a16.6,16.6,0,0,0-16.58,16.58Z"/><path class="cls-19" d="M234.12,126.12V268.77h49.35v-90A52.78,52.78,0,0,0,234.12,126.12Z"/><path class="cls-14" d="M283.87,270h-73V143.78a19,19,0,0,1,19-19h0a54.06,54.06,0,0,1,54,54Zm-70.58-2.42h68.17V178.79a51.64,51.64,0,0,0-51.59-51.59,16.6,16.6,0,0,0-16.58,16.58Z"/><path class="cls-19" d="M182,194.61c.17,0,3.6-11.78,3.89-12.74a1.2,1.2,0,0,1,.39-.67,1.16,1.16,0,0,1,.78-.1c10,1.08,20.12,4.17,30.33,3.34a32.5,32.5,0,0,0,17.86-7.11,26.39,26.39,0,0,0,6.7-9.05c1.6-3.25,2.69-7.48,5.13-10.19,3.78-4.19,12.56-4.58,14.17,1.86.92,3.64-1.6,7.92-3.24,11a52.78,52.78,0,0,1-49.55,27.8C199.52,198.32,190.73,196.46,182,194.61Z"/><path class="cls-14" d="M211.2,200c-.94,0-1.87,0-2.81-.07-9-.44-18-2.34-26.65-4.17a1.21,1.21,0,0,1-.94-1.42A1.34,1.34,0,0,1,181,194c.4-1,2.47-8,3.26-10.74.26-.89.45-1.53.51-1.72a2.24,2.24,0,0,1,.87-1.32,2.31,2.31,0,0,1,1.58-.3c3.39.37,6.83,1,10.16,1.55,6.54,1.15,13.3,2.33,19.94,1.79a31.28,31.28,0,0,0,17.19-6.84,25,25,0,0,0,6.39-8.65c.48-1,.91-2.06,1.37-3.2,1.05-2.58,2.13-5.25,3.94-7.27a11.36,11.36,0,0,1,10.61-3.18,7.35,7.35,0,0,1,5.63,5.55c1,3.84-1.31,8.09-3,11.19l-.37.68A53.63,53.63,0,0,1,211.2,200Zm-27.65-6.32c8.16,1.72,16.56,3.43,25,3.84,20.45,1,39-9.42,48.43-27.16l.37-.69c1.56-2.91,3.5-6.53,2.76-9.46a5,5,0,0,0-3.87-3.8A8.91,8.91,0,0,0,248,158.9c-1.54,1.7-2.54,4.17-3.5,6.56-.46,1.13-.93,2.29-1.45,3.35a27.15,27.15,0,0,1-7,9.45,33.72,33.72,0,0,1-18.53,7.38c-6.93.57-13.85-.64-20.54-1.81-3.27-.57-6.64-1.16-9.92-1.52l-.48,1.61C185,189.06,184.15,192,183.55,193.71Z"/><path class="cls-34" d="M192.61,190.13a10.69,10.69,0,1,1-6.37-13.44A10.51,10.51,0,0,1,192.61,190.13Z"/><path class="cls-35" d="M182.75,194.44a10.84,10.84,0,0,1-2.47-18.93,10.8,10.8,0,1,0,9.14,19.2A10.69,10.69,0,0,1,182.75,194.44Z"/><path class="cls-14" d="M193.42,190.43a11.55,11.55,0,1,0-14.75,6.44A11.39,11.39,0,0,0,193.42,190.43Zm-1.61-.6a9.83,9.83,0,1,1-5.88-12.33A9.68,9.68,0,0,1,191.81,189.83Z"/><path class="cls-36" d="M203.54,111.89a3.27,3.27,0,0,0,1.48-2,6.46,6.46,0,0,0-3-7.33c-.31-.17-.69-.43-.61-.77s.26-.34.44-.45c.8-.48,2.95-1.65,2.92-2.72a1.46,1.46,0,0,0-.56-1.08c-2.59-2.11-7.27-1.87-9.77.18a10.85,10.85,0,0,0-2.52,3.11,4.12,4.12,0,0,0-.34,3.48,6,6,0,0,0-3.28,3.87c-.54,2.09-.28,6.3,1.93,7.45a.86.86,0,0,1,.33.23.71.71,0,0,1,0,.62,6.25,6.25,0,0,0,.36,4.71c.89,1.67,3.71,3.63,5,1.43a4.44,4.44,0,0,0,.55-1.5,29.84,29.84,0,0,0,.06-3,2.94,2.94,0,0,1,1.15-2.35c.82-.5,1.79-.11,2.65.05C202.4,116.16,205,114,203.54,111.89Z"/><path class="cls-14" d="M194.34,124.37h-.06a5.42,5.42,0,0,1-4.07-2.82,7,7,0,0,1-.43-5.29c-2.69-1.56-2.79-6.22-2.25-8.31a6.59,6.59,0,0,1,3.12-4.07,4.86,4.86,0,0,1,.58-3.48,11.7,11.7,0,0,1,2.71-3.34c2.88-2.35,8-2.43,10.79-.17a2.3,2.3,0,0,1,.86,1.68c0,1.34-1.57,2.41-3.09,3.3a7.29,7.29,0,0,1,3.29,8.23,4.51,4.51,0,0,1-1.21,2,2.83,2.83,0,0,1-.28,2.62,4.22,4.22,0,0,1-4.09,1.82l-.56-.12c-.71-.16-1.17-.25-1.53,0a2.24,2.24,0,0,0-.76,1.71c0,.38,0,.76,0,1.17a8.73,8.73,0,0,1-.07,1.9,5.08,5.08,0,0,1-.65,1.79A2.63,2.63,0,0,1,194.34,124.37Zm5.21-27.54A7.33,7.33,0,0,0,195,98.3a10,10,0,0,0-2.33,2.88,3.33,3.33,0,0,0-.28,2.84.8.8,0,0,1-.39,1,5.15,5.15,0,0,0-2.87,3.37c-.53,2-.12,5.67,1.52,6.53a1.59,1.59,0,0,1,.63.49,1.45,1.45,0,0,1,.09,1.3,5.46,5.46,0,0,0,.29,4.1,4,4,0,0,0,2.7,2,1,1,0,0,0,.94-.59,3.57,3.57,0,0,0,.45-1.23,8.09,8.09,0,0,0,0-1.57,12,12,0,0,1,0-1.34,3.77,3.77,0,0,1,1.53-3,3.56,3.56,0,0,1,2.72-.15l.49.11a2.6,2.6,0,0,0,2.44-1.1,1.26,1.26,0,0,0-.06-1.54.83.83,0,0,1-.12-.65.79.79,0,0,1,.41-.53,2.67,2.67,0,0,0,1.09-1.56,5.65,5.65,0,0,0-2.61-6.4c-1-.56-1.12-1.21-1-1.66a1.58,1.58,0,0,1,.81-1l.21-.12c2.1-1.24,2.32-1.74,2.32-1.9a.7.7,0,0,0-.26-.46A6.69,6.69,0,0,0,199.55,96.83Z"/><path class="cls-37" d="M240.68,140.05c0,8.24-10.16,14.9-22.63,14.88h-.43c-12.47,0-22.56-6.73-22.53-15l.09-30.14c0-8.25,10.16-14.91,22.63-14.88h.43c12.47,0,22.56,6.73,22.53,15Z"/><path class="cls-20" d="M213.14,94.93h0v60c15.19,0,27.49-6.67,27.53-14.87l.11-30.14C240.81,101.66,228.43,95,213.14,94.93Z"/><path class="cls-14" d="M218.13,155.28h-.52a29.72,29.72,0,0,1-16.21-4.49c-4.36-2.9-6.75-6.75-6.74-10.84l.1-30.14c0-8.41,10.32-15.23,23-15.23h.52a29.71,29.71,0,0,1,16.21,4.48c4.36,2.9,6.75,6.75,6.74,10.85l-.1,30.14C241.08,148.46,230.78,155.28,218.13,155.28Zm-.4-60c-12.18,0-22.09,6.51-22.12,14.53l-.1,30.14c0,3.88,2.27,7.53,6.42,10.29a28.67,28.67,0,0,0,15.69,4.33h.51c12.18,0,22.1-6.5,22.12-14.52h0l.1-30.14c0-3.88-2.27-7.54-6.42-10.3a28.76,28.76,0,0,0-15.69-4.33h-.51Z"/><path class="cls-14" d="M218.13,155.65h-.52a30,30,0,0,1-16.42-4.55c-4.46-3-6.92-6.93-6.9-11.16l.09-30.13c0-8.61,10.51-15.6,23.35-15.6h.52a30,30,0,0,1,16.42,4.54c4.46,3,6.92,6.94,6.9,11.16l-.09,30.14C241.45,148.65,231,155.65,218.13,155.65Zm-.4-60.37v.38c-12,0-21.72,6.35-21.75,14.15L195.89,140c0,3.75,2.2,7.29,6.25,10a28.28,28.28,0,0,0,15.48,4.27h.43c12,0,21.8-6.35,21.83-14.15v-.38l.1-29.76c0-3.75-2.21-7.3-6.26-10a28.3,28.3,0,0,0-15.48-4.26h-.43Zm22.89,45.14c-.19,4.7-3.67,8.86-9,11.52,5.49-2.72,9.06-7,9.07-11.89l.1-30.14c0-4-2.32-7.71-6.57-10.54-.37-.24-.75-.47-1.14-.7q.52.3,1,.63c4.26,2.84,6.59,6.6,6.58,10.61l-.1,29.77h.06v.74ZM204.24,97.9c-5.51,2.72-9.09,7-9.11,11.91L195,140c0,4,2.32,7.71,6.57,10.53.39.26.8.51,1.21.75-.37-.22-.73-.44-1.09-.68-4.25-2.83-6.59-6.6-6.58-10.6l.1-30.14C195.25,105,198.79,100.62,204.24,97.9Z"/><path class="cls-14" d="M205,122a2,2,0,1,1-2-2A2,2,0,0,1,205,122Z"/><path class="cls-14" d="M221.65,121.77a2,2,0,1,1-2-2A2,2,0,0,1,221.65,121.77Z"/><path class="cls-38" d="M222.8,125.74c-2.16,0-3.91,1.19-3.91,2.66s1.75,2.67,3.91,2.67,3.91-1.19,3.91-2.67S225,125.74,222.8,125.74Z"/><ellipse class="cls-38" cx="202.1" cy="128.4" rx="3.91" ry="2.67"/><path class="cls-36" d="M204.7,171.53c6.43,3.73,15.53,3.12,21.75-.5,11.19-6.51,15-20.62,15-32.78,0-2.84-.35-5.67-.36-8.5,0-.81.43-2.44-.57-2.76-.79-.25-1.81,1-2.27,1.45a16.62,16.62,0,0,1-7,3.76c-3,.94-6.08,1.78-9,2.89-.53.19-1.56.91-2.11.48a1.29,1.29,0,0,1-.33-.52,7.08,7.08,0,0,0-10.2-3.83,8.65,8.65,0,0,0-1.9,1.44c-.46.46-.85,1.36-1.46,1.59a1.71,1.71,0,0,1-1.17-.14c-2.17-.81-8-3-9.51-.05a4.34,4.34,0,0,0-.35,1.82,89.22,89.22,0,0,0,.13,12.77c.59,5.78,1,12.16,3.95,17.37A14.76,14.76,0,0,0,204.7,171.53Z"/><path class="cls-14" d="M214.85,174.88a21,21,0,0,1-10.55-2.66h0a15.45,15.45,0,0,1-5.8-5.8c-2.79-4.94-3.36-10.7-3.91-16.27l-.14-1.42a88.31,88.31,0,0,1-.13-12.88,5,5,0,0,1,.44-2.16c1.85-3.55,7.82-1.33,10.37-.38l.13,0a1.55,1.55,0,0,0,.61.15,2.61,2.61,0,0,0,.62-.7,4.14,4.14,0,0,1,.55-.7,9.21,9.21,0,0,1,2.08-1.58,7.77,7.77,0,0,1,6.47-.6,8.34,8.34,0,0,1,4.87,4.83.57.57,0,0,0,.06.15,4,4,0,0,0,.84-.33,5.5,5.5,0,0,1,.51-.24c2.15-.8,4.37-1.47,6.52-2.12l2.57-.78a16,16,0,0,0,6.67-3.56l.16-.17c.65-.69,1.74-1.85,2.92-1.47,1.4.44,1.25,2.09,1.17,3q0,.3,0,.54c0,1.41.09,2.87.17,4.27s.18,2.81.19,4.22c.09,15.32-5.65,27.84-15.35,33.49A24.18,24.18,0,0,1,214.85,174.88Zm-9.75-4c5.83,3.39,14.64,3.18,21-.49,9.2-5.36,14.64-17.35,14.55-32.09,0-1.37-.1-2.77-.18-4.13s-.18-2.9-.18-4.37c0-.2,0-.43,0-.69a3.24,3.24,0,0,0,0-1.3c-.13,0-.47.18-1.28,1l-.18.19a17.4,17.4,0,0,1-7.34,4l-2.59.79c-2.12.64-4.31,1.31-6.42,2.09l-.36.17c-.68.33-1.71.84-2.53.19a2,2,0,0,1-.58-.85,6.72,6.72,0,0,0-3.91-3.92,6.21,6.21,0,0,0-5.15.5,7.35,7.35,0,0,0-1.72,1.3,5,5,0,0,0-.38.49,3.2,3.2,0,0,1-1.38,1.29,2.43,2.43,0,0,1-1.72-.15l-.13-.05c-1.78-.66-7.19-2.66-8.38-.37a3.46,3.46,0,0,0-.26,1.48,86.49,86.49,0,0,0,.12,12.65l.14,1.42c.54,5.41,1.09,11,3.71,15.63a13.91,13.91,0,0,0,5.2,5.21Z"/><path class="cls-14" d="M212.51,129.05a2.68,2.68,0,0,1-1.32-.34,2.62,2.62,0,0,1-1.31-2.51,3.07,3.07,0,0,1,1.57-2.28,3.93,3.93,0,0,1,.66-.3v-2.16a.63.63,0,0,1,.63-.63h0a.63.63,0,0,1,.63.63v2.64a.62.62,0,0,1-.51.62,2.69,2.69,0,0,0-.79.3,1.8,1.8,0,0,0-.94,1.31,1.37,1.37,0,0,0,.67,1.28,1.45,1.45,0,0,0,1.53-.1.65.65,0,0,1,.9.08.63.63,0,0,1-.08.89A2.53,2.53,0,0,1,212.51,129.05Z"/><path class="cls-19" d="M205.86,116.47h-6a.16.16,0,0,1-.16-.16h0a1.93,1.93,0,0,1,1.94-1.93h2.46a1.92,1.92,0,0,1,1.93,1.93h0A.16.16,0,0,1,205.86,116.47Z"/><path class="cls-19" d="M222.82,116.14h-6a.16.16,0,0,1-.16-.16h0a1.94,1.94,0,0,1,1.94-1.93H221A1.94,1.94,0,0,1,223,116h0A.16.16,0,0,1,222.82,116.14Z"/><g class="cls-39"><circle class="cls-19" cx="199.23" cy="121.77" r="8.75" transform="translate(-27.75 176.54) rotate(-45)"/></g><path class="cls-14" d="M199.23,130.79a9,9,0,1,1,9-9A9,9,0,0,1,199.23,130.79Zm0-17.66a8.64,8.64,0,1,0,8.63,8.64A8.65,8.65,0,0,0,199.23,113.13Z"/><g class="cls-39"><circle class="cls-19" cx="225.02" cy="121.77" r="8.75" transform="translate(-20.19 194.78) rotate(-45)"/></g><path class="cls-14" d="M225,130.79a9,9,0,1,1,9-9A9,9,0,0,1,225,130.79Zm0-17.66a8.64,8.64,0,1,0,8.64,8.64A8.64,8.64,0,0,0,225,113.13Z"/><path class="cls-14" d="M215.9,122a.76.76,0,0,1-.49-.18,4.78,4.78,0,0,0-6.55,0,.73.73,0,0,1-1,0,.74.74,0,0,1,0-1,6.21,6.21,0,0,1,8.54,0,.74.74,0,0,1-.48,1.31Z"/><path class="cls-36" d="M236.45,112.71a3.32,3.32,0,0,1-1.48-2,6.46,6.46,0,0,1,3-7.33c.31-.17.69-.43.61-.77s-.26-.33-.44-.44c-.8-.48-3.69-2-3.67-3.06,0-.6,2.34-1.44,2.81-1.62a8.53,8.53,0,0,1,8.27,1,10.85,10.85,0,0,1,2.52,3.11,4.12,4.12,0,0,1,.34,3.48,6,6,0,0,1,3.28,3.88c.54,2.08.28,6.29-1.93,7.44a1,1,0,0,0-.33.23.71.71,0,0,0,0,.62,6.28,6.28,0,0,1-.36,4.72,4.44,4.44,0,0,1-3.93,2.39c.25-2,.48-4.07-.49-5.8a4.64,4.64,0,0,0-2.54-2.11,4.2,4.2,0,0,0-2.48.15C237.59,117,235,114.81,236.45,112.71Z"/><path class="cls-14" d="M245.26,125.17h-.15a.8.8,0,0,1-.58-.29.77.77,0,0,1-.18-.62c.26-2.05.41-3.86-.4-5.31a3.91,3.91,0,0,0-2.11-1.74,2.21,2.21,0,0,0-1.41,0l-.65.14a4.24,4.24,0,0,1-4.09-1.81,2.85,2.85,0,0,1-.28-2.63,4.51,4.51,0,0,1-1.21-2,7.29,7.29,0,0,1,3.28-8.23l-.13-.08c-1.89-1.07-3.72-2.23-3.69-3.54,0-.83.91-1.47,3.3-2.35a9.26,9.26,0,0,1,9.09,1.17,11.62,11.62,0,0,1,2.71,3.33,4.88,4.88,0,0,1,.58,3.49,6.54,6.54,0,0,1,3.12,4.06c.55,2.1.44,6.81-2.25,8.32a7,7,0,0,1-.43,5.28A5.31,5.31,0,0,1,245.26,125.17Zm-4-9.67a3.29,3.29,0,0,1,1.09.19,5.51,5.51,0,0,1,3,2.48,8.82,8.82,0,0,1,.7,5.28,3.8,3.8,0,0,0,2.31-1.87,5.46,5.46,0,0,0,.29-4.1,1.45,1.45,0,0,1,.09-1.3,1.51,1.51,0,0,1,.58-.47c1.69-.88,2.1-4.52,1.57-6.55a5.15,5.15,0,0,0-2.87-3.37.8.8,0,0,1-.39-1,3.33,3.33,0,0,0-.28-2.84A10.15,10.15,0,0,0,245,99.11a7.76,7.76,0,0,0-7.48-.92,11,11,0,0,0-2.22,1,10.15,10.15,0,0,0,2.82,2c.15.09.29.16.39.23a1.53,1.53,0,0,1,.81.94c.11.45,0,1.1-1,1.66a5.64,5.64,0,0,0-2.61,6.4,2.67,2.67,0,0,0,1.09,1.56.79.79,0,0,1,.41.53.83.83,0,0,1-.12.65,1.28,1.28,0,0,0-.06,1.54,2.6,2.6,0,0,0,2.44,1.1l.56-.12A4.8,4.8,0,0,1,241.28,115.5Z"/><path class="cls-37" d="M206.26,145.69a3.46,3.46,0,0,0,2.64,1.62,43.11,43.11,0,0,0,5.56.34,5.2,5.2,0,0,0,4.39-1.76c2.44-3.22,0-9.28-3-11.43a6.54,6.54,0,0,0-4.71-.86c-4.17,1-6.11,7.35-5.32,11A3.7,3.7,0,0,0,206.26,145.69Z"/><path class="cls-14" d="M214.8,148.24h-.34a43.18,43.18,0,0,1-5.64-.34,4.1,4.1,0,0,1-3.1-1.91h0a4.59,4.59,0,0,1-.49-1.28c-.85-3.94,1.2-10.59,5.78-11.7a7.1,7.1,0,0,1,5.23,1c3.17,2.28,5.82,8.68,3.11,12.27A5.58,5.58,0,0,1,214.8,148.24Zm-2.63-14.16a3.81,3.81,0,0,0-.86.11c-3.72.9-5.6,6.86-4.87,10.28a3.27,3.27,0,0,0,.36.92h0a2.84,2.84,0,0,0,2.19,1.32,40.61,40.61,0,0,0,5.47.33c1.86,0,3.12-.49,3.89-1.51,2.23-2.94-.2-8.68-2.85-10.58A5.87,5.87,0,0,0,212.17,134.08Z"/><path class="cls-19" d="M212.13,145h0a2.16,2.16,0,0,1-2.16-2.15V138a.38.38,0,0,1,.37-.37h3.58a.37.37,0,0,1,.36.37v4.92A2.15,2.15,0,0,1,212.13,145Z"/><path class="cls-20" d="M239.85,116.81s5.49.11,5.5,5.22-5.48,5-5.48,5Z"/><path class="cls-14" d="M239.5,115.81a1.05,1.05,0,0,0-.67.36.82.82,0,0,0-.12.82,1,1,0,0,0,.68.53,13,13,0,0,1,2.2.44,4.35,4.35,0,0,1,2.64,4,4.1,4.1,0,0,1-1.17,2.94,3.64,3.64,0,0,1-1.61.88c-.52.15-1.46,0-1.89.34a1.25,1.25,0,0,0-.32,1.12.59.59,0,0,0,0,.23c.3.66,1.94.14,2.41,0a6.41,6.41,0,0,0,2.62-1.4A5.32,5.32,0,0,0,246,121.9a5.63,5.63,0,0,0-2.6-4.88C242.7,116.58,240.68,115.61,239.5,115.81Z"/><path class="cls-37" d="M239.76,118.89s3.51-.35,3.56,3c0,3.13-3.55,3-3.55,3Z"/><ellipse class="cls-19" cx="127.09" cy="208.9" rx="11.92" ry="10.41" transform="translate(-16.02 10.63) rotate(-4.51)"/><path class="cls-23" d="M118.52,212.08c4.51,4.17,12.26,4.16,17.3,0a11.18,11.18,0,0,0,3.7-5.51,10.47,10.47,0,0,1-4,9.23c-5.05,4.2-12.8,4.21-17.31,0a9.37,9.37,0,0,1-2.74-9.63A9.45,9.45,0,0,0,118.52,212.08Z"/><path class="cls-14" d="M118.33,200.81c5.21-4.33,13.38-4.23,18.21.24s4.51,11.61-.7,15.95-13.38,4.22-18.21-.24S113.12,205.14,118.33,200.81Zm1.31,1.21c-4.41,3.67-4.66,9.74-.55,13.53a12,12,0,0,0,15.44.24c4.41-3.67,4.66-9.74.56-13.53A12,12,0,0,0,119.64,202Z"/><g id="_Group_13" data-name="&lt;Group&gt;"><g id="_Group_14" data-name="&lt;Group&gt;"><polygon id="_Path_" data-name="&lt;Path&gt;" class="cls-40" points="299.39 328.78 295.78 328.79 275.54 228 279.09 227.92 299.39 328.78"/><g id="_Group_15" data-name="&lt;Group&gt;"><path class="cls-41" d="M295.69,330.11a1.2,1.2,0,0,1-1.19-.87L274.26,228.45a1,1,0,0,1,.23-.92,1.3,1.3,0,0,1,.93-.43L279,227h0a1.2,1.2,0,0,1,1.19.87l20.3,100.86a1,1,0,0,1-.24.93,1.27,1.27,0,0,1-.95.41l-3.61,0ZM277,229.28l19.71,98.61h1.11L278,229.25Z"/></g><polygon id="_Path_2" data-name="&lt;Path&gt;" class="cls-40" points="251.9 328.78 255.51 328.79 275.75 228 272.19 227.92 251.9 328.78"/><g id="_Group_16" data-name="&lt;Group&gt;"><path class="cls-41" d="M255.42,330.11h0l-3.61,0a1.26,1.26,0,0,1-.94-.41,1,1,0,0,1-.24-.93l20.29-100.86a1.2,1.2,0,0,1,1.22-.87l3.55.08a1.3,1.3,0,0,1,.94.43,1.06,1.06,0,0,1,.23.92L256.61,329.24A1.2,1.2,0,0,1,255.42,330.11Zm-2.09-2.22h1.11l19.7-98.61-1.06,0Z"/></g></g><g id="_Group_17" data-name="&lt;Group&gt;"><polygon id="_Path_3" data-name="&lt;Path&gt;" class="cls-40" points="111.14 328.99 107.53 329 87.29 228.21 90.84 228.13 111.14 328.99"/><polygon id="_Path_4" data-name="&lt;Path&gt;" class="cls-40" points="63.65 328.99 67.26 329 87.5 228.21 83.95 228.13 63.65 328.99"/><g id="_Group_18" data-name="&lt;Group&gt;"><path class="cls-41" d="M107.58,330.11a1.2,1.2,0,0,1-1.19-.87L86.15,228.45a1,1,0,0,1,.23-.92,1.26,1.26,0,0,1,.93-.43l3.55-.08a1.22,1.22,0,0,1,1.22.87l20.29,100.86a1,1,0,0,1-.23.93,1.27,1.27,0,0,1-1,.41l-3.61,0ZM88.85,229.28l19.71,98.61h1.11L89.92,229.25Z"/></g><g id="_Group_19" data-name="&lt;Group&gt;"><path class="cls-41" d="M67.3,330.11h0l-3.61,0a1.27,1.27,0,0,1-.95-.41,1,1,0,0,1-.23-.93L82.8,227.89A1.2,1.2,0,0,1,84,227l3.55.08a1.26,1.26,0,0,1,.93.43,1,1,0,0,1,.23.92L68.49,329.24A1.2,1.2,0,0,1,67.3,330.11Zm-2.08-2.22h1.11L86,229.28l-1.06,0Z"/></g></g><g id="_Group_20" data-name="&lt;Group&gt;"><rect id="_Rectangle_" data-name="&lt;Rectangle&gt;" class="cls-42" x="51.77" y="224.39" width="262.85" height="6.69"/><g id="_Group_21" data-name="&lt;Group&gt;"><path class="cls-41" d="M314.63,232.82H51.77c-.67,0-1.22-.78-1.22-1.74v-6.69c0-1,.55-1.75,1.22-1.75H314.63c.67,0,1.22.78,1.22,1.75v6.69C315.85,232,315.3,232.82,314.63,232.82ZM53,229.33H313.41v-3.19H53Z"/></g></g></g><g id="_Group_22" data-name="&lt;Group&gt;"><g id="_Group_23" data-name="&lt;Group&gt;"><g id="_Group_24" data-name="&lt;Group&gt;"><path class="cls-19" d="M286.18,217.63l-10.85-21.07-.54-9.55h0a1.55,1.55,0,0,0,0-3.1l-9.39.11a1.55,1.55,0,1,0,0,3.1h0l-.09,9.65-11.92,20.56A4.16,4.16,0,0,0,257,223.6l25.51.23A4.16,4.16,0,0,0,286.18,217.63Z"/><path class="cls-33" d="M282.57,224.8h-.05L257,224.57a5.12,5.12,0,0,1-4.36-7.73l11.77-20.34.09-8.58a2.56,2.56,0,0,1-.85-.54,2.52,2.52,0,0,1,1.74-4.33l9.39-.11h0a2.52,2.52,0,0,1,1,4.84l.48,8.52L287,217.17a5.13,5.13,0,0,1-4.47,7.63Zm-17.12-38.65a1,1,0,0,1,1,1l-.1,9.65a1,1,0,0,1-.13.48l-11.91,20.56a3.17,3.17,0,0,0,2.7,4.8l25.51.23a3.24,3.24,0,0,0,2.76-1.56,3.12,3.12,0,0,0,0-3.18l0,0L274.47,197a.92.92,0,0,1-.11-.39l-.54-9.55a1,1,0,0,1,.26-.73,1,1,0,0,1,.71-.3.6.6,0,0,0,.61-.59.54.54,0,0,0-.59-.56l-9.39.11a.59.59,0,0,0-.57.58.55.55,0,0,0,.18.4.72.72,0,0,0,.4.17Z"/></g><g id="_Group_25" data-name="&lt;Group&gt;"><path class="cls-43" d="M283.32,212.08l-26.65-.25-3.19,5.5A4.16,4.16,0,0,0,257,223.6l25.51.23a4.16,4.16,0,0,0,3.65-6.2Z"/><path class="cls-33" d="M282.57,224.8h-.05L257,224.57a5.12,5.12,0,0,1-4.36-7.73l3.46-6,27.81.26,3.13,6.08a5.13,5.13,0,0,1-4.48,7.61Zm-25.34-12-2.9,5a3.17,3.17,0,0,0,2.7,4.8l25.51.23a3.24,3.24,0,0,0,2.76-1.56,3.12,3.12,0,0,0,0-3.18l-2.61-5.06Z"/></g></g><g id="_Group_26" data-name="&lt;Group&gt;"><path class="cls-19" d="M276,186.5a1.53,1.53,0,0,0,.4-1.06,1.55,1.55,0,0,0-1.57-1.53l-9.39.11a1.56,1.56,0,0,0-1.53,1.57,1.51,1.51,0,0,0,.31.91Z"/><path class="cls-33" d="M276,187.09H264.19a.62.62,0,0,1-.48-.23,2.22,2.22,0,0,1-.43-1.26,2.15,2.15,0,0,1,2.12-2.17l9.4-.11a2.14,2.14,0,0,1,1.61,3.58A.6.6,0,0,1,276,187.09Zm-11.44-1.18h11.14a1,1,0,0,0,.11-.46.92.92,0,0,0-1-.94l-9.39.11a1,1,0,0,0-.95,1A.92.92,0,0,0,264.53,185.91Z"/></g></g><rect class="cls-44" x="72.73" y="218.32" width="27.23" height="4.33"/><rect class="cls-44" x="62.21" y="218.32" width="4.33" height="4.33"/><rect class="cls-45" x="68.39" y="218.32" width="2.47" height="4.33"/><rect class="cls-19" x="75.82" y="211.51" width="27.22" height="4.95"/><rect class="cls-19" x="65.92" y="211.51" width="3.71" height="4.95"/><rect class="cls-45" x="71.49" y="211.51" width="3.09" height="4.95"/><rect class="cls-46" x="79.53" y="204.71" width="27.23" height="4.95"/><rect class="cls-46" x="69.01" y="204.71" width="4.33" height="4.95"/><rect class="cls-45" x="74.58" y="204.71" width="3.09" height="4.95"/><path class="cls-14" d="M107.3,202.85h-2.4v-5.77a.94.94,0,0,0-.91-1h-2.18v-5H105c.56,0,1.14-.17,1.14-.73v-6.7a1.34,1.34,0,0,0-1.14-1.24H65.46c-.56,0-.78.68-.78,1.24v5.57H61.1c-.56,0-.75.57-.75,1.13v6.71c0,.56.19.82.75.82h2.34v5.88a.93.93,0,0,0,1,.93h2.72v4.95H64.44c-.56,0-1,.27-1,.83v6H61.1c-.56,0-.75.18-.75.74v6.7c0,.56.19,1.23.75,1.23h39.54a1.36,1.36,0,0,0,1.17-1.23v-5.58H104a1,1,0,0,0,.91-1.12v-5.69h2.4c.56,0,1.31-.46,1.31-1v-6.71C108.61,203.22,107.86,202.85,107.3,202.85Zm-.54,1.86v4.95H79.53v-4.95Zm-3.72,6.8v5H75.82v-5ZM62.21,222.65v-4.33h4.33v4.33Zm4.33-33.41v-4.33h4.33v4.33Zm6.19,0v-4.33H75.2v4.33Zm3.09,13.61V197.9H103v4.95Zm-4.95,15.47v4.33H68.39v-4.33Zm.62-1.86v-5h3.09v5Zm-.62-25.36v5H68.39v-5Zm.62,11.75V197.9h3.09v4.95Zm1.85,1.86v4.95H69v-4.95Zm1.24,4.95v-4.95h3.1v4.95Zm-1.85-13.61v-5H100v5Zm-3.1,1.85v4.95H65.92V197.9Zm0,13.61v5H65.92v-5Zm3.1,11.14v-4.33H100v4.33Zm4.33-33.41v-4.33h27.22v4.33ZM66.54,191.1v5H62.21v-5Z"/><rect class="cls-44" x="65.92" y="197.9" width="3.71" height="4.95"/><rect class="cls-44" x="75.82" y="197.9" width="27.22" height="4.95"/><rect class="cls-45" x="71.49" y="197.9" width="3.09" height="4.95"/><rect class="cls-44" x="62.21" y="191.1" width="4.33" height="4.95"/><rect class="cls-44" x="72.73" y="191.1" width="27.23" height="4.95"/><rect class="cls-45" x="68.39" y="191.1" width="2.47" height="4.95"/><rect class="cls-19" x="77.06" y="184.91" width="27.23" height="4.33"/><rect class="cls-19" x="66.54" y="184.91" width="4.33" height="4.33"/><rect class="cls-45" x="72.73" y="184.91" width="2.48" height="4.33"/></g></g></svg>