<svg xmlns="http://www.w3.org/2000/svg" viewBox="0 0 374 374"><defs><style>.cls-1{fill:#b080b4;}.cls-2{opacity:0.48;}.cls-3{fill:#484849;}.cls-4{fill:#4f74a5;}.cls-5{fill:#444445;}.cls-6{fill:#404041;}.cls-7{fill:#fff;}.cls-8{fill:#464647;}.cls-9{fill:#f0f0f1;}.cls-10{fill:#9ed1e3;}.cls-11{fill:#c27e77;}.cls-12{fill:#424243;}.cls-13{fill:#272525;}.cls-14{fill:#898989;}.cls-15{fill:#bcbcbc;}.cls-16{fill:#212121;}.cls-17{fill:#3f658e;}.cls-18{fill:#e5e5e5;}</style></defs><title>Asset 3</title><g id="Layer_2" data-name="Layer 2"><g id="Graphic"><rect class="cls-1" width="374" height="374"/><g id="_Group_" data-name="&lt;Group&gt;" class="cls-2"><g id="_Group_2" data-name="&lt;Group&gt;"><g id="_Group_3" data-name="&lt;Group&gt;"><path class="cls-3" d="M178.53,347.56H80.24c-.92,0-1.66-1.08-1.66-2.4h0c0-1.33.74-2.41,1.66-2.41h98.29c.91,0,1.66,1.08,1.66,2.41h0C180.19,346.48,179.44,347.56,178.53,347.56Z"/></g></g></g><g id="_Group_4" data-name="&lt;Group&gt;" class="cls-2"><g id="_Group_5" data-name="&lt;Group&gt;"><g id="_Group_6" data-name="&lt;Group&gt;"><path class="cls-3" d="M187.81,347.56h-2.43c-.91,0-1.66-1.08-1.66-2.4h0c0-1.33.75-2.41,1.66-2.41h2.43c.91,0,1.65,1.08,1.65,2.41h0C189.46,346.48,188.72,347.56,187.81,347.56Z"/></g></g></g><g id="_Group_7" data-name="&lt;Group&gt;" class="cls-2"><g id="_Group_8" data-name="&lt;Group&gt;"><g id="_Group_9" data-name="&lt;Group&gt;"><path class="cls-3" d="M282.14,362.4H186.5c-1,0-1.77-1.15-1.77-2.57h0c0-1.41.8-2.56,1.77-2.56h95.64c1,0,1.77,1.15,1.77,2.56h0C283.91,361.25,283.11,362.4,282.14,362.4Z"/></g></g></g><g id="_Group_10" data-name="&lt;Group&gt;" class="cls-2"><g id="_Group_11" data-name="&lt;Group&gt;"><g id="_Group_12" data-name="&lt;Group&gt;"><path class="cls-3" d="M294.88,355.21h-4.41c-1,0-1.77-1.16-1.77-2.57h0c0-1.41.79-2.57,1.77-2.57h4.41c1,0,1.77,1.16,1.77,2.57h0C296.65,354.05,295.86,355.21,294.88,355.21Z"/></g></g></g><g id="_Group_13" data-name="&lt;Group&gt;"><path class="cls-4" d="M261.15,328.31l-.26-.2c-2.21-1.86-3.79-6-1.81-8.45a2.55,2.55,0,0,1,.71-.64,3.17,3.17,0,0,1,1.86-.26,6.86,6.86,0,0,1,2.59.68c1.2.63,1.41,1.45,1.89,2.58.08.19,1.44,2.73,1.45,2.72,1.19-.62,3.11-2.34,5.07-2.31,6.59.11,5.05,6.6,5.05,6.6C275.26,329,263.32,329.76,261.15,328.31Z"/><path class="cls-5" d="M260.77,328.88h0l-.32-.24c-2.36-2-4.22-6.53-1.9-9.41a3.26,3.26,0,0,1,.89-.8,3.79,3.79,0,0,1,2.27-.35,7.44,7.44,0,0,1,2.85.75,4.28,4.28,0,0,1,2.05,2.55l.15.36c.06.15.68,1.32,1.08,2.05l.44-.29a8.38,8.38,0,0,1,4.38-1.76,5.8,5.8,0,0,1,4.75,2c1.7,2.2,1,5.32,1,5.45a.69.69,0,0,1-.67.53h0l-2.27,0c-2.07.07-4.2.13-6.18.13C265.32,329.9,262,329.68,260.77,328.88Zm15.56-4.29a4.49,4.49,0,0,0-3.69-1.47c-1.3-.05-2.55.84-3.61,1.53a12.71,12.71,0,0,1-1.13.7.66.66,0,0,1-.55,0c-.52-.18-1.84-3.07-1.85-3.1l-.16-.38a2.92,2.92,0,0,0-1.42-1.86,6.29,6.29,0,0,0-2.33-.6,2.54,2.54,0,0,0-1.46.18,2,2,0,0,0-.52.47c-1.77,2.2-.16,5.91,1.72,7.5l.21.15c1.57,1.05,10.17.78,13.84.66l1.74,0A5.3,5.3,0,0,0,276.33,324.59Zm-15.19,3.72h0Z"/></g><polygon class="cls-6" points="265.25 312.13 270.13 315.31 281.52 299.85 276.63 296.67 265.25 312.13"/><path class="cls-5" d="M269.89,315.64,265,312.46a.44.44,0,0,1-.2-.62l11.38-15.46a.52.52,0,0,1,.69,0l4.88,3.18a.44.44,0,0,1,.2.62L270.58,315.6A.51.51,0,0,1,269.89,315.64Zm-3.95-3.55,4,2.6,10.9-14.8-4-2.6Z"/><path class="cls-7" d="M258.36,321.12a3.15,3.15,0,0,1,.46-2.64,80.49,80.49,0,0,1,7.5-9.15,3.47,3.47,0,0,1,1.49-.84l6.94-1.82a3.1,3.1,0,0,1,2.08.14c.8.37,1.51,1.14.7,2.75-1.09,2.18-5.56,11.66-9.71,15.51C267.8,325.05,263.12,321.15,258.36,321.12Z"/><path class="cls-5" d="M258,321.63a.84.84,0,0,1-.26-.42,3.82,3.82,0,0,1,.55-3.17,79.81,79.81,0,0,1,7.57-9.24,3.92,3.92,0,0,1,1.71-.95l6.93-1.83a3.71,3.71,0,0,1,2.49.19,2.5,2.5,0,0,1,1.35,1.34,2.87,2.87,0,0,1-.27,2.38l-.34.69c-1.54,3.12-5.61,11.38-9.49,15a.6.6,0,0,1-.83-.06s-4.47-3.72-9-3.74A.67.67,0,0,1,258,321.63Zm19-14a1.53,1.53,0,0,0-.34-.2,2.45,2.45,0,0,0-1.68-.1L268,309.14a2.84,2.84,0,0,0-1.26.71,79.52,79.52,0,0,0-7.43,9.07,2.47,2.47,0,0,0-.46,1.56c3.86.26,7.53,2.76,8.83,3.74,3.64-3.62,7.45-11.36,8.91-14.33l.35-.7a1.75,1.75,0,0,0,.25-1.28A.76.76,0,0,0,277,307.62Z"/><path class="cls-7" d="M294.21,294.88a14.54,14.54,0,0,0-9-8.57,5.39,5.39,0,0,0-4.81.78c-3.45,2.45-9.25,7.64-5.94,13,4.35,7,11.33,5.48,19-2.26A2.84,2.84,0,0,0,294.21,294.88Z"/><path class="cls-5" d="M274.36,301.37c-.19-.27-.38-.56-.56-.85-3.64-5.89,2.28-11.36,6.13-14.1a6.12,6.12,0,0,1,5.52-.88,15.46,15.46,0,0,1,9.51,9.07h0a3.62,3.62,0,0,1-.89,3.83c-5.11,5.15-9.72,7.47-13.69,6.91A8.91,8.91,0,0,1,274.36,301.37Zm17.47-9.25a13.88,13.88,0,0,0-6.85-5,4.61,4.61,0,0,0-4.09.69c-3.4,2.42-8.67,7.18-5.74,11.92,1.47,2.39,3.28,3.74,5.39,4,3.41.49,7.69-1.75,12.38-6.48a2,2,0,0,0,.55-2.1h0A14.06,14.06,0,0,0,291.83,292.12Z"/><g id="_Group_14" data-name="&lt;Group&gt;"><path class="cls-4" d="M199.78,326.45l-.24-.23c-2-2.12-3-6.41-.75-8.61a2.6,2.6,0,0,1,.78-.54,3.17,3.17,0,0,1,1.88,0,6.76,6.76,0,0,1,2.49,1c1.11.78,1.22,1.61,1.56,2.79.06.2,1.09,2.89,1.1,2.88,1.26-.46,3.37-1.94,5.32-1.66,6.52.92,4.19,7.17,4.19,7.17C213.69,328.9,201.75,328.16,199.78,326.45Z"/><path class="cls-5" d="M216,329.89l-2.27-.22c-6.4-.59-12.79-1.29-14.42-2.7l-.29-.28c-2.09-2.27-3.38-7-.72-9.57a3.18,3.18,0,0,1,1-.69,3.83,3.83,0,0,1,2.29-.07,7.43,7.43,0,0,1,2.73,1.1,4.25,4.25,0,0,1,1.72,2.79l.11.38c0,.15.51,1.39.82,2.16l.47-.23c1.3-.64,2.92-1.44,4.56-1.2a5.82,5.82,0,0,1,4.47,2.57c1.42,2.39.32,5.4.27,5.52a.69.69,0,0,1-.64.45Zm-8-6.1a10.78,10.78,0,0,1-1.22.55.66.66,0,0,1-.55,0c-.5-.25-1.44-3.27-1.45-3.3l-.11-.4a2.92,2.92,0,0,0-1.18-2,6,6,0,0,0-2.24-.89,2.62,2.62,0,0,0-1.47,0,1.71,1.71,0,0,0-.57.41c-2,1.95-.89,5.84.78,7.65,0,.06.12.11.18.17h0c1.43,1.24,10,2,13.65,2.37l1.74.17a5.35,5.35,0,0,0-.32-3.84,4.53,4.53,0,0,0-3.48-1.91,2.6,2.6,0,0,0-.4,0A8.27,8.27,0,0,0,208.06,323.79Z"/></g><polygon class="cls-6" points="205.85 310.9 210.3 314.66 223.51 300.73 219.06 296.97 205.85 310.9"/><path class="cls-5" d="M210,315l-4.45-3.76a.45.45,0,0,1-.13-.64l13.21-13.93a.51.51,0,0,1,.69,0l4.45,3.76a.45.45,0,0,1,.13.64L210.71,315A.52.52,0,0,1,210,315Zm-3.48-4,3.64,3.07,12.64-13.33-3.64-3.08Z"/><path class="cls-7" d="M197.9,319a3.17,3.17,0,0,1,.79-2.57,80.68,80.68,0,0,1,8.57-8.15,3.36,3.36,0,0,1,1.58-.64l7.11-.95a3.08,3.08,0,0,1,2.05.4c.75.46,1.35,1.31.35,2.81-1.35,2-6.95,10.89-11.56,14.18C206.78,324,202.62,319.59,197.9,319Z"/><path class="cls-5" d="M197.5,319.43a.82.82,0,0,1-.21-.45,3.82,3.82,0,0,1,.94-3.07,79.51,79.51,0,0,1,8.65-8.23,4,4,0,0,1,1.82-.74l7.11-.95a3.65,3.65,0,0,1,2.44.49,2.43,2.43,0,0,1,1.17,1.5,2.85,2.85,0,0,1-.56,2.33l-.43.64c-1.9,2.9-7,10.6-11.26,13.68a.6.6,0,0,1-.82-.17s-4-4.23-8.45-4.82A.71.71,0,0,1,197.5,319.43Zm20.56-11.55a1.78,1.78,0,0,0-.32-.25,2.46,2.46,0,0,0-1.65-.3l-7.11.95a3,3,0,0,0-1.34.54,79.35,79.35,0,0,0-8.49,8.08,2.43,2.43,0,0,0-.65,1.5c3.79.74,7.13,3.67,8.29,4.8,4.06-3.14,8.8-10.35,10.62-13.11l.43-.66a1.67,1.67,0,0,0,.4-1.23A.61.61,0,0,0,218.06,307.88Z"/><path class="cls-7" d="M236.72,297.37a14.55,14.55,0,0,0-7.86-9.62,5.38,5.38,0,0,0-4.87.18c-3.72,2-10.13,6.44-7.5,12.18,3.44,7.52,10.56,6.85,19.16.11A2.79,2.79,0,0,0,236.72,297.37Z"/><path class="cls-5" d="M216.22,301.35c-.16-.29-.31-.6-.45-.91-2.88-6.3,3.67-11,7.83-13.24a6.09,6.09,0,0,1,5.58-.18,15.38,15.38,0,0,1,8.31,10.17h0a3.59,3.59,0,0,1-1.35,3.69c-5.71,4.48-10.57,6.22-14.44,5.16A9,9,0,0,1,216.22,301.35Zm18.48-7a13.84,13.84,0,0,0-6.17-5.85,4.62,4.62,0,0,0-4.15.17c-3.67,2-9.49,6-7.17,11.12,1.16,2.55,2.79,4.12,4.85,4.68,3.32.9,7.85-.79,13.09-4.9a2,2,0,0,0,.8-2h0A13.82,13.82,0,0,0,234.7,294.34Z"/><g id="_Group_15" data-name="&lt;Group&gt;"><g id="_Group_16" data-name="&lt;Group&gt;"><g id="_Group_17" data-name="&lt;Group&gt;"><path class="cls-7" d="M213.25,275.57a34,34,0,0,1-4.89,1.58,43.35,43.35,0,0,0,8,8.49l6.13-2.89A48.35,48.35,0,0,1,213.25,275.57Z"/></g><g id="_Group_18" data-name="&lt;Group&gt;"><path class="cls-8" d="M215.76,286.41a44.86,44.86,0,0,1-8.21-8.7,1,1,0,0,1,.58-1.52,33.63,33.63,0,0,0,4.75-1.53,1,1,0,0,1,1.06.21,48.35,48.35,0,0,0,9.06,7,1,1,0,0,1-.06,1.75l-6.13,2.9a1,1,0,0,1-.42.09A1,1,0,0,1,215.76,286.41ZM213,276.73c-1,.38-2,.72-3,1a44.29,44.29,0,0,0,6.53,6.75l3.91-1.84A52.18,52.18,0,0,1,213,276.73Z"/></g></g><g id="_Group_19" data-name="&lt;Group&gt;"><g id="_Group_20" data-name="&lt;Group&gt;"><path class="cls-9" d="M203.76,260s-2.21,7.5,4.6,17.19a34,34,0,0,0,4.89-1.58C209.35,271.73,205.35,266.45,203.76,260Z"/></g><g id="_Group_21" data-name="&lt;Group&gt;"><path class="cls-5" d="M207.55,277.71c-7-10-4.83-17.71-4.74-18a1,1,0,0,1,1.91,0c1.3,5.3,4.4,10.4,9.22,15.15a1,1,0,0,1,.28.9,1,1,0,0,1-.6.72,35.59,35.59,0,0,1-5,1.62.82.82,0,0,1-.22,0A1,1,0,0,1,207.55,277.71Zm-3-12.57A24.58,24.58,0,0,0,208.78,276c.91-.23,1.81-.51,2.71-.83A36.6,36.6,0,0,1,204.52,265.14Z"/></g></g></g><g id="_Group_22" data-name="&lt;Group&gt;"><g id="_Group_23" data-name="&lt;Group&gt;"><path class="cls-9" d="M321.59,248.61a18.3,18.3,0,0,1-8.17,15.22c-4.43-1-4.07-5.56-5.94-7.6-5.66-6.14,3.48-12.54,3.48-12.54h5.71a4.92,4.92,0,0,1,4.92,4.92Z"/></g><g id="_Group_24" data-name="&lt;Group&gt;"><path class="cls-5" d="M313.2,264.8c-3.43-.78-4.42-3.39-5.22-5.48a8,8,0,0,0-1.23-2.42,7.08,7.08,0,0,1-2.07-5.71c.5-4.61,5.5-8.16,5.71-8.31a1.07,1.07,0,0,1,.57-.18h5.71a5.92,5.92,0,0,1,5.91,5.91,19.28,19.28,0,0,1-8.61,16,1,1,0,0,1-.55.17Zm-1.91-20.12c-.94.72-4.3,3.52-4.65,6.73a5.12,5.12,0,0,0,1.56,4.15,9.4,9.4,0,0,1,1.62,3.05c.69,1.8,1.34,3.5,3.42,4.15a17.3,17.3,0,0,0,7.36-14.15,3.94,3.94,0,0,0-3.93-3.93Z"/></g></g><g id="_Group_25" data-name="&lt;Group&gt;"><g id="_Group_26" data-name="&lt;Group&gt;"><path class="cls-7" d="M299.29,271.61c.41,4.26,2.15,8.17,2.39,12.48.33,6-.87,12.32-4.76,17a21.4,21.4,0,0,1-16.38,7.69l-9.6-1.9c-7.84-1.54-15.63.1-23.73-.28a27.91,27.91,0,0,0-5.78.28l-12,1.9a12.63,12.63,0,0,1-9.09-2.26,14,14,0,0,1-4.36-4.85,42.82,42.82,0,0,1-3.71-10c-.42-1.77-3.62-12.78,10.61-15.16a22.48,22.48,0,0,1,3.07-.3,27.36,27.36,0,0,1,5.85.42,124.7,124.7,0,0,0,21.31,1.88c6.56,0,14.17-2.21,20.54-3.8,6.19-1.54,5.95-9.38,6.72-14.44.57-3.75,1.15-7.51,1.71-11.25a2.5,2.5,0,0,0,.06-.38,13.39,13.39,0,0,1,2.3-6.33,11.9,11.9,0,0,1,10.37-5.52c4.79,0,9.62,1.2,11.83,6.93H311s-9.14,6.4-3.48,12.54c1.87,2,1.51,6.59,5.94,7.6a18.17,18.17,0,0,1-10.14,3.09H300C299.52,266.92,299.26,271.24,299.29,271.61Z"/></g><g id="_Group_27" data-name="&lt;Group&gt;"><path class="cls-8" d="M219.81,307.34a14.91,14.91,0,0,1-4.66-5.2,44.12,44.12,0,0,1-3.8-10.27l0-.17c-1.05-4.21-.67-7.75,1.15-10.51,1.93-2.95,5.39-4.86,10.29-5.68a25.13,25.13,0,0,1,3.2-.32,28.82,28.82,0,0,1,6.07.44,123.8,123.8,0,0,0,21.13,1.86c5.54,0,12-1.64,17.63-3.09l2.67-.68c4.56-1.13,5.15-6.4,5.66-11,.1-.91.2-1.78.32-2.59l0-.19q.85-5.53,1.69-11.08l0-.14a.14.14,0,0,1,0-.07h0a14.25,14.25,0,0,1,2.46-6.87,12.87,12.87,0,0,1,11.19-6c4.08,0,9.76.74,12.49,6.93H311a1,1,0,0,1,.57,1.8s-4.49,3.19-4.89,6.91a5.12,5.12,0,0,0,1.56,4.15,9.4,9.4,0,0,1,1.62,3.05c.73,1.91,1.42,3.71,3.82,4.26a1,1,0,0,1,.33,1.78,19.16,19.16,0,0,1-10.69,3.26h-2.66a26.31,26.31,0,0,0-.34,3.62,39.63,39.63,0,0,0,1.13,5.68,36.56,36.56,0,0,1,1.26,6.82c.39,7.07-1.38,13.35-5,17.7a22.51,22.51,0,0,1-17.14,8l-.19,0-9.6-1.9c-4.67-.92-9.26-.68-14.13-.43-3.07.16-6.25.32-9.46.17a27.22,27.22,0,0,0-5.58.26l-12,1.91a12.2,12.2,0,0,1-1.91.15A13.93,13.93,0,0,1,219.81,307.34Zm27.45-1.72c3.11.15,6.23,0,9.26-.16,4.77-.25,9.71-.5,14.61.46l9.51,1.88a20.51,20.51,0,0,0,15.52-7.33c3.29-4,4.89-9.76,4.53-16.33a34,34,0,0,0-1.19-6.45,39.44,39.44,0,0,1-1.19-6h0s0-4.5.87-5.4a1.1,1.1,0,0,1,.81-.37h3.29A17.13,17.13,0,0,0,311.2,264c-1.87-1.15-2.61-3.07-3.22-4.68a8,8,0,0,0-1.23-2.42,7.08,7.08,0,0,1-2.07-5.71c.29-2.68,2.11-5,3.62-6.51h-1.62a1,1,0,0,1-.92-.63c-1.69-4.36-5.05-6.3-10.91-6.3a11,11,0,0,0-9.54,5.08,12.48,12.48,0,0,0-2.14,5.78,1.92,1.92,0,0,1-.06.47v0l-1.68,11.07,0,.19c-.12.77-.21,1.61-.31,2.51-.56,5-1.26,11.27-7.15,12.74l-2.66.67c-5.78,1.48-12.33,3.16-18.12,3.16a127,127,0,0,1-21.48-1.89,26.72,26.72,0,0,0-5.64-.42,23,23,0,0,0-2.95.3c-4.34.72-7.35,2.34-9,4.81-2.26,3.44-1.22,7.59-.88,9l0,.19a42,42,0,0,0,3.63,9.81,12.81,12.81,0,0,0,4,4.49,11.59,11.59,0,0,0,8.37,2.11l12-1.91a27.49,27.49,0,0,1,4.34-.33C246.15,305.58,246.69,305.6,247.26,305.62Z"/></g></g><g id="_Group_28" data-name="&lt;Group&gt;"><g id="_Group_29" data-name="&lt;Group&gt;"><g id="_Group_30" data-name="&lt;Group&gt;"><path class="cls-5" d="M318.14,257.45a.48.48,0,0,0-.2,0,9,9,0,0,1-6.11,0,.61.61,0,1,0-.5,1.12,10.1,10.1,0,0,0,7,0,.62.62,0,0,0-.2-1.2Z"/></g><g id="_Group_31" data-name="&lt;Group&gt;"><path class="cls-5" d="M311.19,258.93a.94.94,0,0,1-.5-.52,1,1,0,0,1,.55-1.22.9.9,0,0,1,.72,0,8.77,8.77,0,0,0,5.87,0,1,1,0,0,1,1.2.58.94.94,0,0,1-.58,1.2,11,11,0,0,1-3.65.62A9.5,9.5,0,0,1,311.19,258.93Zm6.86-1.13a9.28,9.28,0,0,1-6.36,0,.3.3,0,0,0-.21,0,.26.26,0,0,0-.16.15.24.24,0,0,0,0,.22.29.29,0,0,0,.15.16,9.8,9.8,0,0,0,6.77,0,.29.29,0,0,0-.09-.56Z"/></g></g></g><g id="_Group_32" data-name="&lt;Group&gt;"><g id="_Group_33" data-name="&lt;Group&gt;"><path class="cls-10" d="M297.24,248.63a1.64,1.64,0,1,1,1.64,1.65A1.64,1.64,0,0,1,297.24,248.63Z"/></g><g id="_Group_34" data-name="&lt;Group&gt;"><path class="cls-5" d="M296.91,248.63a2,2,0,1,1,2,2A2,2,0,0,1,296.91,248.63Zm.66,0a1.31,1.31,0,1,0,1.31-1.31A1.32,1.32,0,0,0,297.57,248.63Z"/></g></g><g id="_Group_35" data-name="&lt;Group&gt;"><g id="_Group_36" data-name="&lt;Group&gt;"><path class="cls-4" d="M319.84,243.85h.54a2.67,2.67,0,0,1,2.67,2.67v1.92a.84.84,0,0,1-.84.84h-2.37a2.67,2.67,0,0,1-2.67-2.67v-.09a2.67,2.67,0,0,1,2.67-2.67Z" transform="translate(640.22 493.14) rotate(-180)"/></g><g id="_Group_37" data-name="&lt;Group&gt;"><path class="cls-5" d="M316.18,246.57v-1.86a1.84,1.84,0,0,1,1.84-1.84h2.31a3.71,3.71,0,1,1,0,7.41h-.44A3.71,3.71,0,0,1,316.18,246.57Zm1.4-2.24v2.24a2.24,2.24,0,0,0,2.24,2.24h.58a2.24,2.24,0,1,0,0-4.48Z"/></g></g><g id="_Group_38" data-name="&lt;Group&gt;"><g id="_Group_39" data-name="&lt;Group&gt;"><rect class="cls-4" x="273.73" y="270.35" width="29.06" height="6.63" rx="3.26" ry="3.26" transform="translate(47.26 -42.42) rotate(9.16)"/></g><g id="_Group_40" data-name="&lt;Group&gt;"><path class="cls-5" d="M299.07,279.77l-23-3.71a3.89,3.89,0,0,1-3.21-4.45l.14-.84a3.88,3.88,0,0,1,4.44-3.21l23,3.71a3.89,3.89,0,0,1,3.21,4.45l-.13.84a3.9,3.9,0,0,1-3.83,3.26A4.44,4.44,0,0,1,299.07,279.77Zm-23.34-9.92a1.87,1.87,0,0,0-.77,1.24l-.14.84a1.92,1.92,0,0,0,1.58,2.18l23,3.71h0a1.89,1.89,0,0,0,1.42-.34,1.91,1.91,0,0,0,.77-1.24l.13-.84a1.91,1.91,0,0,0-1.57-2.18l-23-3.71-.3,0A1.86,1.86,0,0,0,275.73,269.85Z"/></g></g><path class="cls-7" d="M277.65,249c2.75-8.21,7.89-12.93,11.84-11.61s5.21,8.2,2.46,16.4a28.24,28.24,0,0,1-4.39,8.4l-11.47-3.85A28,28,0,0,1,277.65,249Z"/><path class="cls-5" d="M275.58,258.36a28.37,28.37,0,0,1,1.58-9.48c2.76-8.23,8.12-13.33,12.47-11.87s5.56,8.76,2.8,17a28.32,28.32,0,0,1-4.45,8.51.5.5,0,0,1-.56.15l-11.48-3.85A.5.5,0,0,1,275.58,258.36Zm15.88-4.69c2.55-7.61,1.62-14.56-2.11-15.81s-8.67,3.73-11.22,11.34a28.24,28.24,0,0,0-1.54,8.88l10.75,3.6A28.1,28.1,0,0,0,291.46,253.67Z"/><path class="cls-6" d="M287.56,262.23c-2.52,3.2-5.39,4.85-7.74,4.07s-3.65-3.84-3.73-7.92Z"/><path class="cls-5" d="M275.58,258.36a.41.41,0,0,1,.2-.36.51.51,0,0,1,.45,0l11.47,3.84a.55.55,0,0,1,.34.31.41.41,0,0,1-.06.4c-2.77,3.52-5.8,5.06-8.31,4.22S275.67,262.83,275.58,258.36Zm1,.68c.19,3.65,1.42,6.19,3.34,6.83s4.42-.64,6.78-3.44Z"/><path class="cls-4" d="M282.24,245.09a4.44,4.44,0,1,0,5.67-2.93A4.52,4.52,0,0,0,282.24,245.09Z"/><path class="cls-5" d="M281.75,244.93a5,5,0,1,1,3.1,6.35A5,5,0,0,1,281.75,244.93Zm1,.33a3.93,3.93,0,1,0,5-2.68A4,4,0,0,0,282.73,245.26Z"/><g id="_Group_41" data-name="&lt;Group&gt;"><path class="cls-4" d="M237.67,328.78c-.21-.82-.42-1.65-.64-2.47l-.06-.44a.58.58,0,0,0,.15-.65c-.26-.72-.54-1.43-.84-2.12s-.63-1.53-1-2.27c0-.42-.06-.81-.09-1.19a10.66,10.66,0,0,0-.63-3.39c.6-.95,1.18-1.91,1.7-2.9l1.21.17v.09l6.39,11.9c1.19-.61,3.11-2.34,5.07-2.31,6.58.11,5.05,6.6,5.05,6.6l-13.86,0H240A3.42,3.42,0,0,1,237.67,328.78Z"/><path class="cls-5" d="M239.3,328.63a2.62,2.62,0,0,0,.75.14h.11l13,0a4.8,4.8,0,0,0-.76-3.27,4.24,4.24,0,0,0-3.45-1.35h0a7.1,7.1,0,0,0-3.39,1.48c-.42.28-.81.53-1.17.72A1,1,0,0,1,243,326l-6.2-11.55-.49-.08q.71-.89,1.44-1.77a1,1,0,0,1,.69.74l5.8,10.81.17-.11a8.64,8.64,0,0,1,4.47-1.81H249a6.1,6.1,0,0,1,5,2.12c1.79,2.3,1,5.56,1,5.7a1,1,0,0,1-1,.76h0l-13.85,0H240a4.53,4.53,0,0,1-1.28-.23C238.88,329.88,239.08,329.26,239.3,328.63Z"/></g><polygon class="cls-6" points="235.26 319.23 240.6 316.9 233.94 298.89 228.6 301.22 235.26 319.23"/><path class="cls-5" d="M240.75,317.28l-5.34,2.33a.46.46,0,0,1-.64-.17l-6.66-18a.53.53,0,0,1,.35-.6l5.34-2.33a.45.45,0,0,1,.63.18l6.66,18A.51.51,0,0,1,240.75,317.28Zm-5.14,1.35,4.36-1.91-6.37-17.23-4.37,1.9Z"/><path class="cls-7" d="M239,329.92a3.15,3.15,0,0,1-2-1.83,80.81,80.81,0,0,1-3.52-11.3,3.48,3.48,0,0,1,.12-1.7l2.29-6.8a3.16,3.16,0,0,1,1.26-1.66c.75-.47,1.78-.64,2.68.93,1.22,2.11,6.69,11.05,7.62,16.63C247.45,324.2,241.63,326,239,329.92Z"/><path class="cls-5" d="M239.22,330.48a.75.75,0,0,1-.49,0,3.79,3.79,0,0,1-2.35-2.19,80.66,80.66,0,0,1-3.55-11.4,3.93,3.93,0,0,1,.14-2l2.29-6.79a3.69,3.69,0,0,1,1.51-2,2.48,2.48,0,0,1,1.87-.39,2.89,2.89,0,0,1,1.84,1.53l.39.67c1.76,3,6.43,10.94,7.29,16.15a.6.6,0,0,1-.51.66s-5.56,1.69-8.06,5.45A.65.65,0,0,1,239.22,330.48ZM238,306.94a1.91,1.91,0,0,0-.36.17,2.51,2.51,0,0,0-1,1.35l-2.29,6.8a2.91,2.91,0,0,0-.1,1.44,78.91,78.91,0,0,0,3.49,11.19,2.46,2.46,0,0,0,1.06,1.25c2.34-3.08,6.44-4.78,8-5.32-1-5-5.39-12.47-7.07-15.32l-.4-.68a1.76,1.76,0,0,0-.93-.91A.76.76,0,0,0,238,306.94Z"/><path class="cls-7" d="M236.77,285.55a14.56,14.56,0,0,0-12.1,2.81,5.32,5.32,0,0,0-2,4.44c.15,4.23,1.29,11.93,7.6,12.11,8.27.24,10.82-6.45,8.57-17.13A2.82,2.82,0,0,0,236.77,285.55Z"/><path class="cls-5" d="M231.28,305.7h-1c-6.92-.19-8.24-8.15-8.41-12.87a6.12,6.12,0,0,1,2.3-5.09,15.45,15.45,0,0,1,12.8-3h0a3.61,3.61,0,0,1,2.71,2.84c1.5,7.11.9,12.23-1.75,15.24A8.9,8.9,0,0,1,231.28,305.7ZM233.15,286a13.86,13.86,0,0,0-8,3,4.61,4.61,0,0,0-1.68,3.8c.15,4.17,1.23,11.18,6.81,11.34,2.8.08,4.93-.68,6.33-2.28,2.29-2.58,2.77-7.39,1.4-13.91a2,2,0,0,0-1.46-1.61h0A13.85,13.85,0,0,0,233.15,286Z"/><g id="_Group_42" data-name="&lt;Group&gt;"><path class="cls-4" d="M291.4,328.78c-.21-.82-.42-1.65-.64-2.47,0-.15,0-.3-.06-.44a.55.55,0,0,0,.15-.65c-.26-.72-.54-1.43-.83-2.12s-.63-1.53-1-2.27c0-.42-.05-.81-.08-1.19a11.25,11.25,0,0,0-.63-3.39c.59-.95,1.17-1.91,1.69-2.9l1.21.17v.09l6.39,11.9c1.19-.61,3.11-2.34,5.07-2.31,6.59.11,5.05,6.6,5.05,6.6l-13.86,0h-.13A3.42,3.42,0,0,1,291.4,328.78Z"/><path class="cls-5" d="M293,328.63a2.69,2.69,0,0,0,.76.14h.1l13,0a4.8,4.8,0,0,0-.76-3.27,4.24,4.24,0,0,0-3.45-1.35h0a7.09,7.09,0,0,0-3.4,1.48,12.45,12.45,0,0,1-1.17.72,1,1,0,0,1-1.32-.41l-6.2-11.55-.49-.08q.71-.89,1.44-1.77a1,1,0,0,1,.7.74l5.8,10.81.16-.11a8.64,8.64,0,0,1,4.48-1.81h.07a6.09,6.09,0,0,1,5,2.12c1.79,2.3,1,5.56,1,5.7a1,1,0,0,1-1,.76h0l-13.86,0h-.2a4.46,4.46,0,0,1-1.27-.23C292.61,329.88,292.81,329.26,293,328.63Z"/></g><polygon class="cls-6" points="289 319.23 294.33 316.9 287.68 298.89 282.33 301.22 289 319.23"/><path class="cls-5" d="M294.48,317.28l-5.34,2.33a.45.45,0,0,1-.63-.17l-6.66-18a.52.52,0,0,1,.34-.6l5.34-2.33a.45.45,0,0,1,.63.18l6.66,18A.51.51,0,0,1,294.48,317.28Zm-5.14,1.35,4.36-1.91-6.37-17.23-4.36,1.9Z"/><path class="cls-7" d="M292.72,329.92a3.11,3.11,0,0,1-2-1.83,79.5,79.5,0,0,1-3.53-11.3,3.48,3.48,0,0,1,.12-1.7l2.29-6.8a3.16,3.16,0,0,1,1.26-1.66c.75-.47,1.78-.64,2.68.93,1.22,2.11,6.7,11.05,7.62,16.63C301.19,324.2,295.36,326,292.72,329.92Z"/><path class="cls-5" d="M293,330.48a.78.78,0,0,1-.5,0,3.79,3.79,0,0,1-2.35-2.19,80.66,80.66,0,0,1-3.55-11.4,3.93,3.93,0,0,1,.14-2l2.29-6.79a3.66,3.66,0,0,1,1.52-2,2.45,2.45,0,0,1,1.86-.39,2.89,2.89,0,0,1,1.84,1.53l.39.67c1.76,3,6.43,10.94,7.29,16.15a.6.6,0,0,1-.51.66s-5.55,1.69-8.06,5.45A.66.66,0,0,1,293,330.48Zm-1.28-23.54a1.91,1.91,0,0,0-.36.17,2.51,2.51,0,0,0-1,1.35l-2.29,6.8a3,3,0,0,0-.1,1.44,78.91,78.91,0,0,0,3.5,11.19,2.45,2.45,0,0,0,1.05,1.25c2.34-3.08,6.45-4.78,8-5.32-1-5-5.39-12.47-7.07-15.32l-.39-.68a1.76,1.76,0,0,0-.93-.91A.81.81,0,0,0,291.68,306.94Z"/><path class="cls-7" d="M290.5,285.55a14.57,14.57,0,0,0-12.1,2.81,5.34,5.34,0,0,0-2,4.44c.15,4.23,1.29,11.93,7.61,12.11,8.27.24,10.81-6.45,8.56-17.13A2.82,2.82,0,0,0,290.5,285.55Z"/><path class="cls-5" d="M285,305.7h-1c-6.92-.19-8.24-8.15-8.41-12.87a6.12,6.12,0,0,1,2.3-5.09,15.45,15.45,0,0,1,12.8-3h0a3.61,3.61,0,0,1,2.71,2.84c1.5,7.11.91,12.23-1.75,15.24A8.88,8.88,0,0,1,285,305.7ZM286.89,286a13.81,13.81,0,0,0-8,3,4.58,4.58,0,0,0-1.68,3.8c.15,4.17,1.23,11.18,6.8,11.34,2.8.08,4.93-.68,6.34-2.28,2.28-2.58,2.76-7.39,1.39-13.91a2,2,0,0,0-1.45-1.61h0A13.9,13.9,0,0,0,286.89,286Z"/><path class="cls-6" d="M198.65,263.65a5.45,5.45,0,1,0,5.45-5.45A5.44,5.44,0,0,0,198.65,263.65Z"/><path class="cls-5" d="M197.57,263.65a6.53,6.53,0,1,1,6.53,6.53A6.54,6.54,0,0,1,197.57,263.65Zm2.17,0a4.37,4.37,0,1,0,4.36-4.37A4.37,4.37,0,0,0,199.74,263.65Z"/><path class="cls-7" d="M163.26,100.24h-70l1.17-24.19a33.86,33.86,0,0,1,33.83-32.23h0a33.87,33.87,0,0,1,33.84,32.23Z"/><path class="cls-11" d="M161.25,78a8.93,8.93,0,0,0-3.55-.72c-4.09,0-7.4,2.62-7.4,5.86S153.61,89,157.7,89a8.93,8.93,0,0,0,3.55-.72Z"/><path class="cls-11" d="M123.32,83.13C123.32,86.36,120,89,116,89s-7.33-2.63-7.33-5.86S112,77.27,116,77.27,123.32,79.89,123.32,83.13Z"/><path class="cls-12" d="M160.21,67c-.62-1.53-1.72-3.15-2.57-4.79H113.29A2.29,2.29,0,0,0,111,64.5v13a2.29,2.29,0,0,0,2.28,2.29h48.34a2.16,2.16,0,0,0,.68-.12V72.93C161.65,70.94,161,69,160.21,67Z"/><path class="cls-13" d="M113.29,79.1a1.55,1.55,0,0,1-1.55-1.55v-13A1.55,1.55,0,0,1,113.29,63H158c-.28-.49-.53-1-.76-1.47h-44a3,3,0,0,0-3,3v13a3,3,0,0,0,3,3h48.34a3,3,0,0,0,.68-.08V78.94a1.51,1.51,0,0,1-.68.16Z"/><path class="cls-14" d="M146.26,67.45h-28.8A1.46,1.46,0,0,1,116,66h0a1.46,1.46,0,0,1,1.46-1.47h28.8A1.47,1.47,0,0,1,147.73,66h0A1.47,1.47,0,0,1,146.26,67.45Z"/><path class="cls-14" d="M153,66a1.47,1.47,0,1,1-1.47-1.47A1.47,1.47,0,0,1,153,66Z"/><path class="cls-13" d="M125.8,70.88a2,2,0,1,1-2-1.95A2,2,0,0,1,125.8,70.88Z"/><path class="cls-13" d="M152.51,70.88a1.95,1.95,0,1,1-1.95-1.95A2,2,0,0,1,152.51,70.88Z"/><path class="cls-13" d="M163.26,101.62h-70a1.39,1.39,0,0,1-1-.43,1.35,1.35,0,0,1-.37-1L93.05,76a35.25,35.25,0,0,1,70.41,0l1.17,24.19a1.36,1.36,0,0,1-.38,1A1.39,1.39,0,0,1,163.26,101.62ZM94.69,98.87h67.13l-1.1-22.75a32.5,32.5,0,0,0-64.93,0Z"/><path class="cls-6" d="M182.66,138.9l2.34,14-19.84,9-2.71-16.69S171.38,149.34,182.66,138.9Z"/><path class="cls-12" d="M164.43,163.16a1.5,1.5,0,0,1-.74-1.06L161,145.41a1.48,1.48,0,0,1,.57-1.43,1.46,1.46,0,0,1,1.53-.16c.32.14,8.24,3.55,18.57-6a1.46,1.46,0,0,1,1.49-.32,1.48,1.48,0,0,1,1,1.17l2.34,14a1.5,1.5,0,0,1-.86,1.61l-19.83,8.95a1.49,1.49,0,0,1-1.32-.05Zm-.13-15.92,2,12.46,17-7.68-1.71-10.26C174.06,147.83,167.65,147.85,164.3,147.24Z"/><path class="cls-7" d="M177.27,148.18a8,8,0,0,1,4.1-2.79c2-.55,4.32-.26,4.91,3.69,1.06,7.17,7.57,47.77-3.87,49.72s-19.64-.51-19.64-7.11,1-24.11,2.75-28.9Z"/><path class="cls-12" d="M169.88,200.38a12.9,12.9,0,0,1-5.75-2.58,7.76,7.76,0,0,1-2.81-6.11c0-6.51,1-24.36,2.84-29.4a1.5,1.5,0,0,1,.23-.41l11.75-14.61h0A9.47,9.47,0,0,1,181,144a5.16,5.16,0,0,1,4.33.45,6,6,0,0,1,2.39,4.42l.13.84c4.89,32.58,3.2,49.11-5.19,50.53A34.82,34.82,0,0,1,169.88,200.38Zm-3.07-36.87c-1.59,4.67-2.59,21-2.59,28.18a4.8,4.8,0,0,0,1.78,3.89c2.84,2.4,8.73,3,16.16,1.79,2.91-.5,9-6.08,2.81-47.24l-.13-.84a3.63,3.63,0,0,0-1.1-2.42,2.45,2.45,0,0,0-2-.08,6.6,6.6,0,0,0-3.36,2.3Z"/><ellipse class="cls-7" cx="174.28" cy="204.78" rx="16.21" ry="13.64" transform="translate(-41.32 365.49) rotate(-86.3)"/><path class="cls-15" d="M163.89,202.66c4-7.77,12.71-10.19,19.4-5.41a16,16,0,0,1,5.51,7.2A17.17,17.17,0,0,0,182,191.68c-6.69-4.78-15.38-2.36-19.4,5.41a18.93,18.93,0,0,0-.69,15.5A18.53,18.53,0,0,1,163.89,202.66Z"/><path class="cls-12" d="M161.73,195.82c4.31-8.3,13.44-11,20.35-6.1s9,15.71,4.74,24-13.43,11.05-20.35,6.11S157.43,204.13,161.73,195.82Zm23.16,16.54c3.66-7.07,1.88-16.21-4-20.39s-13.6-1.83-17.26,5.23-1.88,16.21,4,20.39S181.23,219.42,184.89,212.36Z"/><path class="cls-7" d="M164.69,112a30.08,30.08,0,0,0-15.83,17.83,9.29,9.29,0,0,0,1.52,8.65c4.6,5.89,14.34,15.65,24.3,8.71,13-9.1,10.07-21.6-4.45-34.37A5.12,5.12,0,0,0,164.69,112Z"/><path class="cls-12" d="M155.87,146.31a42,42,0,0,1-6.67-6.9,10.73,10.73,0,0,1-1.75-10,31.59,31.59,0,0,1,16.61-18.7h0a6.58,6.58,0,0,1,7.15,1c9.19,8.07,13.64,15.77,13.24,22.86-.3,5.28-3.3,9.93-8.92,13.85C169.57,152.58,162.67,151.75,155.87,146.31Zm9.45-32.95a28.66,28.66,0,0,0-15,17,7.75,7.75,0,0,0,1.28,7.26c4.53,5.79,13.43,14.57,22.28,8.4,4.83-3.36,7.4-7.25,7.64-11.57.34-6-3.89-13.12-12.23-20.45a3.62,3.62,0,0,0-3.92-.59Z"/><path class="cls-6" d="M128.25,140.21c-6.29-6.6-31,17.51-31,17.51L100,169.55c.48,2.08,1.7,6.11,2.32,8.15,4.52,14.86,5.49,5.83,10.5,5.83h12.39l15.45,3.93c5.61,0,9.66,4.3,14.75-13.39l3.79-16.35S134.55,146.81,128.25,140.21Z"/><path class="cls-12" d="M145.61,189a18,18,0,0,1-2.36-.19,19.79,19.79,0,0,0-2.57-.23.86.86,0,0,1-.28,0l-15.31-3.9H112.84a5.26,5.26,0,0,0-3.07,1.42c-1,.76-2.16,1.63-3.55,1.18s-2.82-2.19-5-9.23c-.81-2.69-1.88-6.29-2.33-8.23L96.19,158a1.1,1.1,0,0,1,.31-1.06c.79-.78,19.52-19,28.76-19h.12a5,5,0,0,1,3.69,1.49h0c6.07,6.36,30.36,17.14,30.6,17.25a1.13,1.13,0,0,1,.65,1.29l-3.78,16.35C153,186.66,149.73,189,145.61,189Zm-4.79-2.69a25.57,25.57,0,0,1,2.74.25c4,.55,6.82.93,10.79-12.82l3.55-15.39c-4.49-2-24.69-11.32-30.47-17.38a2.83,2.83,0,0,0-2.09-.79h-.09c-6.71,0-21.11,12.49-26.71,17.88l2.59,11.21c.34,1.48,1.13,4.28,2.29,8.08,2,6.61,3.12,7.61,3.51,7.74s.94-.43,1.48-.84a7.31,7.31,0,0,1,4.43-1.87h12.39a1.27,1.27,0,0,1,.28,0Z"/><path class="cls-7" d="M168.47,111.15a23.92,23.92,0,0,0-22.6-16.07H107.58a23.47,23.47,0,0,0-23.32,27.71l7.45,46.45h15.55c0-5.89,8.74-10.67,19.53-10.67s19.52,4.78,19.52,10.67h17L169.41,122A23.65,23.65,0,0,0,168.47,111.15Z"/><path class="cls-12" d="M163.35,170.85h-17a1.61,1.61,0,0,1-1.61-1.61c0-4.91-8.21-9.05-17.91-9.05s-17.92,4.14-17.92,9.05a1.61,1.61,0,0,1-1.61,1.61H91.71a1.6,1.6,0,0,1-1.59-1.35L82.67,123a25.08,25.08,0,0,1,24.91-29.57h38.29A25.55,25.55,0,0,1,170,110.62h0a25.12,25.12,0,0,1,1,11.54L165,169.45A1.62,1.62,0,0,1,163.35,170.85Zm-15.6-3.22h14.18l5.89-45.88a22,22,0,0,0-.87-10.08h0a22.33,22.33,0,0,0-21.08-15H107.58a21.87,21.87,0,0,0-21.73,25.84l7.23,45.1h12.74c1.32-6.09,10.06-10.67,21-10.67S146.43,161.54,147.75,167.63Z"/><path class="cls-6" d="M84.71,109.78s1.45-5.93,5-5.79,5.49,5.82,6.13,9.12a41,41,0,0,1-.22,14.81c-.75,4.28-1.8,10.42-4.6,13.79-6.17,7.43-6.44-6.13-6.36-10C84.78,124.42,84.66,117.1,84.71,109.78Z"/><path class="cls-12" d="M87.85,145.15a2.84,2.84,0,0,1-1-.17c-3.1-1.16-3.62-7.85-3.5-13.26.09-4.52.08-9.12.08-13.57q0-4.19,0-8.37a1.36,1.36,0,0,1,0-.29c.07-.28,1.66-6.92,6.23-6.75,5.12.21,7,8.47,7.3,10.13a41.92,41.92,0,0,1-.21,15.27l0,.22c-.79,4.46-1.87,10.58-4.84,14.15C91.37,143.21,89.76,145.15,87.85,145.15ZM86,109.94c0,2.74,0,5.48,0,8.21,0,4.46,0,9.07-.08,13.62-.12,6.23.88,10.49,1.88,10.86.23.07,1-.16,2.28-1.72,2.54-3.06,3.56-8.8,4.29-13l0-.21a39.93,39.93,0,0,0,.22-14.37c-.77-4-2.71-8-5-8.1h-.06C87.63,105.24,86.33,108.58,86,109.94Z"/><rect class="cls-4" x="115.73" y="118.57" width="48.3" height="12.38"/><path class="cls-12" d="M164,132.56h-48.3a1.61,1.61,0,0,1-1.61-1.61V118.57a1.61,1.61,0,0,1,1.61-1.61H164a1.61,1.61,0,0,1,1.61,1.61V131A1.61,1.61,0,0,1,164,132.56Zm-46.69-3.22h45.08v-9.16H117.34Z"/><rect class="cls-16" x="112.55" y="208.62" width="17.12" height="83.54" transform="matrix(-0.98, -0.2, 0.2, -0.98, 190.63, 519.71)"/><path class="cls-12" d="M120.94,294.79l-16.79-3.37a1.69,1.69,0,0,1-1.18-2.06l16.43-81.92a1.69,1.69,0,0,1,1.89-1.45l16.78,3.37a1.69,1.69,0,0,1,1.18,2.06l-16.43,81.92A1.69,1.69,0,0,1,120.94,294.79Zm-14.55-6.58L120.11,291l15.72-78.39-13.72-2.75Z"/><path class="cls-7" d="M143.51,186.89a25,25,0,0,0-22.15.36,10.16,10.16,0,0,0-5.27,7.29c-1.47,7.73-2.64,22.17,8.24,25,14.26,3.67,21.42-7.48,21.89-27.76A5.16,5.16,0,0,0,143.51,186.89Z"/><path class="cls-12" d="M125.73,221.32c-.58-.1-1.17-.23-1.76-.39-11.94-3.07-11-18-9.33-26.66a11.58,11.58,0,0,1,6.08-8.34,26.48,26.48,0,0,1,23.43-.37h0a6.62,6.62,0,0,1,3.55,6.23c-.32,13.48-3.45,22.56-9.29,27C135,221.38,130.7,222.23,125.73,221.32Zm11.32-35A23.94,23.94,0,0,0,122,188.58a8.73,8.73,0,0,0-4.47,6.24c-1.45,7.62-2.44,20.79,7.17,23.26,4.81,1.23,8.84.69,11.93-1.66,5-3.8,7.83-12.34,8.12-24.7a3.66,3.66,0,0,0-1.87-3.5h0A23.34,23.34,0,0,0,137.05,186.34Z"/><path class="cls-17" d="M82.05,308.63l32.77,15.15-2.07,5.86L78.57,317.53l2.52-7.1C81.15,310.25,81.89,308.57,82.05,308.63Z"/><path class="cls-12" d="M112.23,331.11,78.05,319a1.57,1.57,0,0,1-1-2l2.51-7.09c.86-2.43,1.88-3.28,3.1-2.7l32.77,15.15a1.57,1.57,0,0,1,.82,1.95l-2.08,5.85A1.56,1.56,0,0,1,112.23,331.11ZM80.57,316.57l31.23,11.07,1.07-3-30.18-14c-.06.14-.11.26-.13.32Z"/><path class="cls-18" d="M80.83,309.78a7.67,7.67,0,0,1,1.36-6.41c3.87-5.44,14-18.34,19.53-23.7a10.51,10.51,0,0,1,3.81-2.37l17.58-6.12a8.19,8.19,0,0,1,5.23-.2c2,.66,3.72,2.31,1.57,6.35-2.91,5.46-14.83,29.17-25.58,39.38C104.29,316.68,92.8,308.62,80.83,309.78Z"/><path class="cls-12" d="M79.94,311.06a1.54,1.54,0,0,1-.63-.93,9.27,9.27,0,0,1,1.6-7.67C84.78,297,95,284,100.64,278.55a11.81,11.81,0,0,1,4.37-2.72l17.59-6.12a9.57,9.57,0,0,1,6.23-.21,5,5,0,0,1,3.31,2.83c.63,1.57.34,3.5-.85,5.74l-.92,1.74c-4.08,7.79-14.93,28.5-25,38a1.56,1.56,0,0,1-2.09.07s-11-7.68-22.34-6.58A1.57,1.57,0,0,1,79.94,311.06Zm48.76-38.19a3.37,3.37,0,0,0-.85-.4,6.58,6.58,0,0,0-4.22.19L106,278.78a9,9,0,0,0-3.23,2c-5.53,5.34-15.54,18.12-19.35,23.48a6.29,6.29,0,0,0-1.27,3.84c9.69-.37,18.74,4.61,21.93,6.6,9.42-9.53,19.58-28.92,23.48-36.36l.93-1.76c.71-1.35,1-2.45.7-3.1A1.37,1.37,0,0,0,128.7,272.87Z"/><path class="cls-7" d="M156.49,199.28a25.36,25.36,0,0,0,.27-11.1c-3.06-15-26.58-10.92-37.59-10.92-7.08,0-11.26,5.09-13.81,11.07a18.88,18.88,0,0,0,11.27,25.28c10.82,3.69,22.91,6.65,32.48-1.83A24.49,24.49,0,0,0,156.49,199.28Z"/><path class="cls-13" d="M134.16,218.7c-5.87,0-12-1.66-18-3.71A20.33,20.33,0,0,1,104,187.75c3.38-7.93,8.48-11.95,15.15-11.95,1.74,0,3.86-.11,6.1-.22,12-.62,30.11-1.54,32.92,12.31a26.93,26.93,0,0,1-.28,11.74h0a26,26,0,0,1-7.83,13.24A23,23,0,0,1,134.16,218.7Zm0-40.5c-3,0-6,.16-8.78.3-2.28.12-4.44.23-6.25.23-5.46,0-9.54,3.32-12.46,10.17a17.41,17.41,0,0,0,10.39,23.33c10.24,3.49,21.93,6.53,31-1.54a23.25,23.25,0,0,0,6.94-11.76h0a24,24,0,0,0,.24-10.46C153.56,179.79,143.86,178.2,134.2,178.2Z"/><rect class="cls-6" x="121.09" y="211.17" width="17.12" height="83.68" transform="translate(259.29 506.01) rotate(180)"/><path class="cls-12" d="M138.21,296.64H121.09a1.69,1.69,0,0,1-1.56-1.8V211.17a1.69,1.69,0,0,1,1.56-1.8h17.12a1.69,1.69,0,0,1,1.56,1.8v83.67A1.69,1.69,0,0,1,138.21,296.64Zm-15.56-3.59h14V213h-14Z"/><path class="cls-7" d="M140.38,187.21a25,25,0,0,0-21.94,3.12,10.14,10.14,0,0,0-4.32,7.89c-.5,7.85.14,22.32,11.29,23.74,14.61,1.87,20.32-10.08,18.26-30.26A5.15,5.15,0,0,0,140.38,187.21Z"/><path class="cls-12" d="M127,223.59c-.58,0-1.18-.09-1.8-.17-12.22-1.56-13.12-16.52-12.57-25.29a11.56,11.56,0,0,1,5-9,26.43,26.43,0,0,1,23.2-3.28h0a6.61,6.61,0,0,1,4.3,5.73c1.36,13.41-.61,22.81-5.86,27.93C136.19,222.49,132.07,223.87,127,223.59Zm6.88-36.12a24,24,0,0,0-14.65,4.09,8.73,8.73,0,0,0-3.66,6.75c-.49,7.75.16,20.94,10,22.19,4.93.62,8.85-.42,11.63-3.13,4.51-4.4,6.23-13.22,5-25.52a3.69,3.69,0,0,0-2.29-3.24h0A23.43,23.43,0,0,0,133.9,187.47Z"/><path class="cls-4" d="M121,322.56l35.94,3.34v6.21H120.65v-7.53A7.08,7.08,0,0,1,121,322.56Z"/><path class="cls-12" d="M156.91,333.67H120.65a1.56,1.56,0,0,1-1.56-1.56v-7.53c0-2.57.67-3.71,2-3.58l36,3.34a1.56,1.56,0,0,1,1.42,1.56v6.21A1.56,1.56,0,0,1,156.91,333.67Zm-34.7-3.12h33.13v-3.22l-33.1-3.08c0,.15,0,.28,0,.35Z"/><path class="cls-7" d="M120.69,332.11a7.67,7.67,0,0,1-2.53-6c.09-6.67,1.08-23,2.59-30.6a10.4,10.4,0,0,1,1.78-4.11l11-15a8.24,8.24,0,0,1,4.19-3.14c2-.59,4.37-.22,4.9,4.33.72,6.15,4.39,32.43,1.36,46.94C143.91,324.44,129.87,324.35,120.69,332.11Z"/><path class="cls-12" d="M120.69,333.67a1.55,1.55,0,0,1-1-.4,9.27,9.27,0,0,1-3-7.22c.09-6.67,1.07-23.16,2.62-30.89a12,12,0,0,1,2-4.73l11-15a9.64,9.64,0,0,1,5-3.72,5,5,0,0,1,4.33.45c1.41.93,2.27,2.68,2.56,5.2l.24,1.95c1.08,8.74,3.93,32,1.1,45.49a1.55,1.55,0,0,1-1.68,1.24s-13.38-.08-22.11,7.29A1.54,1.54,0,0,1,120.69,333.67Zm18.38-59.14a3.44,3.44,0,0,0-.93.15,6.63,6.63,0,0,0-3.36,2.56l-11,15a8.68,8.68,0,0,0-1.51,3.5c-1.52,7.54-2.47,23.74-2.56,30.31a6.35,6.35,0,0,0,1.13,3.88c7.76-5.81,18-6.86,21.8-7,2.32-13.2-.35-34.93-1.38-43.26l-.23-2c-.18-1.51-.6-2.56-1.18-2.95A1.42,1.42,0,0,0,139.07,274.53Z"/><rect class="cls-6" x="88.99" y="118.67" width="20.64" height="60.63" transform="translate(-68.94 87.73) rotate(-36.31)"/><path class="cls-12" d="M126.34,168.36l-16.63,12.22a1.31,1.31,0,0,1-1.82-.28L72,131.44a1.31,1.31,0,0,1,.28-1.82L88.9,117.4a1.31,1.31,0,0,1,1.82.28l35.9,48.86A1.31,1.31,0,0,1,126.34,168.36Zm-17.12,9.35L123.75,167,89.39,120.26,74.86,130.94Z"/><path class="cls-7" d="M100.05,167.49a8.25,8.25,0,0,0-3.52,3.64c-.88,1.9-1,4.29,2.87,5.56,7,2.31,46.68,15.85,50.61,4.68s2.87-19.81-3.76-21-24.38-3.18-29.5-2.21Z"/><path class="cls-12" d="M129.34,185.89q-11.7-1.95-29.5-7.83L99,177.8a5.84,5.84,0,0,1-3.83-3,4.92,4.92,0,0,1,.28-4.17,9.32,9.32,0,0,1,4-4.16l16.71-9.29a1,1,0,0,1,.35-.12c5.35-1,23.42,1.16,29.9,2.21a7.57,7.57,0,0,1,5.44,3.72c2.35,4,2.07,10.66-.78,18.76C149.38,186.65,142.09,188,129.34,185.89Zm-12.19-26.57-16.54,9.19a7,7,0,0,0-3,3.11,2.76,2.76,0,0,0-.26,2.27,3.75,3.75,0,0,0,2.43,1.7l.8.26c40.56,13.41,47.32,8.06,48.35,5.14,2.58-7.34,2.93-13.47,1-16.81a5.3,5.3,0,0,0-3.83-2.61C138.79,160.25,122.08,158.51,117.15,159.32Zm-17.1,8.17h0Z"/><path class="cls-7" d="M98.12,107.13a21.59,21.59,0,0,0-21.66.7c-2.55,1.52-4.3,4.67-4.7,8.31-1,8.76-1.18,25.09,9.64,28.12,14.19,4,20.48-8.74,19.68-31.67A6.37,6.37,0,0,0,98.12,107.13Z"/><path class="cls-12" d="M70.71,115.92c.45-4.15,2.43-7.65,5.3-9.36a22.42,22.42,0,0,1,22.49-.72h0c2.11,1.1,3.53,3.73,3.64,6.71.51,14.38-1.68,24.36-6.5,29.67-3.57,3.93-8.43,5.07-14.44,3.39-7.68-2.14-11.54-11.26-10.84-25.29C70.43,118.9,70.54,117.44,70.71,115.92Zm29.3-3.29a4.89,4.89,0,0,0-2.27-4.21h0a20.77,20.77,0,0,0-20.82.67,9.49,9.49,0,0,0-4.1,7.27c-.95,8.73-1.06,23.79,8.79,26.54,5.34,1.49,9.59.54,12.64-2.81,3.33-3.67,5.27-10.32,5.73-19.44C100.1,118.16,100.11,115.48,100,112.63Z"/><g id="_Group_43" data-name="&lt;Group&gt;"><path id="_Path_" data-name="&lt;Path&gt;" class="cls-5" d="M274.25,273a1.06,1.06,0,0,0-.51-1.92c-.13,0-13.74-1.32-34.27-13-19-10.78-47.85-32.86-77.85-76.82a1.05,1.05,0,1,0-1.74,1.19C176.6,207,203.82,240.31,238.58,260c20.89,11.84,34.42,13.12,35,13.17A1.1,1.1,0,0,0,274.25,273Z"/></g><ellipse class="cls-7" cx="151.74" cy="174.41" rx="16.24" ry="15.21"/><path class="cls-15" d="M139.47,177.07c5.06,7,15.46,8.74,23.25,3.83a16.53,16.53,0,0,0,6.29-7.12,15.89,15.89,0,0,1-7.6,12.43c-7.78,4.91-18.19,3.2-23.25-3.83a14.35,14.35,0,0,1-1.36-14.5A14.13,14.13,0,0,0,139.47,177.07Z"/><path class="cls-12" d="M141.93,160.78c8-5.08,19-3.1,24.4,4.42S169.59,183,161.55,188s-19,3.1-24.4-4.42S133.89,165.86,141.93,160.78Zm1.47,2a13.44,13.44,0,0,0-4,19.39,15.56,15.56,0,0,0,20.68,3.8,13.44,13.44,0,0,0,4-19.39A15.55,15.55,0,0,0,143.4,162.82Z"/></g></g></svg>