<svg xmlns="http://www.w3.org/2000/svg" viewBox="0 0 374 374"><defs><style>.cls-1{fill:#9ed1e3;}.cls-2{opacity:0.48;}.cls-3{fill:#484849;}.cls-4{fill:#f9f8f3;}.cls-5{fill:#444445;}.cls-6{fill:#dddad3;}.cls-7{fill:#eeefef;}.cls-8{fill:#424243;}.cls-9{fill:#618047;}.cls-10{fill:#f3ea5b;}.cls-11{fill:#404041;}.cls-12{fill:#fff;}.cls-13{fill:#212121;}.cls-14{fill:#bcbcbc;}.cls-15{fill:#c5c5c5;}.cls-16{fill:#6d6d6d;}.cls-17{fill:#dbb79d;}.cls-18{fill:#7f94c4;}.cls-19{fill:#2d2e2a;}.cls-20{fill:#171818;}.cls-21{fill:#d9b59b;}.cls-22{fill:#cba894;}.cls-23{fill:#d9dadb;}</style></defs><title>Asset 2</title><g id="Layer_2" data-name="Layer 2"><g id="Graphic"><rect class="cls-1" width="374" height="374"/><g id="_Group_" data-name="&lt;Group&gt;" class="cls-2"><g id="_Group_2" data-name="&lt;Group&gt;"><g id="_Group_3" data-name="&lt;Group&gt;"><path class="cls-3" d="M144.75,335.73H44.24c-.93,0-1.69-1.1-1.69-2.46h0c0-1.35.76-2.46,1.69-2.46H144.75c.93,0,1.7,1.11,1.7,2.46h0C146.45,334.63,145.68,335.73,144.75,335.73Z"/></g></g></g><g id="_Group_4" data-name="&lt;Group&gt;" class="cls-2"><g id="_Group_5" data-name="&lt;Group&gt;"><g id="_Group_6" data-name="&lt;Group&gt;"><path class="cls-3" d="M154.24,335.73h-2.49c-.93,0-1.69-1.1-1.69-2.46h0c0-1.35.76-2.46,1.69-2.46h2.49c.93,0,1.69,1.11,1.69,2.46h0C155.93,334.63,155.17,335.73,154.24,335.73Z"/></g></g></g><g id="_Group_7" data-name="&lt;Group&gt;" class="cls-2"><g id="_Group_8" data-name="&lt;Group&gt;"><g id="_Group_9" data-name="&lt;Group&gt;"><path class="cls-3" d="M299.73,334.56H207c-.66,0-1.2-1.18-1.2-2.62h0c0-1.44.54-2.63,1.2-2.63h92.76c.66,0,1.2,1.19,1.2,2.63h0C300.93,333.38,300.39,334.56,299.73,334.56Z"/></g></g></g><g id="_Group_10" data-name="&lt;Group&gt;" class="cls-2"><g id="_Group_11" data-name="&lt;Group&gt;"><g id="_Group_12" data-name="&lt;Group&gt;"><path class="cls-3" d="M314.35,327.08h-4.51c-1,0-1.81-1.18-1.81-2.62h0c0-1.45.81-2.63,1.81-2.63h4.51c1,0,1.81,1.18,1.81,2.63h0C316.16,325.9,315.35,327.08,314.35,327.08Z"/></g></g></g><g id="_Group_13" data-name="&lt;Group&gt;"><rect id="_Rectangle_" data-name="&lt;Rectangle&gt;" class="cls-4" x="82.87" y="180.25" width="246.12" height="23.17"/><g id="_Group_14" data-name="&lt;Group&gt;"><path class="cls-5" d="M329,204.85H82.87a1.43,1.43,0,0,1-1.42-1.42V180.25a1.43,1.43,0,0,1,1.42-1.42H329a1.43,1.43,0,0,1,1.42,1.42v23.18A1.43,1.43,0,0,1,329,204.85ZM84.29,202H327.58V181.67H84.29Z"/></g><g id="_Group_15" data-name="&lt;Group&gt;"><path id="_Path_" data-name="&lt;Path&gt;" class="cls-4" d="M94.23,308.46h0a2.56,2.56,0,0,1-1.74-3.19l13.82-74,6.52-25.17a2.74,2.74,0,0,1,2.88-2.37h0a2.55,2.55,0,0,1,1.74,3.19l-3.88,25.63L97.11,306.09A2.72,2.72,0,0,1,94.23,308.46Z"/><g id="_Group_16" data-name="&lt;Group&gt;"><path class="cls-5" d="M94.43,310.06a3.64,3.64,0,0,1-.57,0h0a3.38,3.38,0,0,1-2.19-1.46,4.32,4.32,0,0,1-.6-3.28l13.8-74a.29.29,0,0,0,0-.09L111.41,206a4,4,0,0,1,4.38-3.36,3.33,3.33,0,0,1,2.2,1.45,4.33,4.33,0,0,1,.61,3.25L114.72,233a.29.29,0,0,0,0,.09L98.25,306.64A4.12,4.12,0,0,1,94.43,310.06Zm-.11-2.62c.49.09,1.18-.44,1.37-1.34l16.45-73.56L116,207s0,0,0-.06a1.73,1.73,0,0,0-.21-1.29.75.75,0,0,0-.48-.35c-.5-.08-1.19.47-1.37,1.35,0,0,0,0,0,.06l-6.51,25.12-13.81,74a1.77,1.77,0,0,0,.2,1.31.74.74,0,0,0,.49.35Z"/></g></g><g id="_Group_17" data-name="&lt;Group&gt;"><path id="_Path_2" data-name="&lt;Path&gt;" class="cls-4" d="M318.28,309h0a2.54,2.54,0,0,0,1.74-3.19l-13.81-74-6.52-25.16a2.72,2.72,0,0,0-2.88-2.37h0a2.54,2.54,0,0,0-1.74,3.18L299,233.08l16.45,73.58A2.73,2.73,0,0,0,318.28,309Z"/><g id="_Group_18" data-name="&lt;Group&gt;"><path class="cls-5" d="M317.84,310.06a4.13,4.13,0,0,1-3.83-3.44l-16.44-73.55a.29.29,0,0,1,0-.09l-3.88-25.6a4.29,4.29,0,0,1,.61-3.25,3.31,3.31,0,0,1,2.19-1.45,4,4,0,0,1,4.38,3.35l6.52,25.14s0,.06,0,.09l13.81,74a4.28,4.28,0,0,1-.6,3.26,3.38,3.38,0,0,1-2.2,1.46h0A3.52,3.52,0,0,1,317.84,310.06Zm.34-1.33Zm-18.05-76.19,16.44,73.53c.19.93.88,1.46,1.38,1.37h0a.75.75,0,0,0,.48-.35,1.69,1.69,0,0,0,.2-1.29l-13.8-74-6.52-25.12s0,0,0-.06c-.18-.88-.88-1.43-1.38-1.35a.75.75,0,0,0-.48.35,1.73,1.73,0,0,0-.2,1.29s0,0,0,.06Z"/></g></g><g id="_Group_19" data-name="&lt;Group&gt;"><rect id="_Rectangle_2" data-name="&lt;Rectangle&gt;" class="cls-6" x="86.64" y="183.84" width="136.69" height="16.2"/><g id="_Group_20" data-name="&lt;Group&gt;"><path class="cls-5" d="M223.62,200.9H86.93a1,1,0,0,1-1-1V183.7a1,1,0,0,1,1-1H223.62a1,1,0,0,1,1,1v16.2A1,1,0,0,1,223.62,200.9Zm-135.69-2H222.62V184.7H87.93Z"/></g><g id="_Group_21" data-name="&lt;Group&gt;"><path class="cls-5" d="M160.81,191.23H148.7a2.48,2.48,0,0,1,0-5h12.11a2.48,2.48,0,0,1,0,5Zm-12.11-3a.5.5,0,0,0-.48.49.49.49,0,0,0,.48.48h12.11a.49.49,0,0,0,.48-.48.5.5,0,0,0-.48-.49Z"/></g></g></g><g id="_Group_22" data-name="&lt;Group&gt;"><g id="_Group_23" data-name="&lt;Group&gt;"><g id="_Group_24" data-name="&lt;Group&gt;"><path class="cls-7" d="M132,165.79a4.93,4.93,0,1,0,4.92,4.92A4.93,4.93,0,0,0,132,165.79Zm0,8.68a3.76,3.76,0,1,1,3.75-3.76A3.76,3.76,0,0,1,132,174.47Z"/><path class="cls-8" d="M132,176.11a5.4,5.4,0,1,1,5.4-5.4A5.4,5.4,0,0,1,132,176.11Zm0-9.85a4.45,4.45,0,1,0,4.45,4.45A4.45,4.45,0,0,0,132,166.26Zm0,8.68a4.23,4.23,0,1,1,4.23-4.23A4.23,4.23,0,0,1,132,174.94Zm0-7.51a3.28,3.28,0,1,0,3.28,3.28A3.29,3.29,0,0,0,132,167.43Z"/></g><g id="_Group_25" data-name="&lt;Group&gt;"><rect class="cls-7" x="116.7" y="159.93" width="15.34" height="19.55"/><path class="cls-8" d="M132,180.19H116.7a.71.71,0,0,1-.72-.71V159.93a.71.71,0,0,1,.72-.71H132a.71.71,0,0,1,.71.71v19.55A.71.71,0,0,1,132,180.19Zm-14.63-1.42h13.91V160.64H117.41Z"/></g><g id="_Group_26" data-name="&lt;Group&gt;"><path class="cls-9" d="M116.7,167.63v6.17a3.09,3.09,0,0,0,0-6.17Z"/><path class="cls-8" d="M116.7,174.1a.31.31,0,0,1-.31-.3v-6.17a.31.31,0,0,1,.31-.3,3.39,3.39,0,0,1,0,6.77ZM117,168v5.53a2.78,2.78,0,0,0,0-5.53Z"/></g></g><g id="_Group_27" data-name="&lt;Group&gt;"><path class="cls-8" d="M127.24,165.3h0a.3.3,0,0,1-.25-.35c.37-2.13.64-5.35.1-5.82-.18-.16-.27-.13-.3-.12-.25.08-.5.63-.58,1a.29.29,0,0,1-.37.22.3.3,0,0,1-.22-.36c.05-.2.33-1.21,1-1.42a.91.91,0,0,1,.88.24c1,.87.25,5.47.1,6.38A.31.31,0,0,1,127.24,165.3Z"/></g><g id="_Group_28" data-name="&lt;Group&gt;"><rect class="cls-10" x="125.67" y="164.79" width="2.87" height="3.42" rx="0.91" ry="0.91" transform="matrix(1, 0.1, -0.1, 1, 16.72, -11.53)"/><path class="cls-8" d="M127.55,168.56h-.11l-1.06-.1a1.2,1.2,0,0,1-1.08-1.32l.15-1.6a1.22,1.22,0,0,1,1.32-1.09l1.06.1a1.21,1.21,0,0,1,1.08,1.33l-.15,1.6A1.21,1.21,0,0,1,127.55,168.56Zm-.06-.61a.61.61,0,0,0,.67-.54l.15-1.6a.6.6,0,0,0-.54-.66l-1-.1a.61.61,0,0,0-.67.54l-.15,1.6a.61.61,0,0,0,.54.66Z"/></g></g><path class="cls-11" d="M82,240.07a3.31,3.31,0,0,0,4.75-.11c2.42-2.41,2.47-6.78,2.16-9a15.86,15.86,0,0,0-3.53-7.91c-1.5-1.83-3.62-4.48-6.33-4.47-6,0-3,7.57-2.12,9.6C78.68,232.08,80.27,236.13,82,240.07Z"/><path class="cls-8" d="M84.35,241.77a4.31,4.31,0,0,1-2.87-1.19.63.63,0,0,1-.16-.23c-.66-1.51-1.29-3-1.93-4.57-1-2.42-2-4.91-3.14-7.29-.65-1.42-2.62-6.23-.92-8.9A4.1,4.1,0,0,1,79,217.87h0c3,0,5.27,2.8,6.78,4.65l.08.09a16.45,16.45,0,0,1,3.68,8.26c.41,2.93,0,7.2-2.35,9.59A4,4,0,0,1,84.35,241.77Zm-1.79-2.12a2.55,2.55,0,0,0,3.66-.2c2.17-2.16,2.25-6.28,2-8.38a15.14,15.14,0,0,0-3.37-7.56l-.08-.09c-1.42-1.74-3.37-4.12-5.68-4.12h0a2.73,2.73,0,0,0-2.49,1c-1,1.64-.11,5.09,1,7.54s2.14,4.92,3.15,7.34C81.32,236.71,81.93,238.18,82.56,239.65Z"/><rect class="cls-11" x="67.03" y="231.28" width="11.97" height="48.28" transform="translate(-74.43 34.44) rotate(-17.76)"/><path class="cls-8" d="M74.68,281.07a.85.85,0,0,1-.8-.58l-14.73-46a.89.89,0,0,1,.06-.64.78.78,0,0,1,.48-.41l11.4-3.66a.85.85,0,0,1,1.06.55l14.72,46a.84.84,0,0,1-.05.64.87.87,0,0,1-.49.41L74.93,281A.73.73,0,0,1,74.68,281.07ZM61,234.79l14.22,44.39L85,276,70.81,231.65Z"/><path class="cls-12" d="M94.77,301.54a5.15,5.15,0,0,0,.69-4.58c-1.34-4.47-5.18-15.28-7.73-20a7,7,0,0,0-2.08-2.4l-10.88-7.85a6.14,6.14,0,0,0-3.65-1.24c-1.58,0-3.22.76-2.74,3.92.65,4.29,3,22.73,8,31.86C76.38,301.19,86.6,298.22,94.77,301.54Z"/><path class="cls-8" d="M94.77,302.44a.83.83,0,0,1-.34-.07c-7.78-3.16-17.73-.34-17.82-.31a.91.91,0,0,1-1-.43c-4.64-8.51-7-24.69-7.87-30.79l-.2-1.36a4.62,4.62,0,0,1,.73-3.78,3.74,3.74,0,0,1,2.89-1.18h.08a7.05,7.05,0,0,1,4.11,1.42l10.87,7.84a7.88,7.88,0,0,1,2.35,2.71c2.61,4.87,6.46,15.75,7.8,20.21a6.11,6.11,0,0,1-.81,5.35A.89.89,0,0,1,94.77,302.44Zm-9-3.37a25.6,25.6,0,0,1,8.64,1.37,4.28,4.28,0,0,0,.22-3.23c-1.32-4.4-5.11-15.11-7.66-19.88a6.15,6.15,0,0,0-1.82-2.1l-10.87-7.84a5.41,5.41,0,0,0-3.12-1.08,2,2,0,0,0-1.54.55,3.18,3.18,0,0,0-.33,2.35l.2,1.38c.85,5.86,3.08,21.19,7.35,29.57A38.48,38.48,0,0,1,85.74,299.07Z"/><path class="cls-12" d="M78.41,221a20.54,20.54,0,0,1,6.25,15.87A6.2,6.2,0,0,1,81.08,242c-5,2.49-14.84,6-20-1.22-6.77-9.49-1-16.67,13.12-20.79A4.32,4.32,0,0,1,78.41,221Z"/><path class="cls-8" d="M69.86,245.93a11,11,0,0,1-9.49-4.69c-2.81-4-3.65-7.66-2.48-11,1.64-4.72,7-8.45,16.06-11.08A5.18,5.18,0,0,1,79,220.36h0a21.4,21.4,0,0,1,6.5,16.53,7.06,7.06,0,0,1-4.06,5.85C78.45,244.23,74.09,245.93,69.86,245.93Zm5.56-25.3a3.63,3.63,0,0,0-1,.14c-8.34,2.43-13.5,5.89-14.92,10-1,2.81-.21,6,2.26,9.47,4.74,6.65,13.88,3.45,18.91.95a5.32,5.32,0,0,0,3.11-4.4,19.73,19.73,0,0,0-6-15.21h0A3.43,3.43,0,0,0,75.42,220.63Z"/><path class="cls-11" d="M117.33,240.07a3.32,3.32,0,0,1-4.76-.11c-2.41-2.41-2.46-6.78-2.15-9a15.86,15.86,0,0,1,3.53-7.91c1.5-1.83,3.62-4.48,6.32-4.47,6,0,3.06,7.57,2.13,9.6C120.62,232.08,119,236.13,117.33,240.07Z"/><path class="cls-8" d="M115,241.77a4,4,0,0,1-2.88-1.31c-2.4-2.39-2.76-6.66-2.35-9.59a16.45,16.45,0,0,1,3.68-8.26l.07-.09c1.52-1.85,3.8-4.65,6.79-4.65h0a4.07,4.07,0,0,1,3.68,1.72c1.71,2.67-.27,7.48-.91,8.9-1.09,2.38-2.13,4.87-3.14,7.29-.64,1.53-1.28,3.06-1.93,4.57a.63.63,0,0,1-.16.23A4.31,4.31,0,0,1,115,241.77Zm5.31-22.47c-2.32,0-4.26,2.38-5.69,4.12l-.07.09a15.06,15.06,0,0,0-3.37,7.56c-.3,2.1-.22,6.23,2,8.38a2.54,2.54,0,0,0,3.65.2c.64-1.47,1.25-2.94,1.87-4.42,1-2.42,2.05-4.93,3.15-7.34s2.07-5.9,1-7.54a2.74,2.74,0,0,0-2.5-1Zm-2.93,20.77h0Z"/><rect class="cls-11" x="120.3" y="231.28" width="11.97" height="48.28" transform="matrix(-0.95, -0.31, 0.31, -0.95, 168.64, 537.18)"/><path class="cls-8" d="M124.62,281.07a.78.78,0,0,1-.26,0L113,277.38a.83.83,0,0,1-.54-1.05l14.72-46a.84.84,0,0,1,1-.55l11.4,3.66a.8.8,0,0,1,.49.41.84.84,0,0,1,0,.64l-14.72,46a.84.84,0,0,1-.8.58Zm-10.35-5,9.81,3.14,14.22-44.39-9.81-3.14Z"/><path class="cls-12" d="M104.53,301.54a5.15,5.15,0,0,1-.69-4.58c1.34-4.47,5.18-15.28,7.73-20a7,7,0,0,1,2.08-2.4l10.87-7.85a6.19,6.19,0,0,1,3.66-1.24c1.58,0,3.22.76,2.74,3.92-.65,4.29-3,22.73-8,31.86C122.92,301.19,112.7,298.22,104.53,301.54Z"/><path class="cls-8" d="M104.53,302.44a.89.89,0,0,1-.74-.39,6.08,6.08,0,0,1-.81-5.35c1.34-4.47,5.2-15.34,7.8-20.21a7.88,7.88,0,0,1,2.35-2.71L124,265.94a6.78,6.78,0,0,1,4.19-1.42,3.7,3.7,0,0,1,2.89,1.18,4.62,4.62,0,0,1,.72,3.78l-.19,1.36c-.89,6.1-3.23,22.28-7.87,30.79a.91.91,0,0,1-1.11.41s-10-2.83-17.76.33A.83.83,0,0,1,104.53,302.44Zm23.58-36.13a5.23,5.23,0,0,0-3.06,1.08l-10.88,7.84a6.37,6.37,0,0,0-1.82,2.1c-2.54,4.76-6.33,15.48-7.66,19.88a4.32,4.32,0,0,0,.23,3.23c7-2.52,15.07-.9,17.57-.28,4.27-8.38,6.49-23.71,7.34-29.57l.21-1.38a3.18,3.18,0,0,0-.33-2.35,2,2,0,0,0-1.55-.55Z"/><path class="cls-12" d="M120.88,221a20.58,20.58,0,0,0-6.24,15.87,6.2,6.2,0,0,0,3.58,5.12c5,2.49,14.84,6,20-1.22,6.77-9.49,1-16.67-13.12-20.79A4.34,4.34,0,0,0,120.88,221Z"/><path class="cls-8" d="M129.44,245.93c-4.24,0-8.6-1.7-11.6-3.19a7.07,7.07,0,0,1-4.07-5.85,21.4,21.4,0,0,1,6.51-16.53,5.17,5.17,0,0,1,5.06-1.24c9,2.63,14.43,6.36,16.07,11.08,1.17,3.38.33,7.09-2.49,11A11,11,0,0,1,129.44,245.93Zm-5.56-25.3a3.41,3.41,0,0,0-2.39,1h0a19.73,19.73,0,0,0-6,15.21,5.32,5.32,0,0,0,3.11,4.4c5,2.5,14.17,5.7,18.91-.95,2.47-3.47,3.23-6.66,2.26-9.47-1.43-4.11-6.58-7.57-14.92-10A3.63,3.63,0,0,0,123.88,220.63Zm-3,.34h0Z"/><path class="cls-11" d="M128.14,164.83s-1-4.29-3.6-4.19-4,4.21-4.44,6.6a29.88,29.88,0,0,0,.16,10.74c.55,3.1,1.3,7.54,3.33,10,4.48,5.38,4.67-4.44,4.61-7.22C128.09,175.43,128.18,170.14,128.14,164.83Z"/><path class="cls-8" d="M125.87,190.27c-1.29,0-2.42-1.36-2.83-1.85-2.11-2.55-2.89-6.95-3.45-10.16l0-.16a30.24,30.24,0,0,1-.15-11c.22-1.18,1.54-7,5.1-7.18,3.12-.15,4.27,4.54,4.32,4.74a.41.41,0,0,1,0,.16c0,2,0,4,0,6.07,0,3.22,0,6.55.06,9.83s-.16,8.58-2.42,9.42A1.76,1.76,0,0,1,125.87,190.27Zm-1.24-28.92h-.06c-1.8.07-3.22,3.17-3.77,6a29,29,0,0,0,.16,10.47l0,.16c.54,3.06,1.27,7.24,3.15,9.5,1.18,1.42,1.73,1.36,1.87,1.31.93-.35,1.57-3.82,1.48-8.06-.07-3.29-.06-6.64,0-9.87,0-2,0-4,0-6C127.29,164.42,126.35,161.35,124.63,161.35Z"/><path class="cls-11" d="M67.86,164.83s1-4.29,3.6-4.19,4,4.21,4.44,6.6A29.88,29.88,0,0,1,75.74,178c-.54,3.1-1.3,7.54-3.33,10-4.47,5.38-4.67-4.44-4.61-7.22C67.91,175.43,67.82,170.14,67.86,164.83Z"/><path class="cls-8" d="M70.13,190.27a1.76,1.76,0,0,1-.63-.12c-2.26-.84-2.48-6.26-2.41-9.42s.06-6.59,0-9.8c0-2,0-4.07,0-6.1a.78.78,0,0,1,0-.16c0-.2,1.19-4.75,4.2-4.75h.12c3.56.14,4.88,6,5.11,7.18a30.48,30.48,0,0,1-.16,11l0,.15c-.57,3.21-1.34,7.62-3.46,10.17C72.55,188.91,71.42,190.27,70.13,190.27Zm-1.56-25.34q0,3,0,6c0,3.22,0,6.55,0,9.83-.09,4.24.55,7.71,1.48,8.06.14.05.69.12,1.87-1.31,1.88-2.26,2.62-6.45,3.16-9.51l0-.15a29,29,0,0,0,.16-10.47c-.55-2.86-2-6-3.77-6h-.06C69.65,161.35,68.72,164.42,68.57,164.93Z"/><rect class="cls-11" x="48.77" y="169.45" width="13.48" height="39.62"/><path class="cls-8" d="M62.25,209.92H48.77a.85.85,0,0,1-.85-.85V169.45a.85.85,0,0,1,.85-.85H62.25a.85.85,0,0,1,.85.85v39.62A.85.85,0,0,1,62.25,209.92Zm-12.63-1.7H61.4V170.3H49.62Z"/><path class="cls-12" d="M49.64,207a5.45,5.45,0,0,0-1.88,2.72c-.36,1.32-.18,2.88,2.45,3.28,4.77.73,31.79,5.19,33.12-2.42s-.28-13.08-4.68-13.1S62.6,198,59.4,199.21Z"/><path class="cls-8" d="M70.49,215.7a134.58,134.58,0,0,1-19.85-1.87l-.55-.09a3.77,3.77,0,0,1-2.79-1.51,3.21,3.21,0,0,1-.27-2.72,6.11,6.11,0,0,1,2.13-3.11l9.77-7.78a.88.88,0,0,1,.21-.12c3.34-1.23,15.22-1.77,19.52-1.79a5,5,0,0,1,3.9,1.82c1.94,2.32,2.48,6.64,1.51,12.17C83.49,214,78.94,215.7,70.49,215.7ZM59.78,199.88l-9.67,7.71a4.61,4.61,0,0,0-1.62,2.33,1.82,1.82,0,0,0,.08,1.48,2.45,2.45,0,0,0,1.75.84l.55.08c27.58,4.28,31.36.11,31.71-1.89.87-5,.44-9-1.18-10.93a3.45,3.45,0,0,0-2.75-1.27C73.83,198.16,62.87,198.83,59.78,199.88ZM49.64,207h0Z"/><path class="cls-12" d="M72.39,164.44a23.22,23.22,0,0,1-2,18.3,7.14,7.14,0,0,1-5.73,3.63c-5.75.44-16.38-.05-17.59-9.34-1.6-12.18,7.08-17,21.93-15.32A3.94,3.94,0,0,1,72.39,164.44Z"/><path class="cls-8" d="M61.9,187.39c-9.16,0-14.82-3.65-15.68-10.25-.68-5.16.4-9.22,3.2-12.08,3.79-3.85,10.42-5.29,19.73-4.25a4.84,4.84,0,0,1,4.1,3.36h0a24.08,24.08,0,0,1-2,19,8,8,0,0,1-6.45,4.09Q63.3,187.39,61.9,187.39Zm1.83-25.09c-5.95,0-10.4,1.37-13,4-2.39,2.44-3.3,6-2.7,10.58,1.11,8.46,10.9,9,16.64,8.56a6.22,6.22,0,0,0,5-3.16,22.41,22.41,0,0,0,1.88-17.6h0a3,3,0,0,0-2.58-2.1A46.35,46.35,0,0,0,63.73,162.3Z"/><path class="cls-12" d="M90.61,205.82a9.07,9.07,0,0,1-8.88,9.25,9,9,0,0,1-8-5.23c-1.9-4.09-.27-8.09,1.72-11.78,1-1.75,2-3.61,3.82-4.43a23.68,23.68,0,0,1,.27,3.37c3-.55,5.5-.35,7.88,1.72A9.44,9.44,0,0,1,90.61,205.82Z"/><path class="cls-8" d="M81.73,215.84A9.68,9.68,0,0,1,73,210.16c-2-4.36-.36-8.57,1.74-12.46.87-1.61,2.06-3.8,4.17-4.77a.81.81,0,0,1,.68,0,.75.75,0,0,1,.39.55,22.66,22.66,0,0,1,.26,2.6A13.28,13.28,0,0,1,82.1,196a8.41,8.41,0,0,1,5.82,2.17,10.14,10.14,0,0,1,3.45,7.68A9.85,9.85,0,0,1,81.73,215.84Zm-3.07-21a11.48,11.48,0,0,0-2.53,3.53c-2.22,4.1-3.35,7.55-1.71,11.1a8.15,8.15,0,0,0,7.31,4.79,8.32,8.32,0,0,0,8.12-8.49,8.74,8.74,0,0,0-2.93-6.53,7,7,0,0,0-4.82-1.79,13,13,0,0,0-2.42.25.75.75,0,0,1-.9-.75C78.77,196.3,78.74,195.59,78.66,194.89Z"/><path class="cls-11" d="M98.93,186.88c-4.56-4.78-22.44,12.68-22.44,12.68l2,8.58c.35,1.5,1.23,4.43,1.68,5.91,3.28,10.76,4,4.22,7.61,4.22h9l11.19,2.85c4.07,0,7,3.11,10.69-9.71l2.74-11.85S103.49,191.66,98.93,186.88Z"/><path class="cls-8" d="M111.55,222.08a11.79,11.79,0,0,1-1.73-.15,14.59,14.59,0,0,0-1.89-.17.44.44,0,0,1-.16,0l-11.11-2.83h-8.9A4,4,0,0,0,85.43,220c-.73.56-1.5,1.13-2.41.84s-2-1.57-3.49-6.58c-.86-2.84-1.43-4.84-1.68-5.95l-2-8.57a.66.66,0,0,1,.18-.61c.58-.56,14.09-13.69,20.72-13.69h.09a3.43,3.43,0,0,1,2.54,1c4.42,4.63,22.06,12.46,22.23,12.54a.63.63,0,0,1,.37.73l-2.74,11.85C116.71,220.38,114.49,222.08,111.55,222.08Zm-3.54-1.6a13.74,13.74,0,0,1,2,.18c2.85.39,5.1.69,8-9.43l2.61-11.29c-3-1.33-17.93-8.18-22.16-12.61h0a2.15,2.15,0,0,0-1.64-.63h-.07c-5.63,0-17.63,11.24-19.55,13.08L79.1,208c.25,1.08.81,3,1.67,5.87,1.35,4.45,2.19,5.57,2.65,5.72.28.09.74-.26,1.24-.64a5.11,5.11,0,0,1,3.1-1.31h9a.44.44,0,0,1,.16,0Z"/><path class="cls-12" d="M128.07,165.82a17.33,17.33,0,0,0-16.38-11.64H84a17,17,0,0,0-16.9,20.08l5.4,33.66H83.72c0-4.27,6.33-7.73,14.15-7.73S112,203.65,112,207.92h12.35l4.39-34.27A17.15,17.15,0,0,0,128.07,165.82Z"/><path class="cls-8" d="M124.36,208.83H112a.91.91,0,0,1-.91-.91c0-3.7-6.06-6.82-13.23-6.82s-13.23,3.12-13.23,6.82a.92.92,0,0,1-.92.91H72.45a.91.91,0,0,1-.91-.77l-5.4-33.66A17.94,17.94,0,0,1,84,153.26h27.74a18.28,18.28,0,0,1,17.25,12.26h0a18,18,0,0,1,.72,8.25L125.27,208A.92.92,0,0,1,124.36,208.83ZM112.85,207h10.7l4.3-33.46a16.09,16.09,0,0,0-16.16-18.45H84a16.11,16.11,0,0,0-16,19L73.23,207h9.65c.78-4.4,7.08-7.73,15-7.73S112.07,202.6,112.85,207Z"/><path class="cls-13" d="M98.09,160.86h0a9.61,9.61,0,0,0,9.61-9.61V142a9.61,9.61,0,0,0-9.61-9.61h0A9.61,9.61,0,0,0,88.48,142v9.29A9.61,9.61,0,0,0,98.09,160.86Z"/><path class="cls-8" d="M87.18,151.25V142A10.91,10.91,0,0,1,109,142v9.29a10.91,10.91,0,0,1-21.82,0Zm2.6-9.29v9.29a8.32,8.32,0,0,0,16.63,0V142a8.32,8.32,0,0,0-16.63,0Z"/><ellipse class="cls-12" cx="98.09" cy="123.61" rx="32.6" ry="30.57"/><path class="cls-8" d="M98.09,155.09c-18.48,0-33.51-14.12-33.51-31.48s15-31.48,33.51-31.48,33.51,14.12,33.51,31.48S116.57,155.09,98.09,155.09Zm0-61.13c-17.47,0-31.68,13.3-31.68,29.65s14.21,29.65,31.68,29.65,31.68-13.3,31.68-29.65S115.56,94,98.09,94Z"/><path class="cls-12" d="M125.26,230.77q.06-.45.09-.9c0-.17,0-.34,0-.52a15.86,15.86,0,0,0-.86-5.47c-1.57-4.69-6.87-7-11.3-8.13l-1.41-.34a33,33,0,0,0-6.82-1.63,41,41,0,0,0-6-.26,40.9,40.9,0,0,0-6.05.26,33.25,33.25,0,0,0-6.83,1.63l-1.41.34c-4.43,1.11-9.72,3.44-11.3,8.13a16.35,16.35,0,0,0-.86,5.47c0,.18,0,.35,0,.52s0,.6.08.9h0a11.77,11.77,0,0,0,.44,2,6.91,6.91,0,0,0,3.13,3.85,14.18,14.18,0,0,0,6,3,34.29,34.29,0,0,0,5.31.92c3.17.4,5.6-.3,8.76-.85.9-.15,1.81-.26,2.72-.33s1.82.18,2.72.33c3.15.55,5.59,1.25,8.76.85a34.17,34.17,0,0,0,5.3-.92,14.07,14.07,0,0,0,6-3,6.87,6.87,0,0,0,3.13-3.85,11.77,11.77,0,0,0,.44-2Z"/><path class="cls-8" d="M89.31,241.57a14.92,14.92,0,0,1-2-.13l-.39,0a33,33,0,0,1-5-.9,14.93,14.93,0,0,1-6.25-3.15,7.8,7.8,0,0,1-3.43-4.28,12.36,12.36,0,0,1-.48-2.17s0-.09,0-.13c0-.21-.06-.53-.08-.85v-.15c0-.14,0-.28,0-.42a17.08,17.08,0,0,1,.91-5.74c1.73-5.16,7.43-7.58,11.9-8.7l1-.25.38-.09a33.3,33.3,0,0,1,6.91-1.64,40.85,40.85,0,0,1,6.18-.27,40.42,40.42,0,0,1,6.13.27,33.58,33.58,0,0,1,7,1.67l.29.06,1,.25c4.48,1.12,10.18,3.54,11.91,8.7a17.12,17.12,0,0,1,.9,5.77c0,.12,0,.26,0,.41v.13c0,.32,0,.64-.08,1h0v0a12.46,12.46,0,0,1-.47,2.16,7.8,7.8,0,0,1-3.43,4.28,15,15,0,0,1-6.29,3.16,33.09,33.09,0,0,1-5,.89l-.39,0a22.09,22.09,0,0,1-7.3-.53l-1.72-.32c-.77-.13-1.61-.24-2.57-.32-1,.08-1.8.19-2.57.32-.6.1-1.17.21-1.72.32A28.36,28.36,0,0,1,89.31,241.57Zm9.62-3H99c1,.09,2,.2,2.79.34l1.75.33a20.65,20.65,0,0,0,6.76.52l.39-.05a31.77,31.77,0,0,0,4.79-.84,13.37,13.37,0,0,0,5.65-2.84l.09-.07a5.93,5.93,0,0,0,2.78-3.39,10.31,10.31,0,0,0,.41-1.89,0,0,0,0,1,0,0c0-.27,0-.54.07-.82v-.15a3,3,0,0,0,0-.31,15.72,15.72,0,0,0-.82-5.19c-1.49-4.42-6.64-6.56-10.7-7.58l-1-.24-.39-.1a32.24,32.24,0,0,0-6.73-1.6,37.42,37.42,0,0,0-5.92-.26,37.71,37.71,0,0,0-6,.26,31.39,31.39,0,0,0-6.65,1.58l-.47.11-1,.25c-4.06,1-9.21,3.16-10.69,7.58a15.18,15.18,0,0,0-.82,5.17,2.85,2.85,0,0,0,0,.31v.18c0,.26,0,.54.07.8a.76.76,0,0,1,0,.15,12.65,12.65,0,0,0,.4,1.78,6,6,0,0,0,2.78,3.39l.09.07a13.3,13.3,0,0,0,5.62,2.83,32,32,0,0,0,4.82.85l.39.05a20.71,20.71,0,0,0,6.77-.52l1.74-.33c.84-.14,1.76-.25,2.8-.34Zm26.33-7.78h0Z"/><path id="_Path_3" data-name="&lt;Path&gt;" class="cls-11" d="M97,311.55H70.53a1.19,1.19,0,0,1-1.24-1.14h0c0-3.69,3.25-7.86,7.27-7.86L91,303.73c4,0,7.27,3,7.27,6.68h0A1.2,1.2,0,0,1,97,311.55Z"/><path id="_Path_4" data-name="&lt;Path&gt;" class="cls-11" d="M100.49,311.55H127a1.2,1.2,0,0,0,1.25-1.14h0c0-3.69-3.26-7.86-7.27-7.86l-14.45,1.18c-4,0-7.27,3-7.27,6.68h0A1.2,1.2,0,0,0,100.49,311.55Z"/><path class="cls-11" d="M132.82,180.13l10.4.46L148,165.35l-12.39-.49S139.42,171,132.82,180.13Z"/><path class="cls-8" d="M148.86,164.72a1,1,0,0,1,.15.95l-4.74,15.24a1.1,1.1,0,0,1-1.09.77l-10.41-.45a1.11,1.11,0,0,1-.84-1.74c6-8.37,2.86-13.83,2.72-14.05a1.12,1.12,0,0,1,0-1.13,1.1,1.1,0,0,1,1-.54l12.39.49a1.09,1.09,0,0,1,.84.44Zm-14.05,14.4,7.62.34,4.07-13.07-9.25-.37C138,168.41,138.55,173.08,134.81,179.12Z"/><path class="cls-12" d="M143.52,178.59a5.73,5.73,0,0,0,1,3.38c.88,1.2,2.33,2.13,4.47.3,3.87-3.33,26.07-21.92,20.46-28.23s-11.37-8.79-14.37-5.28S144.69,162,143.52,165.4Z"/><path class="cls-8" d="M170.29,153.39c4.11,4.62-2.46,14.2-20.09,29.27l-.45.38a4.27,4.27,0,0,1-3.37,1.25,4,4,0,0,1-2.66-1.75,6.68,6.68,0,0,1-1.25-4h0v-13.2a.91.91,0,0,1,.06-.32c1.23-3.55,8.82-13.48,11.78-16.94a5.5,5.5,0,0,1,4.39-2,9.9,9.9,0,0,1,4.43,1.28A26.49,26.49,0,0,1,170.29,153.39Zm-25.71,25.24a4.62,4.62,0,0,0,.85,2.77,1.86,1.86,0,0,0,1.16.87,2.53,2.53,0,0,0,1.73-.78l.45-.39c22.27-19,21.36-24.81,19.94-26.41-3.64-4.1-7.28-6.47-10-6.51a3.44,3.44,0,0,0-2.79,1.25c-3.27,3.82-10.15,13-11.38,16.18Z"/><path class="cls-12" d="M166.6,140a11.65,11.65,0,0,0-10.1,11.16,8.68,8.68,0,0,0,9.89,8.93,11.65,11.65,0,0,0,10.1-11.16A8.68,8.68,0,0,0,166.6,140Z"/><path class="cls-14" d="M159.28,148.06c-.06,5.59,4.58,9.61,10.35,9a11.91,11.91,0,0,0,5.85-2.37,12.2,12.2,0,0,1-8.49,5.12c-5.77.64-10.41-3.37-10.35-9a11.59,11.59,0,0,1,4.72-8.93A11.05,11.05,0,0,0,159.28,148.06Z"/><path class="cls-8" d="M166.61,139.18a9.4,9.4,0,0,1,10.71,9.65,12.61,12.61,0,0,1-10.94,12.06,9.4,9.4,0,0,1-10.71-9.65A12.61,12.61,0,0,1,166.61,139.18Zm0,1.62a10.72,10.72,0,0,0-9.26,10.26,8,8,0,0,0,9.06,8.21A10.71,10.71,0,0,0,175.65,149,8,8,0,0,0,166.59,140.8Z"/><path class="cls-12" d="M113.35,177.35a22.06,22.06,0,0,1,5.2-16.69,6.8,6.8,0,0,1,6-2.33c5.45.66,15.26,3.07,14.68,12-.76,11.64-9.74,14.51-23.26,10.23A3.77,3.77,0,0,1,113.35,177.35Z"/><path class="cls-8" d="M140.32,170.36c-.33,5-2.11,8.66-5.31,10.85-4.3,2.94-10.82,3.06-19.37.35a4.82,4.82,0,0,1-3.37-4.09h0A23.18,23.18,0,0,1,117.71,160a7.85,7.85,0,0,1,7-2.7,30.94,30.94,0,0,1,6.87,1.56C137.54,161,140.67,165,140.32,170.36Zm-25.88,6.88a2.64,2.64,0,0,0,1.86,2.23c7.76,2.46,13.81,2.44,17.47-.07,2.62-1.79,4.09-4.88,4.37-9.18.52-7.9-8.37-10.16-13.72-10.8a5.66,5.66,0,0,0-5,1.94,21,21,0,0,0-4.94,15.88Z"/><g id="_Group_29" data-name="&lt;Group&gt;"><g id="_Group_30" data-name="&lt;Group&gt;"><path id="_Path_5" data-name="&lt;Path&gt;" d="M140,184.13a1.62,1.62,0,0,0,0-.22c0-15-19-27.12-42.47-27.12S55,168.93,55,183.91c0,.06,0,.12,0,.18a6.28,6.28,0,0,0,0,.75v62.67a7.36,7.36,0,0,0,7.34,7.34h70.33a7.36,7.36,0,0,0,7.34-7.34V184.84A5.53,5.53,0,0,0,140,184.13Z"/><g id="_Group_31" data-name="&lt;Group&gt;"><path class="cls-5" d="M132.66,255.72H62.33a8.22,8.22,0,0,1-8.22-8.21V184.84a7.09,7.09,0,0,1,0-.79v-.14c0-15.44,19.44-28,43.35-28s43.35,12.56,43.35,28v.19a6.34,6.34,0,0,1,0,.74v62.67A8.22,8.22,0,0,1,132.66,255.72ZM62.36,254h70.3a6.46,6.46,0,0,0,6.46-6.46V184.84c0-.2,0-.4,0-.62v-.31c0-14.47-18.66-26.24-41.59-26.24s-41.6,11.77-41.6,26.24v.17a.31.31,0,0,1,0,.1c0,.22,0,.45,0,.66v62.67A6.47,6.47,0,0,0,62.33,254Z"/></g></g><polygon class="cls-15" points="60.21 254.61 64.28 259.89 130.22 259.89 134.72 254.61 60.21 254.61"/><g id="_Group_32" data-name="&lt;Group&gt;"><path class="cls-5" d="M130.32,261.32H64.39a1.18,1.18,0,0,1-1-.47l-4.07-5.27a1.2,1.2,0,0,1,.94-1.93h74.51a1.19,1.19,0,0,1,.91,2l-4.5,5.28A1.19,1.19,0,0,1,130.32,261.32ZM65,258.93h64.8l2.46-2.89H62.74Z"/></g><g id="_Group_33" data-name="&lt;Group&gt;"><path class="cls-5" d="M129.91,203H64.69a1.12,1.12,0,1,1,0-2.24h65.22a1.12,1.12,0,0,1,0,2.24Z"/></g><g id="_Group_34" data-name="&lt;Group&gt;"><path class="cls-5" d="M129.91,213.29H64.69a1.12,1.12,0,1,1,0-2.24h65.22a1.12,1.12,0,1,1,0,2.24Z"/></g><g id="_Group_35" data-name="&lt;Group&gt;"><path class="cls-5" d="M129.91,223.62H64.69a1.12,1.12,0,1,1,0-2.24h65.22a1.12,1.12,0,0,1,0,2.24Z"/></g><g id="_Group_36" data-name="&lt;Group&gt;"><path class="cls-5" d="M129.91,234H64.69a1.12,1.12,0,1,1,0-2.23h65.22a1.12,1.12,0,1,1,0,2.23Z"/></g><g id="_Group_37" data-name="&lt;Group&gt;"><path class="cls-5" d="M129.91,244.28H64.69a1.12,1.12,0,1,1,0-2.23h65.22a1.12,1.12,0,1,1,0,2.23Z"/></g><path id="_Path_6" data-name="&lt;Path&gt;" d="M97.76,302.79h0a3.54,3.54,0,0,1-3.54-3.53v-13.4a3.55,3.55,0,0,1,3.54-3.54h0a3.54,3.54,0,0,1,3.53,3.54v13.4A3.54,3.54,0,0,1,97.76,302.79Z"/><g id="_Group_38" data-name="&lt;Group&gt;"><path class="cls-5" d="M97.68,304.22a4.82,4.82,0,0,1-4.81-4.81V286a4.81,4.81,0,1,1,9.62,0v13.4A4.82,4.82,0,0,1,97.68,304.22Zm0-20.47A2.26,2.26,0,0,0,95.42,286v13.4a2.26,2.26,0,1,0,4.52,0V286A2.26,2.26,0,0,0,97.68,283.75Z"/></g><path id="_Path_7" data-name="&lt;Path&gt;" d="M85.16,260.72s3.09,26.06,12.35,26.06,12.3-26,12.3-26Z"/><g id="_Group_39" data-name="&lt;Group&gt;"><path class="cls-5" d="M97.51,287.3c-4.4,0-8-4.65-10.72-13.83a88.16,88.16,0,0,1-2.74-13.21A1.12,1.12,0,0,1,85.16,259h0l24.65.05a1.12,1.12,0,0,1,.84.38,1.1,1.1,0,0,1,.27.87,88.63,88.63,0,0,1-2.71,13.19C105.51,282.65,101.91,287.3,97.51,287.3ZM86.44,261.25a87.65,87.65,0,0,0,2.5,11.61c3,10.08,6.31,12.2,8.57,12.2s5.57-2.11,8.54-12.18a88,88,0,0,0,2.48-11.59Z"/></g><path id="_Path_8" data-name="&lt;Path&gt;" class="cls-16" d="M50.64,238.9h0a4.06,4.06,0,0,0,4-4V218.35a4.06,4.06,0,0,0-4-4h0a4.06,4.06,0,0,0-4,4v16.51A4.05,4.05,0,0,0,50.64,238.9Z"/><path id="_Path_9" data-name="&lt;Path&gt;" class="cls-16" d="M144.38,238.9h0a4.05,4.05,0,0,0,4-4V218.35a4.06,4.06,0,0,0-4-4h0a4.06,4.06,0,0,0-4,4v16.51A4.05,4.05,0,0,0,144.38,238.9Z"/><g id="_Group_40" data-name="&lt;Group&gt;"><path class="cls-5" d="M50.64,239.87a5,5,0,0,1-5-5V218.35a5,5,0,1,1,10,0v16.51A5,5,0,0,1,50.64,239.87Zm0-24.6a3.08,3.08,0,0,0-3.07,3.08v16.51a3.08,3.08,0,0,0,6.15,0V218.35A3.08,3.08,0,0,0,50.64,215.27Z"/></g><g id="_Group_41" data-name="&lt;Group&gt;"><path class="cls-5" d="M144.38,239.87a5,5,0,0,1-5-5V218.35a5,5,0,1,1,10,0v16.51A5,5,0,0,1,144.38,239.87Zm0-24.6a3.07,3.07,0,0,0-3.07,3.08v16.51a3.07,3.07,0,0,0,6.14,0V218.35A3.08,3.08,0,0,0,144.38,215.27Z"/></g><path id="_Path_10" data-name="&lt;Path&gt;" d="M132.33,310.55H62.47s.11-2,.11-4.44h0c0-2.44,2.28-4.43,5.06-4.43h59.75c2.77,0,5,2,5,4.43h0C132.44,308.55,132.33,310.55,132.33,310.55Z"/><g id="_Group_42" data-name="&lt;Group&gt;"><path class="cls-5" d="M132.55,311.74H62.7a1.19,1.19,0,0,1-.87-.37,1.17,1.17,0,0,1-.32-.89s.11-2,.11-4.37c0-3.1,2.8-5.63,6.24-5.63h59.75c3.44,0,6.25,2.53,6.25,5.63,0,2.45-.11,4.42-.12,4.51A1.19,1.19,0,0,1,132.55,311.74Zm-68.61-2.38h67.47c0-.81.06-2,.06-3.25,0-1.78-1.73-3.24-3.86-3.24H67.86c-2.12,0-3.86,1.46-3.86,3.24C64,307.39,64,308.54,63.94,309.36Z"/></g><path id="_Path_11" data-name="&lt;Path&gt;" d="M73.37,315.15a4.83,4.83,0,1,1-4.83-4.83A4.83,4.83,0,0,1,73.37,315.15Z"/><path id="_Path_12" data-name="&lt;Path&gt;" d="M132,315.15a4.83,4.83,0,1,1-4.83-4.83A4.83,4.83,0,0,1,132,315.15Z"/><g id="_Group_43" data-name="&lt;Group&gt;"><path class="cls-5" d="M68.54,321a5.8,5.8,0,1,1,5.8-5.8A5.8,5.8,0,0,1,68.54,321Zm0-9.66a3.86,3.86,0,1,0,3.86,3.86A3.87,3.87,0,0,0,68.54,311.29Z"/></g><g id="_Group_44" data-name="&lt;Group&gt;"><path class="cls-5" d="M127.16,321a5.8,5.8,0,1,1,5.8-5.8A5.8,5.8,0,0,1,127.16,321Zm0-9.66a3.86,3.86,0,1,0,3.86,3.86A3.87,3.87,0,0,0,127.16,311.29Z"/></g></g><g id="_Group_45" data-name="&lt;Group&gt;"><g id="_Group_46" data-name="&lt;Group&gt;"><rect class="cls-17" x="187.08" y="144.62" width="12.37" height="41.09" rx="4.84" ry="4.84" transform="translate(-59.91 188.28) rotate(-45.74)"/><path class="cls-8" d="M199.33,181.44l-22.49-21.92a6.06,6.06,0,0,1-.11-8.59l1.88-1.93a6,6,0,0,1,4.27-1.84,6,6,0,0,1,4.32,1.73l22.49,21.92a6.08,6.08,0,0,1,.11,8.59h0l-1.88,1.93a6.09,6.09,0,0,1-8.59.11Zm8.7-3.76a3.61,3.61,0,0,0-.06-5.1l-22.5-21.92a3.6,3.6,0,0,0-5.09.06l-1.88,1.93a3.61,3.61,0,0,0,.06,5.1l22.5,21.92a3.6,3.6,0,0,0,5.09-.06l1.88-1.93Z"/></g><g id="_Group_47" data-name="&lt;Group&gt;"><path class="cls-18" d="M184.14,159.64l3.07-3.22a5.49,5.49,0,0,1,7.72.18l9.46,9,8.34-8.74h0l.14-.15,9.41-9.87c11.84-12.43,21.59-.14,21.59-.14L231.2,160.23,209.46,183c-2.2,2.31-6.08,2.21-8.62-.21l-1-1a6.37,6.37,0,0,1-1-.77l-14.16-13.76A5.5,5.5,0,0,1,184.14,159.64Z"/><path class="cls-5" d="M200,183.68l-.92-.88A6.77,6.77,0,0,1,198,182l-14.15-13.76a7.16,7.16,0,0,1-2.23-4.65,6.12,6.12,0,0,1,1.63-4.71l3.07-3.21a6.1,6.1,0,0,1,4.62-1.86,7.15,7.15,0,0,1,4.76,2l8.61,8.21,7.54-7.9h0l.18-.2h0l9.35-9.81c3.92-4.11,8.07-6.1,12.34-5.91,6.53.3,10.83,5.62,11,5.85a1.16,1.16,0,0,1-.07,1.52L232,161l-21.73,22.81a6.7,6.7,0,0,1-4.89,2A7.87,7.87,0,0,1,200,183.68Zm33.62-41.21c-3.55-.15-7.1,1.59-10.53,5.19l-9.24,9.7-.1.11h0l-8.54,9a1.18,1.18,0,0,1-1.65,0l-9.46-9a4.82,4.82,0,0,0-3.2-1.36,3.81,3.81,0,0,0-2.88,1.14L185,160.44a3.8,3.8,0,0,0-1,2.93,4.81,4.81,0,0,0,1.52,3.14l14.15,13.76a4.92,4.92,0,0,0,.79.62,1.33,1.33,0,0,1,.19.14l1,1a5,5,0,0,0,7,.24l21.73-22.8,11.93-12.73C241,145.36,237.77,142.65,233.65,142.47Z"/></g><g id="_Group_48" data-name="&lt;Group&gt;"><path id="_Path_13" data-name="&lt;Path&gt;" class="cls-19" d="M292.91,222c6.31,0,11.42,5.81,11.42,12.11v61.8H281.5l-.35-59.33C281.15,230.3,276.73,221.26,292.91,222Z"/><path id="_Path_14" data-name="&lt;Path&gt;" class="cls-19" d="M236.45,222.39c-6.28.57-10.84,6.82-10.27,13.1L231.79,297h0L254.53,295h0l-5-59.12C248.92,229.56,252.5,220.16,236.45,222.39Z"/><g id="_Group_49" data-name="&lt;Group&gt;"><path class="cls-5" d="M280.44,296.29,280.09,237a32.05,32.05,0,0,0-.26-3.36c-.37-3.24-.79-6.92,1.59-9.45,2-2.17,5.8-3.1,11.52-2.84,6.75,0,12.45,6,12.45,13.18v61.8a1.05,1.05,0,0,1-1.06,1H281.5A1.05,1.05,0,0,1,280.44,296.29Zm22.84-61.8c0-5.9-4.85-11.06-10.37-11.06h0c-5-.24-8.35.49-9.91,2.16-1.71,1.83-1.38,4.71-1,7.77a34.34,34.34,0,0,1,.27,3.59l.35,58.28h20.73Z"/></g><g id="_Group_50" data-name="&lt;Group&gt;"><path class="cls-5" d="M230.74,297.48l-5.61-61.54a13.67,13.67,0,0,1,2.77-9.43,12,12,0,0,1,8.43-4.82c5.67-.78,9.51-.2,11.73,1.78,2.59,2.3,2.51,6,2.44,9.26,0,1.2-.05,2.34,0,3.38l5.05,59.11a1.06,1.06,0,0,1-1,1.14l-22.74,2.08h-.1A1.05,1.05,0,0,1,230.74,297.48Zm17.7-61.19a30.74,30.74,0,0,1-.05-3.6c.07-3.08.13-6-1.73-7.65-1.71-1.52-5.1-1.94-10.07-1.26h-.05a9.94,9.94,0,0,0-7,4,11.53,11.53,0,0,0-2.35,8l5.52,60.49,20.64-1.88Z"/></g></g><path id="_Rectangle_3" data-name="&lt;Rectangle&gt;" class="cls-11" d="M277.89,299.24h28.95a1.18,1.18,0,0,1,1.18,1.18v1.13a6.89,6.89,0,0,1-6.89,6.89H283.6a6.89,6.89,0,0,1-6.89-6.89v-1.13A1.18,1.18,0,0,1,277.89,299.24Z" transform="translate(584.72 607.68) rotate(180)"/><path id="_Path_15" data-name="&lt;Path&gt;" class="cls-11" d="M229.44,307.66h28.62a1.35,1.35,0,0,0,1.34-1.35h0c0-4.33-3.51-9.25-7.85-9.25l-15.6,1.4a7.85,7.85,0,0,0-7.85,7.85h0A1.35,1.35,0,0,0,229.44,307.66Z"/><g id="_Group_51" data-name="&lt;Group&gt;"><path class="cls-18" d="M328.07,167.43l-21.89-21.54a43.23,43.23,0,0,0-5.16-4.34c-4.56-3-12-2.32-16.27,2.29L294.8,156.3l21.82,20.2a6.14,6.14,0,0,0,8.61,1l1.85-1.46A6.1,6.1,0,0,0,328.07,167.43Z"/><path class="cls-5" d="M315.82,177.25l-21.77-20.14a1.14,1.14,0,0,1-.11-.11l-10.05-12.47a1.11,1.11,0,0,1,.05-1.44c4.5-4.86,12.43-6,17.69-2.46a44.6,44.6,0,0,1,5.36,4.51l21.85,21.51a.28.28,0,0,1,.09.1,7.2,7.2,0,0,1-1.17,10.13l-1.84,1.46a7.25,7.25,0,0,1-10.1-1.09ZM305.4,146.67l-.09-.09a42.43,42.43,0,0,0-4.91-4.11c-3.64-2.43-10-2.34-14.16,1.45l9.37,11.63,21.76,20.14a.68.68,0,0,1,.12.12,5,5,0,0,0,7.06.8l1.84-1.46a5,5,0,0,0,.86-7Z"/></g><path id="_Path_16" data-name="&lt;Path&gt;" class="cls-20" d="M239,239.82c18.09-5.79,35.8-6.24,53.05,0,7.05,0,12.77-7.67,12.77-17.12h0c0-9.46-5.72-17.13-12.77-17.13H239c-7.06,0-12.77,7.67-12.77,17.13h0C226.18,232.15,231.89,239.82,239,239.82Z"/><g id="_Group_52" data-name="&lt;Group&gt;"><path class="cls-5" d="M225.12,223.4c0-10,6.2-18.18,13.83-18.18H292c7.62,0,13.82,8.16,13.82,18.18s-6.2,18.18-13.82,18.18a1,1,0,0,1-.36-.06c-16.3-5.9-33.92-5.9-52.37,0a1.13,1.13,0,0,1-.32.05C231.32,241.58,225.12,233.43,225.12,223.4Zm67.06,16.07c6.37-.14,11.53-7.29,11.53-16.07s-5.25-16.07-11.71-16.07H239c-6.46,0-11.72,7.21-11.72,16.07s5.17,15.95,11.56,16.07A90.43,90.43,0,0,1,266.28,235,76.17,76.17,0,0,1,292.18,239.47Z"/></g><g id="_Group_53" data-name="&lt;Group&gt;"><rect class="cls-18" x="224.76" y="134.57" width="81.36" height="90.06" rx="33.58" ry="33.58" transform="translate(530.88 359.19) rotate(180)"/><path class="cls-5" d="M223.54,191.05V168.14a34.84,34.84,0,0,1,34.79-34.8h14.22a34.84,34.84,0,0,1,34.8,34.8v22.91a34.84,34.84,0,0,1-34.8,34.8H258.33A34.84,34.84,0,0,1,223.54,191.05Zm34.79-55.26A32.4,32.4,0,0,0,226,168.14v22.91a32.39,32.39,0,0,0,32.35,32.35h14.22a32.38,32.38,0,0,0,32.35-32.35V168.14a32.39,32.39,0,0,0-32.35-32.35Z"/></g><g id="_Group_54" data-name="&lt;Group&gt;"><g id="_Group_55" data-name="&lt;Group&gt;"><g id="_Group_56" data-name="&lt;Group&gt;"><g id="_Group_57" data-name="&lt;Group&gt;"><path class="cls-21" d="M289,114s5.5.14,5.51,5.52-5.49,5.3-5.49,5.3Z"/><path class="cls-8" d="M289,125.57a.76.76,0,0,1-.74-.76l0-10.81a.76.76,0,0,1,.23-.55.66.66,0,0,1,.54-.21c2.16.05,6.24,1.43,6.26,6.27a5.74,5.74,0,0,1-1.61,4.27,7.05,7.05,0,0,1-4.62,1.79Zm.77-1.58a5.07,5.07,0,0,0,2.82-1.29,4.25,4.25,0,0,0,1.15-3.19,4.51,4.51,0,0,0-4-4.66Z"/></g></g></g><g id="_Group_58" data-name="&lt;Group&gt;"><g id="_Group_59" data-name="&lt;Group&gt;"><path id="_Path_17" data-name="&lt;Path&gt;" class="cls-22" d="M289.87,116.27s3.24.08,3.25,3.25-3.23,3.12-3.23,3.12Z"/></g></g></g><g id="_Group_60" data-name="&lt;Group&gt;"><g id="_Group_61" data-name="&lt;Group&gt;"><g id="_Group_62" data-name="&lt;Group&gt;"><g id="_Group_63" data-name="&lt;Group&gt;"><path class="cls-21" d="M241.32,114s-5.5.14-5.51,5.52,5.48,5.3,5.48,5.3Z"/><path class="cls-8" d="M236.66,123.78a5.66,5.66,0,0,1-1.61-4.27c0-4.84,4.1-6.22,6.25-6.27a.68.68,0,0,1,.55.21.76.76,0,0,1,.23.55l0,10.81a.76.76,0,0,1-.75.76h0A7,7,0,0,1,236.66,123.78Zm-.1-4.27a4.33,4.33,0,0,0,1.15,3.19,5.18,5.18,0,0,0,2.83,1.29l0-9.14A4.52,4.52,0,0,0,236.56,119.51Z"/></g></g></g><g id="_Group_64" data-name="&lt;Group&gt;"><g id="_Group_65" data-name="&lt;Group&gt;"><path id="_Path_18" data-name="&lt;Path&gt;" class="cls-22" d="M240.47,116.27s-3.24.08-3.25,3.25,3.23,3.12,3.23,3.12Z"/></g></g></g><path id="_Path_19" data-name="&lt;Path&gt;" class="cls-8" d="M241.22,125.9c0,7.14,10.7,12.9,23.85,12.88l.46.41c15.3-.08,23.79-7.11,23.76-14.25l-.11-25.23c0-7.13-10.7-12.9-23.85-12.87h-.46c-13.14,0-23.78,5.83-23.75,13Z"/><path id="_Path_20" data-name="&lt;Path&gt;" class="cls-8" d="M264.87,86.84h0V139c-13,0-23.63-5.8-23.65-12.93l-.11-26.2C241.1,92.69,251.73,86.86,264.87,86.84Z"/><path id="_Compound_Path_" data-name="&lt;Compound Path&gt;" class="cls-8" d="M240.67,99.62l.06,20.92a15.56,15.56,0,0,0,2,9.18c1.7,3,5.3,5.73,10.1,7.26a40.56,40.56,0,0,0,12.2,1.8h.54a40.8,40.8,0,0,0,12-1.75,28,28,0,0,0,5.1-2.13,13.27,13.27,0,0,0,4.79-4.43,12.67,12.67,0,0,0,2.29-7.17l-.08-23.77c0-7.25-10.88-13.14-24.22-13.14h-.54a36.6,36.6,0,0,0-17.09,3.87C243.18,92.76,240.66,96.09,240.67,99.62Zm.9,0c0-3.35,2.39-6.5,6.77-8.88A35.4,35.4,0,0,1,264.88,87h.53c12.84,0,23.3,5.61,23.33,12.54l.1,26a8.42,8.42,0,0,1-2.73,5.94,17.34,17.34,0,0,1-4,2.94c-.65.35-1.33.69-2,1a37.35,37.35,0,0,1-14.49,2.75h-.66a37.25,37.25,0,0,1-14.64-2.84,19.43,19.43,0,0,1-5.68-3.68c-1.83-1.78-2.88-8.1-2.89-10.29Zm8.55,36a19.31,19.31,0,0,1-5.78-3.74c-1.91-1.86-3-8.29-3-10.51l-.1-21.74c0-3.47,2.45-6.72,6.93-9.16a35.79,35.79,0,0,1,16.69-3.77h.53c13,0,23.61,5.76,23.64,12.84l.1,26a8.76,8.76,0,0,1-2.82,6.17,17.79,17.79,0,0,1-4.11,3c-.66.36-1.36.7-2.07,1a37.27,37.27,0,0,1-14.61,2.78h-.66A37.71,37.71,0,0,1,250.12,135.61Zm14.76-48.3A35.13,35.13,0,0,0,248.49,91c-4.27,2.32-6.62,5.38-6.6,8.61l.1,21.74c0,2.25,1.07,8.39,2.79,10.07a18.74,18.74,0,0,0,5.59,3.61,37,37,0,0,0,14.51,2.81h.65a36.83,36.83,0,0,0,14.38-2.72c.69-.3,1.37-.62,2-1a17.39,17.39,0,0,0,4-2.89,8,8,0,0,0,2.64-5.72l-.1-26c0-6.74-10.36-12.23-23-12.23Z"/><g id="_Group_66" data-name="&lt;Group&gt;"><path id="_Path_21" data-name="&lt;Path&gt;" class="cls-8" d="M238.44,110.93l0,0c2.63-4.86,2.64-10.86,5.83-15.41a20.08,20.08,0,0,1,7.42-6.36,30.73,30.73,0,0,1,17.9-3,29.31,29.31,0,0,1,9.87,3.23c2.87,1.71,5.59,3.59,7.44,6.44a18.14,18.14,0,0,1,2.56,8.61c.11,1.51.11,3,.09,4.54,0,.43-.38,4.19-.13,4.31l-.12-.06c0,.54-.64.17-1,0a11.46,11.46,0,0,1-1.65-.81,16.2,16.2,0,0,1-4.49-4,27.12,27.12,0,0,1-4.55-9.54s-.4.24-1.13.58q-7.86,4.17-16,7.83a125.06,125.06,0,0,1-12.91,5c-2.31.74-4.85,1.54-7.3,1a4.63,4.63,0,0,1-2.16-1.09C237.38,111.46,238.08,111.58,238.44,110.93Z"/><path id="_Compound_Path_2" data-name="&lt;Compound Path&gt;" class="cls-8" d="M287.71,114.84a13.83,13.83,0,0,1-1.9-.93,17.84,17.84,0,0,1-5-4.47,27.25,27.25,0,0,1-4.23-8.11c-5.07,2.67-10.24,5.19-15.38,7.5a123.36,123.36,0,0,1-13.08,5.11c-2.34.76-5.25,1.69-8.21,1a6.28,6.28,0,0,1-3-1.52,2.44,2.44,0,0,1-.88-1.83,2.12,2.12,0,0,1,.9-1.6,31.51,31.51,0,0,0,2.3-6.58c.82-3,1.67-6.18,3.6-8.93a21.66,21.66,0,0,1,8.06-6.91,32.47,32.47,0,0,1,18.94-3.19,31.85,31.85,0,0,1,10.48,3.46c2.94,1.75,5.95,3.8,8,7a19.48,19.48,0,0,1,2.83,9.43c.13,1.71.12,3.41.09,4.69,0,.12,0,.44-.06.87-.05.65-.17,2.27-.15,2.87a1.72,1.72,0,0,1-.64,2,1.33,1.33,0,0,1-.3.23,1.84,1.84,0,0,1-1,.31A3.56,3.56,0,0,1,287.71,114.84Zm-.12-1.69Zm-9.32-15.92a1.72,1.72,0,0,1,1,1.15,25.55,25.55,0,0,0,4.25,8.94,14.24,14.24,0,0,0,4,3.61l.13.08c0-.43.06-.9.1-1.43,0-.33,0-.58,0-.68,0-1.21,0-2.8-.08-4.37a16.2,16.2,0,0,0-2.29-7.8c-1.58-2.44-3.89-4.12-6.87-5.9a27.33,27.33,0,0,0-9.25-3,28.86,28.86,0,0,0-16.87,2.86,18.21,18.21,0,0,0-6.77,5.8c-1.59,2.26-2.32,5-3.1,7.85a34.78,34.78,0,0,1-2.48,7.09,3.31,3.31,0,0,0,.56.17c2,.46,4.35-.29,6.4-.95a122.62,122.62,0,0,0,12.72-5c5.31-2.39,10.66-5,16-7.83a8.37,8.37,0,0,0,.94-.48,1.74,1.74,0,0,1,.91-.26A1.72,1.72,0,0,1,278.27,97.23Zm-41.33,12.85Z"/></g><g id="_Group_67" data-name="&lt;Group&gt;"><path class="cls-23" d="M284.85,136.92s-5.55,5.94-19.11,5.94S245,137.38,245,137.38l4.6-1.72a49.54,49.54,0,0,0,15.43,3c7.7,0,15.58-3.17,15.58-3.17Z"/><path class="cls-8" d="M244.33,138.28a1.13,1.13,0,0,1,.29-2l4.6-1.72a1.13,1.13,0,0,1,.81,0,48.76,48.76,0,0,0,15,2.88c7.38,0,15.08-3,15.15-3.08a1.16,1.16,0,0,1,.8,0l4.23,1.46a1.15,1.15,0,0,1,.73.8,1.14,1.14,0,0,1-.27,1.06c-.24.26-6.06,6.3-19.95,6.3S244.63,138.52,244.33,138.28Zm36.32-1.6a48.82,48.82,0,0,1-15.6,3.09,50.05,50.05,0,0,1-15.43-2.89l-2,.75a38.56,38.56,0,0,0,18.13,4.09,32.56,32.56,0,0,0,14-2.8,19.88,19.88,0,0,0,2.78-1.59Zm4.2.24Z"/></g></g><g id="_Group_68" data-name="&lt;Group&gt;"><rect id="_Rectangle_4" data-name="&lt;Rectangle&gt;" class="cls-4" x="220.01" y="174.59" width="90.58" height="82.43" rx="7.82" ry="7.82" transform="translate(530.59 431.61) rotate(180)"/><g id="_Group_69" data-name="&lt;Group&gt;"><path class="cls-5" d="M218.79,249.2V182.41a9,9,0,0,1,9-9h74.94a9,9,0,0,1,9,9V249.2a9,9,0,0,1-9,9H227.79A9,9,0,0,1,218.79,249.2Zm9-73.43a6.65,6.65,0,0,0-6.63,6.64V249.2a6.65,6.65,0,0,0,6.63,6.64h74.94a6.65,6.65,0,0,0,6.64-6.64V182.41a6.65,6.65,0,0,0-6.64-6.64Z"/></g><polygon class="cls-15" points="303.05 256.79 298.93 261.9 232.13 261.9 227.57 256.79 303.05 256.79"/><g id="_Group_70" data-name="&lt;Group&gt;"><path class="cls-5" d="M231.15,262.92l-4.56-5.11a1.18,1.18,0,0,1,.88-2H303a1.18,1.18,0,0,1,.92,1.93l-4.13,5.1a1.17,1.17,0,0,1-.92.44H232A1.17,1.17,0,0,1,231.15,262.92Zm69.32-4.71H230.11l2.45,2.73h65.7Z"/></g><g id="_Group_71" data-name="&lt;Group&gt;"><path class="cls-5" d="M228.12,206.94h75.59a1.18,1.18,0,1,0,0-2.36H228.12a1.18,1.18,0,1,0,0,2.36Z"/></g><g id="_Group_72" data-name="&lt;Group&gt;"><path class="cls-5" d="M228.12,216.94h75.59a1.19,1.19,0,0,0,0-2.37H228.12a1.19,1.19,0,0,0,0,2.37Z"/></g><g id="_Group_73" data-name="&lt;Group&gt;"><path class="cls-5" d="M228.12,226.93h75.59a1.19,1.19,0,0,0,0-2.37H228.12a1.19,1.19,0,0,0,0,2.37Z"/></g><g id="_Group_74" data-name="&lt;Group&gt;"><path class="cls-5" d="M228.12,236.92h75.59a1.19,1.19,0,0,0,0-2.37H228.12a1.19,1.19,0,0,0,0,2.37Z"/></g><g id="_Group_75" data-name="&lt;Group&gt;"><path class="cls-5" d="M228.12,246.91h75.59a1.19,1.19,0,0,0,0-2.37H228.12a1.19,1.19,0,0,0,0,2.37Z"/></g><path id="_Path_22" data-name="&lt;Path&gt;" class="cls-19" d="M265,303.39h0a3.43,3.43,0,0,0,3.42-3.42V287A3.42,3.42,0,0,0,265,283.6h0a3.42,3.42,0,0,0-3.42,3.42v13A3.43,3.43,0,0,0,265,303.39Z"/><g id="_Group_76" data-name="&lt;Group&gt;"><path class="cls-5" d="M260.45,300.12v-13a4.65,4.65,0,1,1,9.3,0v13a4.65,4.65,0,1,1-9.3,0Zm2.46-13v13a2.19,2.19,0,0,0,4.38,0v-13a2.19,2.19,0,0,0-4.38,0Z"/></g><path id="_Path_23" data-name="&lt;Path&gt;" class="cls-19" d="M277.21,262.71s-3,25.19-11.95,25.19-11.89-25.15-11.89-25.15Z"/><g id="_Group_77" data-name="&lt;Group&gt;"><path class="cls-5" d="M254.92,275.06a85.48,85.48,0,0,1-2.62-12.76,1.07,1.07,0,0,1,1.07-1.21l23.84,0h0a1.1,1.1,0,0,1,.81.37,1.09,1.09,0,0,1,.27.84A86,86,0,0,1,275.64,275c-2.63,8.88-6.12,13.38-10.38,13.38S257.53,283.92,254.92,275.06Zm-.31-11.81A86.13,86.13,0,0,0,257,274.47c2.88,9.73,6.08,11.77,8.26,11.77s5.4-2.05,8.29-11.8A84.09,84.09,0,0,0,276,263.21Z"/></g><path id="_Path_24" data-name="&lt;Path&gt;" class="cls-4" d="M314.46,241.6h0a3.92,3.92,0,0,1-3.91-3.91v-16a3.92,3.92,0,0,1,3.91-3.91h0a3.92,3.92,0,0,1,3.91,3.91v16A3.92,3.92,0,0,1,314.46,241.6Z"/><rect id="_Rectangle_5" data-name="&lt;Rectangle&gt;" class="cls-4" x="212.16" y="217.82" width="7.82" height="23.78" rx="3.91" ry="3.91" transform="translate(432.13 459.42) rotate(-180)"/><g id="_Group_78" data-name="&lt;Group&gt;"><path class="cls-5" d="M309.62,237.69v-16a4.85,4.85,0,1,1,9.69,0v16a4.85,4.85,0,1,1-9.69,0Zm1.87-16v16a3,3,0,0,0,5.95,0v-16a3,3,0,1,0-5.95,0Z"/></g><g id="_Group_79" data-name="&lt;Group&gt;"><path class="cls-5" d="M211.22,237.69v-16a4.85,4.85,0,1,1,9.69,0v16a4.85,4.85,0,1,1-9.69,0Zm1.87-16v16a3,3,0,0,0,5.95,0v-16a3,3,0,1,0-5.95,0Z"/></g><path id="_Path_25" data-name="&lt;Path&gt;" class="cls-19" d="M231.6,310.89h67.55S299,309,299,306.6h0c0-2.36-2.2-4.29-4.89-4.29H236.37c-2.68,0-4.88,1.93-4.88,4.29h0C231.49,309,231.6,310.89,231.6,310.89Z"/><g id="_Group_80" data-name="&lt;Group&gt;"><path class="cls-5" d="M230.23,311c0-.08-.11-2-.11-4.36,0-3,2.71-5.44,6-5.44h57.78c3.33,0,6,2.44,6,5.44,0,2.3.1,4.21.11,4.23a1.21,1.21,0,0,1-.32.86,1.16,1.16,0,0,1-.84.36H231.38A1.15,1.15,0,0,1,230.23,311Zm67.44-4.36c0-1.73-1.68-3.13-3.73-3.13H236.16c-2.06,0-3.73,1.4-3.73,3.13,0,1.24,0,2.36,0,3.14h65.25C297.7,309,297.67,307.84,297.67,306.6Z"/></g><circle id="_Path_26" data-name="&lt;Path&gt;" class="cls-19" cx="293.28" cy="315.34" r="4.67"/><circle id="_Path_27" data-name="&lt;Path&gt;" class="cls-19" cx="236.59" cy="315.34" r="4.67"/><g id="_Group_81" data-name="&lt;Group&gt;"><path class="cls-5" d="M287.68,315.35a5.61,5.61,0,1,1,5.6,5.6A5.61,5.61,0,0,1,287.68,315.35Zm1.87,0a3.74,3.74,0,1,0,3.73-3.74A3.74,3.74,0,0,0,289.55,315.35Z"/></g><g id="_Group_82" data-name="&lt;Group&gt;"><path class="cls-5" d="M231,315.35a5.61,5.61,0,1,1,5.6,5.6A5.61,5.61,0,0,1,231,315.35Zm1.87,0a3.73,3.73,0,1,0,3.73-3.74A3.74,3.74,0,0,0,232.86,315.35Z"/></g></g></g></g></svg>