<svg xmlns="http://www.w3.org/2000/svg" viewBox="0 0 374 374"><defs><style>.cls-1{fill:#dfb853;}.cls-2{fill:#fff;}.cls-3{fill:#424243;}.cls-4{fill:#cf6c65;}.cls-5{fill:#4f74a5;}.cls-6{fill:#9ed1e3;}.cls-7{fill:#edc3b4;}.cls-8{fill:#f3d3c5;}.cls-9{fill:#c27e77;}.cls-10{fill:#dba999;}.cls-11{fill:#404041;}.cls-12{fill:#d3d3d3;}.cls-13{fill:#898989;}.cls-14{fill:#262626;}.cls-15{fill:#eaeaea;}.cls-16{opacity:0.48;}.cls-17{fill:#d0534f;}.cls-18{fill:#484849;}</style></defs><title>Asset 5</title><g id="Layer_2" data-name="Layer 2"><g id="Graphic"><rect class="cls-1" width="374" height="374"/><rect class="cls-2" x="104.87" y="266.24" width="139.3" height="55.13"/><path class="cls-3" d="M244.16,322.74H104.87a1.37,1.37,0,0,1-1.37-1.37V266.24a1.37,1.37,0,0,1,1.37-1.37H244.16a1.37,1.37,0,0,1,1.38,1.37v55.13A1.37,1.37,0,0,1,244.16,322.74ZM106.24,320H242.79V267.61H106.24Z"/><path class="cls-4" d="M231.9,250.17c-2.6-.21-5.28,0-7.83-.06-13.8-.13-27.61,0-41.41,0l15-3.45L164.75,89a14.29,14.29,0,0,0-16.81-11.25l-63,12.49a14.3,14.3,0,0,0-11.24,16.81l30,166.51a13.37,13.37,0,0,0,.5,2.78v0a13.26,13.26,0,0,0,12.69,9.43h90.29c8.94,0,19.73,1.63,28.09-1.58,4.88-1.88,10.37-6.48,10.37-12.15,0-6.86-.2-15.45-6.55-19.71A14.62,14.62,0,0,0,231.9,250.17Z"/><path class="cls-3" d="M221.6,287.62c-2.53,0-5.08-.11-7.6-.22s-4.65-.2-6.83-.2H116.88a14.71,14.71,0,0,1-14-10.41h0a.14.14,0,0,0,0-.06,14.62,14.62,0,0,1-.54-3l-30-166.44A15.65,15.65,0,0,1,84.66,88.91l63-12.5A15.68,15.68,0,0,1,166.1,88.74L199,246.4a1.37,1.37,0,0,1-1,1.62l-3.09.71h2.07c8.9,0,18.1-.06,27.15,0,.86,0,1.73,0,2.61,0,1.74,0,3.54-.06,5.31.08h0a15.68,15.68,0,0,1,7.84,2.45C247,256.06,247,265.71,247,272.1s-5.84,11.34-11.26,13.43C231.4,287.2,226.55,287.62,221.6,287.62ZM105.51,276a12,12,0,0,0,11.37,8.44h90.29c2.23,0,4.52.1,6.94.2,7.19.31,14.62.63,20.66-1.69,4.72-1.82,9.49-6.13,9.49-10.87,0-7.69-.45-14.89-5.95-18.57a13.13,13.13,0,0,0-6.52-2h0c-1.65-.13-3.38-.1-5-.07-.91,0-1.8,0-2.68,0-9-.08-18.23,0-27.12,0q-7.14,0-14.28,0a1.37,1.37,0,0,1-.31-2.71L196,245.65,163.41,89.28a12.93,12.93,0,0,0-15.2-10.18l-63,12.5A12.93,12.93,0,0,0,75,106.79l30,166.53c0,.05,0,.1,0,.14a11.47,11.47,0,0,0,.45,2.51A.43.43,0,0,1,105.51,276Z"/><path class="cls-3" d="M108.54,283.32h-.14a1.37,1.37,0,0,1-1.22-1.51A32.63,32.63,0,0,1,120,259.42a23.4,23.4,0,0,1,18.72-4.33,1.37,1.37,0,1,1-.56,2.68,20.6,20.6,0,0,0-16.55,3.87,29.84,29.84,0,0,0-11.67,20.45A1.37,1.37,0,0,1,108.54,283.32Z"/><path class="cls-5" d="M205.11,241.34c-.68-4.1-1.39-7.64-1.48-8.48-22.43-.5-48.84-2.86-72.74.81a6.25,6.25,0,0,0-3.27,1.17c-4.87,4.5,11.56,13.77,14.69,15.73a45.94,45.94,0,0,0,8.33,4.41c4.13,1.52,8.71,1.93,13.2,2.33,13.87,1.23,29.4,6.9,40.41-.24C204.7,256.78,206.24,248.1,205.11,241.34Z"/><path class="cls-3" d="M190.41,261.86a99.51,99.51,0,0,1-15.86-1.78c-3.59-.6-7.3-1.21-10.82-1.52-4.52-.4-9.19-.81-13.53-2.41a47.19,47.19,0,0,1-8.55-4.52l-1-.6c-7.25-4.38-14.73-9.45-15.18-13.84a3.83,3.83,0,0,1,1.28-3.27,7.37,7.37,0,0,1,3.93-1.49c18.66-2.87,39.23-2.06,57.38-1.35,5.43.22,10.56.42,15.57.53a1.25,1.25,0,0,1,1.22,1.11c0,.37.24,1.45.49,2.82.28,1.52.64,3.48,1,5.6h0c1,5.7.09,16-1.42,17C200.6,260.93,195.64,261.86,190.41,261.86Zm-28.74-29a202.18,202.18,0,0,0-30.59,2,5.34,5.34,0,0,0-2.61.86,1.25,1.25,0,0,0-.48,1.16c.25,2.49,5,6.51,14,12l1,.62a44.91,44.91,0,0,0,8.09,4.29c4,1.48,8.53,1.88,12.88,2.26,3.61.32,7.37.95,11,1.55,10.11,1.67,20.57,3.41,28.31-1.4a42.27,42.27,0,0,0,.61-14.66h0c-.35-2.1-.71-4.05-1-5.56-.14-.77-.26-1.4-.35-1.9-4.7-.12-9.5-.31-14.57-.51C179.29,233.24,170.46,232.9,161.67,232.9Z"/><path class="cls-5" d="M200,245.47c-.26-2-.76-4.26-2.84-5.17-3.95-1.75-8.58-2-13-2.29-8.7-.49-17.35.43-26.05.43H122.6a7.43,7.43,0,0,0-.19,1.64c0,7.76,5.72,14.35,13.73,18.1,14.67,6.87,32.05,5.79,48.25,5.16,3.06-.12,6.09-.37,9.14-.6a12.65,12.65,0,0,0,4.41-.95c2.61-1.23,3-3.78,2.87-6-.16-2.89-.26-5.79-.64-8.67C200.11,246.6,200.05,246.05,200,245.47Z"/><path class="cls-3" d="M167.84,265.06c-11.18,0-22.23-1.07-32.22-5.75-9.05-4.23-14.46-11.42-14.46-19.23a8.62,8.62,0,0,1,.23-1.93,1.25,1.25,0,0,1,1.21-1H158c3.41,0,6.87-.14,10.22-.28,5.19-.22,10.57-.44,15.9-.14,4.34.25,9.26.52,13.48,2.39,3,1.3,3.39,4.7,3.57,6.15,0,.31.07.6.11.88s.05.5.08.73c.32,2.42.45,4.87.57,7.23l.08,1.53c.2,3.59-1,6-3.58,7.23a13.88,13.88,0,0,1-4.85,1.07l-1.27.1c-2.59.19-5.26.4-7.91.5l-2.4.1C177.33,264.86,172.57,265.06,167.84,265.06Zm-44.17-25.38c0,.14,0,.27,0,.4,0,6.82,4.87,13.16,13,17,13.67,6.4,29.74,5.76,45.27,5.13l2.4-.1c2.61-.1,5.26-.3,7.82-.49l1.28-.1a11.68,11.68,0,0,0,4-.84c1.63-.77,2.3-2.26,2.16-4.84l-.09-1.54c-.12-2.32-.24-4.71-.54-7,0-.25-.07-.51-.1-.78s-.06-.55-.1-.84h0c-.23-1.8-.64-3.55-2.1-4.2-3.82-1.68-8.49-1.94-12.62-2.17-5.21-.3-10.52-.08-15.66.14-3.37.14-6.86.28-10.32.28Z"/><path class="cls-6" d="M192.11,190.36l.59.75c7.05.37,13.68.84,19.82,1.38a5.15,5.15,0,0,0,.76-.66C206.84,191.25,199.75,190.75,192.11,190.36Z"/><path class="cls-7" d="M148.54,167.52h0a11.93,11.93,0,0,0,11.93-11.93V144.06a11.93,11.93,0,0,0-11.93-11.93h0a11.93,11.93,0,0,0-11.93,11.93v11.53A11.93,11.93,0,0,0,148.54,167.52Z"/><path class="cls-3" d="M148.54,168.1A12.52,12.52,0,0,1,136,155.59V144.06a12.51,12.51,0,0,1,25,0v11.53A12.52,12.52,0,0,1,148.54,168.1Zm0-35.4a11.38,11.38,0,0,0-11.36,11.36v11.53a11.36,11.36,0,0,0,22.72,0V144.06A11.38,11.38,0,0,0,148.54,132.7Z"/><path class="cls-7" d="M179.11,127.65c-.36,10.54-13.2,18.67-28.61,18.39H150c-15.31-.28-28-8.78-28.33-19.22l-1.44-40.58c-.42-11.8,12.82-21.57,29.67-21.53h.59c17,0,30.47,10,30.06,21.94Z"/><path class="cls-8" d="M156.06,65.1q0,8.13-.05,16.26t0,16.15l0,8.77c0,.92-.45,3.28,0,4.06s2,1,2.65,1.82a2.55,2.55,0,0,1,.21,3c-.7.94-2.05,1-3.23,1.06-.27,1.81,1.26,29.46.26,29.57,12.91-1.42,23-8.83,23.28-18.14l1.4-41C180.87,76.07,170.31,67.05,156.06,65.1Z"/><path class="cls-3" d="M150.59,146.48H150a37.47,37.47,0,0,1-20.05-5.86c-5.48-3.69-8.62-8.59-8.81-13.81l-1.46-40.57c-.44-12,13-22.06,30.11-22.06h.7c8.33,0,16.15,2.4,22,6.68s8.87,9.89,8.67,15.78l-1.43,41C179.28,138.41,166.22,146.73,150.59,146.48Zm-.83-81.25c-16.45,0-29.41,9.53-29,21l1.41,40.57c.18,4.95,3.16,9.6,8.39,13.12A36.19,36.19,0,0,0,150,145.6h.63c15.06.24,27.63-7.71,28-18h0l1.37-41c.19-5.57-2.74-10.9-8.27-15s-13.16-6.42-21.22-6.44h-.69Z"/><path class="cls-9" d="M170.2,108.32c-2.93,0-5.3,2-5.3,4.54s2.37,4.55,5.3,4.55,5.31-2,5.31-4.55S173.13,108.32,170.2,108.32Z"/><path class="cls-9" d="M140.83,108.32c-2.93,0-5.31,2-5.31,4.54s2.38,4.55,5.31,4.55,5.3-2,5.3-4.55S143.76,108.32,140.83,108.32Z"/><path class="cls-3" d="M156.4,116.88a3.12,3.12,0,0,1-2-.71.55.55,0,0,1-.07-.77.56.56,0,0,1,.78-.07,2.26,2.26,0,0,0,2.43.17,2.14,2.14,0,0,0,1.07-2,2.8,2.8,0,0,0-1.44-2A3.55,3.55,0,0,0,156,111l-.45-.09v-4a.55.55,0,0,1,.55-.55h0a.55.55,0,0,1,.55.55V110a5,5,0,0,1,1.06.45,3.88,3.88,0,0,1,2,2.86,3.23,3.23,0,0,1-1.62,3.11A3.4,3.4,0,0,1,156.4,116.88Z"/><path class="cls-7" d="M122.43,100.79s-8.87,0-8.89,7,8.85,6.95,8.85,6.95Z"/><path class="cls-3" d="M119.41,113.41a6.8,6.8,0,0,1-3.56-1.56,5.28,5.28,0,0,1-1.53-4,5.8,5.8,0,0,1,4.36-5.79,8.49,8.49,0,0,1,1.33-.17,1.18,1.18,0,0,0,1.14-.83,3.34,3.34,0,0,0,.1-1.09.69.69,0,0,0-.07-.35c-.31-.46-1.88.06-2.31.15a10,10,0,0,0-2,.62,7.59,7.59,0,0,0-4.88,7.48,7.37,7.37,0,0,0,2.25,5.57,9.9,9.9,0,0,0,6.32,2.28h0c.63,0,1.21.33,1.2-.27l0-.88a1.19,1.19,0,0,0-1.15-1.12Z"/><path class="cls-10" d="M120.48,103.41s-4.17.1-4.19,4.18,4.16,4,4.16,4Z"/><path class="cls-3" d="M145.66,101.3a2.12,2.12,0,1,1-2.11-2.13A2.11,2.11,0,0,1,145.66,101.3Z"/><path class="cls-3" d="M170.05,101.3a2.11,2.11,0,0,1-2.12,2.11,2.12,2.12,0,1,1,2.12-2.11Z"/><path class="cls-3" d="M145.93,98.35h-5.41a.49.49,0,0,1-.49-.49h0a1.46,1.46,0,0,1,1.46-1.46H145a1.46,1.46,0,0,1,1.46,1.46h0A.49.49,0,0,1,145.93,98.35Z"/><path class="cls-3" d="M170.92,98.22l-5.4-.3a.48.48,0,0,1-.46-.51h0A1.45,1.45,0,0,1,166.6,96l3.46.19a1.46,1.46,0,0,1,1.38,1.54h0A.49.49,0,0,1,170.92,98.22Z"/><path class="cls-11" d="M164.16,117.57H147.5a5,5,0,0,0-4.95,5v18.62a5,5,0,0,0,4.95,4.94h16.66a4.94,4.94,0,0,0,4.94-4.94V122.52A5,5,0,0,0,164.16,117.57Zm.89,13.84a5,5,0,0,1-5,4.94h-8.55a4.94,4.94,0,0,1-4.94-4.94v-2.74a4.94,4.94,0,0,1,4.94-4.94h8.55a5,5,0,0,1,5,4.94Z"/><path class="cls-2" d="M156,134.66h0a3.18,3.18,0,0,1-3.16-3.17v-2.72a3.17,3.17,0,0,1,3.16-3.16h0a3.17,3.17,0,0,1,3.17,3.16v2.72A3.18,3.18,0,0,1,156,134.66Z"/><path class="cls-2" d="M132.57,185.39l-17,35.78s14.84,2,32.58-20.76Z"/><path class="cls-3" d="M116.59,222.37a10.11,10.11,0,0,1-1.19-.06,1.15,1.15,0,0,1,.3-2.28c.16,0,14.13,1.48,30.88-19.21l-14.81-14.3a1.15,1.15,0,1,1,1.59-1.65l15.57,15a1.14,1.14,0,0,1,.1,1.54C133.76,220.76,120.56,222.37,116.59,222.37Z"/><path class="cls-3" d="M161,59.2c.64.2,1.28.42,1.91.64,7.32,2.64,13,7.24,18.69,12.36,1.2,1.08,4.85,3,4.61,4.9-.75,5.84-6.38,8.33-11.41,9.8-11.36,3.31-23.09-.09-33.15-5.64-1.55-.85-5.17-4-6.72-3.37-2.76,1-3.6,5.18-4.35,7.65a28.38,28.38,0,0,1-3.81,7.87c-1,1.52-3.18,7.84-5.47,7.6s-2.52-6.7-2.81-8.43a39.12,39.12,0,0,1,1.67-18.2,15.33,15.33,0,0,1,3.56-6.57,7.21,7.21,0,0,1,4.72-2.08c2.27-.06,2.1.06,3.64-1.82,2.53-3.08,4.81-5.34,8.8-6A43.12,43.12,0,0,1,161,59.2Z"/><path class="cls-12" d="M118.59,89.73h13.08a0,0,0,0,1,0,0v11.48a0,0,0,0,1,0,0H116.91a0,0,0,0,1,0,0V91.4A1.68,1.68,0,0,1,118.59,89.73Z"/><path class="cls-3" d="M131.66,101.88H116.91a.68.68,0,0,1-.68-.67V91.4a2.36,2.36,0,0,1,2.36-2.35h13.07a.67.67,0,0,1,.68.68v11.48A.67.67,0,0,1,131.66,101.88Zm-14.08-1.35H131V90.4h-12.4a1,1,0,0,0-1,1Z"/><rect class="cls-13" x="128.65" y="81.9" width="50.63" height="24.92" rx="4.18" ry="4.18"/><path class="cls-3" d="M175.1,107.32H132.84a4.7,4.7,0,0,1-4.7-4.69V86.08a4.71,4.71,0,0,1,4.7-4.7H175.1a4.71,4.71,0,0,1,4.7,4.7v16.55A4.7,4.7,0,0,1,175.1,107.32ZM132.84,82.41a3.67,3.67,0,0,0-3.67,3.67v16.55a3.67,3.67,0,0,0,3.67,3.67H175.1a3.67,3.67,0,0,0,3.67-3.67V86.08a3.67,3.67,0,0,0-3.67-3.67Z"/><rect class="cls-13" x="132.07" y="81.9" width="50.97" height="24.92" rx="2.57" ry="2.57"/><path class="cls-3" d="M180.46,107.32H134.65a3.08,3.08,0,0,1-3.09-3.08V84.47a3.09,3.09,0,0,1,3.09-3.09h45.81a3.09,3.09,0,0,1,3.09,3.09v19.77A3.08,3.08,0,0,1,180.46,107.32ZM134.65,82.41a2.06,2.06,0,0,0-2.06,2.06v19.77a2.06,2.06,0,0,0,2.06,2.06h45.81a2.07,2.07,0,0,0,2.07-2.06V84.47a2.07,2.07,0,0,0-2.07-2.06Z"/><path class="cls-3" d="M135.8,83A1.82,1.82,0,0,0,134,84.9v18.91a1.82,1.82,0,0,0,1.76,1.88h6.46L173.52,83Z"/><path class="cls-3" d="M180.17,83h-6.65l-31.26,22.67h37.91a1.82,1.82,0,0,0,1.76-1.88V84.9A1.82,1.82,0,0,0,180.17,83Z"/><path class="cls-14" d="M172.39,86.43H138a.76.76,0,0,1-.76-.77h0a.77.77,0,0,1,.76-.77h34.39a.77.77,0,0,1,.76.77h0A.76.76,0,0,1,172.39,86.43Z"/><path class="cls-14" d="M177.11,86.43H175.4a.77.77,0,0,1-.77-.77h0a.78.78,0,0,1,.77-.77h1.71a.78.78,0,0,1,.77.77h0A.77.77,0,0,1,177.11,86.43Z"/><rect class="cls-15" x="122.43" y="225.42" width="53" height="11.88"/><path class="cls-2" d="M201.45,213.82c9.16,0,16.68-2.95,22.35-8.77,10.08-10.34,9.78-25.89,9.76-26.55a8.69,8.69,0,1,0-17.37.44c0,.05,0,9.08-4.87,14-2.31,2.35-5.54,3.49-9.87,3.49-5,0-10-1.53-12.14-12.62L189,182h0A48.54,48.54,0,0,0,186.37,171c-3.06-8.4-10.67-16-21.58-19.88-1.33-.33-2.65-.61-4-.85v-2.63h-26v2.66c-2.5.43-4,.82-4,.82l-.14,0c-8.22,2.84-16.12,8.06-20.88,15.47-3.32,5.17-4,11.3-4.23,17.3-.35,9.45-.78,19.11-.71,28.55,0,5.59,4.63,7.31,6.9,8,3.25,1,10.65,1.12,10.65,1.28v3.62h53V197.05C179.52,206.18,187.2,213.82,201.45,213.82Z"/><path class="cls-3" d="M175.43,238.67h-53a1.37,1.37,0,0,1-1.37-1.37V223l-.54,0a48.64,48.64,0,0,1-9.14-1.17c-5.19-1.58-7.84-4.71-7.87-9.3-.06-8.11.25-16.44.55-24.5l.16-4.11c.22-6.09.91-12.49,4.44-18,4.56-7.1,12.23-12.79,21.59-16l.16-.06c.12,0,1.18-.31,3-.66v-1.52a1.37,1.37,0,0,1,1.37-1.37h26a1.37,1.37,0,0,1,1.37,1.37v1.5c1,.2,2,.42,2.93.65l.12,0c10.86,3.87,19,11.42,22.41,20.71a49.75,49.75,0,0,1,2.58,10.92l.06.21.36,1.86c2.07,10.62,6.66,11.51,10.79,11.51,4,0,6.86-1,8.9-3.08,4.34-4.42,4.46-12.7,4.47-13.05a10.06,10.06,0,1,1,20.11-.48c0,.74.33,16.81-10.15,27.54-5.94,6.1-13.79,9.19-23.33,9.19-10.93,0-19.2-4.27-24.65-12.71V237.3A1.37,1.37,0,0,1,175.43,238.67Zm-51.63-2.74h50.26V197.05a1.37,1.37,0,0,1,2.62-.56c4.75,10.59,13.08,16,24.77,16,8.77,0,16-2.81,21.37-8.36,9.69-9.94,9.39-24.92,9.37-25.55h0a7.32,7.32,0,0,0-14.63.38c0,1-.23,9.89-5.26,15-2.58,2.62-6.13,3.9-10.85,3.9-5.34,0-11.12-1.63-13.48-13.73l-.31-1.57a1.4,1.4,0,0,1-.11-.4,46.62,46.62,0,0,0-2.47-10.61c-3.09-8.5-10.63-15.43-20.68-19-1.2-.3-2.45-.57-3.82-.82a1.36,1.36,0,0,1-1.12-1.35V149H136.17v1.29a1.38,1.38,0,0,1-1.14,1.36c-2.39.41-3.82.78-3.83.79h0c-8.82,3-16,8.34-20.21,14.92-3.17,5-3.8,10.91-4,16.61l-.15,4.12c-.31,8-.62,16.32-.56,24.37,0,4.39,3.4,5.93,5.93,6.7a49.5,49.5,0,0,0,8.52,1.06c2.13.14,3.1.2,3.1,1.53Z"/><ellipse class="cls-8" cx="220.93" cy="181.07" rx="14.26" ry="13.8"/><path class="cls-7" d="M217,191.07a14.46,14.46,0,0,0,11.94-22.5,14.42,14.42,0,1,1-20.41,19.72A14.3,14.3,0,0,0,217,191.07Z"/><path class="cls-3" d="M205.52,181.07a15.42,15.42,0,1,1,15.41,15A15.2,15.2,0,0,1,205.52,181.07Zm2.3,0a13.12,13.12,0,1,0,13.11-12.65A12.9,12.9,0,0,0,207.82,181.07Z"/><path class="cls-3" d="M120.08,194.64a1.15,1.15,0,0,1-1.15-1.16V173.57a1.15,1.15,0,1,1,2.3,0v19.91A1.16,1.16,0,0,1,120.08,194.64Z"/><path class="cls-3" d="M123.52,195.35a1.15,1.15,0,0,1-.7-2.06,95.64,95.64,0,0,0,7.76-6.36,1.15,1.15,0,0,1,2.17,0c.3.88.44,1.32-8.54,8.16A1.12,1.12,0,0,1,123.52,195.35Zm7-7.66Zm0,0h0Z"/><ellipse class="cls-8" cx="143.62" cy="195.35" rx="14.76" ry="14.28"/><path class="cls-7" d="M139.52,205.7a15,15,0,0,0,12.36-23.28,14.92,14.92,0,1,1-21.11,20.4A14.77,14.77,0,0,0,139.52,205.7Z"/><path class="cls-3" d="M127.67,195.35a16,16,0,1,1,16,15.48A15.73,15.73,0,0,1,127.67,195.35Zm2.38,0a13.57,13.57,0,1,0,13.57-13.09A13.35,13.35,0,0,0,130.05,195.35Z"/><path class="cls-6" d="M150.35,102.71a283.55,283.55,0,0,1-34.74-1.84c-8.75-1.14-13.76-2.71-13.76-4.3s5-3.16,13.76-4.3l.75-.1a2.71,2.71,0,0,1,0-.29C107,93.05,101.2,94.7,101.2,96.57c0,3.62,21.59,6.45,49.15,6.45,11.78,0,22.46-.52,30.84-1.39v-.3C172.61,102.22,161.85,102.71,150.35,102.71Z"/><path class="cls-6" d="M199.5,96.57c0-1.91-6-3.6-15.81-4.78a.77.77,0,0,1,.17.32l1.23.16c8.75,1.14,13.76,2.71,13.76,4.3s-5,3.16-13.76,4.3c-1.24.16-2.54.32-3.9.46v.3C192.42,100.45,199.5,98.64,199.5,96.57Z"/><path class="cls-6" d="M230.93,195.94c-.06.33-.13.66-.2,1,8,2.48,12.44,5.33,12.44,8.2,0,4.17-9.34,8.31-25.63,11.35-16.93,3.16-39.91,4.9-64.7,4.9s-47.78-1.74-64.71-4.9c-16.29-3-25.63-7.18-25.63-11.35s9.34-8.31,25.63-11.35c4.88-.91,10.28-1.7,16.07-2.37l.16-1c-26.11,3-42.85,8.35-42.85,14.77,0,9.83,39.26,17.24,91.33,17.24s91.32-7.41,91.32-17.24C244.16,201.7,239.37,198.56,230.93,195.94Z"/><g class="cls-16"><path class="cls-6" d="M235.48,186a3.62,3.62,0,0,1-.35.93c6.08,2.23,9.38,4.69,9.38,7.17,0,4.17-9.34,8.31-25.63,11.35-16.93,3.16-39.91,4.89-64.71,4.89s-47.77-1.73-64.7-4.89c-16.29-3-25.63-7.18-25.63-11.35s9.34-8.32,25.63-11.35c4.57-.86,9.62-1.6,15-2.24a5.13,5.13,0,0,1,.1-1.05c-25.45,3-41.71,8.31-41.71,14.64,0,9.83,39.26,17.24,91.32,17.24S245.5,204,245.5,194.12C245.5,191.15,241.91,188.41,235.48,186Z"/></g><g id="_Group_" data-name="&lt;Group&gt;"><path class="cls-6" d="M201.66,221.21a3.86,3.86,0,1,1-3.86,3.86A3.86,3.86,0,0,1,201.66,221.21Zm0,6.57a2.71,2.71,0,1,0-2.71-2.71A2.71,2.71,0,0,0,201.66,227.78Z"/></g><g id="_Group_2" data-name="&lt;Group&gt;"><path class="cls-6" d="M94.87,183.53a3.25,3.25,0,1,1-3.26,3.25A3.26,3.26,0,0,1,94.87,183.53Zm0,5.53a2.28,2.28,0,1,0-2.28-2.28A2.28,2.28,0,0,0,94.87,189.06Z"/></g><g id="_Group_3" data-name="&lt;Group&gt;"><path class="cls-6" d="M193.84,86.43a2.51,2.51,0,1,1-2.51,2.51A2.51,2.51,0,0,1,193.84,86.43Zm0,4.27a1.76,1.76,0,1,0-1.76-1.76A1.75,1.75,0,0,0,193.84,90.7Z"/></g><g id="_Group_4" data-name="&lt;Group&gt;"><path class="cls-6" d="M106.2,102.49a2.48,2.48,0,1,1-2.48,2.48A2.49,2.49,0,0,1,106.2,102.49Zm0,4.22a1.74,1.74,0,1,0-1.74-1.74A1.74,1.74,0,0,0,106.2,106.71Z"/></g><path class="cls-8" d="M197.92,235h0a9.55,9.55,0,0,0-2,13.36l40,54.35,19.23-6.83-43.85-58.85A9.57,9.57,0,0,0,197.92,235Z"/><path class="cls-3" d="M235.9,304.1a1.38,1.38,0,0,1-1.11-.56l-40-54.35a10.92,10.92,0,0,1,17.59-12.95l43.85,58.84a1.39,1.39,0,0,1,.21,1.22,1.34,1.34,0,0,1-.86.89L236.35,304A1.42,1.42,0,0,1,235.9,304.1Zm-32.33-69.56a8.09,8.09,0,0,0-4.84,1.59h0A8.18,8.18,0,0,0,197,247.57l39.41,53.52,16.52-5.86-42.74-57.36a8.17,8.17,0,0,0-5.37-3.24A8.62,8.62,0,0,0,203.57,234.54Zm-5.65.49h0Z"/><path class="cls-2" d="M254.68,294.44,262,305.53s-8.14,6.22-16.46,5.41-.38,0-.38,0L241,308.22l-4.68-7.31A40.81,40.81,0,0,0,254.68,294.44Z"/><path class="cls-3" d="M247.08,312.38a15.37,15.37,0,0,1-1.66-.08H245l-1.71-.18-1.13-.12-.52-.05v0c-.95-.19-1.37-.53-1.28-1.46a1.33,1.33,0,0,1,.31-.79l-.44-.28a1.6,1.6,0,0,1-.41-.41l-4.68-7.31a1.37,1.37,0,0,1-.06-1.37,1.33,1.33,0,0,1,1.16-.73A40,40,0,0,0,254,293.29a1.36,1.36,0,0,1,1.87.4l7.33,11.09a1.36,1.36,0,0,1-.31,1.84C262.52,306.87,255.2,312.38,247.08,312.38Zm-1.49-2.81h.09c6,.59,12.07-2.86,14.45-4.41l-5.86-8.87A44.06,44.06,0,0,1,238.66,302l3.34,5.21Z"/><path class="cls-2" d="M236.39,309h47.46a1.52,1.52,0,0,1,1.52,1.52v5.69a0,0,0,0,1,0,0H233a0,0,0,0,1,0,0v-3.8A3.41,3.41,0,0,1,236.39,309Z" transform="translate(19.47 -15.17) rotate(3.48)"/><path class="cls-3" d="M285.1,319.14H285L232.72,316a1.37,1.37,0,0,1-1.28-1.45l.23-3.79a4.76,4.76,0,0,1,1.6-3.29,4.68,4.68,0,0,1,3.46-1.19l47.37,2.88a2.89,2.89,0,0,1,2.71,3.06l-.34,5.68a1.41,1.41,0,0,1-.46.94A1.39,1.39,0,0,1,285.1,319.14Zm-50.85-5.83,49.57,3,.26-4.32a.16.16,0,0,0-.14-.16L236.57,309a2,2,0,0,0-1.48.51,2,2,0,0,0-.69,1.4Z"/><path class="cls-17" d="M285.55,310.35c.16-8.45-8.34-13.09-15.59-13.53-8.22-.5-15.22,3.11-16.58,10.42l-16.45-1a3.65,3.65,0,0,0-3.83,3.43l44.84,2.73c1.58.1,6,.54,6.3.39A2.55,2.55,0,0,0,285.55,310.35Z"/><path class="cls-3" d="M283.84,314.18c-.66,0-1.79-.08-4-.26l-2-.16L233,311a1.36,1.36,0,0,1-.94-.45,1.38,1.38,0,0,1-.34-1,5,5,0,0,1,1.67-3.45,4.92,4.92,0,0,1,3.61-1.26l15.29.93c1.9-6.87,8.72-10.89,17.74-10.35,8.3.51,17,5.9,16.86,14.91h0a3.84,3.84,0,0,1-2.07,3.64A2,2,0,0,1,283.84,314.18ZM235,308.42,278,311l2.05.16c1.17.1,3,.26,3.72.26a1.42,1.42,0,0,0,.39-1.14h0c.14-7.31-7.27-11.71-14.31-12.14-8.07-.49-14,3.16-15.16,9.31a1.36,1.36,0,0,1-1.42,1.11l-16.45-1a2.24,2.24,0,0,0-1.62.57A3,3,0,0,0,235,308.42Zm50.57,1.92h0Z"/><path class="cls-8" d="M189.22,243.06h0a9.54,9.54,0,0,0-2,13.35l42.39,57.06,18.78-6.84-45.78-61.54A9.55,9.55,0,0,0,189.22,243.06Z"/><path class="cls-3" d="M229.58,314.84a1.35,1.35,0,0,1-1.1-.56l-42.39-57a10.92,10.92,0,1,1,17.59-13l45.78,61.53a1.36,1.36,0,0,1-.63,2.11l-18.78,6.83A1.35,1.35,0,0,1,229.58,314.84Zm-34.71-72.27a8.2,8.2,0,0,0-4.84,1.59h0a8.19,8.19,0,0,0-1.73,11.44l41.77,56.23L246.16,306l-44.68-60.06a8.14,8.14,0,0,0-5.37-3.25A8.62,8.62,0,0,0,194.87,242.57Zm-5.65.49h0Z"/><path class="cls-2" d="M245.25,302.55l8.09,10.62s-7.84,6.71-16.3,6.4-.38,0-.38,0l-4.37-2.44-5.18-7A41.55,41.55,0,0,0,245.25,302.55Z"/><path class="cls-3" d="M237.61,321h-.74a1.14,1.14,0,0,1-.26,0l-1.74-.07-1.18-.06h-.51v0c-1-.13-1.42-.43-1.38-1.39a1.31,1.31,0,0,1,.26-.8l-.45-.25a1.38,1.38,0,0,1-.44-.39l-5.18-7a1.38,1.38,0,0,1,1-2.19,40.47,40.47,0,0,0,17.48-7.32,1.38,1.38,0,0,1,1.9.29l8.09,10.62a1.38,1.38,0,0,1-.2,1.88C253.91,314.5,246.25,321,237.61,321Zm-.61-2.77h.09c6.14.21,12-3.58,14.33-5.28L245,304.43a44.75,44.75,0,0,1-15.42,6.67l3.68,5Z"/><path class="cls-2" d="M227.83,316.78h48.06a1.53,1.53,0,0,1,1.53,1.53V324a0,0,0,0,1,0,0h-53a0,0,0,0,1,0,0v-3.78A3.44,3.44,0,0,1,227.83,316.78Z"/><path class="cls-3" d="M277.42,325.37h-53A1.37,1.37,0,0,1,223,324v-3.78a4.82,4.82,0,0,1,4.81-4.81h48.06a2.92,2.92,0,0,1,2.91,2.91V324A1.38,1.38,0,0,1,277.42,325.37Zm-51.65-2.76h50.28v-4.3a.15.15,0,0,0-.16-.15H227.83a2.05,2.05,0,0,0-2.06,2Z"/><path class="cls-17" d="M277.42,316.55c-.36-8.44-9.23-12.55-16.58-12.55-8.34,0-15.18,4-16.11,11.41H228.05a3.65,3.65,0,0,0-3.66,3.65h45.47c1.6,0,6.06.18,6.38,0A2.53,2.53,0,0,0,277.42,316.55Z"/><path class="cls-3" d="M274.84,320.52c-.69,0-1.64,0-3,0l-2,0H224.39a1.38,1.38,0,0,1-1.37-1.38,5,5,0,0,1,5-5h15.52c1.5-7,8.13-11.41,17.27-11.41,8.42,0,17.57,4.86,18,13.87a3.9,3.9,0,0,1-1.87,3.77C276.59,320.44,276.31,320.52,274.84,320.52Zm-48.62-2.83h43.64l2.08,0c1.19,0,3.1.07,3.79,0a1.38,1.38,0,0,0,.32-1.15h0c-.31-7.3-8.07-11.24-15.21-11.24-8.18,0-14,4-14.75,10.21a1.38,1.38,0,0,1-1.36,1.2H228.05A2.31,2.31,0,0,0,226.22,317.69Zm49.69.05Z"/><g id="_Group_5" data-name="&lt;Group&gt;" class="cls-16"><g id="_Group_6" data-name="&lt;Group&gt;"><g id="_Group_7" data-name="&lt;Group&gt;"><path class="cls-18" d="M183.68,340.21H95.42c-.82,0-1.49-1-1.49-2.17h0c0-1.18.67-2.16,1.49-2.16h88.26c.82,0,1.48,1,1.48,2.16h0C185.16,339.23,184.5,340.21,183.68,340.21Z"/></g></g></g><g id="_Group_8" data-name="&lt;Group&gt;" class="cls-16"><g id="_Group_9" data-name="&lt;Group&gt;"><g id="_Group_10" data-name="&lt;Group&gt;"><path class="cls-18" d="M192,340.21h-2.18c-.82,0-1.49-1-1.49-2.17h0c0-1.18.67-2.16,1.49-2.16H192c.82,0,1.48,1,1.48,2.16h0C193.49,339.23,192.83,340.21,192,340.21Z"/></g></g></g><g id="_Group_11" data-name="&lt;Group&gt;" class="cls-16"><g id="_Group_12" data-name="&lt;Group&gt;"><g id="_Group_13" data-name="&lt;Group&gt;"><path class="cls-18" d="M260.09,353.53H174.21c-.87,0-1.59-1-1.59-2.31h0c0-1.26.72-2.3,1.59-2.3h85.88c.87,0,1.59,1,1.59,2.3h0C261.68,352.49,261,353.53,260.09,353.53Z"/></g></g></g><g id="_Group_14" data-name="&lt;Group&gt;" class="cls-16"><g id="_Group_15" data-name="&lt;Group&gt;"><g id="_Group_16" data-name="&lt;Group&gt;"><path class="cls-18" d="M263.22,347.07h-4c-.87,0-1.59-1-1.59-2.3h0c0-1.27.72-2.31,1.59-2.31h4c.88,0,1.59,1,1.59,2.31h0C264.81,346,264.1,347.07,263.22,347.07Z"/></g></g></g></g></g></svg>