<svg xmlns="http://www.w3.org/2000/svg" viewBox="0 0 374 374"><defs><style>.cls-1{fill:#95c47e;}.cls-2{fill:#404041;}.cls-3{fill:#272525;}.cls-4{fill:#fff;}.cls-5{fill:#4f74a5;}.cls-6{fill:#c27e77;}.cls-7{fill:#424243;}.cls-8{fill:#898989;}.cls-9{fill:#b76284;}.cls-10{fill:#444445;}.cls-11{fill:#543e27;}.cls-12{fill:#edc3b4;}.cls-13{fill:#f3d3c5;}.cls-14{fill:#dba999;}.cls-15{fill:#ebd461;}.cls-16{fill:#d3aca4;}.cls-17{fill:#59595b;}.cls-18{opacity:0.48;}.cls-19,.cls-20{fill:#484849;}.cls-20{opacity:0.49;}</style></defs><title>Asset 7</title><g id="Layer_2" data-name="Layer 2"><g id="Graphic"><rect class="cls-1" width="374" height="374"/><path class="cls-2" d="M155,182.51l1.67,8.86-12.48,6-1.95-10.56S147.94,189.3,155,182.51Z"/><path class="cls-3" d="M143.71,198.17a1,1,0,0,1-.48-.66l-1.95-10.57a1,1,0,0,1,.34-.92,1,1,0,0,1,1-.12c.21.09,5.28,2.14,11.72-4.07a.91.91,0,0,1,.94-.22,1,1,0,0,1,.65.72l1.68,8.87a1,1,0,0,1-.53,1l-12.48,6a1,1,0,0,1-.84,0Zm-.3-10.11,1.46,7.88,10.71-5.11-1.23-6.49C149.62,188.3,145.55,188.4,143.41,188.06Z"/><path class="cls-4" d="M138.76,211.49c2.4-14.14,8.94-23.31,14.91-22.29s9.12,11.82,6.71,26a52.79,52.79,0,0,1-4.73,14.92l-17.35-3A52.31,52.31,0,0,1,138.76,211.49Z"/><path class="cls-3" d="M155.79,230.82a1.22,1.22,0,0,1-.27,0l-17.35-2.95a.76.76,0,0,1-.62-.64,53.27,53.27,0,0,1,.47-15.87c2.41-14.18,9.21-24,15.78-22.9,3.23.55,5.75,3.61,7.09,8.61s1.39,11.37.23,18.22a53.23,53.23,0,0,1-4.81,15.13A.78.78,0,0,1,155.79,230.82ZM139,226.49l16.27,2.76A52.31,52.31,0,0,0,159.64,215c1.13-6.65,1.06-12.89-.19-17.59-1.18-4.4-3.28-7.07-5.9-7.52-5.66-1-11.82,8.57-14.05,21.68h0A52.57,52.57,0,0,0,139,226.49Zm-.2-15h0Z"/><path class="cls-2" d="M155.65,230.08c-3,5.93-6.88,9.45-10.44,8.85s-6-5.2-6.91-11.8Z"/><path class="cls-3" d="M147.14,239.63a5.66,5.66,0,0,1-2,0c-3.79-.65-6.54-5.18-7.54-12.44a.77.77,0,0,1,.22-.64.82.82,0,0,1,.65-.2l17.35,3a.73.73,0,0,1,.54.41.72.72,0,0,1,0,.67C153.57,235.78,150.32,239,147.14,239.63ZM139.19,228c1,5.89,3.25,9.66,6.15,10.15s6.28-2.31,9.16-7.54Z"/><ellipse class="cls-5" cx="151.02" cy="204.83" rx="7.6" ry="6.45" transform="translate(-76.23 319.36) rotate(-80.35)"/><path class="cls-3" d="M151.89,213a6.41,6.41,0,0,1-2.27,0c-3.92-.67-6.48-4.9-5.71-9.44a9,9,0,0,1,3-5.43,6.68,6.68,0,0,1,5.47-1.59c3.92.66,6.48,4.9,5.71,9.43A8.37,8.37,0,0,1,151.89,213Zm-1.47-14.94a5.65,5.65,0,0,0-2.52,1.25,7.48,7.48,0,0,0-2.51,4.53h0c-.63,3.73,1.37,7.18,4.47,7.71s6.15-2.07,6.78-5.8-1.37-7.18-4.48-7.71A4.84,4.84,0,0,0,150.42,198.09Zm-5.77,5.65h0Z"/><path class="cls-4" d="M92,215.87h0c15.2,35.36,36.15,36.24,50.23-.27l.29-.66c4.24-9.49-1.71-20.86-10.77-20.61l-29.59.82C93.34,195.4,87.83,206.64,92,215.87Z"/><path class="cls-3" d="M117.69,243.68c-9.53,0-19-9.71-26.57-27.41h0a17.13,17.13,0,0,1,1-16,12.31,12.31,0,0,1,10.07-6.15l29.6-.82a12.13,12.13,0,0,1,10.42,5.74,17,17,0,0,1,1.29,16.27l-.3.67c-8.72,22.63-18.53,27.55-25.22,27.67Zm14.39-48.35h-.26l-29.59.82a10.37,10.37,0,0,0-8.44,5.21,15.1,15.1,0,0,0-.84,14.1v0c7.27,16.91,16.05,26.2,24.73,26.2h.23c8.59-.16,16.9-9.55,23.41-26.44l.32-.71a15,15,0,0,0-1.12-14.34A10.19,10.19,0,0,0,132.08,195.33Z"/><path class="cls-4" d="M149.28,163.19a19.09,19.09,0,0,0-13.3,7.25,5.88,5.88,0,0,0-1,5.5c1.48,4.51,5.2,12.44,12.65,10.44,9.77-2.63,10.68-10.74,4.74-21.51A3.24,3.24,0,0,0,149.28,163.19Z"/><path class="cls-3" d="M136.16,181a27.58,27.58,0,0,1-2-4.78,6.8,6.8,0,0,1,1.11-6.38,20.05,20.05,0,0,1,14-7.6h0a4.2,4.2,0,0,1,4.05,2.17h0c3.76,6.81,4.76,12.37,3,16.53-1.31,3.09-4.11,5.22-8.31,6.35C143.22,188.56,139.08,186.29,136.16,181Zm13.21-16.88a18.21,18.21,0,0,0-12.65,6.9,4.91,4.91,0,0,0-.8,4.61c1.46,4.43,4.89,11.6,11.51,9.82,3.61-1,6-2.74,7.06-5.27,1.51-3.54.5-8.68-2.91-14.86h0a2.3,2.3,0,0,0-2.21-1.19Z"/><polygon class="cls-2" points="148.42 176.31 86.14 175.06 86.14 162.2 148.42 162.2 148.42 176.31"/><path class="cls-3" d="M148.42,177.44h0l-62.28-1.25a1.13,1.13,0,0,1-1.1-1.13V162.2a1.13,1.13,0,0,1,1.13-1.13h62.28a1.14,1.14,0,0,1,1.13,1.13v14.11a1.13,1.13,0,0,1-1.13,1.13ZM87.27,174l60,1.21V163.33h-60Z"/><path class="cls-4" d="M149.67,165.91H85.25l1.08-22.25A31.17,31.17,0,0,1,117.46,114h0a31.18,31.18,0,0,1,31.14,29.67Z"/><path class="cls-6" d="M147.82,145.44a8.21,8.21,0,0,0-3.26-.66c-3.76,0-6.81,2.41-6.81,5.39s3.05,5.39,6.81,5.39a8.21,8.21,0,0,0,3.26-.66Z"/><ellipse class="cls-6" cx="106.18" cy="150.17" rx="6.74" ry="5.39"/><path class="cls-7" d="M146.87,135.33c-.57-1.42-1.59-2.91-2.37-4.41H103.7a2.1,2.1,0,0,0-2.11,2.1v12a2.1,2.1,0,0,0,2.11,2.11h44.48a2.12,2.12,0,0,0,.62-.11v-6.25C148.2,139,147.58,137.12,146.87,135.33Z"/><path class="cls-3" d="M103.7,146.46a1.43,1.43,0,0,1-1.43-1.43V133a1.43,1.43,0,0,1,1.43-1.43h41.17c-.25-.45-.49-.9-.69-1.35H103.7a2.79,2.79,0,0,0-2.79,2.78v12a2.78,2.78,0,0,0,2.79,2.78h44.48a3.18,3.18,0,0,0,.62-.07v-1.43a1.45,1.45,0,0,1-.62.15Z"/><path class="cls-8" d="M134,135.74h-26.5a1.36,1.36,0,0,1-1.36-1.35h0a1.36,1.36,0,0,1,1.36-1.36H134a1.36,1.36,0,0,1,1.35,1.36h0A1.36,1.36,0,0,1,134,135.74Z"/><path class="cls-8" d="M140.26,134.39A1.36,1.36,0,1,1,138.9,133,1.36,1.36,0,0,1,140.26,134.39Z"/><path class="cls-3" d="M115.21,138.89a1.8,1.8,0,1,1-1.8-1.79A1.81,1.81,0,0,1,115.21,138.89Z"/><path class="cls-3" d="M139.78,138.89A1.8,1.8,0,1,1,138,137.1,1.8,1.8,0,0,1,139.78,138.89Z"/><path class="cls-3" d="M149.67,167.18H85.25A1.27,1.27,0,0,1,84,165.85l1.08-22.26a32.43,32.43,0,0,1,64.79,0l1.07,22.26a1.25,1.25,0,0,1-.34.94A1.27,1.27,0,0,1,149.67,167.18Zm-63.09-2.53h61.77l-1-20.93a29.91,29.91,0,0,0-59.75,0Z"/><path class="cls-4" d="M83.63,174.18a19.94,19.94,0,0,0,.22,2.43l5.8,36.19h12.13c0-4.59,6.81-8.31,15.21-8.31s15.21,3.72,15.21,8.31h13.28L150.2,176c.08-.59.12-1.18.15-1.78Z"/><path class="cls-3" d="M145.48,214.06H132.2a1.26,1.26,0,0,1-1.26-1.26c0-3.82-6.39-7.05-14-7.05s-14,3.23-14,7.05a1.25,1.25,0,0,1-1.25,1.26H89.65A1.25,1.25,0,0,1,88.42,213l-5.81-36.19a22.52,22.52,0,0,1-.24-2.58,1.26,1.26,0,0,1,1.26-1.3h66.72a1.26,1.26,0,0,1,.91.39,1.22,1.22,0,0,1,.34.92c0,.63-.07,1.25-.15,1.88L146.72,213A1.25,1.25,0,0,1,145.48,214.06Zm-12.16-2.51h11.05L149,175.8c0-.12,0-.24,0-.36H85c0,.34.07.66.12,1l5.63,35.14h9.94c1-4.75,7.83-8.31,16.33-8.31S132.29,206.8,133.32,211.55Z"/><rect class="cls-5" x="105.67" y="181.56" width="37.64" height="9.64"/><path class="cls-3" d="M143.3,192.46H105.67a1.25,1.25,0,0,1-1.26-1.26v-9.64a1.25,1.25,0,0,1,1.26-1.25H143.3a1.25,1.25,0,0,1,1.26,1.25v9.64A1.25,1.25,0,0,1,143.3,192.46ZM106.92,190h35.13v-7.14H106.92Z"/><rect class="cls-2" x="100.32" y="176.65" width="10.31" height="35.35" transform="translate(-100.48 113.9) rotate(-40.18)"/><path class="cls-3" d="M112.94,212.16a1,1,0,0,1-.76-.36l-22.81-27a1,1,0,0,1,.12-1.41l7.87-6.65a1,1,0,0,1,.73-.23,1,1,0,0,1,.68.35l22.81,27a1,1,0,0,1-.12,1.41l-7.88,6.65A1,1,0,0,1,112.94,212.16Zm-21.4-27.9,21.52,25.49,6.35-5.36L97.89,178.9Z"/><path class="cls-4" d="M84.5,173.79a19.14,19.14,0,0,1,14.58-4.14,5.87,5.87,0,0,1,4.53,3.25c2.1,4.26,5,12.53-1.72,16.32-8.8,5-15.14-.19-18.45-12A3.27,3.27,0,0,1,84.5,173.79Z"/><path class="cls-3" d="M106.35,177.32c1.61,5.82.25,10.33-4,12.72-3.79,2.14-7.29,2.57-10.39,1.29-4.17-1.73-7.35-6.4-9.44-13.89h0a4.18,4.18,0,0,1,1.37-4.37,20,20,0,0,1,15.29-4.35,6.81,6.81,0,0,1,5.27,3.77A27.81,27.81,0,0,1,106.35,177.32Zm-22-.39h0c1.9,6.8,4.78,11.17,8.33,12.65,2.54,1,5.48.65,8.74-1.19,6-3.36,3.4-10.88,1.33-15.07a4.89,4.89,0,0,0-3.8-2.73,18.15,18.15,0,0,0-13.86,3.94h0A2.29,2.29,0,0,0,84.36,176.93Z"/><path class="cls-4" d="M250.74,216H216.37l.39-91.77c12-4.9,23.13-3.74,34,.18Z"/><path class="cls-7" d="M250.74,216.82H216.37a.79.79,0,0,1-.78-.79l.38-91.76a.81.81,0,0,1,.49-.73c10.89-4.45,21.89-4.4,34.61.17a.79.79,0,0,1,.52.74L251.53,216A.79.79,0,0,1,250.74,216.82Zm-33.57-1.57H250L250,125c-11.92-4.18-22.26-4.24-32.47-.2Z"/><polygon class="cls-9" points="235.45 146.33 240.24 174.51 224.68 174.51 229.55 145.8 235.45 146.33"/><path class="cls-10" d="M240.71,174.91h-16.5l.08-.46,4.93-29.08,6.58.59,0,.31Zm-15.55-.79h14.61l-4.66-27.42-5.23-.47Z"/><polygon class="cls-9" points="239.54 139.71 232.5 151.12 226.17 139.71 232.5 135.76 239.54 139.71"/><path class="cls-10" d="M232.48,151.91l-6.85-12.33,6.86-4.28,7.6,4.27Zm-5.78-12.06,5.82,10.48L239,139.86l-6.47-3.63Z"/><path class="cls-2" d="M208.72,159.72v62l11.16-.43v-.95l28-1.15v2.25l8.36.21v9.94h14.91s0-76.68,0-76.68v-4.25c0-4-.24-8.3-1.79-12.06-3.71-9-14.86-16.52-24.46-16.59a.71.71,0,0,0-.52.14.72.72,0,0,0-.17.42c-2.22,13.23-6.36,26.35-9.68,39.39l-1.62,6.35q-1-3.63-1.94-7.26-2.82-10.6-5.65-21.2c-.29-1.11-4.19-18-4.54-18-8-.11-19.59,8.49-21.74,16.48,0,0-11.46,42.56-39.5,58.88V211.8S190.76,202.33,208.72,159.72Z"/><polygon class="cls-2" points="234.23 214.67 233.68 214.67 210.77 214.67 210.77 322.96 231.26 322.96 231.26 237.78 236.66 237.78 236.66 322.96 257.14 322.96 257.14 214.67 234.23 214.67"/><path class="cls-11" d="M198.16,322.41h31.36a1.12,1.12,0,0,1,1.12,1.12v7.87a1.12,1.12,0,0,1-1.12,1.12H190.66a1.12,1.12,0,0,1-1.12-1.12V331A8.63,8.63,0,0,1,198.16,322.41Z"/><path class="cls-7" d="M229.52,333.25H190.66a1.85,1.85,0,0,1-1.85-1.85V331a9.36,9.36,0,0,1,9.35-9.36h31.36a1.85,1.85,0,0,1,1.85,1.85v7.87A1.85,1.85,0,0,1,229.52,333.25Zm-31.36-10.11a7.91,7.91,0,0,0-7.9,7.9v.36a.39.39,0,0,0,.4.39h38.86a.38.38,0,0,0,.39-.39v-7.87a.38.38,0,0,0-.39-.39Z"/><path class="cls-11" d="M236.3,322.41h40.34a1.14,1.14,0,0,1,1.14,1.14v7.82a1.14,1.14,0,0,1-1.14,1.14h-32.7a8.79,8.79,0,0,1-8.79-8.79v-.18a1.14,1.14,0,0,1,1.14-1.14Z" transform="translate(512.94 654.93) rotate(180)"/><path class="cls-7" d="M276.64,333.25H236.3a1.87,1.87,0,0,1-1.87-1.87v-7.83a1.87,1.87,0,0,1,1.87-1.87H269a9.53,9.53,0,0,1,9.51,9.52v.18A1.87,1.87,0,0,1,276.64,333.25ZM236.3,323.14a.41.41,0,0,0-.42.41v7.83a.41.41,0,0,0,.42.41h40.34a.41.41,0,0,0,.42-.41v-.18a8.07,8.07,0,0,0-8.06-8.06Z"/><rect class="cls-12" x="221.53" y="106.53" width="21.27" height="29.07" rx="9.8" ry="9.8"/><path class="cls-7" d="M233,136.53h-1.67A10.74,10.74,0,0,1,220.6,125.8v-9.47a10.74,10.74,0,0,1,10.73-10.73H233a10.74,10.74,0,0,1,10.73,10.73v9.47A10.75,10.75,0,0,1,233,136.53Zm-1.67-29.07a8.88,8.88,0,0,0-8.87,8.87v9.47a8.88,8.88,0,0,0,8.87,8.87H233a8.88,8.88,0,0,0,8.87-8.87v-9.47a8.88,8.88,0,0,0-8.87-8.87Z"/><polygon class="cls-4" points="244.26 123.48 232.66 135.76 243.3 141.69 244.26 123.48"/><path class="cls-7" d="M243.3,142.48a.76.76,0,0,1-.39-.1l-10.63-5.93a.82.82,0,0,1-.4-.57.81.81,0,0,1,.21-.66l11.6-12.29a.79.79,0,0,1,1.36.59l-1,18.22a.76.76,0,0,1-.4.64A.75.75,0,0,1,243.3,142.48Zm-9.37-6.91,8.65,4.82.78-14.81Z"/><polygon class="cls-4" points="220.9 123.48 232.5 135.76 221.87 141.69 220.9 123.48"/><path class="cls-7" d="M221.87,142.48a.72.72,0,0,1-.38-.1.77.77,0,0,1-.41-.64l-1-18.22a.81.81,0,0,1,.48-.77.78.78,0,0,1,.88.18l11.6,12.29a.77.77,0,0,1,.21.66.8.8,0,0,1-.39.57l-10.64,5.93A.75.75,0,0,1,221.87,142.48Zm-.07-16.9.79,14.81,8.64-4.82Z"/><path class="cls-12" d="M207.57,102.22c.29,8.66,10.84,15.33,23.49,15.1h.45c12.57-.23,21.06-7.21,21.37-15.79L256,68.21c.35-9.7-10.52-17.72-24.36-17.69h-.49c-13.93,0-25,8.21-24.68,18Z"/><path class="cls-13" d="M226.5,50.85l.19,66.27c-10.61-1.16-18.86-7.26-19.12-14.9l-1.15-33.68C206.12,59.86,214.79,52.45,226.5,50.85Z"/><path class="cls-7" d="M207.12,102.22,206,68.54c-.17-4.83,2.35-9.45,7.12-13a30.74,30.74,0,0,1,18-5.49h.57c14.05,0,25.1,8.23,24.74,18.11l-3.1,33.32c-.15,4.29-2.73,8.31-7.23,11.34s-8.39,4.7-14.57,4.81H231C218.16,117.89,207.43,111.06,207.12,102.22ZM231.59,51h-.49a29.66,29.66,0,0,0-17.42,5.29c-4.55,3.33-7,7.71-6.8,12.29L208,102.21h0c.28,8.43,10.61,15,23,14.76h.52c6-.11,9.75-1.76,14-4.65s6.75-6.71,6.89-10.78l3.05-33.32C255.82,58.78,245.18,51,231.67,51Z"/><path class="cls-7" d="M230.43,118.15c-12.86,0-23.47-7.06-23.77-15.91l-1.18-33.68c-.17-5,2.42-9.76,7.31-13.36a31.24,31.24,0,0,1,18.31-5.57h.57c8.29,0,16,2.9,20.73,7.77a14.68,14.68,0,0,1,4.47,10.82l-3.09,33.35c-.16,4.4-2.8,8.55-7.44,11.68a24.92,24.92,0,0,1-14.83,4.89h-1.08Zm.59-.72,0,.25v-.25Zm0-.93.08.47v-.47h.44a23.1,23.1,0,0,0,13.79-4.57c4.18-2.81,6.55-6.51,6.69-10.4L255,68.17a13,13,0,0,0-4-9.56c-4.35-4.5-11.58-7.19-19.35-7.19h-.58A29.27,29.27,0,0,0,214,56.62c-4.4,3.24-6.75,7.47-6.6,11.9l1.13,33.68C208.75,110.28,218.83,116.69,231,116.5ZM208.11,61.7a13.09,13.09,0,0,0-1.7,6.83l.17,4.88-.16-4.86A13.12,13.12,0,0,1,208.11,61.7Z"/><path class="cls-6" d="M214.88,89.18c2.41,0,4.36,1.67,4.36,3.73s-2,3.74-4.36,3.74-4.35-1.67-4.35-3.74S212.48,89.18,214.88,89.18Z"/><path class="cls-6" d="M239,89.18c2.4,0,4.35,1.67,4.35,3.73s-2,3.74-4.35,3.74-4.36-1.67-4.36-3.74S236.6,89.18,239,89.18Z"/><path class="cls-7" d="M226.08,94.24a2.61,2.61,0,0,0,1.67-.58.46.46,0,0,0,.05-.64.45.45,0,0,0-.64,0,1.85,1.85,0,0,1-2,.13,1.74,1.74,0,0,1-.88-1.67,2.32,2.32,0,0,1,1.18-1.66,3.1,3.1,0,0,1,.95-.35l.37-.07V86a.46.46,0,0,0-.46-.45h0a.45.45,0,0,0-.45.45v2.59A4.14,4.14,0,0,0,225,89a3.18,3.18,0,0,0-1.62,2.35,2.67,2.67,0,0,0,1.33,2.55A2.84,2.84,0,0,0,226.08,94.24Z"/><path class="cls-7" d="M214.68,84.74h0a1.59,1.59,0,0,1-1.58-1.59V81.71a1.58,1.58,0,0,1,1.58-1.58h0a1.59,1.59,0,0,1,1.59,1.58v1.44A1.59,1.59,0,0,1,214.68,84.74Z"/><path class="cls-7" d="M235.76,84.74h0a1.59,1.59,0,0,1-1.59-1.59V81.71a1.59,1.59,0,0,1,1.59-1.58h0a1.58,1.58,0,0,1,1.58,1.58v1.44A1.59,1.59,0,0,1,235.76,84.74Z"/><path class="cls-7" d="M253.17,81.59a4.5,4.5,0,0,1,2.47,1.15,4,4,0,0,1,1.07,3,4.27,4.27,0,0,1-3,4.28,5.65,5.65,0,0,1-.92.12.85.85,0,0,0-.79.62,2.68,2.68,0,0,0-.07.8.45.45,0,0,0,0,.26c.21.34,1.3,0,1.6-.11a6.78,6.78,0,0,0,1.38-.46,5.71,5.71,0,0,0,2.51-2.14,6.31,6.31,0,0,0,.87-3.39,5.6,5.6,0,0,0-1.56-4.12,6.6,6.6,0,0,0-4.38-1.68h0c-.44,0-.84-.24-.84.2l0,.65a.83.83,0,0,0,.79.83Z"/><path class="cls-7" d="M252.33,92.38a.83.83,0,0,1-.77-.36,1,1,0,0,1-.13-.5,3.21,3.21,0,0,1,.1-1,1.28,1.28,0,0,1,1.2-.94,5.72,5.72,0,0,0,.85-.11,3.85,3.85,0,0,0,2.66-3.83,3.56,3.56,0,0,0-.93-2.62,4,4,0,0,0-2.2-1c-.14,0-.41,0-.81,0a1.31,1.31,0,0,1-1.24-1.28l0-.64a.72.72,0,0,1,.24-.59.85.85,0,0,1,.76-.12,1.5,1.5,0,0,0,.29,0,7.08,7.08,0,0,1,4.75,1.81,6.09,6.09,0,0,1,1.7,4.45,6.72,6.72,0,0,1-.95,3.64,6.21,6.21,0,0,1-2.7,2.32,8.56,8.56,0,0,1-1.48.49,1.15,1.15,0,0,0-.2,0A4.62,4.62,0,0,1,252.33,92.38ZM252.71,81l.54.09A4.93,4.93,0,0,1,256,82.41a4.48,4.48,0,0,1,1.2,3.27,4.69,4.69,0,0,1-3.39,4.74,6,6,0,0,1-1,.14.35.35,0,0,0-.37.29,1.88,1.88,0,0,0-.06.6,4.8,4.8,0,0,0,.85-.18l.24-.06a6.31,6.31,0,0,0,1.29-.43,5.23,5.23,0,0,0,2.3-2,5.78,5.78,0,0,0,.81-3.14,5.16,5.16,0,0,0-1.43-3.8,6,6,0,0,0-4-1.54,2.25,2.25,0,0,1-.4,0v.4a.39.39,0,0,0,.35.38h.37Z"/><path class="cls-12" d="M251.08,90.91s6.15,0,6.16-5.15-6.13-5.14-6.13-5.14Z"/><path class="cls-14" d="M252.67,88.85a3,3,0,0,0,2.9-3.09,2.8,2.8,0,0,0-2.88-3Z"/><path class="cls-15" d="M213.29,63c.05-.17.09-.35.13-.54,8.35,4,18,4.33,27.2,3.43,2.57-.25,5.64-1,6.48-3.43A44.15,44.15,0,0,0,254,78.67c.47.68,2.73,3.77,3.7,3.36.78-.34.49-3.59.52-4.28.25-6.27,1.94-13.43-1.58-19.14-2-3.14-5.2-5.2-8.56-6.56s-7.6-1.41-10.89-3.14-5.59-4.49-9.87-4c-1.51.18-2.89,1.71-4.35,1.06a60.58,60.58,0,0,0-7.9-3.28c-4.86-1.4-10.55-.63-13.31,4.1a9.84,9.84,0,0,0-1,7,8.34,8.34,0,0,0,1.33,3.1c.74,1,1.62,1.72,1.94,3a8.36,8.36,0,0,1,.17,2.06,101.83,101.83,0,0,0,.61,11c.19,1.78.43,3.57.72,5.34.17,1.09.13,3.42,1.1,4.1.43-2.05.22-4.32.67-6.44a21.89,21.89,0,0,1,2.26-6.12C210.8,67.58,212.6,65.49,213.29,63Z"/><path class="cls-7" d="M206.58,83.36a.88.88,0,0,1-.53-.17c-1.11-.77-1.27-2.51-1.4-3.9,0-.31-.05-.59-.09-.81-.29-1.77-.53-3.58-.73-5.39A103.67,103.67,0,0,1,203.22,62a7.4,7.4,0,0,0-.14-1.83,4.78,4.78,0,0,0-1.14-1.85c-.22-.26-.44-.52-.65-.81A9,9,0,0,1,199.81,54a10.75,10.75,0,0,1,1.13-7.66c3.19-5.48,9.74-5.86,14.37-4.52a44.1,44.1,0,0,1,6.17,2.47l1.84.85c.48.21,1,0,1.87-.43a6.32,6.32,0,0,1,2-.7c3.45-.42,5.71,1.08,7.89,2.52a28.39,28.39,0,0,0,2.53,1.55,21.34,21.34,0,0,0,5.72,1.72,29.39,29.39,0,0,1,5.08,1.38c4.17,1.68,7.19,4,9,6.93,2.94,4.78,2.47,10.31,2,15.66-.12,1.4-.23,2.71-.29,4,0,.13,0,.34,0,.61.07,2.25,0,4-1.09,4.49-1.47.63-3.44-1.66-4.83-3.68a45.24,45.24,0,0,1-6.54-14.48c-1.25,1.12-3.22,1.81-6,2.07-10.83,1.06-19.58.07-26.68-3.05a20,20,0,0,1-2.42,4.51c-.44.68-.9,1.38-1.29,2.08a20.6,20.6,0,0,0-2.16,5.86,21,21,0,0,0-.33,3.15,21.45,21.45,0,0,1-.33,3.28,1,1,0,0,1-.57.68A1,1,0,0,1,206.58,83.36ZM247.1,61.51h.06a.92.92,0,0,1,.85.74,43.6,43.6,0,0,0,6.73,15.89A14.24,14.24,0,0,0,257.21,81a17,17,0,0,0,.07-2.52c0-.32,0-.58,0-.73.05-1.34.17-2.74.29-4.09.44-5.05.89-10.27-1.73-14.52-1.6-2.57-4.33-4.66-8.12-6.19A27.17,27.17,0,0,0,243,51.63a23.35,23.35,0,0,1-6.21-1.89,29.3,29.3,0,0,1-2.68-1.65c-2.08-1.37-3.87-2.56-6.65-2.23a5.45,5.45,0,0,0-1.42.53,3.92,3.92,0,0,1-3.42.46c-.64-.28-1.26-.57-1.88-.86a40.72,40.72,0,0,0-5.89-2.37c-4-1.16-9.6-.89-12.25,3.67a8.89,8.89,0,0,0-.93,6.32,7.23,7.23,0,0,0,1.17,2.75c.19.25.38.49.58.72a6.35,6.35,0,0,1,1.51,2.58,9,9,0,0,1,.2,2.22,102.85,102.85,0,0,0,.6,11c.14,1.3.31,2.6.5,3.88,0-.32.1-.65.16-1a22.7,22.7,0,0,1,2.36-6.39c.42-.75.9-1.47,1.35-2.17a16.71,16.71,0,0,0,2.34-4.5h0c.05-.16.08-.32.12-.49a.94.94,0,0,1,1.31-.65c7,3.33,15.7,4.42,26.7,3.34,3.3-.32,5.16-1.23,5.7-2.8A.92.92,0,0,1,247.1,61.51Z"/><path class="cls-7" d="M240.85,77a.23.23,0,0,1-.17-.07,4.51,4.51,0,0,0-3.24-1.53,4.87,4.87,0,0,0-3.17,1.53.24.24,0,0,1-.33,0,.22.22,0,0,1,0-.32,5.29,5.29,0,0,1,3.5-1.69A4.85,4.85,0,0,1,241,76.59a.24.24,0,0,1,0,.33A.23.23,0,0,1,240.85,77Z"/><path class="cls-7" d="M212.6,77a.27.27,0,0,1-.15,0,.23.23,0,0,1,0-.33,5.29,5.29,0,0,1,3.5-1.69,4.85,4.85,0,0,1,3.59,1.68.24.24,0,0,1,0,.33.23.23,0,0,1-.33,0,4.44,4.44,0,0,0-3.25-1.53,4.83,4.83,0,0,0-3.16,1.53A.24.24,0,0,1,212.6,77Z"/><ellipse class="cls-12" cx="158.46" cy="204.87" rx="10.09" ry="9.72"/><path class="cls-16" d="M155.66,211.92a10.17,10.17,0,0,0,8.45-15.85A10.17,10.17,0,1,1,149.68,210,10.14,10.14,0,0,0,155.66,211.92Z"/><path class="cls-7" d="M147.56,204.87a10.91,10.91,0,1,1,10.9,10.54A10.74,10.74,0,0,1,147.56,204.87Zm1.63,0a9.28,9.28,0,1,0,9.27-8.91A9.11,9.11,0,0,0,149.19,204.87Z"/><path class="cls-7" d="M227.1,107.11a9.09,9.09,0,0,1-6.47-2.9.75.75,0,1,1,1.16-1c.18.22,4.58,5.28,11.33-.11a.75.75,0,0,1,.94,1.17A11.12,11.12,0,0,1,227.1,107.11Z"/><path class="cls-10" d="M275.5,239.28a1.16,1.16,0,0,1-1.16-1.16v-11h-24v11a1.17,1.17,0,0,1-2.33,0V226a1.16,1.16,0,0,1,1.16-1.16H275.5a1.16,1.16,0,0,1,1.16,1.16v12.17A1.16,1.16,0,0,1,275.5,239.28Z"/><rect class="cls-17" x="231.08" y="238.12" width="62.52" height="45.15" rx="3.39" ry="3.39"/><path class="cls-10" d="M290.21,284.2H234.47a4.33,4.33,0,0,1-4.32-4.32V241.5a4.32,4.32,0,0,1,4.32-4.31h55.74a4.32,4.32,0,0,1,4.32,4.31v38.38A4.33,4.33,0,0,1,290.21,284.2Zm-55.74-45.15A2.46,2.46,0,0,0,232,241.5v38.38a2.46,2.46,0,0,0,2.46,2.46h55.74a2.46,2.46,0,0,0,2.46-2.46V241.5a2.46,2.46,0,0,0-2.46-2.45Z"/><ellipse class="cls-12" cx="261.77" cy="224.99" rx="10.9" ry="9.72"/><path class="cls-16" d="M258.75,232c6.07,0,11-4.55,11-10.17a9.65,9.65,0,0,0-1.86-5.67,9.92,9.92,0,0,1,4.52,8.21c0,5.62-4.92,10.18-11,10.18a11.22,11.22,0,0,1-9.13-4.51A11.5,11.5,0,0,0,258.75,232Z"/><path class="cls-7" d="M250,225c0-5.81,5.28-10.53,11.78-10.53s11.78,4.72,11.78,10.53-5.29,10.53-11.78,10.53S250,230.8,250,225Zm1.76,0c0,4.91,4.49,8.91,10,8.91s10-4,10-8.91-4.5-8.91-10-8.91S251.75,220.08,251.75,225Z"/><path class="cls-4" d="M132.16,194.41c-13.93.19-23.71,5.23-23.63,11.28s10,10.84,23.9,10.65a49.62,49.62,0,0,0,15-2.36l-.22-17.6A50.09,50.09,0,0,0,132.16,194.41Z"/><path class="cls-3" d="M148.14,214.24a.73.73,0,0,1-.46.45,50.26,50.26,0,0,1-15.24,2.4c-6.75.09-13-1-17.45-3.05s-7.15-5.06-7.19-8.34c-.08-6.68,10.39-11.85,24.35-12h0a49.93,49.93,0,0,1,15.3,2,.72.72,0,0,1,.51.7l.22,17.6A.84.84,0,0,1,148.14,214.24ZM109.54,204a5.41,5.41,0,0,0-.29,1.73c0,2.67,2.28,5.15,6.33,7,4.31,2,10.3,3,16.84,2.92a49.74,49.74,0,0,0,14.3-2.16l-.2-16.5a49.63,49.63,0,0,0-14.35-1.78h0C120.58,195.31,111.28,199.05,109.54,204Z"/><path class="cls-2" d="M147.46,214c6.14-2.08,10.1-5.33,10.06-8.93s-4.09-6.75-10.28-8.67Z"/><path class="cls-3" d="M157.9,207.06c-1.08,3-4.66,5.75-10.22,7.63a.72.72,0,0,1-.65-.1.77.77,0,0,1-.3-.6l-.22-17.6a.79.79,0,0,1,.29-.61.72.72,0,0,1,.65-.11c6.81,2.1,10.74,5.52,10.79,9.37A5.87,5.87,0,0,1,157.9,207.06Zm-9.73,5.87c5.45-2,8.66-4.93,8.62-7.88s-3.31-5.76-8.81-7.64Z"/><path class="cls-5" d="M123.84,199c4.08-.06,7.42,2.79,7.46,6.35s-3.22,6.5-7.3,6.55-7.41-2.79-7.46-6.35S119.77,199.09,123.84,199Z"/><path class="cls-3" d="M131.66,207.62a8.1,8.1,0,0,1-7.65,5.07c-4.47.06-8.14-3.12-8.19-7.09a6.78,6.78,0,0,1,2.35-5.17,8.65,8.65,0,0,1,5.66-2.14h0a8.61,8.61,0,0,1,5.72,2,6.78,6.78,0,0,1,2.48,5.1A6.42,6.42,0,0,1,131.66,207.62Zm-14.11-3.77a5.1,5.1,0,0,0-.28,1.73c0,3.14,3.06,5.66,6.73,5.62s6.62-2.66,6.58-5.8a5.31,5.31,0,0,0-2-4,7.23,7.23,0,0,0-4.77-1.65h0a7.24,7.24,0,0,0-4.73,1.78A5.74,5.74,0,0,0,117.55,203.85Z"/><g id="_Group_" data-name="&lt;Group&gt;" class="cls-18"><g id="_Group_2" data-name="&lt;Group&gt;"><g id="_Group_3" data-name="&lt;Group&gt;"><path class="cls-19" d="M232.24,344.65H160.36c-.67,0-1.21-.79-1.21-1.76h0c0-1,.54-1.76,1.21-1.76h71.88c.67,0,1.21.79,1.21,1.76h0C233.45,343.86,232.91,344.65,232.24,344.65Z"/></g></g></g><g id="_Group_4" data-name="&lt;Group&gt;" class="cls-18"><g id="_Group_5" data-name="&lt;Group&gt;"><g id="_Group_6" data-name="&lt;Group&gt;"><path class="cls-19" d="M239,344.65h-1.78c-.67,0-1.21-.79-1.21-1.76h0c0-1,.54-1.76,1.21-1.76H239c.66,0,1.21.79,1.21,1.76h0C240.24,343.86,239.69,344.65,239,344.65Z"/></g></g></g><g id="_Group_7" data-name="&lt;Group&gt;" class="cls-18"><g id="_Group_8" data-name="&lt;Group&gt;"><g id="_Group_9" data-name="&lt;Group&gt;"><path class="cls-19" d="M280.07,355.5H210.12c-.71,0-1.29-.84-1.29-1.88h0c0-1,.58-1.88,1.29-1.88h69.95c.71,0,1.29.85,1.29,1.88h0C281.36,354.66,280.78,355.5,280.07,355.5Z"/></g></g></g><g id="_Group_10" data-name="&lt;Group&gt;" class="cls-18"><g id="_Group_11" data-name="&lt;Group&gt;"><g id="_Group_12" data-name="&lt;Group&gt;"><path class="cls-19" d="M282.62,350.24h-3.23c-.71,0-1.29-.85-1.29-1.88h0c0-1,.58-1.88,1.29-1.88h3.23c.71,0,1.29.85,1.29,1.88h0C283.91,349.39,283.33,350.24,282.62,350.24Z"/></g></g></g><ellipse class="cls-20" cx="117.46" cy="348.28" rx="26.46" ry="4.08"/></g></g></svg>